%TF.GenerationSoftware,KiCad,Pcbnew,(5.99.0-2358-g6d8fb94d8)*%
%TF.CreationDate,2020-07-21T23:14:41+08:00*%
%TF.ProjectId,TheFC,54686546-432e-46b6-9963-61645f706362,1.0*%
%TF.SameCoordinates,Original*%
%TF.FileFunction,Copper,L4,Bot*%
%TF.FilePolarity,Positive*%
%FSLAX46Y46*%
G04 Gerber Fmt 4.6, Leading zero omitted, Abs format (unit mm)*
G04 Created by KiCad (PCBNEW (5.99.0-2358-g6d8fb94d8)) date 2020-07-21 23:14:41*
%MOMM*%
%LPD*%
G01*
G04 APERTURE LIST*
%TA.AperFunction,SMDPad,CuDef*%
%ADD10R,3.800000X2.000000*%
%TD*%
%TA.AperFunction,SMDPad,CuDef*%
%ADD11R,1.500000X2.000000*%
%TD*%
%TA.AperFunction,ComponentPad*%
%ADD12C,3.200000*%
%TD*%
%TA.AperFunction,ViaPad*%
%ADD13C,0.800000*%
%TD*%
%TA.AperFunction,Conductor*%
%ADD14C,0.500000*%
%TD*%
%TA.AperFunction,Conductor*%
%ADD15C,0.250000*%
%TD*%
%TA.AperFunction,Conductor*%
%ADD16C,0.254000*%
%TD*%
G04 APERTURE END LIST*
%TO.P,J1,MP*%
%TO.N,N/C*%
%TA.AperFunction,SMDPad,CuDef*%
G36*
G01*
X118000000Y-63535999D02*
X118000000Y-61036001D01*
G75*
G02*
X118250001Y-60786000I250001J0D01*
G01*
X119849999Y-60786000D01*
G75*
G02*
X120100000Y-61036001I0J-250001D01*
G01*
X120100000Y-63535999D01*
G75*
G02*
X119849999Y-63786000I-250001J0D01*
G01*
X118250001Y-63786000D01*
G75*
G02*
X118000000Y-63535999I0J250001D01*
G01*
G37*
%TD.AperFunction*%
%TA.AperFunction,SMDPad,CuDef*%
G36*
G01*
X110400000Y-63535999D02*
X110400000Y-61036001D01*
G75*
G02*
X110650001Y-60786000I250001J0D01*
G01*
X112249999Y-60786000D01*
G75*
G02*
X112500000Y-61036001I0J-250001D01*
G01*
X112500000Y-63535999D01*
G75*
G02*
X112249999Y-63786000I-250001J0D01*
G01*
X110650001Y-63786000D01*
G75*
G02*
X110400000Y-63535999I0J250001D01*
G01*
G37*
%TD.AperFunction*%
%TO.P,J1,3,Pin_3*%
%TO.N,PPM*%
%TA.AperFunction,SMDPad,CuDef*%
G36*
G01*
X116100000Y-65786000D02*
X116100000Y-64586000D01*
G75*
G02*
X116300000Y-64386000I200000J0D01*
G01*
X116700000Y-64386000D01*
G75*
G02*
X116900000Y-64586000I0J-200000D01*
G01*
X116900000Y-65786000D01*
G75*
G02*
X116700000Y-65986000I-200000J0D01*
G01*
X116300000Y-65986000D01*
G75*
G02*
X116100000Y-65786000I0J200000D01*
G01*
G37*
%TD.AperFunction*%
%TO.P,J1,2,Pin_2*%
%TO.N,+5V*%
%TA.AperFunction,SMDPad,CuDef*%
G36*
G01*
X114850000Y-65786000D02*
X114850000Y-64586000D01*
G75*
G02*
X115050000Y-64386000I200000J0D01*
G01*
X115450000Y-64386000D01*
G75*
G02*
X115650000Y-64586000I0J-200000D01*
G01*
X115650000Y-65786000D01*
G75*
G02*
X115450000Y-65986000I-200000J0D01*
G01*
X115050000Y-65986000D01*
G75*
G02*
X114850000Y-65786000I0J200000D01*
G01*
G37*
%TD.AperFunction*%
%TO.P,J1,1,Pin_1*%
%TO.N,GND*%
%TA.AperFunction,SMDPad,CuDef*%
G36*
G01*
X113600000Y-65786000D02*
X113600000Y-64586000D01*
G75*
G02*
X113800000Y-64386000I200000J0D01*
G01*
X114200000Y-64386000D01*
G75*
G02*
X114400000Y-64586000I0J-200000D01*
G01*
X114400000Y-65786000D01*
G75*
G02*
X114200000Y-65986000I-200000J0D01*
G01*
X113800000Y-65986000D01*
G75*
G02*
X113600000Y-65786000I0J200000D01*
G01*
G37*
%TD.AperFunction*%
%TD*%
%TO.P,J2,MP*%
%TO.N,N/C*%
%TA.AperFunction,SMDPad,CuDef*%
G36*
G01*
X110361000Y-86428001D02*
X110361000Y-88927999D01*
G75*
G02*
X110110999Y-89178000I-250001J0D01*
G01*
X108511001Y-89178000D01*
G75*
G02*
X108261000Y-88927999I0J250001D01*
G01*
X108261000Y-86428001D01*
G75*
G02*
X108511001Y-86178000I250001J0D01*
G01*
X110110999Y-86178000D01*
G75*
G02*
X110361000Y-86428001I0J-250001D01*
G01*
G37*
%TD.AperFunction*%
%TA.AperFunction,SMDPad,CuDef*%
G36*
G01*
X121711000Y-86428001D02*
X121711000Y-88927999D01*
G75*
G02*
X121460999Y-89178000I-250001J0D01*
G01*
X119861001Y-89178000D01*
G75*
G02*
X119611000Y-88927999I0J250001D01*
G01*
X119611000Y-86428001D01*
G75*
G02*
X119861001Y-86178000I250001J0D01*
G01*
X121460999Y-86178000D01*
G75*
G02*
X121711000Y-86428001I0J-250001D01*
G01*
G37*
%TD.AperFunction*%
%TO.P,J2,6,Pin_6*%
%TO.N,S4*%
%TA.AperFunction,SMDPad,CuDef*%
G36*
G01*
X112261000Y-84178000D02*
X112261000Y-85378000D01*
G75*
G02*
X112061000Y-85578000I-200000J0D01*
G01*
X111661000Y-85578000D01*
G75*
G02*
X111461000Y-85378000I0J200000D01*
G01*
X111461000Y-84178000D01*
G75*
G02*
X111661000Y-83978000I200000J0D01*
G01*
X112061000Y-83978000D01*
G75*
G02*
X112261000Y-84178000I0J-200000D01*
G01*
G37*
%TD.AperFunction*%
%TO.P,J2,5,Pin_5*%
%TO.N,S3/MOSI*%
%TA.AperFunction,SMDPad,CuDef*%
G36*
G01*
X113511000Y-84178000D02*
X113511000Y-85378000D01*
G75*
G02*
X113311000Y-85578000I-200000J0D01*
G01*
X112911000Y-85578000D01*
G75*
G02*
X112711000Y-85378000I0J200000D01*
G01*
X112711000Y-84178000D01*
G75*
G02*
X112911000Y-83978000I200000J0D01*
G01*
X113311000Y-83978000D01*
G75*
G02*
X113511000Y-84178000I0J-200000D01*
G01*
G37*
%TD.AperFunction*%
%TO.P,J2,4,Pin_4*%
%TO.N,S2*%
%TA.AperFunction,SMDPad,CuDef*%
G36*
G01*
X114761000Y-84178000D02*
X114761000Y-85378000D01*
G75*
G02*
X114561000Y-85578000I-200000J0D01*
G01*
X114161000Y-85578000D01*
G75*
G02*
X113961000Y-85378000I0J200000D01*
G01*
X113961000Y-84178000D01*
G75*
G02*
X114161000Y-83978000I200000J0D01*
G01*
X114561000Y-83978000D01*
G75*
G02*
X114761000Y-84178000I0J-200000D01*
G01*
G37*
%TD.AperFunction*%
%TO.P,J2,3,Pin_3*%
%TO.N,S1*%
%TA.AperFunction,SMDPad,CuDef*%
G36*
G01*
X116011000Y-84178000D02*
X116011000Y-85378000D01*
G75*
G02*
X115811000Y-85578000I-200000J0D01*
G01*
X115411000Y-85578000D01*
G75*
G02*
X115211000Y-85378000I0J200000D01*
G01*
X115211000Y-84178000D01*
G75*
G02*
X115411000Y-83978000I200000J0D01*
G01*
X115811000Y-83978000D01*
G75*
G02*
X116011000Y-84178000I0J-200000D01*
G01*
G37*
%TD.AperFunction*%
%TO.P,J2,2,Pin_2*%
%TO.N,VCC*%
%TA.AperFunction,SMDPad,CuDef*%
G36*
G01*
X117261000Y-84178000D02*
X117261000Y-85378000D01*
G75*
G02*
X117061000Y-85578000I-200000J0D01*
G01*
X116661000Y-85578000D01*
G75*
G02*
X116461000Y-85378000I0J200000D01*
G01*
X116461000Y-84178000D01*
G75*
G02*
X116661000Y-83978000I200000J0D01*
G01*
X117061000Y-83978000D01*
G75*
G02*
X117261000Y-84178000I0J-200000D01*
G01*
G37*
%TD.AperFunction*%
%TO.P,J2,1,Pin_1*%
%TO.N,GND*%
%TA.AperFunction,SMDPad,CuDef*%
G36*
G01*
X118511000Y-84178000D02*
X118511000Y-85378000D01*
G75*
G02*
X118311000Y-85578000I-200000J0D01*
G01*
X117911000Y-85578000D01*
G75*
G02*
X117711000Y-85378000I0J200000D01*
G01*
X117711000Y-84178000D01*
G75*
G02*
X117911000Y-83978000I200000J0D01*
G01*
X118311000Y-83978000D01*
G75*
G02*
X118511000Y-84178000I0J-200000D01*
G01*
G37*
%TD.AperFunction*%
%TD*%
D10*
%TO.P,U2,2,VO*%
%TO.N,+3V3*%
X116524000Y-72750000D03*
D11*
X116524000Y-79050000D03*
%TO.P,U2,3,VI*%
%TO.N,Net-(C6-Pad1)*%
X114224000Y-79050000D03*
%TO.P,U2,1,GND*%
%TO.N,GND*%
X118824000Y-79050000D03*
%TD*%
D10*
%TO.P,U1,2,VO*%
%TO.N,+5V*%
X108876000Y-70404500D03*
D11*
X108876000Y-76704500D03*
%TO.P,U1,3,VI*%
%TO.N,Net-(C6-Pad1)*%
X106576000Y-76704500D03*
%TO.P,U1,1,GND*%
%TO.N,GND*%
X111176000Y-76704500D03*
%TD*%
%TO.P,R9,1*%
%TO.N,BAT*%
%TA.AperFunction,SMDPad,CuDef*%
G36*
G01*
X119814250Y-70851500D02*
X119301750Y-70851500D01*
G75*
G02*
X119083000Y-70632750I0J218750D01*
G01*
X119083000Y-70195250D01*
G75*
G02*
X119301750Y-69976500I218750J0D01*
G01*
X119814250Y-69976500D01*
G75*
G02*
X120033000Y-70195250I0J-218750D01*
G01*
X120033000Y-70632750D01*
G75*
G02*
X119814250Y-70851500I-218750J0D01*
G01*
G37*
%TD.AperFunction*%
%TO.P,R9,2*%
%TO.N,GND*%
%TA.AperFunction,SMDPad,CuDef*%
G36*
G01*
X119814250Y-69276500D02*
X119301750Y-69276500D01*
G75*
G02*
X119083000Y-69057750I0J218750D01*
G01*
X119083000Y-68620250D01*
G75*
G02*
X119301750Y-68401500I218750J0D01*
G01*
X119814250Y-68401500D01*
G75*
G02*
X120033000Y-68620250I0J-218750D01*
G01*
X120033000Y-69057750D01*
G75*
G02*
X119814250Y-69276500I-218750J0D01*
G01*
G37*
%TD.AperFunction*%
%TD*%
%TO.P,R8,1*%
%TO.N,VCC*%
%TA.AperFunction,SMDPad,CuDef*%
G36*
G01*
X117803250Y-68401500D02*
X118315750Y-68401500D01*
G75*
G02*
X118534500Y-68620250I0J-218750D01*
G01*
X118534500Y-69057750D01*
G75*
G02*
X118315750Y-69276500I-218750J0D01*
G01*
X117803250Y-69276500D01*
G75*
G02*
X117584500Y-69057750I0J218750D01*
G01*
X117584500Y-68620250D01*
G75*
G02*
X117803250Y-68401500I218750J0D01*
G01*
G37*
%TD.AperFunction*%
%TO.P,R8,2*%
%TO.N,BAT*%
%TA.AperFunction,SMDPad,CuDef*%
G36*
G01*
X117803250Y-69976500D02*
X118315750Y-69976500D01*
G75*
G02*
X118534500Y-70195250I0J-218750D01*
G01*
X118534500Y-70632750D01*
G75*
G02*
X118315750Y-70851500I-218750J0D01*
G01*
X117803250Y-70851500D01*
G75*
G02*
X117584500Y-70632750I0J218750D01*
G01*
X117584500Y-70195250D01*
G75*
G02*
X117803250Y-69976500I218750J0D01*
G01*
G37*
%TD.AperFunction*%
%TD*%
D12*
%TO.P,H4,1,1*%
%TO.N,GND*%
X105000000Y-85000000D03*
%TD*%
%TO.P,H3,1,1*%
%TO.N,GND*%
X125000000Y-85000000D03*
%TD*%
%TO.P,H2,1,1*%
%TO.N,GND*%
X125000000Y-65000000D03*
%TD*%
%TO.P,H1,1,1*%
%TO.N,GND*%
X105000000Y-65000000D03*
%TD*%
%TO.P,FB2,1*%
%TO.N,Net-(F1-Pad2)*%
%TA.AperFunction,SMDPad,CuDef*%
G36*
G01*
X114275750Y-68148500D02*
X115188250Y-68148500D01*
G75*
G02*
X115432000Y-68392250I0J-243750D01*
G01*
X115432000Y-68879750D01*
G75*
G02*
X115188250Y-69123500I-243750J0D01*
G01*
X114275750Y-69123500D01*
G75*
G02*
X114032000Y-68879750I0J243750D01*
G01*
X114032000Y-68392250D01*
G75*
G02*
X114275750Y-68148500I243750J0D01*
G01*
G37*
%TD.AperFunction*%
%TO.P,FB2,2*%
%TO.N,Net-(C6-Pad1)*%
%TA.AperFunction,SMDPad,CuDef*%
G36*
G01*
X114275750Y-70023500D02*
X115188250Y-70023500D01*
G75*
G02*
X115432000Y-70267250I0J-243750D01*
G01*
X115432000Y-70754750D01*
G75*
G02*
X115188250Y-70998500I-243750J0D01*
G01*
X114275750Y-70998500D01*
G75*
G02*
X114032000Y-70754750I0J243750D01*
G01*
X114032000Y-70267250D01*
G75*
G02*
X114275750Y-70023500I243750J0D01*
G01*
G37*
%TD.AperFunction*%
%TD*%
%TO.P,F1,1*%
%TO.N,VCC*%
%TA.AperFunction,SMDPad,CuDef*%
G36*
G01*
X116791750Y-70877000D02*
X116279250Y-70877000D01*
G75*
G02*
X116060500Y-70658250I0J218750D01*
G01*
X116060500Y-70220750D01*
G75*
G02*
X116279250Y-70002000I218750J0D01*
G01*
X116791750Y-70002000D01*
G75*
G02*
X117010500Y-70220750I0J-218750D01*
G01*
X117010500Y-70658250D01*
G75*
G02*
X116791750Y-70877000I-218750J0D01*
G01*
G37*
%TD.AperFunction*%
%TO.P,F1,2*%
%TO.N,Net-(F1-Pad2)*%
%TA.AperFunction,SMDPad,CuDef*%
G36*
G01*
X116791750Y-69302000D02*
X116279250Y-69302000D01*
G75*
G02*
X116060500Y-69083250I0J218750D01*
G01*
X116060500Y-68645750D01*
G75*
G02*
X116279250Y-68427000I218750J0D01*
G01*
X116791750Y-68427000D01*
G75*
G02*
X117010500Y-68645750I0J-218750D01*
G01*
X117010500Y-69083250D01*
G75*
G02*
X116791750Y-69302000I-218750J0D01*
G01*
G37*
%TD.AperFunction*%
%TD*%
%TO.P,C10,1*%
%TO.N,+3V3*%
%TA.AperFunction,SMDPad,CuDef*%
G36*
G01*
X116101000Y-81792250D02*
X116101000Y-80879750D01*
G75*
G02*
X116344750Y-80636000I243750J0D01*
G01*
X116832250Y-80636000D01*
G75*
G02*
X117076000Y-80879750I0J-243750D01*
G01*
X117076000Y-81792250D01*
G75*
G02*
X116832250Y-82036000I-243750J0D01*
G01*
X116344750Y-82036000D01*
G75*
G02*
X116101000Y-81792250I0J243750D01*
G01*
G37*
%TD.AperFunction*%
%TO.P,C10,2*%
%TO.N,GND*%
%TA.AperFunction,SMDPad,CuDef*%
G36*
G01*
X117976000Y-81792250D02*
X117976000Y-80879750D01*
G75*
G02*
X118219750Y-80636000I243750J0D01*
G01*
X118707250Y-80636000D01*
G75*
G02*
X118951000Y-80879750I0J-243750D01*
G01*
X118951000Y-81792250D01*
G75*
G02*
X118707250Y-82036000I-243750J0D01*
G01*
X118219750Y-82036000D01*
G75*
G02*
X117976000Y-81792250I0J243750D01*
G01*
G37*
%TD.AperFunction*%
%TD*%
%TO.P,C9,1*%
%TO.N,+5V*%
%TA.AperFunction,SMDPad,CuDef*%
G36*
G01*
X108467000Y-79598750D02*
X108467000Y-78686250D01*
G75*
G02*
X108710750Y-78442500I243750J0D01*
G01*
X109198250Y-78442500D01*
G75*
G02*
X109442000Y-78686250I0J-243750D01*
G01*
X109442000Y-79598750D01*
G75*
G02*
X109198250Y-79842500I-243750J0D01*
G01*
X108710750Y-79842500D01*
G75*
G02*
X108467000Y-79598750I0J243750D01*
G01*
G37*
%TD.AperFunction*%
%TO.P,C9,2*%
%TO.N,GND*%
%TA.AperFunction,SMDPad,CuDef*%
G36*
G01*
X110342000Y-79598750D02*
X110342000Y-78686250D01*
G75*
G02*
X110585750Y-78442500I243750J0D01*
G01*
X111073250Y-78442500D01*
G75*
G02*
X111317000Y-78686250I0J-243750D01*
G01*
X111317000Y-79598750D01*
G75*
G02*
X111073250Y-79842500I-243750J0D01*
G01*
X110585750Y-79842500D01*
G75*
G02*
X110342000Y-79598750I0J243750D01*
G01*
G37*
%TD.AperFunction*%
%TD*%
%TO.P,C7,1*%
%TO.N,Net-(C6-Pad1)*%
%TA.AperFunction,SMDPad,CuDef*%
G36*
G01*
X114633000Y-81133750D02*
X114633000Y-82046250D01*
G75*
G02*
X114389250Y-82290000I-243750J0D01*
G01*
X113901750Y-82290000D01*
G75*
G02*
X113658000Y-82046250I0J243750D01*
G01*
X113658000Y-81133750D01*
G75*
G02*
X113901750Y-80890000I243750J0D01*
G01*
X114389250Y-80890000D01*
G75*
G02*
X114633000Y-81133750I0J-243750D01*
G01*
G37*
%TD.AperFunction*%
%TO.P,C7,2*%
%TO.N,GND*%
%TA.AperFunction,SMDPad,CuDef*%
G36*
G01*
X112758000Y-81133750D02*
X112758000Y-82046250D01*
G75*
G02*
X112514250Y-82290000I-243750J0D01*
G01*
X112026750Y-82290000D01*
G75*
G02*
X111783000Y-82046250I0J243750D01*
G01*
X111783000Y-81133750D01*
G75*
G02*
X112026750Y-80890000I243750J0D01*
G01*
X112514250Y-80890000D01*
G75*
G02*
X112758000Y-81133750I0J-243750D01*
G01*
G37*
%TD.AperFunction*%
%TD*%
%TO.P,C6,1*%
%TO.N,Net-(C6-Pad1)*%
%TA.AperFunction,SMDPad,CuDef*%
G36*
G01*
X106133750Y-78401000D02*
X107046250Y-78401000D01*
G75*
G02*
X107290000Y-78644750I0J-243750D01*
G01*
X107290000Y-79132250D01*
G75*
G02*
X107046250Y-79376000I-243750J0D01*
G01*
X106133750Y-79376000D01*
G75*
G02*
X105890000Y-79132250I0J243750D01*
G01*
X105890000Y-78644750D01*
G75*
G02*
X106133750Y-78401000I243750J0D01*
G01*
G37*
%TD.AperFunction*%
%TO.P,C6,2*%
%TO.N,GND*%
%TA.AperFunction,SMDPad,CuDef*%
G36*
G01*
X106133750Y-80276000D02*
X107046250Y-80276000D01*
G75*
G02*
X107290000Y-80519750I0J-243750D01*
G01*
X107290000Y-81007250D01*
G75*
G02*
X107046250Y-81251000I-243750J0D01*
G01*
X106133750Y-81251000D01*
G75*
G02*
X105890000Y-81007250I0J243750D01*
G01*
X105890000Y-80519750D01*
G75*
G02*
X106133750Y-80276000I243750J0D01*
G01*
G37*
%TD.AperFunction*%
%TD*%
D13*
%TO.N,GND*%
X117780000Y-76243250D03*
X117780000Y-75240000D03*
X120066000Y-83622000D03*
X120066000Y-82606000D03*
%TO.N,+3V3*%
X123698200Y-72496800D03*
%TO.N,GND*%
X123672800Y-77018000D03*
X121844000Y-69144000D03*
%TO.N,RESET*%
X121894800Y-67569200D03*
%TO.N,GND*%
X123693000Y-68433000D03*
X125471000Y-68433000D03*
%TO.N,+3V3*%
X128026890Y-72522200D03*
%TO.N,GND*%
X128052290Y-77018000D03*
X126995000Y-68433000D03*
X128519000Y-68433000D03*
%TO.N,+5V*%
X117780000Y-77526000D03*
%TO.N,+3V3*%
X119050000Y-72954000D03*
X120066000Y-72954000D03*
%TO.N,S1*%
X116764000Y-83114000D03*
%TO.N,S2*%
X115748000Y-83114000D03*
%TO.N,+5V*%
X111938000Y-67874000D03*
%TO.N,GND*%
X107874000Y-82098000D03*
%TO.N,S4*%
X110160000Y-68636000D03*
%TO.N,RX*%
X113208000Y-70668000D03*
%TO.N,TX*%
X111938000Y-70668000D03*
X114478000Y-66604000D03*
%TO.N,RX*%
X115494000Y-66604000D03*
%TO.N,BAT*%
X120066000Y-71684000D03*
%TO.N,PPM*%
X116510000Y-63556000D03*
%TO.N,GND*%
X113970000Y-63556000D03*
%TO.N,+5V*%
X115240000Y-63556000D03*
%TO.N,S3/MOSI*%
X116256000Y-87178000D03*
%TO.N,GND*%
X112446000Y-79050000D03*
%TO.N,+3V3*%
X127558290Y-81133000D03*
X126034290Y-81133000D03*
%TO.N,GND*%
X112700000Y-83114000D03*
X119558000Y-67620000D03*
%TO.N,RESET*%
X115240000Y-88956000D03*
%TO.N,+5V*%
X118288000Y-83114000D03*
%TO.N,GND*%
X118542000Y-65334000D03*
X111176000Y-83114000D03*
%TO.N,+5V*%
X108814500Y-74131500D03*
%TO.N,GND*%
X124510290Y-81164500D03*
%TO.N,+5V*%
X108814500Y-75046500D03*
%TO.N,GND*%
X107391500Y-74030500D03*
X107391500Y-75046500D03*
X112642625Y-77137250D03*
X112642625Y-75613250D03*
X121590000Y-74224000D03*
X101347990Y-70655250D03*
X101347990Y-81831250D03*
X121508625Y-81577250D03*
%TD*%
D14*
%TO.N,VCC*%
X118636000Y-66769999D02*
X118059500Y-67346499D01*
X118059500Y-67346499D02*
X118059500Y-68839000D01*
X120993999Y-67797997D02*
X119966001Y-66769999D01*
X120993999Y-73302000D02*
X120993999Y-67797997D01*
X119966001Y-66769999D02*
X118636000Y-66769999D01*
X120574000Y-73721999D02*
X120993999Y-73302000D01*
X120574000Y-81855998D02*
X120574000Y-73721999D01*
X120916001Y-82197999D02*
X120574000Y-81855998D01*
X120916001Y-84030001D02*
X120916001Y-82197999D01*
X120160209Y-84472001D02*
X120474001Y-84472001D01*
X117391030Y-86028010D02*
X118604200Y-86028010D01*
X120474001Y-84472001D02*
X120916001Y-84030001D01*
X118604200Y-86028010D02*
X120160209Y-84472001D01*
X116861000Y-85497980D02*
X117391030Y-86028010D01*
D15*
%TO.N,RESET*%
X116489397Y-88956000D02*
X115240000Y-88956000D01*
X120398386Y-85047011D02*
X116489397Y-88956000D01*
X120712177Y-85047011D02*
X120398386Y-85047011D01*
X121590000Y-82568877D02*
X121590000Y-84169188D01*
X122569001Y-81589876D02*
X121590000Y-82568877D01*
X121590000Y-84169188D02*
X120712177Y-85047011D01*
X122569001Y-68243401D02*
X122569001Y-81589876D01*
X121894800Y-67569200D02*
X122569001Y-68243401D01*
D14*
%TO.N,GND*%
X117780000Y-76243250D02*
X117780000Y-75240000D01*
X117780000Y-76243250D02*
X118824000Y-77114625D01*
X118824000Y-77114625D02*
X118824000Y-79050000D01*
X120066000Y-82606000D02*
X120066000Y-83622000D01*
X118463500Y-81336000D02*
X118796000Y-81336000D01*
X118796000Y-81336000D02*
X120066000Y-82606000D01*
X118111000Y-84778000D02*
X118148000Y-84778000D01*
X118148000Y-84778000D02*
X119304000Y-83622000D01*
X119304000Y-83622000D02*
X120066000Y-83622000D01*
D15*
%TO.N,TX*%
X112192000Y-70668000D02*
X112192000Y-70217002D01*
X112192000Y-70217002D02*
X112757990Y-69651012D01*
X112757990Y-69651012D02*
X112757990Y-68324010D01*
X112757990Y-68324010D02*
X114478000Y-66604000D01*
%TO.N,RX*%
X115494000Y-66604000D02*
X115494000Y-67112000D01*
X115494000Y-67112000D02*
X115276999Y-67329001D01*
D14*
%TO.N,GND*%
X112270500Y-81590000D02*
X112270500Y-82019500D01*
X112270500Y-82019500D02*
X111176000Y-83114000D01*
X112270500Y-81590000D02*
X112270500Y-82684500D01*
X112270500Y-82684500D02*
X112700000Y-83114000D01*
%TO.N,+3V3*%
X119050000Y-72954000D02*
X120066000Y-72954000D01*
X116524000Y-72750000D02*
X118846000Y-72750000D01*
X118846000Y-72750000D02*
X119050000Y-72954000D01*
D15*
%TO.N,S2*%
X114361000Y-84450527D02*
X115697527Y-83114000D01*
X115697527Y-83114000D02*
X115748000Y-83114000D01*
%TO.N,RX*%
X113208000Y-70668000D02*
X113208000Y-68510410D01*
X114389409Y-67329001D02*
X115276999Y-67329001D01*
X113208000Y-68510410D02*
X114389409Y-67329001D01*
%TO.N,TX*%
X114478000Y-66604000D02*
X114732000Y-66604000D01*
%TO.N,S3/MOSI*%
X113111000Y-85303000D02*
X114986000Y-87178000D01*
X114986000Y-87178000D02*
X116256000Y-87178000D01*
%TO.N,BAT*%
X119558000Y-70414000D02*
X119558000Y-71176000D01*
X119558000Y-71176000D02*
X120066000Y-71684000D01*
D14*
%TO.N,GND*%
X106590000Y-80814000D02*
X107874000Y-82098000D01*
X107391500Y-74030500D02*
X107391500Y-75046500D01*
%TO.N,Net-(F1-Pad2)*%
X116535500Y-68864500D02*
X114960500Y-68864500D01*
D15*
%TO.N,S1*%
X115611000Y-84324002D02*
X116764000Y-83171002D01*
X116764000Y-83171002D02*
X116764000Y-83114000D01*
D14*
%TO.N,GND*%
X112778500Y-83035500D02*
X112700000Y-83114000D01*
%TO.N,Net-(C6-Pad1)*%
X114173990Y-78999990D02*
X114173990Y-71069010D01*
X114173990Y-71069010D02*
X114732000Y-70511000D01*
D15*
%TO.N,S4*%
X110160000Y-68636000D02*
X107108088Y-68636000D01*
X105334000Y-70410088D02*
X105334000Y-81185830D01*
X107108088Y-68636000D02*
X105334000Y-70410088D01*
X105334000Y-81185830D02*
X108926170Y-84778000D01*
X108926170Y-84778000D02*
X111861000Y-84778000D01*
D14*
%TO.N,Net-(C6-Pad1)*%
X106590000Y-78888500D02*
X107994010Y-80292510D01*
X107994010Y-80292510D02*
X113356010Y-80292510D01*
X113356010Y-80292510D02*
X114224000Y-81160500D01*
D15*
%TO.N,PPM*%
X116500000Y-65186000D02*
X116500000Y-63566000D01*
D14*
X116500000Y-63566000D02*
X116510000Y-63556000D01*
%TO.N,GND*%
X114000000Y-65186000D02*
X114000000Y-63586000D01*
X114000000Y-63586000D02*
X113970000Y-63556000D01*
%TO.N,+5V*%
X115250000Y-65186000D02*
X115250000Y-63566000D01*
X115250000Y-63566000D02*
X115240000Y-63556000D01*
%TO.N,GND*%
X110829500Y-79142500D02*
X112353500Y-79142500D01*
X112353500Y-79142500D02*
X112446000Y-79050000D01*
X118463500Y-81336000D02*
X118463500Y-79410500D01*
X111551375Y-76704500D02*
X112642625Y-75613250D01*
X119558000Y-68839000D02*
X119558000Y-67620000D01*
%TO.N,+3V3*%
X116524000Y-79050000D02*
X116524000Y-81271500D01*
%TO.N,Net-(C6-Pad1)*%
X114224000Y-79050000D02*
X114224000Y-81160500D01*
%TO.N,GND*%
X111176000Y-76704500D02*
X112209875Y-76704500D01*
X112209875Y-76704500D02*
X112642625Y-77137250D01*
%TO.N,+5V*%
X108814500Y-74131500D02*
X108814500Y-75046500D01*
X108876000Y-70404500D02*
X108876000Y-74070000D01*
X108876000Y-74070000D02*
X108814500Y-74131500D01*
X108876000Y-76704500D02*
X108876000Y-75108000D01*
X108876000Y-75108000D02*
X108814500Y-75046500D01*
%TO.N,+3V3*%
X116524000Y-79050000D02*
X116524000Y-72750000D01*
%TO.N,GND*%
X112563125Y-75533750D02*
X112642625Y-75613250D01*
X111176000Y-76704500D02*
X111176000Y-78796000D01*
%TO.N,Net-(C6-Pad1)*%
X106576000Y-76704500D02*
X106576000Y-78874500D01*
%TO.N,+5V*%
X108876000Y-76704500D02*
X108876000Y-79064000D01*
%TO.N,VCC*%
X116535500Y-70363000D02*
X118059500Y-68839000D01*
%TO.N,BAT*%
X118059500Y-70414000D02*
X119558000Y-70414000D01*
%TD*%
%TO.N,GND*%
D16*
X124950584Y-60636838D02*
X124959863Y-60638001D01*
X124970987Y-60638565D01*
X124971369Y-60638583D01*
X125387589Y-60657119D01*
X125772119Y-60708768D01*
X126150516Y-60794391D01*
X126519830Y-60913319D01*
X126877084Y-61064598D01*
X127219492Y-61247043D01*
X127544328Y-61459203D01*
X127849013Y-61699399D01*
X128131131Y-61965719D01*
X128388471Y-62256077D01*
X128618968Y-62568146D01*
X128820821Y-62899485D01*
X128992416Y-63247445D01*
X129132408Y-63609303D01*
X129239671Y-63982137D01*
X129313369Y-64363060D01*
X129353425Y-64754014D01*
X129361170Y-65022887D01*
X129362065Y-65031807D01*
X129366000Y-65054588D01*
X129366001Y-84936507D01*
X129363163Y-84950582D01*
X129361999Y-84959862D01*
X129361435Y-84970986D01*
X129361417Y-84971368D01*
X129342881Y-85387589D01*
X129291232Y-85772118D01*
X129205609Y-86150516D01*
X129086681Y-86519830D01*
X128935402Y-86877084D01*
X128752957Y-87219492D01*
X128540797Y-87544328D01*
X128300610Y-87849002D01*
X128034280Y-88131132D01*
X127743923Y-88388471D01*
X127431854Y-88618968D01*
X127100515Y-88820821D01*
X126752555Y-88992416D01*
X126390707Y-89132405D01*
X126017849Y-89239673D01*
X125636940Y-89313369D01*
X125245986Y-89353425D01*
X124977113Y-89361170D01*
X124968193Y-89362065D01*
X124945412Y-89366000D01*
X122237617Y-89366000D01*
X122319116Y-89187541D01*
X122324194Y-89170248D01*
X122349582Y-88993670D01*
X122350224Y-88984693D01*
X122350224Y-86612320D01*
X123568699Y-86612320D01*
X123577814Y-86728135D01*
X123806604Y-86894363D01*
X123813873Y-86898922D01*
X124074740Y-87038798D01*
X124082560Y-87042329D01*
X124359998Y-87145507D01*
X124368224Y-87147944D01*
X124657098Y-87212514D01*
X124665579Y-87213812D01*
X124960543Y-87238581D01*
X124969122Y-87238716D01*
X125264718Y-87223225D01*
X125273236Y-87222194D01*
X125563996Y-87166728D01*
X125572295Y-87164551D01*
X125852836Y-87070138D01*
X125860762Y-87066855D01*
X126125896Y-86935242D01*
X126133303Y-86930913D01*
X126423477Y-86733712D01*
X126434637Y-86615656D01*
X125052191Y-85233210D01*
X124947809Y-85233210D01*
X123568699Y-86612320D01*
X122350224Y-86612320D01*
X122350224Y-86387622D01*
X122348780Y-86374192D01*
X122282907Y-86071377D01*
X122274277Y-86050543D01*
X122144255Y-85848224D01*
X122132452Y-85834603D01*
X121952408Y-85678593D01*
X121937246Y-85668849D01*
X121720541Y-85569884D01*
X121703248Y-85564806D01*
X121526670Y-85539418D01*
X121517693Y-85538776D01*
X121296628Y-85538776D01*
X121328584Y-85506820D01*
X121328587Y-85506816D01*
X121710805Y-85124598D01*
X122764541Y-85124598D01*
X122765035Y-85133164D01*
X122802133Y-85426832D01*
X122803785Y-85435252D01*
X122880397Y-85721168D01*
X122883176Y-85729285D01*
X122997881Y-86002159D01*
X123001736Y-86009824D01*
X123152413Y-86264606D01*
X123157273Y-86271677D01*
X123276974Y-86422701D01*
X123389776Y-86429205D01*
X124766790Y-85052191D01*
X124766790Y-84947809D01*
X125233210Y-84947809D01*
X125233210Y-85052191D01*
X126610388Y-86429369D01*
X126720911Y-86424736D01*
X126801873Y-86328930D01*
X126806953Y-86322015D01*
X126965559Y-86072093D01*
X126969653Y-86064553D01*
X127092873Y-85795417D01*
X127095905Y-85787391D01*
X127181459Y-85504022D01*
X127183375Y-85495659D01*
X127229731Y-85202974D01*
X127230505Y-85193766D01*
X127234073Y-84852988D01*
X127233493Y-84843766D01*
X127193276Y-84550176D01*
X127191536Y-84541774D01*
X127111936Y-84256675D01*
X127109072Y-84248588D01*
X126991515Y-83976930D01*
X126987580Y-83969306D01*
X126834243Y-83716116D01*
X126829309Y-83709096D01*
X126722158Y-83576777D01*
X126610114Y-83570905D01*
X125233210Y-84947809D01*
X124766790Y-84947809D01*
X123389831Y-83570850D01*
X123278547Y-83576098D01*
X123184309Y-83690011D01*
X123179302Y-83696979D01*
X123023323Y-83948549D01*
X123019308Y-83956131D01*
X122898912Y-84226543D01*
X122895964Y-84234601D01*
X122813382Y-84518850D01*
X122811554Y-84527233D01*
X122768313Y-84820059D01*
X122767640Y-84828613D01*
X122764541Y-85124598D01*
X121710805Y-85124598D01*
X122163444Y-84671960D01*
X122206236Y-84629168D01*
X122217894Y-84613122D01*
X122240865Y-84568039D01*
X122270605Y-84527105D01*
X122279610Y-84509434D01*
X122295245Y-84461315D01*
X122318218Y-84416227D01*
X122324346Y-84397365D01*
X122332263Y-84347383D01*
X122347897Y-84299268D01*
X122350999Y-84279679D01*
X122350999Y-84224379D01*
X122351000Y-84224367D01*
X122351000Y-83385626D01*
X123566645Y-83385626D01*
X124947809Y-84766790D01*
X125052191Y-84766790D01*
X126432243Y-83386738D01*
X126422455Y-83270174D01*
X126173493Y-83093244D01*
X126166177Y-83088761D01*
X125903859Y-82951625D01*
X125896003Y-82948176D01*
X125617500Y-82847909D01*
X125609248Y-82845558D01*
X125319715Y-82784016D01*
X125311220Y-82782807D01*
X125016013Y-82761128D01*
X125007433Y-82761083D01*
X124712015Y-82779669D01*
X124703508Y-82780789D01*
X124413346Y-82839297D01*
X124405070Y-82841561D01*
X124125533Y-82938905D01*
X124117641Y-82942272D01*
X123853901Y-83076654D01*
X123846539Y-83081060D01*
X123577115Y-83268315D01*
X123566645Y-83385626D01*
X122351000Y-83385626D01*
X122351000Y-82884092D01*
X123145607Y-82089487D01*
X123145620Y-82089472D01*
X123185237Y-82049856D01*
X123196895Y-82033810D01*
X123219867Y-81988726D01*
X123249607Y-81947792D01*
X123258611Y-81930122D01*
X123274246Y-81882003D01*
X123297219Y-81836915D01*
X123303347Y-81818053D01*
X123311264Y-81768071D01*
X123326898Y-81719956D01*
X123330000Y-81700367D01*
X123330000Y-81645067D01*
X123330001Y-81645055D01*
X123330001Y-81004938D01*
X124998290Y-81004938D01*
X124998290Y-81261062D01*
X125000446Y-81277438D01*
X125066736Y-81524835D01*
X125073057Y-81540095D01*
X125201119Y-81761905D01*
X125211174Y-81775009D01*
X125392281Y-81956116D01*
X125405385Y-81966171D01*
X125627195Y-82094233D01*
X125642455Y-82100554D01*
X125889852Y-82166844D01*
X125906228Y-82169000D01*
X126162352Y-82169000D01*
X126178728Y-82166844D01*
X126426125Y-82100554D01*
X126441385Y-82094233D01*
X126663195Y-81966171D01*
X126676299Y-81956116D01*
X126796290Y-81836125D01*
X126916281Y-81956116D01*
X126929385Y-81966171D01*
X127151195Y-82094233D01*
X127166455Y-82100554D01*
X127413852Y-82166844D01*
X127430228Y-82169000D01*
X127686352Y-82169000D01*
X127702728Y-82166844D01*
X127950125Y-82100554D01*
X127965385Y-82094233D01*
X128187195Y-81966171D01*
X128200299Y-81956116D01*
X128381406Y-81775009D01*
X128391461Y-81761905D01*
X128519523Y-81540095D01*
X128525844Y-81524835D01*
X128592134Y-81277438D01*
X128594290Y-81261062D01*
X128594290Y-81004938D01*
X128592134Y-80988562D01*
X128525844Y-80741165D01*
X128519523Y-80725905D01*
X128391461Y-80504095D01*
X128381406Y-80490991D01*
X128200299Y-80309884D01*
X128187195Y-80299829D01*
X127965385Y-80171767D01*
X127950125Y-80165446D01*
X127702728Y-80099156D01*
X127686352Y-80097000D01*
X127430228Y-80097000D01*
X127413852Y-80099156D01*
X127166455Y-80165446D01*
X127151195Y-80171767D01*
X126929385Y-80299829D01*
X126916281Y-80309884D01*
X126796290Y-80429875D01*
X126676299Y-80309884D01*
X126663195Y-80299829D01*
X126441385Y-80171767D01*
X126426125Y-80165446D01*
X126178728Y-80099156D01*
X126162352Y-80097000D01*
X125906228Y-80097000D01*
X125889852Y-80099156D01*
X125642455Y-80165446D01*
X125627195Y-80171767D01*
X125405385Y-80299829D01*
X125392281Y-80309884D01*
X125211174Y-80490991D01*
X125201119Y-80504095D01*
X125073057Y-80725905D01*
X125066736Y-80741165D01*
X125000446Y-80988562D01*
X124998290Y-81004938D01*
X123330001Y-81004938D01*
X123330001Y-76105191D01*
X124288888Y-76105191D01*
X124362697Y-76179000D01*
X127159479Y-76179000D01*
X127233288Y-76105191D01*
X127233290Y-73460809D01*
X127159481Y-73387000D01*
X124362699Y-73387000D01*
X124288890Y-73460809D01*
X124288888Y-76105191D01*
X123330001Y-76105191D01*
X123330001Y-73470687D01*
X123553762Y-73530644D01*
X123570138Y-73532800D01*
X123826262Y-73532800D01*
X123842638Y-73530644D01*
X124090035Y-73464354D01*
X124105295Y-73458033D01*
X124327105Y-73329971D01*
X124340209Y-73319916D01*
X124521316Y-73138809D01*
X124531371Y-73125705D01*
X124659433Y-72903895D01*
X124665754Y-72888635D01*
X124732044Y-72641238D01*
X124734200Y-72624862D01*
X124734200Y-72394138D01*
X126990890Y-72394138D01*
X126990890Y-72650262D01*
X126993046Y-72666638D01*
X127059336Y-72914035D01*
X127065657Y-72929295D01*
X127193719Y-73151105D01*
X127203774Y-73164209D01*
X127384881Y-73345316D01*
X127397985Y-73355371D01*
X127619795Y-73483433D01*
X127635055Y-73489754D01*
X127882452Y-73556044D01*
X127898828Y-73558200D01*
X128154952Y-73558200D01*
X128171328Y-73556044D01*
X128418725Y-73489754D01*
X128433985Y-73483433D01*
X128655795Y-73355371D01*
X128668899Y-73345316D01*
X128850006Y-73164209D01*
X128860061Y-73151105D01*
X128988123Y-72929295D01*
X128994444Y-72914035D01*
X129060734Y-72666638D01*
X129062890Y-72650262D01*
X129062890Y-72394138D01*
X129060734Y-72377762D01*
X128994444Y-72130365D01*
X128988123Y-72115105D01*
X128860061Y-71893295D01*
X128850006Y-71880191D01*
X128668899Y-71699084D01*
X128655795Y-71689029D01*
X128433985Y-71560967D01*
X128418725Y-71554646D01*
X128171328Y-71488356D01*
X128154952Y-71486200D01*
X127898828Y-71486200D01*
X127882452Y-71488356D01*
X127635055Y-71554646D01*
X127619795Y-71560967D01*
X127397985Y-71689029D01*
X127384881Y-71699084D01*
X127203774Y-71880191D01*
X127193719Y-71893295D01*
X127065657Y-72115105D01*
X127059336Y-72130365D01*
X126993046Y-72377762D01*
X126990890Y-72394138D01*
X124734200Y-72394138D01*
X124734200Y-72368738D01*
X124732044Y-72352362D01*
X124665754Y-72104965D01*
X124659433Y-72089705D01*
X124531371Y-71867895D01*
X124521316Y-71854791D01*
X124340209Y-71673684D01*
X124327105Y-71663629D01*
X124105295Y-71535567D01*
X124090035Y-71529246D01*
X123842638Y-71462956D01*
X123826262Y-71460800D01*
X123570138Y-71460800D01*
X123553762Y-71462956D01*
X123330001Y-71522913D01*
X123330001Y-68188222D01*
X123330000Y-68188210D01*
X123330000Y-68132910D01*
X123326898Y-68113321D01*
X123311264Y-68065206D01*
X123303347Y-68015224D01*
X123297219Y-67996362D01*
X123274246Y-67951274D01*
X123258611Y-67903155D01*
X123249606Y-67885484D01*
X123219866Y-67844550D01*
X123196895Y-67799467D01*
X123185237Y-67783421D01*
X122930800Y-67528985D01*
X122930800Y-67441138D01*
X122928644Y-67424762D01*
X122862354Y-67177365D01*
X122856033Y-67162105D01*
X122727971Y-66940295D01*
X122717916Y-66927191D01*
X122536809Y-66746084D01*
X122523705Y-66736029D01*
X122309435Y-66612320D01*
X123568699Y-66612320D01*
X123577814Y-66728135D01*
X123806604Y-66894363D01*
X123813873Y-66898922D01*
X124074740Y-67038798D01*
X124082560Y-67042329D01*
X124359998Y-67145507D01*
X124368224Y-67147944D01*
X124657098Y-67212514D01*
X124665579Y-67213812D01*
X124960543Y-67238581D01*
X124969122Y-67238716D01*
X125264718Y-67223225D01*
X125273236Y-67222194D01*
X125563996Y-67166728D01*
X125572295Y-67164551D01*
X125852836Y-67070138D01*
X125860762Y-67066855D01*
X126125896Y-66935242D01*
X126133303Y-66930913D01*
X126423477Y-66733712D01*
X126434637Y-66615656D01*
X125052191Y-65233210D01*
X124947809Y-65233210D01*
X123568699Y-66612320D01*
X122309435Y-66612320D01*
X122301895Y-66607967D01*
X122286635Y-66601646D01*
X122039238Y-66535356D01*
X122022862Y-66533200D01*
X121766738Y-66533200D01*
X121750362Y-66535356D01*
X121502965Y-66601646D01*
X121487705Y-66607967D01*
X121265895Y-66736029D01*
X121252791Y-66746084D01*
X121223935Y-66774940D01*
X120662690Y-66213696D01*
X120652494Y-66197536D01*
X120640858Y-66183864D01*
X120572384Y-66123391D01*
X120550741Y-66101747D01*
X120543968Y-66095875D01*
X120525881Y-66082319D01*
X120464228Y-66027870D01*
X120449223Y-66018014D01*
X120424740Y-66006520D01*
X120403105Y-65990305D01*
X120387358Y-65981683D01*
X120310365Y-65952820D01*
X120235737Y-65917782D01*
X120218182Y-65912474D01*
X120192505Y-65908636D01*
X120166702Y-65898963D01*
X120149168Y-65895108D01*
X120055322Y-65888134D01*
X120032292Y-65884692D01*
X120022967Y-65883999D01*
X119999682Y-65883999D01*
X119914165Y-65877643D01*
X119896253Y-65878864D01*
X119872198Y-65883999D01*
X118735258Y-65883999D01*
X118716630Y-65879784D01*
X118698735Y-65878344D01*
X118607587Y-65883999D01*
X118576947Y-65883999D01*
X118568005Y-65884636D01*
X118545606Y-65887844D01*
X118463536Y-65892936D01*
X118445956Y-65896576D01*
X118420524Y-65905757D01*
X118393752Y-65909591D01*
X118376521Y-65914630D01*
X118301642Y-65948675D01*
X118224122Y-65976660D01*
X118207955Y-65985320D01*
X118187094Y-66000757D01*
X118162002Y-66012165D01*
X118146877Y-66021838D01*
X118075574Y-66083277D01*
X118056869Y-66097117D01*
X118049785Y-66103221D01*
X118033334Y-66119673D01*
X117968355Y-66175662D01*
X117956554Y-66189191D01*
X117943175Y-66209831D01*
X117503197Y-66649810D01*
X117487037Y-66660006D01*
X117473365Y-66671642D01*
X117412886Y-66740121D01*
X117391248Y-66761759D01*
X117385376Y-66768532D01*
X117371817Y-66786623D01*
X117317371Y-66848273D01*
X117307515Y-66863277D01*
X117296020Y-66887760D01*
X117279805Y-66909396D01*
X117271184Y-66925143D01*
X117242319Y-67002140D01*
X117207283Y-67076765D01*
X117201974Y-67094321D01*
X117198138Y-67119992D01*
X117188464Y-67145797D01*
X117184609Y-67163332D01*
X117177635Y-67257178D01*
X117174193Y-67280209D01*
X117173500Y-67289534D01*
X117173500Y-67312818D01*
X117167144Y-67398335D01*
X117168365Y-67416246D01*
X117173500Y-67440302D01*
X117173500Y-67877683D01*
X117042628Y-67817916D01*
X117025335Y-67812838D01*
X116855490Y-67788418D01*
X116846513Y-67787776D01*
X116240038Y-67787776D01*
X116226608Y-67789220D01*
X115935554Y-67852535D01*
X115914720Y-67861165D01*
X115901045Y-67869953D01*
X115866748Y-67816587D01*
X115866228Y-67815987D01*
X115893406Y-67788810D01*
X115893411Y-67788803D01*
X115953802Y-67728412D01*
X115953809Y-67728407D01*
X116110236Y-67571980D01*
X116121894Y-67555934D01*
X116144867Y-67510847D01*
X116174606Y-67469916D01*
X116183611Y-67452244D01*
X116199245Y-67404126D01*
X116222218Y-67359039D01*
X116228347Y-67340177D01*
X116229363Y-67333761D01*
X116317116Y-67246009D01*
X116327171Y-67232905D01*
X116455233Y-67011095D01*
X116461554Y-66995835D01*
X116527844Y-66748438D01*
X116530000Y-66732062D01*
X116530000Y-66625224D01*
X116738507Y-66625224D01*
X116751937Y-66623780D01*
X117035938Y-66562000D01*
X117056772Y-66553370D01*
X117246871Y-66431201D01*
X117260492Y-66419398D01*
X117406989Y-66250332D01*
X117416733Y-66235170D01*
X117509664Y-66031678D01*
X117514742Y-66014385D01*
X117538582Y-65848575D01*
X117539224Y-65839598D01*
X117539224Y-65124598D01*
X122764541Y-65124598D01*
X122765035Y-65133164D01*
X122802133Y-65426832D01*
X122803785Y-65435252D01*
X122880397Y-65721168D01*
X122883176Y-65729285D01*
X122997881Y-66002159D01*
X123001736Y-66009824D01*
X123152413Y-66264606D01*
X123157273Y-66271677D01*
X123276974Y-66422701D01*
X123389776Y-66429205D01*
X124766790Y-65052191D01*
X124766790Y-64947809D01*
X125233210Y-64947809D01*
X125233210Y-65052191D01*
X126610388Y-66429369D01*
X126720911Y-66424736D01*
X126801873Y-66328930D01*
X126806953Y-66322015D01*
X126965559Y-66072093D01*
X126969653Y-66064553D01*
X127092873Y-65795417D01*
X127095905Y-65787391D01*
X127181459Y-65504022D01*
X127183375Y-65495659D01*
X127229731Y-65202974D01*
X127230505Y-65193766D01*
X127234073Y-64852988D01*
X127233493Y-64843766D01*
X127193276Y-64550176D01*
X127191536Y-64541774D01*
X127111936Y-64256675D01*
X127109072Y-64248588D01*
X126991515Y-63976930D01*
X126987580Y-63969306D01*
X126834243Y-63716116D01*
X126829309Y-63709096D01*
X126722158Y-63576777D01*
X126610114Y-63570905D01*
X125233210Y-64947809D01*
X124766790Y-64947809D01*
X123389831Y-63570850D01*
X123278547Y-63576098D01*
X123184309Y-63690011D01*
X123179302Y-63696979D01*
X123023323Y-63948549D01*
X123019308Y-63956131D01*
X122898912Y-64226543D01*
X122895964Y-64234601D01*
X122813382Y-64518850D01*
X122811554Y-64527233D01*
X122768313Y-64820059D01*
X122767640Y-64828613D01*
X122764541Y-65124598D01*
X117539224Y-65124598D01*
X117539224Y-64547493D01*
X117537780Y-64534063D01*
X117476000Y-64250062D01*
X117467370Y-64229228D01*
X117388466Y-64106451D01*
X117469998Y-63965234D01*
X117566745Y-64115776D01*
X117578548Y-64129397D01*
X117758592Y-64285407D01*
X117773754Y-64295151D01*
X117990459Y-64394116D01*
X118007752Y-64399194D01*
X118184330Y-64424582D01*
X118193307Y-64425224D01*
X119890378Y-64425224D01*
X119903808Y-64423780D01*
X120206623Y-64357907D01*
X120227457Y-64349277D01*
X120429776Y-64219255D01*
X120443397Y-64207452D01*
X120599407Y-64027408D01*
X120609151Y-64012246D01*
X120708116Y-63795541D01*
X120713194Y-63778248D01*
X120738582Y-63601670D01*
X120739224Y-63592693D01*
X120739224Y-63385626D01*
X123566645Y-63385626D01*
X124947809Y-64766790D01*
X125052191Y-64766790D01*
X126432243Y-63386738D01*
X126422455Y-63270174D01*
X126173493Y-63093244D01*
X126166177Y-63088761D01*
X125903859Y-62951625D01*
X125896003Y-62948176D01*
X125617500Y-62847909D01*
X125609248Y-62845558D01*
X125319715Y-62784016D01*
X125311220Y-62782807D01*
X125016013Y-62761128D01*
X125007433Y-62761083D01*
X124712015Y-62779669D01*
X124703508Y-62780789D01*
X124413346Y-62839297D01*
X124405070Y-62841561D01*
X124125533Y-62938905D01*
X124117641Y-62942272D01*
X123853901Y-63076654D01*
X123846539Y-63081060D01*
X123577115Y-63268315D01*
X123566645Y-63385626D01*
X120739224Y-63385626D01*
X120739224Y-60995622D01*
X120737780Y-60982192D01*
X120671907Y-60679377D01*
X120663277Y-60658543D01*
X120647504Y-60634000D01*
X124936511Y-60634000D01*
X124950584Y-60636838D01*
%TA.AperFunction,Conductor*%
G36*
X124950584Y-60636838D02*
G01*
X124959863Y-60638001D01*
X124970987Y-60638565D01*
X124971369Y-60638583D01*
X125387589Y-60657119D01*
X125772119Y-60708768D01*
X126150516Y-60794391D01*
X126519830Y-60913319D01*
X126877084Y-61064598D01*
X127219492Y-61247043D01*
X127544328Y-61459203D01*
X127849013Y-61699399D01*
X128131131Y-61965719D01*
X128388471Y-62256077D01*
X128618968Y-62568146D01*
X128820821Y-62899485D01*
X128992416Y-63247445D01*
X129132408Y-63609303D01*
X129239671Y-63982137D01*
X129313369Y-64363060D01*
X129353425Y-64754014D01*
X129361170Y-65022887D01*
X129362065Y-65031807D01*
X129366000Y-65054588D01*
X129366001Y-84936507D01*
X129363163Y-84950582D01*
X129361999Y-84959862D01*
X129361435Y-84970986D01*
X129361417Y-84971368D01*
X129342881Y-85387589D01*
X129291232Y-85772118D01*
X129205609Y-86150516D01*
X129086681Y-86519830D01*
X128935402Y-86877084D01*
X128752957Y-87219492D01*
X128540797Y-87544328D01*
X128300610Y-87849002D01*
X128034280Y-88131132D01*
X127743923Y-88388471D01*
X127431854Y-88618968D01*
X127100515Y-88820821D01*
X126752555Y-88992416D01*
X126390707Y-89132405D01*
X126017849Y-89239673D01*
X125636940Y-89313369D01*
X125245986Y-89353425D01*
X124977113Y-89361170D01*
X124968193Y-89362065D01*
X124945412Y-89366000D01*
X122237617Y-89366000D01*
X122319116Y-89187541D01*
X122324194Y-89170248D01*
X122349582Y-88993670D01*
X122350224Y-88984693D01*
X122350224Y-86612320D01*
X123568699Y-86612320D01*
X123577814Y-86728135D01*
X123806604Y-86894363D01*
X123813873Y-86898922D01*
X124074740Y-87038798D01*
X124082560Y-87042329D01*
X124359998Y-87145507D01*
X124368224Y-87147944D01*
X124657098Y-87212514D01*
X124665579Y-87213812D01*
X124960543Y-87238581D01*
X124969122Y-87238716D01*
X125264718Y-87223225D01*
X125273236Y-87222194D01*
X125563996Y-87166728D01*
X125572295Y-87164551D01*
X125852836Y-87070138D01*
X125860762Y-87066855D01*
X126125896Y-86935242D01*
X126133303Y-86930913D01*
X126423477Y-86733712D01*
X126434637Y-86615656D01*
X125052191Y-85233210D01*
X124947809Y-85233210D01*
X123568699Y-86612320D01*
X122350224Y-86612320D01*
X122350224Y-86387622D01*
X122348780Y-86374192D01*
X122282907Y-86071377D01*
X122274277Y-86050543D01*
X122144255Y-85848224D01*
X122132452Y-85834603D01*
X121952408Y-85678593D01*
X121937246Y-85668849D01*
X121720541Y-85569884D01*
X121703248Y-85564806D01*
X121526670Y-85539418D01*
X121517693Y-85538776D01*
X121296628Y-85538776D01*
X121328584Y-85506820D01*
X121328587Y-85506816D01*
X121710805Y-85124598D01*
X122764541Y-85124598D01*
X122765035Y-85133164D01*
X122802133Y-85426832D01*
X122803785Y-85435252D01*
X122880397Y-85721168D01*
X122883176Y-85729285D01*
X122997881Y-86002159D01*
X123001736Y-86009824D01*
X123152413Y-86264606D01*
X123157273Y-86271677D01*
X123276974Y-86422701D01*
X123389776Y-86429205D01*
X124766790Y-85052191D01*
X124766790Y-84947809D01*
X125233210Y-84947809D01*
X125233210Y-85052191D01*
X126610388Y-86429369D01*
X126720911Y-86424736D01*
X126801873Y-86328930D01*
X126806953Y-86322015D01*
X126965559Y-86072093D01*
X126969653Y-86064553D01*
X127092873Y-85795417D01*
X127095905Y-85787391D01*
X127181459Y-85504022D01*
X127183375Y-85495659D01*
X127229731Y-85202974D01*
X127230505Y-85193766D01*
X127234073Y-84852988D01*
X127233493Y-84843766D01*
X127193276Y-84550176D01*
X127191536Y-84541774D01*
X127111936Y-84256675D01*
X127109072Y-84248588D01*
X126991515Y-83976930D01*
X126987580Y-83969306D01*
X126834243Y-83716116D01*
X126829309Y-83709096D01*
X126722158Y-83576777D01*
X126610114Y-83570905D01*
X125233210Y-84947809D01*
X124766790Y-84947809D01*
X123389831Y-83570850D01*
X123278547Y-83576098D01*
X123184309Y-83690011D01*
X123179302Y-83696979D01*
X123023323Y-83948549D01*
X123019308Y-83956131D01*
X122898912Y-84226543D01*
X122895964Y-84234601D01*
X122813382Y-84518850D01*
X122811554Y-84527233D01*
X122768313Y-84820059D01*
X122767640Y-84828613D01*
X122764541Y-85124598D01*
X121710805Y-85124598D01*
X122163444Y-84671960D01*
X122206236Y-84629168D01*
X122217894Y-84613122D01*
X122240865Y-84568039D01*
X122270605Y-84527105D01*
X122279610Y-84509434D01*
X122295245Y-84461315D01*
X122318218Y-84416227D01*
X122324346Y-84397365D01*
X122332263Y-84347383D01*
X122347897Y-84299268D01*
X122350999Y-84279679D01*
X122350999Y-84224379D01*
X122351000Y-84224367D01*
X122351000Y-83385626D01*
X123566645Y-83385626D01*
X124947809Y-84766790D01*
X125052191Y-84766790D01*
X126432243Y-83386738D01*
X126422455Y-83270174D01*
X126173493Y-83093244D01*
X126166177Y-83088761D01*
X125903859Y-82951625D01*
X125896003Y-82948176D01*
X125617500Y-82847909D01*
X125609248Y-82845558D01*
X125319715Y-82784016D01*
X125311220Y-82782807D01*
X125016013Y-82761128D01*
X125007433Y-82761083D01*
X124712015Y-82779669D01*
X124703508Y-82780789D01*
X124413346Y-82839297D01*
X124405070Y-82841561D01*
X124125533Y-82938905D01*
X124117641Y-82942272D01*
X123853901Y-83076654D01*
X123846539Y-83081060D01*
X123577115Y-83268315D01*
X123566645Y-83385626D01*
X122351000Y-83385626D01*
X122351000Y-82884092D01*
X123145607Y-82089487D01*
X123145620Y-82089472D01*
X123185237Y-82049856D01*
X123196895Y-82033810D01*
X123219867Y-81988726D01*
X123249607Y-81947792D01*
X123258611Y-81930122D01*
X123274246Y-81882003D01*
X123297219Y-81836915D01*
X123303347Y-81818053D01*
X123311264Y-81768071D01*
X123326898Y-81719956D01*
X123330000Y-81700367D01*
X123330000Y-81645067D01*
X123330001Y-81645055D01*
X123330001Y-81004938D01*
X124998290Y-81004938D01*
X124998290Y-81261062D01*
X125000446Y-81277438D01*
X125066736Y-81524835D01*
X125073057Y-81540095D01*
X125201119Y-81761905D01*
X125211174Y-81775009D01*
X125392281Y-81956116D01*
X125405385Y-81966171D01*
X125627195Y-82094233D01*
X125642455Y-82100554D01*
X125889852Y-82166844D01*
X125906228Y-82169000D01*
X126162352Y-82169000D01*
X126178728Y-82166844D01*
X126426125Y-82100554D01*
X126441385Y-82094233D01*
X126663195Y-81966171D01*
X126676299Y-81956116D01*
X126796290Y-81836125D01*
X126916281Y-81956116D01*
X126929385Y-81966171D01*
X127151195Y-82094233D01*
X127166455Y-82100554D01*
X127413852Y-82166844D01*
X127430228Y-82169000D01*
X127686352Y-82169000D01*
X127702728Y-82166844D01*
X127950125Y-82100554D01*
X127965385Y-82094233D01*
X128187195Y-81966171D01*
X128200299Y-81956116D01*
X128381406Y-81775009D01*
X128391461Y-81761905D01*
X128519523Y-81540095D01*
X128525844Y-81524835D01*
X128592134Y-81277438D01*
X128594290Y-81261062D01*
X128594290Y-81004938D01*
X128592134Y-80988562D01*
X128525844Y-80741165D01*
X128519523Y-80725905D01*
X128391461Y-80504095D01*
X128381406Y-80490991D01*
X128200299Y-80309884D01*
X128187195Y-80299829D01*
X127965385Y-80171767D01*
X127950125Y-80165446D01*
X127702728Y-80099156D01*
X127686352Y-80097000D01*
X127430228Y-80097000D01*
X127413852Y-80099156D01*
X127166455Y-80165446D01*
X127151195Y-80171767D01*
X126929385Y-80299829D01*
X126916281Y-80309884D01*
X126796290Y-80429875D01*
X126676299Y-80309884D01*
X126663195Y-80299829D01*
X126441385Y-80171767D01*
X126426125Y-80165446D01*
X126178728Y-80099156D01*
X126162352Y-80097000D01*
X125906228Y-80097000D01*
X125889852Y-80099156D01*
X125642455Y-80165446D01*
X125627195Y-80171767D01*
X125405385Y-80299829D01*
X125392281Y-80309884D01*
X125211174Y-80490991D01*
X125201119Y-80504095D01*
X125073057Y-80725905D01*
X125066736Y-80741165D01*
X125000446Y-80988562D01*
X124998290Y-81004938D01*
X123330001Y-81004938D01*
X123330001Y-76105191D01*
X124288888Y-76105191D01*
X124362697Y-76179000D01*
X127159479Y-76179000D01*
X127233288Y-76105191D01*
X127233290Y-73460809D01*
X127159481Y-73387000D01*
X124362699Y-73387000D01*
X124288890Y-73460809D01*
X124288888Y-76105191D01*
X123330001Y-76105191D01*
X123330001Y-73470687D01*
X123553762Y-73530644D01*
X123570138Y-73532800D01*
X123826262Y-73532800D01*
X123842638Y-73530644D01*
X124090035Y-73464354D01*
X124105295Y-73458033D01*
X124327105Y-73329971D01*
X124340209Y-73319916D01*
X124521316Y-73138809D01*
X124531371Y-73125705D01*
X124659433Y-72903895D01*
X124665754Y-72888635D01*
X124732044Y-72641238D01*
X124734200Y-72624862D01*
X124734200Y-72394138D01*
X126990890Y-72394138D01*
X126990890Y-72650262D01*
X126993046Y-72666638D01*
X127059336Y-72914035D01*
X127065657Y-72929295D01*
X127193719Y-73151105D01*
X127203774Y-73164209D01*
X127384881Y-73345316D01*
X127397985Y-73355371D01*
X127619795Y-73483433D01*
X127635055Y-73489754D01*
X127882452Y-73556044D01*
X127898828Y-73558200D01*
X128154952Y-73558200D01*
X128171328Y-73556044D01*
X128418725Y-73489754D01*
X128433985Y-73483433D01*
X128655795Y-73355371D01*
X128668899Y-73345316D01*
X128850006Y-73164209D01*
X128860061Y-73151105D01*
X128988123Y-72929295D01*
X128994444Y-72914035D01*
X129060734Y-72666638D01*
X129062890Y-72650262D01*
X129062890Y-72394138D01*
X129060734Y-72377762D01*
X128994444Y-72130365D01*
X128988123Y-72115105D01*
X128860061Y-71893295D01*
X128850006Y-71880191D01*
X128668899Y-71699084D01*
X128655795Y-71689029D01*
X128433985Y-71560967D01*
X128418725Y-71554646D01*
X128171328Y-71488356D01*
X128154952Y-71486200D01*
X127898828Y-71486200D01*
X127882452Y-71488356D01*
X127635055Y-71554646D01*
X127619795Y-71560967D01*
X127397985Y-71689029D01*
X127384881Y-71699084D01*
X127203774Y-71880191D01*
X127193719Y-71893295D01*
X127065657Y-72115105D01*
X127059336Y-72130365D01*
X126993046Y-72377762D01*
X126990890Y-72394138D01*
X124734200Y-72394138D01*
X124734200Y-72368738D01*
X124732044Y-72352362D01*
X124665754Y-72104965D01*
X124659433Y-72089705D01*
X124531371Y-71867895D01*
X124521316Y-71854791D01*
X124340209Y-71673684D01*
X124327105Y-71663629D01*
X124105295Y-71535567D01*
X124090035Y-71529246D01*
X123842638Y-71462956D01*
X123826262Y-71460800D01*
X123570138Y-71460800D01*
X123553762Y-71462956D01*
X123330001Y-71522913D01*
X123330001Y-68188222D01*
X123330000Y-68188210D01*
X123330000Y-68132910D01*
X123326898Y-68113321D01*
X123311264Y-68065206D01*
X123303347Y-68015224D01*
X123297219Y-67996362D01*
X123274246Y-67951274D01*
X123258611Y-67903155D01*
X123249606Y-67885484D01*
X123219866Y-67844550D01*
X123196895Y-67799467D01*
X123185237Y-67783421D01*
X122930800Y-67528985D01*
X122930800Y-67441138D01*
X122928644Y-67424762D01*
X122862354Y-67177365D01*
X122856033Y-67162105D01*
X122727971Y-66940295D01*
X122717916Y-66927191D01*
X122536809Y-66746084D01*
X122523705Y-66736029D01*
X122309435Y-66612320D01*
X123568699Y-66612320D01*
X123577814Y-66728135D01*
X123806604Y-66894363D01*
X123813873Y-66898922D01*
X124074740Y-67038798D01*
X124082560Y-67042329D01*
X124359998Y-67145507D01*
X124368224Y-67147944D01*
X124657098Y-67212514D01*
X124665579Y-67213812D01*
X124960543Y-67238581D01*
X124969122Y-67238716D01*
X125264718Y-67223225D01*
X125273236Y-67222194D01*
X125563996Y-67166728D01*
X125572295Y-67164551D01*
X125852836Y-67070138D01*
X125860762Y-67066855D01*
X126125896Y-66935242D01*
X126133303Y-66930913D01*
X126423477Y-66733712D01*
X126434637Y-66615656D01*
X125052191Y-65233210D01*
X124947809Y-65233210D01*
X123568699Y-66612320D01*
X122309435Y-66612320D01*
X122301895Y-66607967D01*
X122286635Y-66601646D01*
X122039238Y-66535356D01*
X122022862Y-66533200D01*
X121766738Y-66533200D01*
X121750362Y-66535356D01*
X121502965Y-66601646D01*
X121487705Y-66607967D01*
X121265895Y-66736029D01*
X121252791Y-66746084D01*
X121223935Y-66774940D01*
X120662690Y-66213696D01*
X120652494Y-66197536D01*
X120640858Y-66183864D01*
X120572384Y-66123391D01*
X120550741Y-66101747D01*
X120543968Y-66095875D01*
X120525881Y-66082319D01*
X120464228Y-66027870D01*
X120449223Y-66018014D01*
X120424740Y-66006520D01*
X120403105Y-65990305D01*
X120387358Y-65981683D01*
X120310365Y-65952820D01*
X120235737Y-65917782D01*
X120218182Y-65912474D01*
X120192505Y-65908636D01*
X120166702Y-65898963D01*
X120149168Y-65895108D01*
X120055322Y-65888134D01*
X120032292Y-65884692D01*
X120022967Y-65883999D01*
X119999682Y-65883999D01*
X119914165Y-65877643D01*
X119896253Y-65878864D01*
X119872198Y-65883999D01*
X118735258Y-65883999D01*
X118716630Y-65879784D01*
X118698735Y-65878344D01*
X118607587Y-65883999D01*
X118576947Y-65883999D01*
X118568005Y-65884636D01*
X118545606Y-65887844D01*
X118463536Y-65892936D01*
X118445956Y-65896576D01*
X118420524Y-65905757D01*
X118393752Y-65909591D01*
X118376521Y-65914630D01*
X118301642Y-65948675D01*
X118224122Y-65976660D01*
X118207955Y-65985320D01*
X118187094Y-66000757D01*
X118162002Y-66012165D01*
X118146877Y-66021838D01*
X118075574Y-66083277D01*
X118056869Y-66097117D01*
X118049785Y-66103221D01*
X118033334Y-66119673D01*
X117968355Y-66175662D01*
X117956554Y-66189191D01*
X117943175Y-66209831D01*
X117503197Y-66649810D01*
X117487037Y-66660006D01*
X117473365Y-66671642D01*
X117412886Y-66740121D01*
X117391248Y-66761759D01*
X117385376Y-66768532D01*
X117371817Y-66786623D01*
X117317371Y-66848273D01*
X117307515Y-66863277D01*
X117296020Y-66887760D01*
X117279805Y-66909396D01*
X117271184Y-66925143D01*
X117242319Y-67002140D01*
X117207283Y-67076765D01*
X117201974Y-67094321D01*
X117198138Y-67119992D01*
X117188464Y-67145797D01*
X117184609Y-67163332D01*
X117177635Y-67257178D01*
X117174193Y-67280209D01*
X117173500Y-67289534D01*
X117173500Y-67312818D01*
X117167144Y-67398335D01*
X117168365Y-67416246D01*
X117173500Y-67440302D01*
X117173500Y-67877683D01*
X117042628Y-67817916D01*
X117025335Y-67812838D01*
X116855490Y-67788418D01*
X116846513Y-67787776D01*
X116240038Y-67787776D01*
X116226608Y-67789220D01*
X115935554Y-67852535D01*
X115914720Y-67861165D01*
X115901045Y-67869953D01*
X115866748Y-67816587D01*
X115866228Y-67815987D01*
X115893406Y-67788810D01*
X115893411Y-67788803D01*
X115953802Y-67728412D01*
X115953809Y-67728407D01*
X116110236Y-67571980D01*
X116121894Y-67555934D01*
X116144867Y-67510847D01*
X116174606Y-67469916D01*
X116183611Y-67452244D01*
X116199245Y-67404126D01*
X116222218Y-67359039D01*
X116228347Y-67340177D01*
X116229363Y-67333761D01*
X116317116Y-67246009D01*
X116327171Y-67232905D01*
X116455233Y-67011095D01*
X116461554Y-66995835D01*
X116527844Y-66748438D01*
X116530000Y-66732062D01*
X116530000Y-66625224D01*
X116738507Y-66625224D01*
X116751937Y-66623780D01*
X117035938Y-66562000D01*
X117056772Y-66553370D01*
X117246871Y-66431201D01*
X117260492Y-66419398D01*
X117406989Y-66250332D01*
X117416733Y-66235170D01*
X117509664Y-66031678D01*
X117514742Y-66014385D01*
X117538582Y-65848575D01*
X117539224Y-65839598D01*
X117539224Y-65124598D01*
X122764541Y-65124598D01*
X122765035Y-65133164D01*
X122802133Y-65426832D01*
X122803785Y-65435252D01*
X122880397Y-65721168D01*
X122883176Y-65729285D01*
X122997881Y-66002159D01*
X123001736Y-66009824D01*
X123152413Y-66264606D01*
X123157273Y-66271677D01*
X123276974Y-66422701D01*
X123389776Y-66429205D01*
X124766790Y-65052191D01*
X124766790Y-64947809D01*
X125233210Y-64947809D01*
X125233210Y-65052191D01*
X126610388Y-66429369D01*
X126720911Y-66424736D01*
X126801873Y-66328930D01*
X126806953Y-66322015D01*
X126965559Y-66072093D01*
X126969653Y-66064553D01*
X127092873Y-65795417D01*
X127095905Y-65787391D01*
X127181459Y-65504022D01*
X127183375Y-65495659D01*
X127229731Y-65202974D01*
X127230505Y-65193766D01*
X127234073Y-64852988D01*
X127233493Y-64843766D01*
X127193276Y-64550176D01*
X127191536Y-64541774D01*
X127111936Y-64256675D01*
X127109072Y-64248588D01*
X126991515Y-63976930D01*
X126987580Y-63969306D01*
X126834243Y-63716116D01*
X126829309Y-63709096D01*
X126722158Y-63576777D01*
X126610114Y-63570905D01*
X125233210Y-64947809D01*
X124766790Y-64947809D01*
X123389831Y-63570850D01*
X123278547Y-63576098D01*
X123184309Y-63690011D01*
X123179302Y-63696979D01*
X123023323Y-63948549D01*
X123019308Y-63956131D01*
X122898912Y-64226543D01*
X122895964Y-64234601D01*
X122813382Y-64518850D01*
X122811554Y-64527233D01*
X122768313Y-64820059D01*
X122767640Y-64828613D01*
X122764541Y-65124598D01*
X117539224Y-65124598D01*
X117539224Y-64547493D01*
X117537780Y-64534063D01*
X117476000Y-64250062D01*
X117467370Y-64229228D01*
X117388466Y-64106451D01*
X117469998Y-63965234D01*
X117566745Y-64115776D01*
X117578548Y-64129397D01*
X117758592Y-64285407D01*
X117773754Y-64295151D01*
X117990459Y-64394116D01*
X118007752Y-64399194D01*
X118184330Y-64424582D01*
X118193307Y-64425224D01*
X119890378Y-64425224D01*
X119903808Y-64423780D01*
X120206623Y-64357907D01*
X120227457Y-64349277D01*
X120429776Y-64219255D01*
X120443397Y-64207452D01*
X120599407Y-64027408D01*
X120609151Y-64012246D01*
X120708116Y-63795541D01*
X120713194Y-63778248D01*
X120738582Y-63601670D01*
X120739224Y-63592693D01*
X120739224Y-63385626D01*
X123566645Y-63385626D01*
X124947809Y-64766790D01*
X125052191Y-64766790D01*
X126432243Y-63386738D01*
X126422455Y-63270174D01*
X126173493Y-63093244D01*
X126166177Y-63088761D01*
X125903859Y-62951625D01*
X125896003Y-62948176D01*
X125617500Y-62847909D01*
X125609248Y-62845558D01*
X125319715Y-62784016D01*
X125311220Y-62782807D01*
X125016013Y-62761128D01*
X125007433Y-62761083D01*
X124712015Y-62779669D01*
X124703508Y-62780789D01*
X124413346Y-62839297D01*
X124405070Y-62841561D01*
X124125533Y-62938905D01*
X124117641Y-62942272D01*
X123853901Y-63076654D01*
X123846539Y-63081060D01*
X123577115Y-63268315D01*
X123566645Y-63385626D01*
X120739224Y-63385626D01*
X120739224Y-60995622D01*
X120737780Y-60982192D01*
X120671907Y-60679377D01*
X120663277Y-60658543D01*
X120647504Y-60634000D01*
X124936511Y-60634000D01*
X124950584Y-60636838D01*
G37*
%TD.AperFunction*%
X106154733Y-83082778D02*
X105903859Y-82951625D01*
X105896003Y-82948176D01*
X105617500Y-82847909D01*
X105609248Y-82845558D01*
X105319715Y-82784016D01*
X105311220Y-82782807D01*
X105016013Y-82761128D01*
X105007433Y-82761083D01*
X104712015Y-82779669D01*
X104703508Y-82780789D01*
X104413346Y-82839297D01*
X104405070Y-82841561D01*
X104125533Y-82938905D01*
X104117641Y-82942272D01*
X103853901Y-83076654D01*
X103846539Y-83081060D01*
X103577115Y-83268315D01*
X103566645Y-83385626D01*
X106610388Y-86429369D01*
X106720911Y-86424736D01*
X106801873Y-86328930D01*
X106806953Y-86322015D01*
X106965559Y-86072093D01*
X106969653Y-86064553D01*
X107092873Y-85795417D01*
X107095905Y-85787391D01*
X107181459Y-85504022D01*
X107183375Y-85495659D01*
X107229731Y-85202974D01*
X107230505Y-85193766D01*
X107234073Y-84852988D01*
X107233493Y-84843766D01*
X107193276Y-84550176D01*
X107191536Y-84541774D01*
X107111936Y-84256675D01*
X107109072Y-84248588D01*
X106991515Y-83976930D01*
X106987580Y-83969306D01*
X106905147Y-83833193D01*
X108426560Y-85354607D01*
X108426575Y-85354620D01*
X108466190Y-85394236D01*
X108482235Y-85405893D01*
X108527315Y-85428863D01*
X108568254Y-85458607D01*
X108585925Y-85467611D01*
X108634049Y-85483248D01*
X108679132Y-85506218D01*
X108697993Y-85512347D01*
X108747978Y-85520264D01*
X108796092Y-85535897D01*
X108814272Y-85538776D01*
X108470622Y-85538776D01*
X108457192Y-85540220D01*
X108154377Y-85606093D01*
X108133543Y-85614723D01*
X107931224Y-85744745D01*
X107917603Y-85756548D01*
X107761593Y-85936592D01*
X107751849Y-85951754D01*
X107652884Y-86168459D01*
X107647806Y-86185752D01*
X107622418Y-86362330D01*
X107621776Y-86371307D01*
X107621776Y-88968378D01*
X107623220Y-88981808D01*
X107689093Y-89284623D01*
X107697723Y-89305457D01*
X107736631Y-89366000D01*
X105063490Y-89366000D01*
X105049417Y-89363162D01*
X105040138Y-89361999D01*
X105029014Y-89361435D01*
X105028632Y-89361417D01*
X104612411Y-89342881D01*
X104227882Y-89291232D01*
X103849484Y-89205609D01*
X103480170Y-89086681D01*
X103122916Y-88935402D01*
X102780508Y-88752957D01*
X102455672Y-88540797D01*
X102150998Y-88300610D01*
X101868868Y-88034280D01*
X101611529Y-87743923D01*
X101381032Y-87431854D01*
X101179179Y-87100515D01*
X101007584Y-86752555D01*
X100953331Y-86612320D01*
X103568699Y-86612320D01*
X103577814Y-86728135D01*
X103806604Y-86894363D01*
X103813873Y-86898922D01*
X104074740Y-87038798D01*
X104082560Y-87042329D01*
X104359998Y-87145507D01*
X104368224Y-87147944D01*
X104657098Y-87212514D01*
X104665579Y-87213812D01*
X104960543Y-87238581D01*
X104969122Y-87238716D01*
X105264718Y-87223225D01*
X105273236Y-87222194D01*
X105563996Y-87166728D01*
X105572295Y-87164551D01*
X105852836Y-87070138D01*
X105860762Y-87066855D01*
X106125896Y-86935242D01*
X106133303Y-86930913D01*
X106423477Y-86733712D01*
X106434637Y-86615656D01*
X105052191Y-85233210D01*
X104947809Y-85233210D01*
X103568699Y-86612320D01*
X100953331Y-86612320D01*
X100867595Y-86390707D01*
X100760327Y-86017849D01*
X100686631Y-85636940D01*
X100646575Y-85245986D01*
X100643079Y-85124598D01*
X102764541Y-85124598D01*
X102765035Y-85133164D01*
X102802133Y-85426832D01*
X102803785Y-85435252D01*
X102880397Y-85721168D01*
X102883176Y-85729285D01*
X102997881Y-86002159D01*
X103001736Y-86009824D01*
X103152413Y-86264606D01*
X103157273Y-86271677D01*
X103276974Y-86422701D01*
X103389776Y-86429205D01*
X104766790Y-85052191D01*
X104766790Y-84947809D01*
X103389831Y-83570850D01*
X103278547Y-83576098D01*
X103184309Y-83690011D01*
X103179302Y-83696979D01*
X103023323Y-83948549D01*
X103019308Y-83956131D01*
X102898912Y-84226543D01*
X102895964Y-84234601D01*
X102813382Y-84518850D01*
X102811554Y-84527233D01*
X102768313Y-84820059D01*
X102767640Y-84828613D01*
X102764541Y-85124598D01*
X100643079Y-85124598D01*
X100638830Y-84977113D01*
X100637935Y-84968193D01*
X100634000Y-84945412D01*
X100634000Y-82732000D01*
X105132191Y-82732000D01*
X105206000Y-82658191D01*
X105206000Y-82134044D01*
X106154733Y-83082778D01*
%TA.AperFunction,Conductor*%
G36*
X106154733Y-83082778D02*
G01*
X105903859Y-82951625D01*
X105896003Y-82948176D01*
X105617500Y-82847909D01*
X105609248Y-82845558D01*
X105319715Y-82784016D01*
X105311220Y-82782807D01*
X105016013Y-82761128D01*
X105007433Y-82761083D01*
X104712015Y-82779669D01*
X104703508Y-82780789D01*
X104413346Y-82839297D01*
X104405070Y-82841561D01*
X104125533Y-82938905D01*
X104117641Y-82942272D01*
X103853901Y-83076654D01*
X103846539Y-83081060D01*
X103577115Y-83268315D01*
X103566645Y-83385626D01*
X106610388Y-86429369D01*
X106720911Y-86424736D01*
X106801873Y-86328930D01*
X106806953Y-86322015D01*
X106965559Y-86072093D01*
X106969653Y-86064553D01*
X107092873Y-85795417D01*
X107095905Y-85787391D01*
X107181459Y-85504022D01*
X107183375Y-85495659D01*
X107229731Y-85202974D01*
X107230505Y-85193766D01*
X107234073Y-84852988D01*
X107233493Y-84843766D01*
X107193276Y-84550176D01*
X107191536Y-84541774D01*
X107111936Y-84256675D01*
X107109072Y-84248588D01*
X106991515Y-83976930D01*
X106987580Y-83969306D01*
X106905147Y-83833193D01*
X108426560Y-85354607D01*
X108426575Y-85354620D01*
X108466190Y-85394236D01*
X108482235Y-85405893D01*
X108527315Y-85428863D01*
X108568254Y-85458607D01*
X108585925Y-85467611D01*
X108634049Y-85483248D01*
X108679132Y-85506218D01*
X108697993Y-85512347D01*
X108747978Y-85520264D01*
X108796092Y-85535897D01*
X108814272Y-85538776D01*
X108470622Y-85538776D01*
X108457192Y-85540220D01*
X108154377Y-85606093D01*
X108133543Y-85614723D01*
X107931224Y-85744745D01*
X107917603Y-85756548D01*
X107761593Y-85936592D01*
X107751849Y-85951754D01*
X107652884Y-86168459D01*
X107647806Y-86185752D01*
X107622418Y-86362330D01*
X107621776Y-86371307D01*
X107621776Y-88968378D01*
X107623220Y-88981808D01*
X107689093Y-89284623D01*
X107697723Y-89305457D01*
X107736631Y-89366000D01*
X105063490Y-89366000D01*
X105049417Y-89363162D01*
X105040138Y-89361999D01*
X105029014Y-89361435D01*
X105028632Y-89361417D01*
X104612411Y-89342881D01*
X104227882Y-89291232D01*
X103849484Y-89205609D01*
X103480170Y-89086681D01*
X103122916Y-88935402D01*
X102780508Y-88752957D01*
X102455672Y-88540797D01*
X102150998Y-88300610D01*
X101868868Y-88034280D01*
X101611529Y-87743923D01*
X101381032Y-87431854D01*
X101179179Y-87100515D01*
X101007584Y-86752555D01*
X100953331Y-86612320D01*
X103568699Y-86612320D01*
X103577814Y-86728135D01*
X103806604Y-86894363D01*
X103813873Y-86898922D01*
X104074740Y-87038798D01*
X104082560Y-87042329D01*
X104359998Y-87145507D01*
X104368224Y-87147944D01*
X104657098Y-87212514D01*
X104665579Y-87213812D01*
X104960543Y-87238581D01*
X104969122Y-87238716D01*
X105264718Y-87223225D01*
X105273236Y-87222194D01*
X105563996Y-87166728D01*
X105572295Y-87164551D01*
X105852836Y-87070138D01*
X105860762Y-87066855D01*
X106125896Y-86935242D01*
X106133303Y-86930913D01*
X106423477Y-86733712D01*
X106434637Y-86615656D01*
X105052191Y-85233210D01*
X104947809Y-85233210D01*
X103568699Y-86612320D01*
X100953331Y-86612320D01*
X100867595Y-86390707D01*
X100760327Y-86017849D01*
X100686631Y-85636940D01*
X100646575Y-85245986D01*
X100643079Y-85124598D01*
X102764541Y-85124598D01*
X102765035Y-85133164D01*
X102802133Y-85426832D01*
X102803785Y-85435252D01*
X102880397Y-85721168D01*
X102883176Y-85729285D01*
X102997881Y-86002159D01*
X103001736Y-86009824D01*
X103152413Y-86264606D01*
X103157273Y-86271677D01*
X103276974Y-86422701D01*
X103389776Y-86429205D01*
X104766790Y-85052191D01*
X104766790Y-84947809D01*
X103389831Y-83570850D01*
X103278547Y-83576098D01*
X103184309Y-83690011D01*
X103179302Y-83696979D01*
X103023323Y-83948549D01*
X103019308Y-83956131D01*
X102898912Y-84226543D01*
X102895964Y-84234601D01*
X102813382Y-84518850D01*
X102811554Y-84527233D01*
X102768313Y-84820059D01*
X102767640Y-84828613D01*
X102764541Y-85124598D01*
X100643079Y-85124598D01*
X100638830Y-84977113D01*
X100637935Y-84968193D01*
X100634000Y-84945412D01*
X100634000Y-82732000D01*
X105132191Y-82732000D01*
X105206000Y-82658191D01*
X105206000Y-82134044D01*
X106154733Y-83082778D01*
G37*
%TD.AperFunction*%
X119688000Y-81756740D02*
X119683785Y-81775368D01*
X119682345Y-81793263D01*
X119688000Y-81884411D01*
X119688000Y-81915050D01*
X119688637Y-81923992D01*
X119691845Y-81946391D01*
X119696937Y-82028461D01*
X119700577Y-82046041D01*
X119709758Y-82071473D01*
X119713592Y-82098246D01*
X119718631Y-82115476D01*
X119752671Y-82190346D01*
X119780660Y-82267875D01*
X119789320Y-82284041D01*
X119804759Y-82304907D01*
X119816167Y-82329996D01*
X119825839Y-82345120D01*
X119887271Y-82416415D01*
X119901119Y-82435129D01*
X119907223Y-82442213D01*
X119923675Y-82458665D01*
X119979663Y-82523643D01*
X119993192Y-82535445D01*
X120013837Y-82548826D01*
X120030002Y-82564991D01*
X120030001Y-83592316D01*
X119987745Y-83594938D01*
X119970165Y-83598578D01*
X119944733Y-83607759D01*
X119917960Y-83611593D01*
X119900730Y-83616632D01*
X119825860Y-83650672D01*
X119748331Y-83678661D01*
X119732165Y-83687321D01*
X119711299Y-83702760D01*
X119686210Y-83714168D01*
X119671085Y-83723840D01*
X119599780Y-83785281D01*
X119581078Y-83799120D01*
X119573994Y-83805223D01*
X119557543Y-83821675D01*
X119492564Y-83877664D01*
X119480762Y-83891193D01*
X119467381Y-83911837D01*
X119150224Y-84228994D01*
X119150224Y-84139493D01*
X119148780Y-84126063D01*
X119087000Y-83842062D01*
X119078370Y-83821227D01*
X119065666Y-83801459D01*
X119111116Y-83756009D01*
X119121171Y-83742905D01*
X119249233Y-83521095D01*
X119255554Y-83505835D01*
X119321844Y-83258438D01*
X119324000Y-83242062D01*
X119324000Y-82985938D01*
X119321844Y-82969562D01*
X119255554Y-82722165D01*
X119249233Y-82706905D01*
X119158901Y-82550446D01*
X119282913Y-82470748D01*
X119296534Y-82458945D01*
X119451355Y-82280274D01*
X119461099Y-82265111D01*
X119559309Y-82050059D01*
X119564387Y-82032766D01*
X119589582Y-81857534D01*
X119590224Y-81848556D01*
X119590224Y-81537809D01*
X119516415Y-81464000D01*
X118335500Y-81464000D01*
X118335500Y-81208000D01*
X119516415Y-81208000D01*
X119590224Y-81134191D01*
X119590224Y-80839604D01*
X119588780Y-80826174D01*
X119559557Y-80691837D01*
X119582259Y-80691837D01*
X119598634Y-80689681D01*
X119688000Y-80665736D01*
X119688000Y-81756740D01*
%TA.AperFunction,Conductor*%
G36*
X119688000Y-81756740D02*
G01*
X119683785Y-81775368D01*
X119682345Y-81793263D01*
X119688000Y-81884411D01*
X119688000Y-81915050D01*
X119688637Y-81923992D01*
X119691845Y-81946391D01*
X119696937Y-82028461D01*
X119700577Y-82046041D01*
X119709758Y-82071473D01*
X119713592Y-82098246D01*
X119718631Y-82115476D01*
X119752671Y-82190346D01*
X119780660Y-82267875D01*
X119789320Y-82284041D01*
X119804759Y-82304907D01*
X119816167Y-82329996D01*
X119825839Y-82345120D01*
X119887271Y-82416415D01*
X119901119Y-82435129D01*
X119907223Y-82442213D01*
X119923675Y-82458665D01*
X119979663Y-82523643D01*
X119993192Y-82535445D01*
X120013837Y-82548826D01*
X120030002Y-82564991D01*
X120030001Y-83592316D01*
X119987745Y-83594938D01*
X119970165Y-83598578D01*
X119944733Y-83607759D01*
X119917960Y-83611593D01*
X119900730Y-83616632D01*
X119825860Y-83650672D01*
X119748331Y-83678661D01*
X119732165Y-83687321D01*
X119711299Y-83702760D01*
X119686210Y-83714168D01*
X119671085Y-83723840D01*
X119599780Y-83785281D01*
X119581078Y-83799120D01*
X119573994Y-83805223D01*
X119557543Y-83821675D01*
X119492564Y-83877664D01*
X119480762Y-83891193D01*
X119467381Y-83911837D01*
X119150224Y-84228994D01*
X119150224Y-84139493D01*
X119148780Y-84126063D01*
X119087000Y-83842062D01*
X119078370Y-83821227D01*
X119065666Y-83801459D01*
X119111116Y-83756009D01*
X119121171Y-83742905D01*
X119249233Y-83521095D01*
X119255554Y-83505835D01*
X119321844Y-83258438D01*
X119324000Y-83242062D01*
X119324000Y-82985938D01*
X119321844Y-82969562D01*
X119255554Y-82722165D01*
X119249233Y-82706905D01*
X119158901Y-82550446D01*
X119282913Y-82470748D01*
X119296534Y-82458945D01*
X119451355Y-82280274D01*
X119461099Y-82265111D01*
X119559309Y-82050059D01*
X119564387Y-82032766D01*
X119589582Y-81857534D01*
X119590224Y-81848556D01*
X119590224Y-81537809D01*
X119516415Y-81464000D01*
X118335500Y-81464000D01*
X118335500Y-81208000D01*
X119516415Y-81208000D01*
X119590224Y-81134191D01*
X119590224Y-80839604D01*
X119588780Y-80826174D01*
X119559557Y-80691837D01*
X119582259Y-80691837D01*
X119598634Y-80689681D01*
X119688000Y-80665736D01*
X119688000Y-81756740D01*
G37*
%TD.AperFunction*%
X111143776Y-81388191D02*
X111217585Y-81462000D01*
X112068692Y-81462001D01*
X112068693Y-81462000D01*
X112398500Y-81462001D01*
X112398499Y-82855415D01*
X112472308Y-82929224D01*
X112554396Y-82929224D01*
X112567826Y-82927780D01*
X112868288Y-82862419D01*
X112889122Y-82853789D01*
X113089913Y-82724748D01*
X113103534Y-82712945D01*
X113205862Y-82594854D01*
X113223252Y-82621913D01*
X113235055Y-82635534D01*
X113413726Y-82790355D01*
X113428889Y-82800099D01*
X113643941Y-82898309D01*
X113661234Y-82903387D01*
X113836466Y-82928582D01*
X113845444Y-82929224D01*
X114429396Y-82929224D01*
X114442826Y-82927780D01*
X114742839Y-82862517D01*
X114714156Y-82969562D01*
X114712000Y-82985938D01*
X114712000Y-83023312D01*
X114396536Y-83338776D01*
X114122493Y-83338776D01*
X114109063Y-83340220D01*
X113825062Y-83402000D01*
X113804228Y-83410630D01*
X113739865Y-83451994D01*
X113556678Y-83368336D01*
X113539385Y-83363258D01*
X113373575Y-83339418D01*
X113364598Y-83338776D01*
X112872493Y-83338776D01*
X112859063Y-83340220D01*
X112575062Y-83402000D01*
X112554228Y-83410630D01*
X112489865Y-83451994D01*
X112306678Y-83368336D01*
X112289385Y-83363258D01*
X112123575Y-83339418D01*
X112114598Y-83338776D01*
X111622493Y-83338776D01*
X111609063Y-83340220D01*
X111325062Y-83402000D01*
X111304228Y-83410630D01*
X111114129Y-83532799D01*
X111100508Y-83544602D01*
X110954011Y-83713668D01*
X110944267Y-83728830D01*
X110851336Y-83932322D01*
X110846258Y-83949615D01*
X110836569Y-84017000D01*
X109241386Y-84017000D01*
X107110781Y-81886397D01*
X107400288Y-81823419D01*
X107421122Y-81814789D01*
X107456880Y-81791808D01*
X111143776Y-81791808D01*
X111143776Y-82086396D01*
X111145220Y-82099826D01*
X111210581Y-82400288D01*
X111219211Y-82421122D01*
X111348252Y-82621913D01*
X111360055Y-82635534D01*
X111538726Y-82790355D01*
X111553889Y-82800099D01*
X111768941Y-82898309D01*
X111786234Y-82903387D01*
X111961466Y-82928582D01*
X111970444Y-82929224D01*
X112068691Y-82929224D01*
X112142500Y-82855415D01*
X112142501Y-81791809D01*
X112068692Y-81718000D01*
X111217585Y-81717999D01*
X111143776Y-81791808D01*
X107456880Y-81791808D01*
X107574840Y-81716000D01*
X108153063Y-81716000D01*
X108199373Y-81696818D01*
X108717680Y-81178510D01*
X111143776Y-81178510D01*
X111143776Y-81388191D01*
%TA.AperFunction,Conductor*%
G36*
X111143776Y-81388191D02*
G01*
X111217585Y-81462000D01*
X112068692Y-81462001D01*
X112068693Y-81462000D01*
X112398500Y-81462001D01*
X112398499Y-82855415D01*
X112472308Y-82929224D01*
X112554396Y-82929224D01*
X112567826Y-82927780D01*
X112868288Y-82862419D01*
X112889122Y-82853789D01*
X113089913Y-82724748D01*
X113103534Y-82712945D01*
X113205862Y-82594854D01*
X113223252Y-82621913D01*
X113235055Y-82635534D01*
X113413726Y-82790355D01*
X113428889Y-82800099D01*
X113643941Y-82898309D01*
X113661234Y-82903387D01*
X113836466Y-82928582D01*
X113845444Y-82929224D01*
X114429396Y-82929224D01*
X114442826Y-82927780D01*
X114742839Y-82862517D01*
X114714156Y-82969562D01*
X114712000Y-82985938D01*
X114712000Y-83023312D01*
X114396536Y-83338776D01*
X114122493Y-83338776D01*
X114109063Y-83340220D01*
X113825062Y-83402000D01*
X113804228Y-83410630D01*
X113739865Y-83451994D01*
X113556678Y-83368336D01*
X113539385Y-83363258D01*
X113373575Y-83339418D01*
X113364598Y-83338776D01*
X112872493Y-83338776D01*
X112859063Y-83340220D01*
X112575062Y-83402000D01*
X112554228Y-83410630D01*
X112489865Y-83451994D01*
X112306678Y-83368336D01*
X112289385Y-83363258D01*
X112123575Y-83339418D01*
X112114598Y-83338776D01*
X111622493Y-83338776D01*
X111609063Y-83340220D01*
X111325062Y-83402000D01*
X111304228Y-83410630D01*
X111114129Y-83532799D01*
X111100508Y-83544602D01*
X110954011Y-83713668D01*
X110944267Y-83728830D01*
X110851336Y-83932322D01*
X110846258Y-83949615D01*
X110836569Y-84017000D01*
X109241386Y-84017000D01*
X107110781Y-81886397D01*
X107400288Y-81823419D01*
X107421122Y-81814789D01*
X107456880Y-81791808D01*
X111143776Y-81791808D01*
X111143776Y-82086396D01*
X111145220Y-82099826D01*
X111210581Y-82400288D01*
X111219211Y-82421122D01*
X111348252Y-82621913D01*
X111360055Y-82635534D01*
X111538726Y-82790355D01*
X111553889Y-82800099D01*
X111768941Y-82898309D01*
X111786234Y-82903387D01*
X111961466Y-82928582D01*
X111970444Y-82929224D01*
X112068691Y-82929224D01*
X112142500Y-82855415D01*
X112142501Y-81791809D01*
X112068692Y-81718000D01*
X111217585Y-81717999D01*
X111143776Y-81791808D01*
X107456880Y-81791808D01*
X107574840Y-81716000D01*
X108153063Y-81716000D01*
X108199373Y-81696818D01*
X108717680Y-81178510D01*
X111143776Y-81178510D01*
X111143776Y-81388191D01*
G37*
%TD.AperFunction*%
X121808002Y-81274658D02*
X121529763Y-81552898D01*
X121510338Y-81530354D01*
X121496809Y-81518553D01*
X121476166Y-81505172D01*
X121460000Y-81489006D01*
X121460000Y-74088990D01*
X121550302Y-73998688D01*
X121566461Y-73988492D01*
X121580133Y-73976857D01*
X121640609Y-73908381D01*
X121662251Y-73886740D01*
X121668123Y-73879967D01*
X121681682Y-73861875D01*
X121736127Y-73800228D01*
X121745984Y-73785223D01*
X121757477Y-73760744D01*
X121773694Y-73739106D01*
X121782315Y-73723358D01*
X121808001Y-73654839D01*
X121808002Y-81274658D01*
%TA.AperFunction,Conductor*%
G36*
X121808002Y-81274658D02*
G01*
X121529763Y-81552898D01*
X121510338Y-81530354D01*
X121496809Y-81518553D01*
X121476166Y-81505172D01*
X121460000Y-81489006D01*
X121460000Y-74088990D01*
X121550302Y-73998688D01*
X121566461Y-73988492D01*
X121580133Y-73976857D01*
X121640609Y-73908381D01*
X121662251Y-73886740D01*
X121668123Y-73879967D01*
X121681682Y-73861875D01*
X121736127Y-73800228D01*
X121745984Y-73785223D01*
X121757477Y-73760744D01*
X121773694Y-73739106D01*
X121782315Y-73723358D01*
X121808001Y-73654839D01*
X121808002Y-81274658D01*
G37*
%TD.AperFunction*%
X112579095Y-71501171D02*
X112800905Y-71629233D01*
X112816165Y-71635554D01*
X113063562Y-71701844D01*
X113079938Y-71704000D01*
X113287991Y-71704000D01*
X113287990Y-77453560D01*
X113170142Y-77485137D01*
X113145662Y-77497880D01*
X112989410Y-77628990D01*
X112975239Y-77645879D01*
X112874641Y-77820120D01*
X112867100Y-77840837D01*
X112833122Y-78033538D01*
X112832163Y-78044499D01*
X112832163Y-79406510D01*
X112064000Y-79406510D01*
X112064000Y-78313805D01*
X112229859Y-78269363D01*
X112254339Y-78256620D01*
X112410590Y-78125510D01*
X112424761Y-78108621D01*
X112525359Y-77934380D01*
X112532900Y-77913663D01*
X112566878Y-77720962D01*
X112567837Y-77710001D01*
X112567837Y-76906309D01*
X112494028Y-76832500D01*
X111377808Y-76832499D01*
X111377807Y-76832500D01*
X111048000Y-76832499D01*
X111048000Y-76502691D01*
X111303999Y-76502691D01*
X111377808Y-76576500D01*
X112494028Y-76576501D01*
X112567837Y-76502692D01*
X112567837Y-75696242D01*
X112565681Y-75679866D01*
X112490863Y-75400642D01*
X112478120Y-75376162D01*
X112347010Y-75219910D01*
X112330121Y-75205739D01*
X112155880Y-75105141D01*
X112135163Y-75097600D01*
X111942462Y-75063622D01*
X111931501Y-75062663D01*
X111377809Y-75062663D01*
X111304000Y-75136472D01*
X111303999Y-76502691D01*
X111048000Y-76502691D01*
X111048001Y-75136472D01*
X110974192Y-75062663D01*
X110417742Y-75062663D01*
X110401366Y-75064819D01*
X110122142Y-75139637D01*
X110097662Y-75152380D01*
X110032096Y-75207396D01*
X110030121Y-75205739D01*
X109855880Y-75105141D01*
X109850500Y-75103183D01*
X109850500Y-74918438D01*
X109848344Y-74902062D01*
X109782054Y-74654665D01*
X109775733Y-74639405D01*
X109746632Y-74589000D01*
X109775733Y-74538595D01*
X109782054Y-74523335D01*
X109848344Y-74275938D01*
X109850500Y-74259562D01*
X109850500Y-74003438D01*
X109848344Y-73987062D01*
X109782054Y-73739665D01*
X109775733Y-73724405D01*
X109762000Y-73700619D01*
X109762000Y-72046337D01*
X110784258Y-72046337D01*
X110800634Y-72044181D01*
X111079859Y-71969363D01*
X111104339Y-71956620D01*
X111260590Y-71825510D01*
X111274761Y-71808621D01*
X111375359Y-71634380D01*
X111382900Y-71613663D01*
X111394083Y-71550239D01*
X111530905Y-71629233D01*
X111546165Y-71635554D01*
X111793562Y-71701844D01*
X111809938Y-71704000D01*
X112066062Y-71704000D01*
X112082438Y-71701844D01*
X112329835Y-71635554D01*
X112345095Y-71629233D01*
X112566905Y-71501171D01*
X112573000Y-71496494D01*
X112579095Y-71501171D01*
%TA.AperFunction,Conductor*%
G36*
X112579095Y-71501171D02*
G01*
X112800905Y-71629233D01*
X112816165Y-71635554D01*
X113063562Y-71701844D01*
X113079938Y-71704000D01*
X113287991Y-71704000D01*
X113287990Y-77453560D01*
X113170142Y-77485137D01*
X113145662Y-77497880D01*
X112989410Y-77628990D01*
X112975239Y-77645879D01*
X112874641Y-77820120D01*
X112867100Y-77840837D01*
X112833122Y-78033538D01*
X112832163Y-78044499D01*
X112832163Y-79406510D01*
X112064000Y-79406510D01*
X112064000Y-78313805D01*
X112229859Y-78269363D01*
X112254339Y-78256620D01*
X112410590Y-78125510D01*
X112424761Y-78108621D01*
X112525359Y-77934380D01*
X112532900Y-77913663D01*
X112566878Y-77720962D01*
X112567837Y-77710001D01*
X112567837Y-76906309D01*
X112494028Y-76832500D01*
X111377808Y-76832499D01*
X111377807Y-76832500D01*
X111048000Y-76832499D01*
X111048000Y-76502691D01*
X111303999Y-76502691D01*
X111377808Y-76576500D01*
X112494028Y-76576501D01*
X112567837Y-76502692D01*
X112567837Y-75696242D01*
X112565681Y-75679866D01*
X112490863Y-75400642D01*
X112478120Y-75376162D01*
X112347010Y-75219910D01*
X112330121Y-75205739D01*
X112155880Y-75105141D01*
X112135163Y-75097600D01*
X111942462Y-75063622D01*
X111931501Y-75062663D01*
X111377809Y-75062663D01*
X111304000Y-75136472D01*
X111303999Y-76502691D01*
X111048000Y-76502691D01*
X111048001Y-75136472D01*
X110974192Y-75062663D01*
X110417742Y-75062663D01*
X110401366Y-75064819D01*
X110122142Y-75139637D01*
X110097662Y-75152380D01*
X110032096Y-75207396D01*
X110030121Y-75205739D01*
X109855880Y-75105141D01*
X109850500Y-75103183D01*
X109850500Y-74918438D01*
X109848344Y-74902062D01*
X109782054Y-74654665D01*
X109775733Y-74639405D01*
X109746632Y-74589000D01*
X109775733Y-74538595D01*
X109782054Y-74523335D01*
X109848344Y-74275938D01*
X109850500Y-74259562D01*
X109850500Y-74003438D01*
X109848344Y-73987062D01*
X109782054Y-73739665D01*
X109775733Y-73724405D01*
X109762000Y-73700619D01*
X109762000Y-72046337D01*
X110784258Y-72046337D01*
X110800634Y-72044181D01*
X111079859Y-71969363D01*
X111104339Y-71956620D01*
X111260590Y-71825510D01*
X111274761Y-71808621D01*
X111375359Y-71634380D01*
X111382900Y-71613663D01*
X111394083Y-71550239D01*
X111530905Y-71629233D01*
X111546165Y-71635554D01*
X111793562Y-71701844D01*
X111809938Y-71704000D01*
X112066062Y-71704000D01*
X112082438Y-71701844D01*
X112329835Y-71635554D01*
X112345095Y-71629233D01*
X112566905Y-71501171D01*
X112573000Y-71496494D01*
X112579095Y-71501171D01*
G37*
%TD.AperFunction*%
X119658905Y-73915233D02*
X119674165Y-73921554D01*
X119688001Y-73925261D01*
X119688001Y-77426321D01*
X119590462Y-77409122D01*
X119579501Y-77408163D01*
X119025809Y-77408163D01*
X118952000Y-77481972D01*
X118951999Y-79178000D01*
X118696000Y-79177999D01*
X118696001Y-78011439D01*
X118741233Y-77933095D01*
X118747554Y-77917835D01*
X118813844Y-77670438D01*
X118816000Y-77654062D01*
X118816000Y-77397938D01*
X118813844Y-77381562D01*
X118747554Y-77134165D01*
X118741233Y-77118905D01*
X118613171Y-76897095D01*
X118603116Y-76883991D01*
X118422009Y-76702884D01*
X118408905Y-76692829D01*
X118187095Y-76564767D01*
X118171835Y-76558446D01*
X117924438Y-76492156D01*
X117908062Y-76490000D01*
X117651938Y-76490000D01*
X117635562Y-76492156D01*
X117410000Y-76552595D01*
X117410000Y-74391837D01*
X118432258Y-74391837D01*
X118448634Y-74389681D01*
X118727859Y-74314863D01*
X118752339Y-74302120D01*
X118908590Y-74171010D01*
X118922761Y-74154121D01*
X119017516Y-73990000D01*
X119178062Y-73990000D01*
X119194438Y-73987844D01*
X119441835Y-73921554D01*
X119457095Y-73915233D01*
X119558000Y-73856975D01*
X119658905Y-73915233D01*
%TA.AperFunction,Conductor*%
G36*
X119658905Y-73915233D02*
G01*
X119674165Y-73921554D01*
X119688001Y-73925261D01*
X119688001Y-77426321D01*
X119590462Y-77409122D01*
X119579501Y-77408163D01*
X119025809Y-77408163D01*
X118952000Y-77481972D01*
X118951999Y-79178000D01*
X118696000Y-79177999D01*
X118696001Y-78011439D01*
X118741233Y-77933095D01*
X118747554Y-77917835D01*
X118813844Y-77670438D01*
X118816000Y-77654062D01*
X118816000Y-77397938D01*
X118813844Y-77381562D01*
X118747554Y-77134165D01*
X118741233Y-77118905D01*
X118613171Y-76897095D01*
X118603116Y-76883991D01*
X118422009Y-76702884D01*
X118408905Y-76692829D01*
X118187095Y-76564767D01*
X118171835Y-76558446D01*
X117924438Y-76492156D01*
X117908062Y-76490000D01*
X117651938Y-76490000D01*
X117635562Y-76492156D01*
X117410000Y-76552595D01*
X117410000Y-74391837D01*
X118432258Y-74391837D01*
X118448634Y-74389681D01*
X118727859Y-74314863D01*
X118752339Y-74302120D01*
X118908590Y-74171010D01*
X118922761Y-74154121D01*
X119017516Y-73990000D01*
X119178062Y-73990000D01*
X119194438Y-73987844D01*
X119441835Y-73921554D01*
X119457095Y-73915233D01*
X119558000Y-73856975D01*
X119658905Y-73915233D01*
G37*
%TD.AperFunction*%
X106334163Y-71412758D02*
X106336319Y-71429134D01*
X106411137Y-71708359D01*
X106423880Y-71732839D01*
X106554990Y-71889090D01*
X106571879Y-71903261D01*
X106746120Y-72003859D01*
X106766837Y-72011400D01*
X106959538Y-72045378D01*
X106970499Y-72046337D01*
X107990000Y-72046337D01*
X107990001Y-73491293D01*
X107981329Y-73502595D01*
X107853267Y-73724405D01*
X107846946Y-73739665D01*
X107780656Y-73987062D01*
X107778500Y-74003438D01*
X107778500Y-74259562D01*
X107780656Y-74275938D01*
X107846946Y-74523335D01*
X107853267Y-74538595D01*
X107882368Y-74589000D01*
X107853267Y-74639405D01*
X107846946Y-74654665D01*
X107780656Y-74902062D01*
X107778500Y-74918438D01*
X107778500Y-75168459D01*
X107732096Y-75207396D01*
X107730121Y-75205739D01*
X107555880Y-75105141D01*
X107535163Y-75097600D01*
X107342462Y-75063622D01*
X107331501Y-75062663D01*
X106095000Y-75062663D01*
X106095000Y-70725303D01*
X106334163Y-70486141D01*
X106334163Y-71412758D01*
%TA.AperFunction,Conductor*%
G36*
X106334163Y-71412758D02*
G01*
X106336319Y-71429134D01*
X106411137Y-71708359D01*
X106423880Y-71732839D01*
X106554990Y-71889090D01*
X106571879Y-71903261D01*
X106746120Y-72003859D01*
X106766837Y-72011400D01*
X106959538Y-72045378D01*
X106970499Y-72046337D01*
X107990000Y-72046337D01*
X107990001Y-73491293D01*
X107981329Y-73502595D01*
X107853267Y-73724405D01*
X107846946Y-73739665D01*
X107780656Y-73987062D01*
X107778500Y-74003438D01*
X107778500Y-74259562D01*
X107780656Y-74275938D01*
X107846946Y-74523335D01*
X107853267Y-74538595D01*
X107882368Y-74589000D01*
X107853267Y-74639405D01*
X107846946Y-74654665D01*
X107780656Y-74902062D01*
X107778500Y-74918438D01*
X107778500Y-75168459D01*
X107732096Y-75207396D01*
X107730121Y-75205739D01*
X107555880Y-75105141D01*
X107535163Y-75097600D01*
X107342462Y-75063622D01*
X107331501Y-75062663D01*
X106095000Y-75062663D01*
X106095000Y-70725303D01*
X106334163Y-70486141D01*
X106334163Y-71412758D01*
G37*
%TD.AperFunction*%
X109791884Y-60776459D02*
X109786806Y-60793752D01*
X109761418Y-60970330D01*
X109760776Y-60979307D01*
X109760776Y-63576378D01*
X109762220Y-63589808D01*
X109828093Y-63892623D01*
X109836723Y-63913457D01*
X109966745Y-64115776D01*
X109978548Y-64129397D01*
X110158592Y-64285407D01*
X110173754Y-64295151D01*
X110390459Y-64394116D01*
X110407752Y-64399194D01*
X110584330Y-64424582D01*
X110593307Y-64425224D01*
X112290378Y-64425224D01*
X112303808Y-64423780D01*
X112606623Y-64357907D01*
X112627457Y-64349277D01*
X112829776Y-64219255D01*
X112843397Y-64207452D01*
X112999407Y-64027408D01*
X113009151Y-64012246D01*
X113108116Y-63795541D01*
X113113194Y-63778248D01*
X113138582Y-63601670D01*
X113139224Y-63592693D01*
X113139224Y-60995622D01*
X113137780Y-60982192D01*
X113071907Y-60679377D01*
X113063277Y-60658543D01*
X113047504Y-60634000D01*
X117456942Y-60634000D01*
X117391884Y-60776459D01*
X117386806Y-60793752D01*
X117361418Y-60970330D01*
X117360776Y-60979307D01*
X117360776Y-62957588D01*
X117343171Y-62927095D01*
X117333116Y-62913991D01*
X117152009Y-62732884D01*
X117138905Y-62722829D01*
X116917095Y-62594767D01*
X116901835Y-62588446D01*
X116654438Y-62522156D01*
X116638062Y-62520000D01*
X116381938Y-62520000D01*
X116365562Y-62522156D01*
X116118165Y-62588446D01*
X116102905Y-62594767D01*
X115881095Y-62722829D01*
X115875000Y-62727506D01*
X115868905Y-62722829D01*
X115647095Y-62594767D01*
X115631835Y-62588446D01*
X115384438Y-62522156D01*
X115368062Y-62520000D01*
X115111938Y-62520000D01*
X115095562Y-62522156D01*
X114848165Y-62588446D01*
X114832905Y-62594767D01*
X114611095Y-62722829D01*
X114597991Y-62732884D01*
X114416884Y-62913991D01*
X114406829Y-62927095D01*
X114278767Y-63148905D01*
X114272446Y-63164165D01*
X114206156Y-63411562D01*
X114204000Y-63427938D01*
X114204000Y-63684062D01*
X114206156Y-63700438D01*
X114216988Y-63740863D01*
X114214975Y-63740574D01*
X114128000Y-63815939D01*
X114128000Y-65314000D01*
X113034585Y-65314000D01*
X112960776Y-65387809D01*
X112960776Y-65824507D01*
X112962220Y-65837937D01*
X113024000Y-66121938D01*
X113032630Y-66142772D01*
X113154799Y-66332871D01*
X113166602Y-66346492D01*
X113335668Y-66492989D01*
X113350831Y-66502733D01*
X113442000Y-66544369D01*
X113442000Y-66563784D01*
X112766620Y-67239164D01*
X112761116Y-67231991D01*
X112580009Y-67050884D01*
X112566905Y-67040829D01*
X112345095Y-66912767D01*
X112329835Y-66906446D01*
X112082438Y-66840156D01*
X112066062Y-66838000D01*
X111809938Y-66838000D01*
X111793562Y-66840156D01*
X111546165Y-66906446D01*
X111530905Y-66912767D01*
X111309095Y-67040829D01*
X111295991Y-67050884D01*
X111114884Y-67231991D01*
X111104829Y-67245095D01*
X110976767Y-67466905D01*
X110970446Y-67482165D01*
X110904156Y-67729562D01*
X110902000Y-67745938D01*
X110902000Y-67912875D01*
X110802009Y-67812884D01*
X110788905Y-67802829D01*
X110567095Y-67674767D01*
X110551835Y-67668446D01*
X110304438Y-67602156D01*
X110288062Y-67600000D01*
X110031938Y-67600000D01*
X110015562Y-67602156D01*
X109768165Y-67668446D01*
X109752905Y-67674767D01*
X109531095Y-67802829D01*
X109517991Y-67812884D01*
X109455876Y-67875000D01*
X107052909Y-67875000D01*
X107052897Y-67875001D01*
X106997597Y-67875001D01*
X106978008Y-67878103D01*
X106929893Y-67893737D01*
X106879911Y-67901654D01*
X106861049Y-67907782D01*
X106815961Y-67930755D01*
X106767842Y-67946390D01*
X106750172Y-67955394D01*
X106709238Y-67985134D01*
X106664154Y-68008106D01*
X106648108Y-68019764D01*
X106608492Y-68059381D01*
X106608477Y-68059394D01*
X105137032Y-69530841D01*
X105132191Y-69526000D01*
X100634000Y-69526000D01*
X100634000Y-66612320D01*
X103568699Y-66612320D01*
X103577814Y-66728135D01*
X103806604Y-66894363D01*
X103813873Y-66898922D01*
X104074740Y-67038798D01*
X104082560Y-67042329D01*
X104359998Y-67145507D01*
X104368224Y-67147944D01*
X104657098Y-67212514D01*
X104665579Y-67213812D01*
X104960543Y-67238581D01*
X104969122Y-67238716D01*
X105264718Y-67223225D01*
X105273236Y-67222194D01*
X105563996Y-67166728D01*
X105572295Y-67164551D01*
X105852836Y-67070138D01*
X105860762Y-67066855D01*
X106125896Y-66935242D01*
X106133303Y-66930913D01*
X106423477Y-66733712D01*
X106434637Y-66615656D01*
X105052191Y-65233210D01*
X104947809Y-65233210D01*
X103568699Y-66612320D01*
X100634000Y-66612320D01*
X100634000Y-65124598D01*
X102764541Y-65124598D01*
X102765035Y-65133164D01*
X102802133Y-65426832D01*
X102803785Y-65435252D01*
X102880397Y-65721168D01*
X102883176Y-65729285D01*
X102997881Y-66002159D01*
X103001736Y-66009824D01*
X103152413Y-66264606D01*
X103157273Y-66271677D01*
X103276974Y-66422701D01*
X103389776Y-66429205D01*
X104766790Y-65052191D01*
X104766790Y-64947809D01*
X105233210Y-64947809D01*
X105233210Y-65052191D01*
X106610388Y-66429369D01*
X106720911Y-66424736D01*
X106801873Y-66328930D01*
X106806953Y-66322015D01*
X106965559Y-66072093D01*
X106969653Y-66064553D01*
X107092873Y-65795417D01*
X107095905Y-65787391D01*
X107181459Y-65504022D01*
X107183375Y-65495659D01*
X107229731Y-65202974D01*
X107230505Y-65193766D01*
X107234073Y-64852988D01*
X107233493Y-64843766D01*
X107193276Y-64550176D01*
X107191536Y-64541774D01*
X107188920Y-64532402D01*
X112960776Y-64532402D01*
X112960776Y-64984191D01*
X113034585Y-65058000D01*
X113798191Y-65058000D01*
X113872000Y-64984191D01*
X113872000Y-63817333D01*
X113778122Y-63741682D01*
X113464062Y-63810000D01*
X113443228Y-63818630D01*
X113253129Y-63940799D01*
X113239508Y-63952602D01*
X113093011Y-64121668D01*
X113083267Y-64136830D01*
X112990336Y-64340322D01*
X112985258Y-64357615D01*
X112961418Y-64523425D01*
X112960776Y-64532402D01*
X107188920Y-64532402D01*
X107111936Y-64256675D01*
X107109072Y-64248588D01*
X106991515Y-63976930D01*
X106987580Y-63969306D01*
X106834243Y-63716116D01*
X106829309Y-63709096D01*
X106722158Y-63576777D01*
X106610114Y-63570905D01*
X105233210Y-64947809D01*
X104766790Y-64947809D01*
X103389831Y-63570850D01*
X103278547Y-63576098D01*
X103184309Y-63690011D01*
X103179302Y-63696979D01*
X103023323Y-63948549D01*
X103019308Y-63956131D01*
X102898912Y-64226543D01*
X102895964Y-64234601D01*
X102813382Y-64518850D01*
X102811554Y-64527233D01*
X102768313Y-64820059D01*
X102767640Y-64828613D01*
X102764541Y-65124598D01*
X100634000Y-65124598D01*
X100634000Y-65063489D01*
X100636838Y-65049416D01*
X100638001Y-65040137D01*
X100638565Y-65029013D01*
X100638583Y-65028631D01*
X100657119Y-64612411D01*
X100708768Y-64227881D01*
X100794391Y-63849484D01*
X100913319Y-63480170D01*
X100953353Y-63385626D01*
X103566645Y-63385626D01*
X104947809Y-64766790D01*
X105052191Y-64766790D01*
X106432243Y-63386738D01*
X106422455Y-63270174D01*
X106173493Y-63093244D01*
X106166177Y-63088761D01*
X105903859Y-62951625D01*
X105896003Y-62948176D01*
X105617500Y-62847909D01*
X105609248Y-62845558D01*
X105319715Y-62784016D01*
X105311220Y-62782807D01*
X105016013Y-62761128D01*
X105007433Y-62761083D01*
X104712015Y-62779669D01*
X104703508Y-62780789D01*
X104413346Y-62839297D01*
X104405070Y-62841561D01*
X104125533Y-62938905D01*
X104117641Y-62942272D01*
X103853901Y-63076654D01*
X103846539Y-63081060D01*
X103577115Y-63268315D01*
X103566645Y-63385626D01*
X100953353Y-63385626D01*
X101064598Y-63122916D01*
X101247043Y-62780508D01*
X101459203Y-62455672D01*
X101699399Y-62150987D01*
X101965719Y-61868869D01*
X102256077Y-61611529D01*
X102568146Y-61381032D01*
X102899485Y-61179179D01*
X103247445Y-61007584D01*
X103609303Y-60867592D01*
X103982137Y-60760329D01*
X104363060Y-60686631D01*
X104754014Y-60646575D01*
X105022887Y-60638830D01*
X105031807Y-60637935D01*
X105054588Y-60634000D01*
X109856942Y-60634000D01*
X109791884Y-60776459D01*
%TA.AperFunction,Conductor*%
G36*
X109791884Y-60776459D02*
G01*
X109786806Y-60793752D01*
X109761418Y-60970330D01*
X109760776Y-60979307D01*
X109760776Y-63576378D01*
X109762220Y-63589808D01*
X109828093Y-63892623D01*
X109836723Y-63913457D01*
X109966745Y-64115776D01*
X109978548Y-64129397D01*
X110158592Y-64285407D01*
X110173754Y-64295151D01*
X110390459Y-64394116D01*
X110407752Y-64399194D01*
X110584330Y-64424582D01*
X110593307Y-64425224D01*
X112290378Y-64425224D01*
X112303808Y-64423780D01*
X112606623Y-64357907D01*
X112627457Y-64349277D01*
X112829776Y-64219255D01*
X112843397Y-64207452D01*
X112999407Y-64027408D01*
X113009151Y-64012246D01*
X113108116Y-63795541D01*
X113113194Y-63778248D01*
X113138582Y-63601670D01*
X113139224Y-63592693D01*
X113139224Y-60995622D01*
X113137780Y-60982192D01*
X113071907Y-60679377D01*
X113063277Y-60658543D01*
X113047504Y-60634000D01*
X117456942Y-60634000D01*
X117391884Y-60776459D01*
X117386806Y-60793752D01*
X117361418Y-60970330D01*
X117360776Y-60979307D01*
X117360776Y-62957588D01*
X117343171Y-62927095D01*
X117333116Y-62913991D01*
X117152009Y-62732884D01*
X117138905Y-62722829D01*
X116917095Y-62594767D01*
X116901835Y-62588446D01*
X116654438Y-62522156D01*
X116638062Y-62520000D01*
X116381938Y-62520000D01*
X116365562Y-62522156D01*
X116118165Y-62588446D01*
X116102905Y-62594767D01*
X115881095Y-62722829D01*
X115875000Y-62727506D01*
X115868905Y-62722829D01*
X115647095Y-62594767D01*
X115631835Y-62588446D01*
X115384438Y-62522156D01*
X115368062Y-62520000D01*
X115111938Y-62520000D01*
X115095562Y-62522156D01*
X114848165Y-62588446D01*
X114832905Y-62594767D01*
X114611095Y-62722829D01*
X114597991Y-62732884D01*
X114416884Y-62913991D01*
X114406829Y-62927095D01*
X114278767Y-63148905D01*
X114272446Y-63164165D01*
X114206156Y-63411562D01*
X114204000Y-63427938D01*
X114204000Y-63684062D01*
X114206156Y-63700438D01*
X114216988Y-63740863D01*
X114214975Y-63740574D01*
X114128000Y-63815939D01*
X114128000Y-65314000D01*
X113034585Y-65314000D01*
X112960776Y-65387809D01*
X112960776Y-65824507D01*
X112962220Y-65837937D01*
X113024000Y-66121938D01*
X113032630Y-66142772D01*
X113154799Y-66332871D01*
X113166602Y-66346492D01*
X113335668Y-66492989D01*
X113350831Y-66502733D01*
X113442000Y-66544369D01*
X113442000Y-66563784D01*
X112766620Y-67239164D01*
X112761116Y-67231991D01*
X112580009Y-67050884D01*
X112566905Y-67040829D01*
X112345095Y-66912767D01*
X112329835Y-66906446D01*
X112082438Y-66840156D01*
X112066062Y-66838000D01*
X111809938Y-66838000D01*
X111793562Y-66840156D01*
X111546165Y-66906446D01*
X111530905Y-66912767D01*
X111309095Y-67040829D01*
X111295991Y-67050884D01*
X111114884Y-67231991D01*
X111104829Y-67245095D01*
X110976767Y-67466905D01*
X110970446Y-67482165D01*
X110904156Y-67729562D01*
X110902000Y-67745938D01*
X110902000Y-67912875D01*
X110802009Y-67812884D01*
X110788905Y-67802829D01*
X110567095Y-67674767D01*
X110551835Y-67668446D01*
X110304438Y-67602156D01*
X110288062Y-67600000D01*
X110031938Y-67600000D01*
X110015562Y-67602156D01*
X109768165Y-67668446D01*
X109752905Y-67674767D01*
X109531095Y-67802829D01*
X109517991Y-67812884D01*
X109455876Y-67875000D01*
X107052909Y-67875000D01*
X107052897Y-67875001D01*
X106997597Y-67875001D01*
X106978008Y-67878103D01*
X106929893Y-67893737D01*
X106879911Y-67901654D01*
X106861049Y-67907782D01*
X106815961Y-67930755D01*
X106767842Y-67946390D01*
X106750172Y-67955394D01*
X106709238Y-67985134D01*
X106664154Y-68008106D01*
X106648108Y-68019764D01*
X106608492Y-68059381D01*
X106608477Y-68059394D01*
X105137032Y-69530841D01*
X105132191Y-69526000D01*
X100634000Y-69526000D01*
X100634000Y-66612320D01*
X103568699Y-66612320D01*
X103577814Y-66728135D01*
X103806604Y-66894363D01*
X103813873Y-66898922D01*
X104074740Y-67038798D01*
X104082560Y-67042329D01*
X104359998Y-67145507D01*
X104368224Y-67147944D01*
X104657098Y-67212514D01*
X104665579Y-67213812D01*
X104960543Y-67238581D01*
X104969122Y-67238716D01*
X105264718Y-67223225D01*
X105273236Y-67222194D01*
X105563996Y-67166728D01*
X105572295Y-67164551D01*
X105852836Y-67070138D01*
X105860762Y-67066855D01*
X106125896Y-66935242D01*
X106133303Y-66930913D01*
X106423477Y-66733712D01*
X106434637Y-66615656D01*
X105052191Y-65233210D01*
X104947809Y-65233210D01*
X103568699Y-66612320D01*
X100634000Y-66612320D01*
X100634000Y-65124598D01*
X102764541Y-65124598D01*
X102765035Y-65133164D01*
X102802133Y-65426832D01*
X102803785Y-65435252D01*
X102880397Y-65721168D01*
X102883176Y-65729285D01*
X102997881Y-66002159D01*
X103001736Y-66009824D01*
X103152413Y-66264606D01*
X103157273Y-66271677D01*
X103276974Y-66422701D01*
X103389776Y-66429205D01*
X104766790Y-65052191D01*
X104766790Y-64947809D01*
X105233210Y-64947809D01*
X105233210Y-65052191D01*
X106610388Y-66429369D01*
X106720911Y-66424736D01*
X106801873Y-66328930D01*
X106806953Y-66322015D01*
X106965559Y-66072093D01*
X106969653Y-66064553D01*
X107092873Y-65795417D01*
X107095905Y-65787391D01*
X107181459Y-65504022D01*
X107183375Y-65495659D01*
X107229731Y-65202974D01*
X107230505Y-65193766D01*
X107234073Y-64852988D01*
X107233493Y-64843766D01*
X107193276Y-64550176D01*
X107191536Y-64541774D01*
X107188920Y-64532402D01*
X112960776Y-64532402D01*
X112960776Y-64984191D01*
X113034585Y-65058000D01*
X113798191Y-65058000D01*
X113872000Y-64984191D01*
X113872000Y-63817333D01*
X113778122Y-63741682D01*
X113464062Y-63810000D01*
X113443228Y-63818630D01*
X113253129Y-63940799D01*
X113239508Y-63952602D01*
X113093011Y-64121668D01*
X113083267Y-64136830D01*
X112990336Y-64340322D01*
X112985258Y-64357615D01*
X112961418Y-64523425D01*
X112960776Y-64532402D01*
X107188920Y-64532402D01*
X107111936Y-64256675D01*
X107109072Y-64248588D01*
X106991515Y-63976930D01*
X106987580Y-63969306D01*
X106834243Y-63716116D01*
X106829309Y-63709096D01*
X106722158Y-63576777D01*
X106610114Y-63570905D01*
X105233210Y-64947809D01*
X104766790Y-64947809D01*
X103389831Y-63570850D01*
X103278547Y-63576098D01*
X103184309Y-63690011D01*
X103179302Y-63696979D01*
X103023323Y-63948549D01*
X103019308Y-63956131D01*
X102898912Y-64226543D01*
X102895964Y-64234601D01*
X102813382Y-64518850D01*
X102811554Y-64527233D01*
X102768313Y-64820059D01*
X102767640Y-64828613D01*
X102764541Y-65124598D01*
X100634000Y-65124598D01*
X100634000Y-65063489D01*
X100636838Y-65049416D01*
X100638001Y-65040137D01*
X100638565Y-65029013D01*
X100638583Y-65028631D01*
X100657119Y-64612411D01*
X100708768Y-64227881D01*
X100794391Y-63849484D01*
X100913319Y-63480170D01*
X100953353Y-63385626D01*
X103566645Y-63385626D01*
X104947809Y-64766790D01*
X105052191Y-64766790D01*
X106432243Y-63386738D01*
X106422455Y-63270174D01*
X106173493Y-63093244D01*
X106166177Y-63088761D01*
X105903859Y-62951625D01*
X105896003Y-62948176D01*
X105617500Y-62847909D01*
X105609248Y-62845558D01*
X105319715Y-62784016D01*
X105311220Y-62782807D01*
X105016013Y-62761128D01*
X105007433Y-62761083D01*
X104712015Y-62779669D01*
X104703508Y-62780789D01*
X104413346Y-62839297D01*
X104405070Y-62841561D01*
X104125533Y-62938905D01*
X104117641Y-62942272D01*
X103853901Y-63076654D01*
X103846539Y-63081060D01*
X103577115Y-63268315D01*
X103566645Y-63385626D01*
X100953353Y-63385626D01*
X101064598Y-63122916D01*
X101247043Y-62780508D01*
X101459203Y-62455672D01*
X101699399Y-62150987D01*
X101965719Y-61868869D01*
X102256077Y-61611529D01*
X102568146Y-61381032D01*
X102899485Y-61179179D01*
X103247445Y-61007584D01*
X103609303Y-60867592D01*
X103982137Y-60760329D01*
X104363060Y-60686631D01*
X104754014Y-60646575D01*
X105022887Y-60638830D01*
X105031807Y-60637935D01*
X105054588Y-60634000D01*
X109856942Y-60634000D01*
X109791884Y-60776459D01*
G37*
%TD.AperFunction*%
X119732547Y-67789538D02*
X119686000Y-67836085D01*
X119685999Y-68967000D01*
X119430000Y-68966999D01*
X119430001Y-67836085D01*
X119356192Y-67762276D01*
X119262538Y-67762276D01*
X119249108Y-67763720D01*
X118958054Y-67827035D01*
X118945500Y-67832235D01*
X118945500Y-67713491D01*
X119002993Y-67655999D01*
X119599009Y-67655999D01*
X119732547Y-67789538D01*
%TA.AperFunction,Conductor*%
G36*
X119732547Y-67789538D02*
G01*
X119686000Y-67836085D01*
X119685999Y-68967000D01*
X119430000Y-68966999D01*
X119430001Y-67836085D01*
X119356192Y-67762276D01*
X119262538Y-67762276D01*
X119249108Y-67763720D01*
X118958054Y-67827035D01*
X118945500Y-67832235D01*
X118945500Y-67713491D01*
X119002993Y-67655999D01*
X119599009Y-67655999D01*
X119732547Y-67789538D01*
G37*
%TD.AperFunction*%
%TD*%
M02*
