M48
; DRILL file {KiCad (5.99.0-2358-g6d8fb94d8)} date Tue Jul 21 23:14:33 2020
; FORMAT={-:-/ absolute / metric / decimal}
; #@! TF.CreationDate,2020-07-21T23:14:33+08:00
; #@! TF.GenerationSoftware,Kicad,Pcbnew,(5.99.0-2358-g6d8fb94d8)
; #@! TF.FileFunction,Plated,1,4,PTH
FMAT,2
METRIC
T1C0.400
T2C3.200
%
G90
G05
T1
X101.348Y-70.655
X101.348Y-81.831
X107.391Y-74.031
X107.391Y-75.046
X107.874Y-82.098
X108.814Y-74.132
X108.814Y-75.046
X110.16Y-68.636
X111.176Y-83.114
X111.938Y-67.874
X111.938Y-70.668
X112.446Y-79.05
X112.643Y-75.613
X112.643Y-77.137
X112.7Y-83.114
X113.208Y-70.668
X113.97Y-63.556
X114.478Y-66.604
X115.24Y-63.556
X115.24Y-88.956
X115.494Y-66.604
X115.748Y-83.114
X116.256Y-87.178
X116.51Y-63.556
X116.764Y-83.114
X117.78Y-75.24
X117.78Y-76.243
X117.78Y-77.526
X118.288Y-83.114
X118.542Y-65.334
X119.05Y-72.954
X119.558Y-67.62
X120.066Y-71.684
X120.066Y-72.954
X120.066Y-82.606
X120.066Y-83.622
X121.509Y-81.577
X121.59Y-74.224
X121.844Y-69.144
X121.895Y-67.569
X123.673Y-77.018
X123.693Y-68.433
X123.698Y-72.497
X124.51Y-81.164
X125.471Y-68.433
X126.034Y-81.133
X126.995Y-68.433
X127.558Y-81.133
X128.027Y-72.522
X128.052Y-77.018
X128.519Y-68.433
T2
X105.0Y-65.0
X105.0Y-85.0
X125.0Y-85.0
X125.0Y-65.0
T0
M30
