%TF.GenerationSoftware,KiCad,Pcbnew,(5.99.0-2358-g6d8fb94d8)*%
%TF.CreationDate,2020-07-21T23:14:40+08:00*%
%TF.ProjectId,TheFC,54686546-432e-46b6-9963-61645f706362,1.0*%
%TF.SameCoordinates,Original*%
%TF.FileFunction,Copper,L1,Top*%
%TF.FilePolarity,Positive*%
%FSLAX46Y46*%
G04 Gerber Fmt 4.6, Leading zero omitted, Abs format (unit mm)*
G04 Created by KiCad (PCBNEW (5.99.0-2358-g6d8fb94d8)) date 2020-07-21 23:14:40*
%MOMM*%
%LPD*%
G01*
G04 APERTURE LIST*
%TA.AperFunction,SMDPad,CuDef*%
%ADD10R,0.900000X1.000000*%
%TD*%
%TA.AperFunction,SMDPad,CuDef*%
%ADD11R,2.400000X2.000000*%
%TD*%
%TA.AperFunction,SMDPad,CuDef*%
%ADD12R,0.600000X1.750000*%
%TD*%
%TA.AperFunction,SMDPad,CuDef*%
%ADD13R,1.600000X0.550000*%
%TD*%
%TA.AperFunction,SMDPad,CuDef*%
%ADD14R,0.550000X1.600000*%
%TD*%
%TA.AperFunction,ComponentPad*%
%ADD15C,3.200000*%
%TD*%
%TA.AperFunction,ViaPad*%
%ADD16C,0.800000*%
%TD*%
%TA.AperFunction,Conductor*%
%ADD17C,0.500000*%
%TD*%
%TA.AperFunction,Conductor*%
%ADD18C,0.250000*%
%TD*%
%TA.AperFunction,Conductor*%
%ADD19C,0.254000*%
%TD*%
G04 APERTURE END LIST*
D10*
%TO.P,SW1,2,2*%
%TO.N,GND*%
X120669375Y-69182000D03*
%TO.P,SW1,1,1*%
%TO.N,RESET*%
X120669375Y-67582000D03*
%TO.P,SW1,2,2*%
%TO.N,GND*%
X116569375Y-69182000D03*
%TO.P,SW1,1,1*%
%TO.N,RESET*%
X116569375Y-67582000D03*
%TD*%
D11*
%TO.P,Y1,2,2*%
%TO.N,XTAL2*%
X102363990Y-78166500D03*
%TO.P,Y1,1,1*%
%TO.N,XTAL1*%
X102363990Y-74466500D03*
%TD*%
D12*
%TO.P,J13,5,Pin_5*%
%TO.N,RESET*%
X115264000Y-87291000D03*
%TO.P,J13,3,Pin_3*%
%TO.N,SCK*%
X117264000Y-87291000D03*
%TO.P,J13,1,Pin_1*%
%TO.N,MISO*%
X119264000Y-87291000D03*
%TO.P,J13,6,Pin_6*%
%TO.N,GND*%
X114264000Y-85541000D03*
%TO.P,J13,4,Pin_4*%
%TO.N,S3/MOSI*%
X116264000Y-85541000D03*
%TO.P,J13,2,Pin_2*%
%TO.N,+5V*%
X118264000Y-85541000D03*
%TD*%
%TO.P,J3,1,Pin_1*%
%TO.N,GND*%
X111106400Y-85541000D03*
%TO.P,J3,2,Pin_2*%
%TO.N,BUZ*%
X112106400Y-87291000D03*
%TD*%
%TO.P,J12,MP*%
%TO.N,N/C*%
%TA.AperFunction,SMDPad,CuDef*%
G36*
G01*
X111865000Y-61044001D02*
X111865000Y-63543999D01*
G75*
G02*
X111614999Y-63794000I-250001J0D01*
G01*
X110015001Y-63794000D01*
G75*
G02*
X109765000Y-63543999I0J250001D01*
G01*
X109765000Y-61044001D01*
G75*
G02*
X110015001Y-60794000I250001J0D01*
G01*
X111614999Y-60794000D01*
G75*
G02*
X111865000Y-61044001I0J-250001D01*
G01*
G37*
%TD.AperFunction*%
%TA.AperFunction,SMDPad,CuDef*%
G36*
G01*
X120715000Y-61044001D02*
X120715000Y-63543999D01*
G75*
G02*
X120464999Y-63794000I-250001J0D01*
G01*
X118865001Y-63794000D01*
G75*
G02*
X118615000Y-63543999I0J250001D01*
G01*
X118615000Y-61044001D01*
G75*
G02*
X118865001Y-60794000I250001J0D01*
G01*
X120464999Y-60794000D01*
G75*
G02*
X120715000Y-61044001I0J-250001D01*
G01*
G37*
%TD.AperFunction*%
%TO.P,J12,4,Pin_4*%
%TO.N,Net-(C12-Pad1)*%
%TA.AperFunction,SMDPad,CuDef*%
G36*
G01*
X113765000Y-64594000D02*
X113765000Y-65794000D01*
G75*
G02*
X113565000Y-65994000I-200000J0D01*
G01*
X113165000Y-65994000D01*
G75*
G02*
X112965000Y-65794000I0J200000D01*
G01*
X112965000Y-64594000D01*
G75*
G02*
X113165000Y-64394000I200000J0D01*
G01*
X113565000Y-64394000D01*
G75*
G02*
X113765000Y-64594000I0J-200000D01*
G01*
G37*
%TD.AperFunction*%
%TO.P,J12,3,Pin_3*%
%TO.N,TX*%
%TA.AperFunction,SMDPad,CuDef*%
G36*
G01*
X115015000Y-64594000D02*
X115015000Y-65794000D01*
G75*
G02*
X114815000Y-65994000I-200000J0D01*
G01*
X114415000Y-65994000D01*
G75*
G02*
X114215000Y-65794000I0J200000D01*
G01*
X114215000Y-64594000D01*
G75*
G02*
X114415000Y-64394000I200000J0D01*
G01*
X114815000Y-64394000D01*
G75*
G02*
X115015000Y-64594000I0J-200000D01*
G01*
G37*
%TD.AperFunction*%
%TO.P,J12,2,Pin_2*%
%TO.N,RX*%
%TA.AperFunction,SMDPad,CuDef*%
G36*
G01*
X116265000Y-64594000D02*
X116265000Y-65794000D01*
G75*
G02*
X116065000Y-65994000I-200000J0D01*
G01*
X115665000Y-65994000D01*
G75*
G02*
X115465000Y-65794000I0J200000D01*
G01*
X115465000Y-64594000D01*
G75*
G02*
X115665000Y-64394000I200000J0D01*
G01*
X116065000Y-64394000D01*
G75*
G02*
X116265000Y-64594000I0J-200000D01*
G01*
G37*
%TD.AperFunction*%
%TO.P,J12,1,Pin_1*%
%TO.N,GND*%
%TA.AperFunction,SMDPad,CuDef*%
G36*
G01*
X117515000Y-64594000D02*
X117515000Y-65794000D01*
G75*
G02*
X117315000Y-65994000I-200000J0D01*
G01*
X116915000Y-65994000D01*
G75*
G02*
X116715000Y-65794000I0J200000D01*
G01*
X116715000Y-64594000D01*
G75*
G02*
X116915000Y-64394000I200000J0D01*
G01*
X117315000Y-64394000D01*
G75*
G02*
X117515000Y-64594000I0J-200000D01*
G01*
G37*
%TD.AperFunction*%
%TD*%
%TO.P,U4,1,CLKIN*%
%TO.N,GND*%
%TA.AperFunction,SMDPad,CuDef*%
G36*
G01*
X128141290Y-75969500D02*
X128141290Y-76119500D01*
G75*
G02*
X128066290Y-76194500I-75000J0D01*
G01*
X127366290Y-76194500D01*
G75*
G02*
X127291290Y-76119500I0J75000D01*
G01*
X127291290Y-75969500D01*
G75*
G02*
X127366290Y-75894500I75000J0D01*
G01*
X128066290Y-75894500D01*
G75*
G02*
X128141290Y-75969500I0J-75000D01*
G01*
G37*
%TD.AperFunction*%
%TO.P,U4,2*%
%TO.N,N/C*%
%TA.AperFunction,SMDPad,CuDef*%
G36*
G01*
X128141290Y-75469500D02*
X128141290Y-75619500D01*
G75*
G02*
X128066290Y-75694500I-75000J0D01*
G01*
X127366290Y-75694500D01*
G75*
G02*
X127291290Y-75619500I0J75000D01*
G01*
X127291290Y-75469500D01*
G75*
G02*
X127366290Y-75394500I75000J0D01*
G01*
X128066290Y-75394500D01*
G75*
G02*
X128141290Y-75469500I0J-75000D01*
G01*
G37*
%TD.AperFunction*%
%TO.P,U4,3*%
%TA.AperFunction,SMDPad,CuDef*%
G36*
G01*
X128141290Y-74969500D02*
X128141290Y-75119500D01*
G75*
G02*
X128066290Y-75194500I-75000J0D01*
G01*
X127366290Y-75194500D01*
G75*
G02*
X127291290Y-75119500I0J75000D01*
G01*
X127291290Y-74969500D01*
G75*
G02*
X127366290Y-74894500I75000J0D01*
G01*
X128066290Y-74894500D01*
G75*
G02*
X128141290Y-74969500I0J-75000D01*
G01*
G37*
%TD.AperFunction*%
%TO.P,U4,4*%
%TA.AperFunction,SMDPad,CuDef*%
G36*
G01*
X128141290Y-74469500D02*
X128141290Y-74619500D01*
G75*
G02*
X128066290Y-74694500I-75000J0D01*
G01*
X127366290Y-74694500D01*
G75*
G02*
X127291290Y-74619500I0J75000D01*
G01*
X127291290Y-74469500D01*
G75*
G02*
X127366290Y-74394500I75000J0D01*
G01*
X128066290Y-74394500D01*
G75*
G02*
X128141290Y-74469500I0J-75000D01*
G01*
G37*
%TD.AperFunction*%
%TO.P,U4,5*%
%TA.AperFunction,SMDPad,CuDef*%
G36*
G01*
X128141290Y-73969500D02*
X128141290Y-74119500D01*
G75*
G02*
X128066290Y-74194500I-75000J0D01*
G01*
X127366290Y-74194500D01*
G75*
G02*
X127291290Y-74119500I0J75000D01*
G01*
X127291290Y-73969500D01*
G75*
G02*
X127366290Y-73894500I75000J0D01*
G01*
X128066290Y-73894500D01*
G75*
G02*
X128141290Y-73969500I0J-75000D01*
G01*
G37*
%TD.AperFunction*%
%TO.P,U4,6,AUX_SDA*%
%TO.N,Net-(U4-Pad6)*%
%TA.AperFunction,SMDPad,CuDef*%
G36*
G01*
X128141290Y-73469500D02*
X128141290Y-73619500D01*
G75*
G02*
X128066290Y-73694500I-75000J0D01*
G01*
X127366290Y-73694500D01*
G75*
G02*
X127291290Y-73619500I0J75000D01*
G01*
X127291290Y-73469500D01*
G75*
G02*
X127366290Y-73394500I75000J0D01*
G01*
X128066290Y-73394500D01*
G75*
G02*
X128141290Y-73469500I0J-75000D01*
G01*
G37*
%TD.AperFunction*%
%TO.P,U4,7,AUX_SCL*%
%TO.N,Net-(U4-Pad7)*%
%TA.AperFunction,SMDPad,CuDef*%
G36*
G01*
X126941290Y-72419500D02*
X127091290Y-72419500D01*
G75*
G02*
X127166290Y-72494500I0J-75000D01*
G01*
X127166290Y-73194500D01*
G75*
G02*
X127091290Y-73269500I-75000J0D01*
G01*
X126941290Y-73269500D01*
G75*
G02*
X126866290Y-73194500I0J75000D01*
G01*
X126866290Y-72494500D01*
G75*
G02*
X126941290Y-72419500I75000J0D01*
G01*
G37*
%TD.AperFunction*%
%TO.P,U4,8,VDDIO*%
%TO.N,+3V3*%
%TA.AperFunction,SMDPad,CuDef*%
G36*
G01*
X126441290Y-72419500D02*
X126591290Y-72419500D01*
G75*
G02*
X126666290Y-72494500I0J-75000D01*
G01*
X126666290Y-73194500D01*
G75*
G02*
X126591290Y-73269500I-75000J0D01*
G01*
X126441290Y-73269500D01*
G75*
G02*
X126366290Y-73194500I0J75000D01*
G01*
X126366290Y-72494500D01*
G75*
G02*
X126441290Y-72419500I75000J0D01*
G01*
G37*
%TD.AperFunction*%
%TO.P,U4,9,AD0*%
%TO.N,Net-(R2-Pad1)*%
%TA.AperFunction,SMDPad,CuDef*%
G36*
G01*
X125941290Y-72419500D02*
X126091290Y-72419500D01*
G75*
G02*
X126166290Y-72494500I0J-75000D01*
G01*
X126166290Y-73194500D01*
G75*
G02*
X126091290Y-73269500I-75000J0D01*
G01*
X125941290Y-73269500D01*
G75*
G02*
X125866290Y-73194500I0J75000D01*
G01*
X125866290Y-72494500D01*
G75*
G02*
X125941290Y-72419500I75000J0D01*
G01*
G37*
%TD.AperFunction*%
%TO.P,U4,10,REGOUT*%
%TO.N,Net-(C14-Pad1)*%
%TA.AperFunction,SMDPad,CuDef*%
G36*
G01*
X125441290Y-72419500D02*
X125591290Y-72419500D01*
G75*
G02*
X125666290Y-72494500I0J-75000D01*
G01*
X125666290Y-73194500D01*
G75*
G02*
X125591290Y-73269500I-75000J0D01*
G01*
X125441290Y-73269500D01*
G75*
G02*
X125366290Y-73194500I0J75000D01*
G01*
X125366290Y-72494500D01*
G75*
G02*
X125441290Y-72419500I75000J0D01*
G01*
G37*
%TD.AperFunction*%
%TO.P,U4,11,FSYNC*%
%TO.N,GND*%
%TA.AperFunction,SMDPad,CuDef*%
G36*
G01*
X124941290Y-72419500D02*
X125091290Y-72419500D01*
G75*
G02*
X125166290Y-72494500I0J-75000D01*
G01*
X125166290Y-73194500D01*
G75*
G02*
X125091290Y-73269500I-75000J0D01*
G01*
X124941290Y-73269500D01*
G75*
G02*
X124866290Y-73194500I0J75000D01*
G01*
X124866290Y-72494500D01*
G75*
G02*
X124941290Y-72419500I75000J0D01*
G01*
G37*
%TD.AperFunction*%
%TO.P,U4,12,INT*%
%TO.N,Net-(U4-Pad12)*%
%TA.AperFunction,SMDPad,CuDef*%
G36*
G01*
X124441290Y-72419500D02*
X124591290Y-72419500D01*
G75*
G02*
X124666290Y-72494500I0J-75000D01*
G01*
X124666290Y-73194500D01*
G75*
G02*
X124591290Y-73269500I-75000J0D01*
G01*
X124441290Y-73269500D01*
G75*
G02*
X124366290Y-73194500I0J75000D01*
G01*
X124366290Y-72494500D01*
G75*
G02*
X124441290Y-72419500I75000J0D01*
G01*
G37*
%TD.AperFunction*%
%TO.P,U4,13,VDD*%
%TO.N,+3V3*%
%TA.AperFunction,SMDPad,CuDef*%
G36*
G01*
X124241290Y-73469500D02*
X124241290Y-73619500D01*
G75*
G02*
X124166290Y-73694500I-75000J0D01*
G01*
X123466290Y-73694500D01*
G75*
G02*
X123391290Y-73619500I0J75000D01*
G01*
X123391290Y-73469500D01*
G75*
G02*
X123466290Y-73394500I75000J0D01*
G01*
X124166290Y-73394500D01*
G75*
G02*
X124241290Y-73469500I0J-75000D01*
G01*
G37*
%TD.AperFunction*%
%TO.P,U4,14*%
%TO.N,N/C*%
%TA.AperFunction,SMDPad,CuDef*%
G36*
G01*
X124241290Y-73969500D02*
X124241290Y-74119500D01*
G75*
G02*
X124166290Y-74194500I-75000J0D01*
G01*
X123466290Y-74194500D01*
G75*
G02*
X123391290Y-74119500I0J75000D01*
G01*
X123391290Y-73969500D01*
G75*
G02*
X123466290Y-73894500I75000J0D01*
G01*
X124166290Y-73894500D01*
G75*
G02*
X124241290Y-73969500I0J-75000D01*
G01*
G37*
%TD.AperFunction*%
%TO.P,U4,15*%
%TA.AperFunction,SMDPad,CuDef*%
G36*
G01*
X124241290Y-74469500D02*
X124241290Y-74619500D01*
G75*
G02*
X124166290Y-74694500I-75000J0D01*
G01*
X123466290Y-74694500D01*
G75*
G02*
X123391290Y-74619500I0J75000D01*
G01*
X123391290Y-74469500D01*
G75*
G02*
X123466290Y-74394500I75000J0D01*
G01*
X124166290Y-74394500D01*
G75*
G02*
X124241290Y-74469500I0J-75000D01*
G01*
G37*
%TD.AperFunction*%
%TO.P,U4,16*%
%TA.AperFunction,SMDPad,CuDef*%
G36*
G01*
X124241290Y-74969500D02*
X124241290Y-75119500D01*
G75*
G02*
X124166290Y-75194500I-75000J0D01*
G01*
X123466290Y-75194500D01*
G75*
G02*
X123391290Y-75119500I0J75000D01*
G01*
X123391290Y-74969500D01*
G75*
G02*
X123466290Y-74894500I75000J0D01*
G01*
X124166290Y-74894500D01*
G75*
G02*
X124241290Y-74969500I0J-75000D01*
G01*
G37*
%TD.AperFunction*%
%TO.P,U4,17*%
%TA.AperFunction,SMDPad,CuDef*%
G36*
G01*
X124241290Y-75469500D02*
X124241290Y-75619500D01*
G75*
G02*
X124166290Y-75694500I-75000J0D01*
G01*
X123466290Y-75694500D01*
G75*
G02*
X123391290Y-75619500I0J75000D01*
G01*
X123391290Y-75469500D01*
G75*
G02*
X123466290Y-75394500I75000J0D01*
G01*
X124166290Y-75394500D01*
G75*
G02*
X124241290Y-75469500I0J-75000D01*
G01*
G37*
%TD.AperFunction*%
%TO.P,U4,18,GND*%
%TO.N,GND*%
%TA.AperFunction,SMDPad,CuDef*%
G36*
G01*
X124241290Y-75969500D02*
X124241290Y-76119500D01*
G75*
G02*
X124166290Y-76194500I-75000J0D01*
G01*
X123466290Y-76194500D01*
G75*
G02*
X123391290Y-76119500I0J75000D01*
G01*
X123391290Y-75969500D01*
G75*
G02*
X123466290Y-75894500I75000J0D01*
G01*
X124166290Y-75894500D01*
G75*
G02*
X124241290Y-75969500I0J-75000D01*
G01*
G37*
%TD.AperFunction*%
%TO.P,U4,19*%
%TO.N,N/C*%
%TA.AperFunction,SMDPad,CuDef*%
G36*
G01*
X124441290Y-76319500D02*
X124591290Y-76319500D01*
G75*
G02*
X124666290Y-76394500I0J-75000D01*
G01*
X124666290Y-77094500D01*
G75*
G02*
X124591290Y-77169500I-75000J0D01*
G01*
X124441290Y-77169500D01*
G75*
G02*
X124366290Y-77094500I0J75000D01*
G01*
X124366290Y-76394500D01*
G75*
G02*
X124441290Y-76319500I75000J0D01*
G01*
G37*
%TD.AperFunction*%
%TO.P,U4,20,CPOUT*%
%TO.N,Net-(C15-Pad1)*%
%TA.AperFunction,SMDPad,CuDef*%
G36*
G01*
X124941290Y-76319500D02*
X125091290Y-76319500D01*
G75*
G02*
X125166290Y-76394500I0J-75000D01*
G01*
X125166290Y-77094500D01*
G75*
G02*
X125091290Y-77169500I-75000J0D01*
G01*
X124941290Y-77169500D01*
G75*
G02*
X124866290Y-77094500I0J75000D01*
G01*
X124866290Y-76394500D01*
G75*
G02*
X124941290Y-76319500I75000J0D01*
G01*
G37*
%TD.AperFunction*%
%TO.P,U4,21*%
%TO.N,N/C*%
%TA.AperFunction,SMDPad,CuDef*%
G36*
G01*
X125441290Y-76319500D02*
X125591290Y-76319500D01*
G75*
G02*
X125666290Y-76394500I0J-75000D01*
G01*
X125666290Y-77094500D01*
G75*
G02*
X125591290Y-77169500I-75000J0D01*
G01*
X125441290Y-77169500D01*
G75*
G02*
X125366290Y-77094500I0J75000D01*
G01*
X125366290Y-76394500D01*
G75*
G02*
X125441290Y-76319500I75000J0D01*
G01*
G37*
%TD.AperFunction*%
%TO.P,U4,22*%
%TA.AperFunction,SMDPad,CuDef*%
G36*
G01*
X125941290Y-76319500D02*
X126091290Y-76319500D01*
G75*
G02*
X126166290Y-76394500I0J-75000D01*
G01*
X126166290Y-77094500D01*
G75*
G02*
X126091290Y-77169500I-75000J0D01*
G01*
X125941290Y-77169500D01*
G75*
G02*
X125866290Y-77094500I0J75000D01*
G01*
X125866290Y-76394500D01*
G75*
G02*
X125941290Y-76319500I75000J0D01*
G01*
G37*
%TD.AperFunction*%
%TO.P,U4,23,SCL*%
%TO.N,SCL*%
%TA.AperFunction,SMDPad,CuDef*%
G36*
G01*
X126441290Y-76319500D02*
X126591290Y-76319500D01*
G75*
G02*
X126666290Y-76394500I0J-75000D01*
G01*
X126666290Y-77094500D01*
G75*
G02*
X126591290Y-77169500I-75000J0D01*
G01*
X126441290Y-77169500D01*
G75*
G02*
X126366290Y-77094500I0J75000D01*
G01*
X126366290Y-76394500D01*
G75*
G02*
X126441290Y-76319500I75000J0D01*
G01*
G37*
%TD.AperFunction*%
%TO.P,U4,24,SDA*%
%TO.N,SDA*%
%TA.AperFunction,SMDPad,CuDef*%
G36*
G01*
X126941290Y-76319500D02*
X127091290Y-76319500D01*
G75*
G02*
X127166290Y-76394500I0J-75000D01*
G01*
X127166290Y-77094500D01*
G75*
G02*
X127091290Y-77169500I-75000J0D01*
G01*
X126941290Y-77169500D01*
G75*
G02*
X126866290Y-77094500I0J75000D01*
G01*
X126866290Y-76394500D01*
G75*
G02*
X126941290Y-76319500I75000J0D01*
G01*
G37*
%TD.AperFunction*%
%TD*%
D13*
%TO.P,U3,1,PD3*%
%TO.N,S4*%
X110968375Y-73897500D03*
%TO.P,U3,2,PD4*%
%TO.N,Net-(U3-Pad2)*%
X110968375Y-74697500D03*
%TO.P,U3,3,GND*%
%TO.N,GND*%
X110968375Y-75497500D03*
%TO.P,U3,4,VCC*%
%TO.N,+5V*%
X110968375Y-76297500D03*
%TO.P,U3,5,GND*%
%TO.N,GND*%
X110968375Y-77097500D03*
%TO.P,U3,6,VCC*%
%TO.N,+5V*%
X110968375Y-77897500D03*
%TO.P,U3,7,XTAL1/PB6*%
%TO.N,XTAL1*%
X110968375Y-78697500D03*
%TO.P,U3,8,XTAL2/PB7*%
%TO.N,XTAL2*%
X110968375Y-79497500D03*
D14*
%TO.P,U3,9,PD5*%
%TO.N,Net-(U3-Pad9)*%
X112418375Y-80947500D03*
%TO.P,U3,10,PD6*%
%TO.N,Net-(U3-Pad10)*%
X113218375Y-80947500D03*
%TO.P,U3,11,PD7*%
%TO.N,Net-(U3-Pad11)*%
X114018375Y-80947500D03*
%TO.P,U3,12,PB0*%
%TO.N,BUZ*%
X114818375Y-80947500D03*
%TO.P,U3,13,PB1*%
%TO.N,S1*%
X115618375Y-80947500D03*
%TO.P,U3,14,PB2*%
%TO.N,S2*%
X116418375Y-80947500D03*
%TO.P,U3,15,PB3*%
%TO.N,S3/MOSI*%
X117218375Y-80947500D03*
%TO.P,U3,16,PB4*%
%TO.N,MISO*%
X118018375Y-80947500D03*
D13*
%TO.P,U3,17,PB5*%
%TO.N,SCK*%
X119468375Y-79497500D03*
%TO.P,U3,18,AVCC*%
%TO.N,+5V*%
X119468375Y-78697500D03*
%TO.P,U3,19,ADC6*%
%TO.N,Net-(U3-Pad19)*%
X119468375Y-77897500D03*
%TO.P,U3,20,AREF*%
%TO.N,Net-(C13-Pad1)*%
X119468375Y-77097500D03*
%TO.P,U3,21,GND*%
%TO.N,GND*%
X119468375Y-76297500D03*
%TO.P,U3,22,ADC7*%
%TO.N,Net-(U3-Pad22)*%
X119468375Y-75497500D03*
%TO.P,U3,23,PC0*%
%TO.N,Net-(U3-Pad23)*%
X119468375Y-74697500D03*
%TO.P,U3,24,PC1*%
%TO.N,Net-(U3-Pad24)*%
X119468375Y-73897500D03*
D14*
%TO.P,U3,25,PC2*%
%TO.N,Net-(U3-Pad25)*%
X118018375Y-72447500D03*
%TO.P,U3,26,PC3*%
%TO.N,BAT*%
X117218375Y-72447500D03*
%TO.P,U3,27,PC4*%
%TO.N,SDA*%
X116418375Y-72447500D03*
%TO.P,U3,28,PC5*%
%TO.N,SCL*%
X115618375Y-72447500D03*
%TO.P,U3,29,~RESET~/PC6*%
%TO.N,RESET*%
X114818375Y-72447500D03*
%TO.P,U3,30,PD0*%
%TO.N,RX*%
X114018375Y-72447500D03*
%TO.P,U3,31,PD1*%
%TO.N,TX*%
X113218375Y-72447500D03*
%TO.P,U3,32,PD2*%
%TO.N,PPM*%
X112418375Y-72447500D03*
%TD*%
%TO.P,R5,1*%
%TO.N,+5V*%
%TA.AperFunction,SMDPad,CuDef*%
G36*
G01*
X112951750Y-67411000D02*
X113464250Y-67411000D01*
G75*
G02*
X113683000Y-67629750I0J-218750D01*
G01*
X113683000Y-68067250D01*
G75*
G02*
X113464250Y-68286000I-218750J0D01*
G01*
X112951750Y-68286000D01*
G75*
G02*
X112733000Y-68067250I0J218750D01*
G01*
X112733000Y-67629750D01*
G75*
G02*
X112951750Y-67411000I218750J0D01*
G01*
G37*
%TD.AperFunction*%
%TO.P,R5,2*%
%TO.N,RESET*%
%TA.AperFunction,SMDPad,CuDef*%
G36*
G01*
X112951750Y-68986000D02*
X113464250Y-68986000D01*
G75*
G02*
X113683000Y-69204750I0J-218750D01*
G01*
X113683000Y-69642250D01*
G75*
G02*
X113464250Y-69861000I-218750J0D01*
G01*
X112951750Y-69861000D01*
G75*
G02*
X112733000Y-69642250I0J218750D01*
G01*
X112733000Y-69204750D01*
G75*
G02*
X112951750Y-68986000I218750J0D01*
G01*
G37*
%TD.AperFunction*%
%TD*%
%TO.P,R4,1*%
%TO.N,+3V3*%
%TA.AperFunction,SMDPad,CuDef*%
G36*
G01*
X126290540Y-80351500D02*
X125778040Y-80351500D01*
G75*
G02*
X125559290Y-80132750I0J218750D01*
G01*
X125559290Y-79695250D01*
G75*
G02*
X125778040Y-79476500I218750J0D01*
G01*
X126290540Y-79476500D01*
G75*
G02*
X126509290Y-79695250I0J-218750D01*
G01*
X126509290Y-80132750D01*
G75*
G02*
X126290540Y-80351500I-218750J0D01*
G01*
G37*
%TD.AperFunction*%
%TO.P,R4,2*%
%TO.N,SCL*%
%TA.AperFunction,SMDPad,CuDef*%
G36*
G01*
X126290540Y-78776500D02*
X125778040Y-78776500D01*
G75*
G02*
X125559290Y-78557750I0J218750D01*
G01*
X125559290Y-78120250D01*
G75*
G02*
X125778040Y-77901500I218750J0D01*
G01*
X126290540Y-77901500D01*
G75*
G02*
X126509290Y-78120250I0J-218750D01*
G01*
X126509290Y-78557750D01*
G75*
G02*
X126290540Y-78776500I-218750J0D01*
G01*
G37*
%TD.AperFunction*%
%TD*%
%TO.P,R3,1*%
%TO.N,XTAL1*%
%TA.AperFunction,SMDPad,CuDef*%
G36*
G01*
X105585750Y-78841000D02*
X106098250Y-78841000D01*
G75*
G02*
X106317000Y-79059750I0J-218750D01*
G01*
X106317000Y-79497250D01*
G75*
G02*
X106098250Y-79716000I-218750J0D01*
G01*
X105585750Y-79716000D01*
G75*
G02*
X105367000Y-79497250I0J218750D01*
G01*
X105367000Y-79059750D01*
G75*
G02*
X105585750Y-78841000I218750J0D01*
G01*
G37*
%TD.AperFunction*%
%TO.P,R3,2*%
%TO.N,XTAL2*%
%TA.AperFunction,SMDPad,CuDef*%
G36*
G01*
X105585750Y-80416000D02*
X106098250Y-80416000D01*
G75*
G02*
X106317000Y-80634750I0J-218750D01*
G01*
X106317000Y-81072250D01*
G75*
G02*
X106098250Y-81291000I-218750J0D01*
G01*
X105585750Y-81291000D01*
G75*
G02*
X105367000Y-81072250I0J218750D01*
G01*
X105367000Y-80634750D01*
G75*
G02*
X105585750Y-80416000I218750J0D01*
G01*
G37*
%TD.AperFunction*%
%TD*%
%TO.P,R2,1*%
%TO.N,Net-(R2-Pad1)*%
%TA.AperFunction,SMDPad,CuDef*%
G36*
G01*
X127194250Y-71639000D02*
X126681750Y-71639000D01*
G75*
G02*
X126463000Y-71420250I0J218750D01*
G01*
X126463000Y-70982750D01*
G75*
G02*
X126681750Y-70764000I218750J0D01*
G01*
X127194250Y-70764000D01*
G75*
G02*
X127413000Y-70982750I0J-218750D01*
G01*
X127413000Y-71420250D01*
G75*
G02*
X127194250Y-71639000I-218750J0D01*
G01*
G37*
%TD.AperFunction*%
%TO.P,R2,2*%
%TO.N,GND*%
%TA.AperFunction,SMDPad,CuDef*%
G36*
G01*
X127194250Y-70064000D02*
X126681750Y-70064000D01*
G75*
G02*
X126463000Y-69845250I0J218750D01*
G01*
X126463000Y-69407750D01*
G75*
G02*
X126681750Y-69189000I218750J0D01*
G01*
X127194250Y-69189000D01*
G75*
G02*
X127413000Y-69407750I0J-218750D01*
G01*
X127413000Y-69845250D01*
G75*
G02*
X127194250Y-70064000I-218750J0D01*
G01*
G37*
%TD.AperFunction*%
%TD*%
%TO.P,R1,1*%
%TO.N,+3V3*%
%TA.AperFunction,SMDPad,CuDef*%
G36*
G01*
X127814540Y-80351500D02*
X127302040Y-80351500D01*
G75*
G02*
X127083290Y-80132750I0J218750D01*
G01*
X127083290Y-79695250D01*
G75*
G02*
X127302040Y-79476500I218750J0D01*
G01*
X127814540Y-79476500D01*
G75*
G02*
X128033290Y-79695250I0J-218750D01*
G01*
X128033290Y-80132750D01*
G75*
G02*
X127814540Y-80351500I-218750J0D01*
G01*
G37*
%TD.AperFunction*%
%TO.P,R1,2*%
%TO.N,SDA*%
%TA.AperFunction,SMDPad,CuDef*%
G36*
G01*
X127814540Y-78776500D02*
X127302040Y-78776500D01*
G75*
G02*
X127083290Y-78557750I0J218750D01*
G01*
X127083290Y-78120250D01*
G75*
G02*
X127302040Y-77901500I218750J0D01*
G01*
X127814540Y-77901500D01*
G75*
G02*
X128033290Y-78120250I0J-218750D01*
G01*
X128033290Y-78557750D01*
G75*
G02*
X127814540Y-78776500I-218750J0D01*
G01*
G37*
%TD.AperFunction*%
%TD*%
D15*
%TO.P,H4,1,1*%
%TO.N,GND*%
X105000000Y-85000000D03*
%TD*%
%TO.P,H3,1,1*%
%TO.N,GND*%
X125000000Y-85000000D03*
%TD*%
%TO.P,H2,1,1*%
%TO.N,GND*%
X125000000Y-65000000D03*
%TD*%
%TO.P,H1,1,1*%
%TO.N,GND*%
X105000000Y-65000000D03*
%TD*%
%TO.P,C15,1*%
%TO.N,Net-(C15-Pad1)*%
%TA.AperFunction,SMDPad,CuDef*%
G36*
G01*
X124254040Y-77901500D02*
X124766540Y-77901500D01*
G75*
G02*
X124985290Y-78120250I0J-218750D01*
G01*
X124985290Y-78557750D01*
G75*
G02*
X124766540Y-78776500I-218750J0D01*
G01*
X124254040Y-78776500D01*
G75*
G02*
X124035290Y-78557750I0J218750D01*
G01*
X124035290Y-78120250D01*
G75*
G02*
X124254040Y-77901500I218750J0D01*
G01*
G37*
%TD.AperFunction*%
%TO.P,C15,2*%
%TO.N,GND*%
%TA.AperFunction,SMDPad,CuDef*%
G36*
G01*
X124254040Y-79476500D02*
X124766540Y-79476500D01*
G75*
G02*
X124985290Y-79695250I0J-218750D01*
G01*
X124985290Y-80132750D01*
G75*
G02*
X124766540Y-80351500I-218750J0D01*
G01*
X124254040Y-80351500D01*
G75*
G02*
X124035290Y-80132750I0J218750D01*
G01*
X124035290Y-79695250D01*
G75*
G02*
X124254040Y-79476500I218750J0D01*
G01*
G37*
%TD.AperFunction*%
%TD*%
%TO.P,C14,1*%
%TO.N,Net-(C14-Pad1)*%
%TA.AperFunction,SMDPad,CuDef*%
G36*
G01*
X125656250Y-71639000D02*
X125143750Y-71639000D01*
G75*
G02*
X124925000Y-71420250I0J218750D01*
G01*
X124925000Y-70982750D01*
G75*
G02*
X125143750Y-70764000I218750J0D01*
G01*
X125656250Y-70764000D01*
G75*
G02*
X125875000Y-70982750I0J-218750D01*
G01*
X125875000Y-71420250D01*
G75*
G02*
X125656250Y-71639000I-218750J0D01*
G01*
G37*
%TD.AperFunction*%
%TO.P,C14,2*%
%TO.N,GND*%
%TA.AperFunction,SMDPad,CuDef*%
G36*
G01*
X125656250Y-70064000D02*
X125143750Y-70064000D01*
G75*
G02*
X124925000Y-69845250I0J218750D01*
G01*
X124925000Y-69407750D01*
G75*
G02*
X125143750Y-69189000I218750J0D01*
G01*
X125656250Y-69189000D01*
G75*
G02*
X125875000Y-69407750I0J-218750D01*
G01*
X125875000Y-69845250D01*
G75*
G02*
X125656250Y-70064000I-218750J0D01*
G01*
G37*
%TD.AperFunction*%
%TD*%
%TO.P,C13,1*%
%TO.N,Net-(C13-Pad1)*%
%TA.AperFunction,SMDPad,CuDef*%
G36*
G01*
X121764875Y-77468250D02*
X121252375Y-77468250D01*
G75*
G02*
X121033625Y-77249500I0J218750D01*
G01*
X121033625Y-76812000D01*
G75*
G02*
X121252375Y-76593250I218750J0D01*
G01*
X121764875Y-76593250D01*
G75*
G02*
X121983625Y-76812000I0J-218750D01*
G01*
X121983625Y-77249500D01*
G75*
G02*
X121764875Y-77468250I-218750J0D01*
G01*
G37*
%TD.AperFunction*%
%TO.P,C13,2*%
%TO.N,GND*%
%TA.AperFunction,SMDPad,CuDef*%
G36*
G01*
X121764875Y-75893250D02*
X121252375Y-75893250D01*
G75*
G02*
X121033625Y-75674500I0J218750D01*
G01*
X121033625Y-75237000D01*
G75*
G02*
X121252375Y-75018250I218750J0D01*
G01*
X121764875Y-75018250D01*
G75*
G02*
X121983625Y-75237000I0J-218750D01*
G01*
X121983625Y-75674500D01*
G75*
G02*
X121764875Y-75893250I-218750J0D01*
G01*
G37*
%TD.AperFunction*%
%TD*%
%TO.P,C12,1*%
%TO.N,Net-(C12-Pad1)*%
%TA.AperFunction,SMDPad,CuDef*%
G36*
G01*
X114455125Y-68524750D02*
X114967625Y-68524750D01*
G75*
G02*
X115186375Y-68743500I0J-218750D01*
G01*
X115186375Y-69181000D01*
G75*
G02*
X114967625Y-69399750I-218750J0D01*
G01*
X114455125Y-69399750D01*
G75*
G02*
X114236375Y-69181000I0J218750D01*
G01*
X114236375Y-68743500D01*
G75*
G02*
X114455125Y-68524750I218750J0D01*
G01*
G37*
%TD.AperFunction*%
%TO.P,C12,2*%
%TO.N,RESET*%
%TA.AperFunction,SMDPad,CuDef*%
G36*
G01*
X114455125Y-70099750D02*
X114967625Y-70099750D01*
G75*
G02*
X115186375Y-70318500I0J-218750D01*
G01*
X115186375Y-70756000D01*
G75*
G02*
X114967625Y-70974750I-218750J0D01*
G01*
X114455125Y-70974750D01*
G75*
G02*
X114236375Y-70756000I0J218750D01*
G01*
X114236375Y-70318500D01*
G75*
G02*
X114455125Y-70099750I218750J0D01*
G01*
G37*
%TD.AperFunction*%
%TD*%
%TO.P,C11,1*%
%TO.N,+3V3*%
%TA.AperFunction,SMDPad,CuDef*%
G36*
G01*
X128718250Y-71639000D02*
X128205750Y-71639000D01*
G75*
G02*
X127987000Y-71420250I0J218750D01*
G01*
X127987000Y-70982750D01*
G75*
G02*
X128205750Y-70764000I218750J0D01*
G01*
X128718250Y-70764000D01*
G75*
G02*
X128937000Y-70982750I0J-218750D01*
G01*
X128937000Y-71420250D01*
G75*
G02*
X128718250Y-71639000I-218750J0D01*
G01*
G37*
%TD.AperFunction*%
%TO.P,C11,2*%
%TO.N,GND*%
%TA.AperFunction,SMDPad,CuDef*%
G36*
G01*
X128718250Y-70064000D02*
X128205750Y-70064000D01*
G75*
G02*
X127987000Y-69845250I0J218750D01*
G01*
X127987000Y-69407750D01*
G75*
G02*
X128205750Y-69189000I218750J0D01*
G01*
X128718250Y-69189000D01*
G75*
G02*
X128937000Y-69407750I0J-218750D01*
G01*
X128937000Y-69845250D01*
G75*
G02*
X128718250Y-70064000I-218750J0D01*
G01*
G37*
%TD.AperFunction*%
%TD*%
%TO.P,C8,1*%
%TO.N,+5V*%
%TA.AperFunction,SMDPad,CuDef*%
G36*
G01*
X121252375Y-78320250D02*
X121764875Y-78320250D01*
G75*
G02*
X121983625Y-78539000I0J-218750D01*
G01*
X121983625Y-78976500D01*
G75*
G02*
X121764875Y-79195250I-218750J0D01*
G01*
X121252375Y-79195250D01*
G75*
G02*
X121033625Y-78976500I0J218750D01*
G01*
X121033625Y-78539000D01*
G75*
G02*
X121252375Y-78320250I218750J0D01*
G01*
G37*
%TD.AperFunction*%
%TO.P,C8,2*%
%TO.N,GND*%
%TA.AperFunction,SMDPad,CuDef*%
G36*
G01*
X121252375Y-79895250D02*
X121764875Y-79895250D01*
G75*
G02*
X121983625Y-80114000I0J-218750D01*
G01*
X121983625Y-80551500D01*
G75*
G02*
X121764875Y-80770250I-218750J0D01*
G01*
X121252375Y-80770250D01*
G75*
G02*
X121033625Y-80551500I0J218750D01*
G01*
X121033625Y-80114000D01*
G75*
G02*
X121252375Y-79895250I218750J0D01*
G01*
G37*
%TD.AperFunction*%
%TD*%
%TO.P,C5,1*%
%TO.N,+5V*%
%TA.AperFunction,SMDPad,CuDef*%
G36*
G01*
X109353000Y-77609750D02*
X109353000Y-78122250D01*
G75*
G02*
X109134250Y-78341000I-218750J0D01*
G01*
X108696750Y-78341000D01*
G75*
G02*
X108478000Y-78122250I0J218750D01*
G01*
X108478000Y-77609750D01*
G75*
G02*
X108696750Y-77391000I218750J0D01*
G01*
X109134250Y-77391000D01*
G75*
G02*
X109353000Y-77609750I0J-218750D01*
G01*
G37*
%TD.AperFunction*%
%TO.P,C5,2*%
%TO.N,GND*%
%TA.AperFunction,SMDPad,CuDef*%
G36*
G01*
X107778000Y-77609750D02*
X107778000Y-78122250D01*
G75*
G02*
X107559250Y-78341000I-218750J0D01*
G01*
X107121750Y-78341000D01*
G75*
G02*
X106903000Y-78122250I0J218750D01*
G01*
X106903000Y-77609750D01*
G75*
G02*
X107121750Y-77391000I218750J0D01*
G01*
X107559250Y-77391000D01*
G75*
G02*
X107778000Y-77609750I0J-218750D01*
G01*
G37*
%TD.AperFunction*%
%TD*%
%TO.P,C4,1*%
%TO.N,+3V3*%
%TA.AperFunction,SMDPad,CuDef*%
G36*
G01*
X123897961Y-71639000D02*
X123385461Y-71639000D01*
G75*
G02*
X123166711Y-71420250I0J218750D01*
G01*
X123166711Y-70982750D01*
G75*
G02*
X123385461Y-70764000I218750J0D01*
G01*
X123897961Y-70764000D01*
G75*
G02*
X124116711Y-70982750I0J-218750D01*
G01*
X124116711Y-71420250D01*
G75*
G02*
X123897961Y-71639000I-218750J0D01*
G01*
G37*
%TD.AperFunction*%
%TO.P,C4,2*%
%TO.N,GND*%
%TA.AperFunction,SMDPad,CuDef*%
G36*
G01*
X123897961Y-70064000D02*
X123385461Y-70064000D01*
G75*
G02*
X123166711Y-69845250I0J218750D01*
G01*
X123166711Y-69407750D01*
G75*
G02*
X123385461Y-69189000I218750J0D01*
G01*
X123897961Y-69189000D01*
G75*
G02*
X124116711Y-69407750I0J-218750D01*
G01*
X124116711Y-69845250D01*
G75*
G02*
X123897961Y-70064000I-218750J0D01*
G01*
G37*
%TD.AperFunction*%
%TD*%
%TO.P,C3,1*%
%TO.N,XTAL2*%
%TA.AperFunction,SMDPad,CuDef*%
G36*
G01*
X103463490Y-80205500D02*
X103463490Y-80718000D01*
G75*
G02*
X103244740Y-80936750I-218750J0D01*
G01*
X102807240Y-80936750D01*
G75*
G02*
X102588490Y-80718000I0J218750D01*
G01*
X102588490Y-80205500D01*
G75*
G02*
X102807240Y-79986750I218750J0D01*
G01*
X103244740Y-79986750D01*
G75*
G02*
X103463490Y-80205500I0J-218750D01*
G01*
G37*
%TD.AperFunction*%
%TO.P,C3,2*%
%TO.N,GND*%
%TA.AperFunction,SMDPad,CuDef*%
G36*
G01*
X101888490Y-80205500D02*
X101888490Y-80718000D01*
G75*
G02*
X101669740Y-80936750I-218750J0D01*
G01*
X101232240Y-80936750D01*
G75*
G02*
X101013490Y-80718000I0J218750D01*
G01*
X101013490Y-80205500D01*
G75*
G02*
X101232240Y-79986750I218750J0D01*
G01*
X101669740Y-79986750D01*
G75*
G02*
X101888490Y-80205500I0J-218750D01*
G01*
G37*
%TD.AperFunction*%
%TD*%
%TO.P,C2,1*%
%TO.N,+5V*%
%TA.AperFunction,SMDPad,CuDef*%
G36*
G01*
X109353000Y-76085750D02*
X109353000Y-76598250D01*
G75*
G02*
X109134250Y-76817000I-218750J0D01*
G01*
X108696750Y-76817000D01*
G75*
G02*
X108478000Y-76598250I0J218750D01*
G01*
X108478000Y-76085750D01*
G75*
G02*
X108696750Y-75867000I218750J0D01*
G01*
X109134250Y-75867000D01*
G75*
G02*
X109353000Y-76085750I0J-218750D01*
G01*
G37*
%TD.AperFunction*%
%TO.P,C2,2*%
%TO.N,GND*%
%TA.AperFunction,SMDPad,CuDef*%
G36*
G01*
X107778000Y-76085750D02*
X107778000Y-76598250D01*
G75*
G02*
X107559250Y-76817000I-218750J0D01*
G01*
X107121750Y-76817000D01*
G75*
G02*
X106903000Y-76598250I0J218750D01*
G01*
X106903000Y-76085750D01*
G75*
G02*
X107121750Y-75867000I218750J0D01*
G01*
X107559250Y-75867000D01*
G75*
G02*
X107778000Y-76085750I0J-218750D01*
G01*
G37*
%TD.AperFunction*%
%TD*%
%TO.P,C1,1*%
%TO.N,XTAL1*%
%TA.AperFunction,SMDPad,CuDef*%
G36*
G01*
X103463490Y-71823500D02*
X103463490Y-72336000D01*
G75*
G02*
X103244740Y-72554750I-218750J0D01*
G01*
X102807240Y-72554750D01*
G75*
G02*
X102588490Y-72336000I0J218750D01*
G01*
X102588490Y-71823500D01*
G75*
G02*
X102807240Y-71604750I218750J0D01*
G01*
X103244740Y-71604750D01*
G75*
G02*
X103463490Y-71823500I0J-218750D01*
G01*
G37*
%TD.AperFunction*%
%TO.P,C1,2*%
%TO.N,GND*%
%TA.AperFunction,SMDPad,CuDef*%
G36*
G01*
X101888490Y-71823500D02*
X101888490Y-72336000D01*
G75*
G02*
X101669740Y-72554750I-218750J0D01*
G01*
X101232240Y-72554750D01*
G75*
G02*
X101013490Y-72336000I0J218750D01*
G01*
X101013490Y-71823500D01*
G75*
G02*
X101232240Y-71604750I218750J0D01*
G01*
X101669740Y-71604750D01*
G75*
G02*
X101888490Y-71823500I0J-218750D01*
G01*
G37*
%TD.AperFunction*%
%TD*%
D16*
%TO.N,GND*%
X117780000Y-76243250D03*
X117780000Y-75240000D03*
X120066000Y-83622000D03*
X120066000Y-82606000D03*
%TO.N,+3V3*%
X123698200Y-72496800D03*
%TO.N,GND*%
X123672800Y-77018000D03*
X121844000Y-69144000D03*
%TO.N,RESET*%
X121894800Y-67569200D03*
%TO.N,GND*%
X123693000Y-68433000D03*
X125471000Y-68433000D03*
%TO.N,+3V3*%
X128026890Y-72522200D03*
%TO.N,GND*%
X128052290Y-77018000D03*
X126995000Y-68433000D03*
X128519000Y-68433000D03*
%TO.N,+5V*%
X117780000Y-77526000D03*
%TO.N,+3V3*%
X119050000Y-72954000D03*
X120066000Y-72954000D03*
%TO.N,S1*%
X116764000Y-83114000D03*
%TO.N,S2*%
X115748000Y-83114000D03*
%TO.N,+5V*%
X111938000Y-67874000D03*
%TO.N,GND*%
X107874000Y-82098000D03*
%TO.N,S4*%
X110160000Y-68636000D03*
%TO.N,RX*%
X113208000Y-70668000D03*
%TO.N,TX*%
X111938000Y-70668000D03*
X114478000Y-66604000D03*
%TO.N,RX*%
X115494000Y-66604000D03*
%TO.N,BAT*%
X120066000Y-71684000D03*
%TO.N,PPM*%
X116510000Y-63556000D03*
%TO.N,GND*%
X113970000Y-63556000D03*
%TO.N,+5V*%
X115240000Y-63556000D03*
%TO.N,S3/MOSI*%
X116256000Y-87178000D03*
%TO.N,GND*%
X112446000Y-79050000D03*
%TO.N,+3V3*%
X127558290Y-81133000D03*
X126034290Y-81133000D03*
%TO.N,GND*%
X112700000Y-83114000D03*
X119558000Y-67620000D03*
%TO.N,RESET*%
X115240000Y-88956000D03*
%TO.N,+5V*%
X118288000Y-83114000D03*
%TO.N,GND*%
X118542000Y-65334000D03*
X111176000Y-83114000D03*
%TO.N,+5V*%
X108814500Y-74131500D03*
%TO.N,GND*%
X124510290Y-81164500D03*
%TO.N,+5V*%
X108814500Y-75046500D03*
%TO.N,GND*%
X107391500Y-74030500D03*
X107391500Y-75046500D03*
X112642625Y-77137250D03*
X112642625Y-75613250D03*
X121590000Y-74224000D03*
X101347990Y-70655250D03*
X101347990Y-81831250D03*
X121508625Y-81577250D03*
%TD*%
D17*
%TO.N,GND*%
X119468375Y-76297500D02*
X117834250Y-76297500D01*
X117834250Y-76297500D02*
X117780000Y-76243250D01*
D18*
%TO.N,SCK*%
X117264000Y-87291000D02*
X118589010Y-88616010D01*
X119750402Y-88616010D02*
X121996400Y-86370012D01*
X118589010Y-88616010D02*
X119750402Y-88616010D01*
X121996400Y-83138027D02*
X120708615Y-81850242D01*
X121996400Y-86370012D02*
X121996400Y-83138027D01*
X120708615Y-81850242D02*
X120708615Y-80737740D01*
X120708615Y-80737740D02*
X119468375Y-79497500D01*
%TO.N,SCL*%
X115618375Y-72447500D02*
X115618375Y-71647500D01*
X115618375Y-71647500D02*
X117047885Y-70217990D01*
X117047885Y-70217990D02*
X121342804Y-70217990D01*
X121342804Y-70217990D02*
X122860000Y-71735186D01*
X122860000Y-71735186D02*
X122860000Y-77983200D01*
X122860000Y-77983200D02*
X123978310Y-79101510D01*
X123978310Y-79101510D02*
X125271780Y-79101510D01*
X125271780Y-79101510D02*
X126034290Y-78339000D01*
D17*
%TO.N,+3V3*%
X123698200Y-72496800D02*
X123641711Y-72386179D01*
X123641711Y-72386179D02*
X123641711Y-71201500D01*
D18*
%TO.N,GND*%
X123672800Y-77018000D02*
X123816290Y-76682000D01*
X123816290Y-76682000D02*
X123816290Y-76044500D01*
D17*
X120669375Y-69182000D02*
X121806000Y-69182000D01*
X121806000Y-69182000D02*
X121844000Y-69144000D01*
X116569375Y-69182000D02*
X117996000Y-69182000D01*
X117996000Y-69182000D02*
X119558000Y-67620000D01*
D18*
%TO.N,RESET*%
X120669375Y-67582000D02*
X119982374Y-66894999D01*
X119982374Y-66894999D02*
X117256376Y-66894999D01*
X117256376Y-66894999D02*
X116569375Y-67582000D01*
%TO.N,TX*%
X114615000Y-65194000D02*
X114615000Y-66467000D01*
X114615000Y-66467000D02*
X114478000Y-66604000D01*
%TO.N,RX*%
X115865000Y-65194000D02*
X115865000Y-66233000D01*
X115865000Y-66233000D02*
X115494000Y-66604000D01*
%TO.N,Net-(C12-Pad1)*%
X113365000Y-65194000D02*
X113365000Y-66761000D01*
X113365000Y-66761000D02*
X114711375Y-68107375D01*
X114711375Y-68107375D02*
X114711375Y-68962250D01*
D17*
%TO.N,GND*%
X120669375Y-69182000D02*
X119558000Y-68070625D01*
X119558000Y-68070625D02*
X119558000Y-67620000D01*
D18*
%TO.N,RESET*%
X120669375Y-67582000D02*
X121882000Y-67582000D01*
X121882000Y-67582000D02*
X121894800Y-67569200D01*
X114711375Y-70537250D02*
X115511385Y-69737240D01*
X115511385Y-69737240D02*
X115511385Y-68639990D01*
X115511385Y-68639990D02*
X116569375Y-67582000D01*
D17*
%TO.N,XTAL2*%
X102363990Y-78166500D02*
X102363990Y-79799750D01*
X102363990Y-79799750D02*
X103025990Y-80461750D01*
%TO.N,XTAL1*%
X102363990Y-74466500D02*
X102363990Y-72741750D01*
X102363990Y-72741750D02*
X103025990Y-72079750D01*
D18*
%TO.N,SDA*%
X122352000Y-79175502D02*
X122352000Y-80079212D01*
X127666292Y-82098000D02*
X128358300Y-81405992D01*
X122352000Y-80079212D02*
X124370788Y-82098000D01*
X124370788Y-82098000D02*
X127666292Y-82098000D01*
X128358300Y-81405992D02*
X128358300Y-79139010D01*
X128358300Y-79139010D02*
X127558290Y-78339000D01*
%TO.N,GND*%
X125016290Y-72844500D02*
X125016290Y-72098882D01*
X125016290Y-72098882D02*
X124906208Y-71988800D01*
%TO.N,Net-(C14-Pad1)*%
X125516290Y-72844500D02*
X125516290Y-71317790D01*
X125516290Y-71317790D02*
X125400000Y-71201500D01*
%TO.N,Net-(R2-Pad1)*%
X126016290Y-72844500D02*
X126016290Y-72123210D01*
X126016290Y-72123210D02*
X126938000Y-71201500D01*
%TO.N,+3V3*%
X126516290Y-72294500D02*
X126716300Y-72094490D01*
X126716300Y-72094490D02*
X127599180Y-72094490D01*
X127599180Y-72094490D02*
X128026890Y-72522200D01*
D17*
X128462000Y-71201500D02*
X128462000Y-72087090D01*
X128462000Y-72087090D02*
X128026890Y-72522200D01*
D18*
%TO.N,SDA*%
X116418375Y-72447500D02*
X116418375Y-71647500D01*
X116418375Y-71647500D02*
X117397875Y-70668000D01*
X117397875Y-70668000D02*
X121156404Y-70668000D01*
X121156404Y-70668000D02*
X122352000Y-71863596D01*
X122352000Y-71863596D02*
X122352000Y-79175502D01*
D17*
%TO.N,GND*%
X125400000Y-69626500D02*
X125400000Y-68504000D01*
X125400000Y-68504000D02*
X125471000Y-68433000D01*
X123641711Y-69626500D02*
X123641711Y-68484289D01*
X123641711Y-68484289D02*
X123693000Y-68433000D01*
D18*
X123641711Y-69626500D02*
X123811000Y-69626500D01*
X123811000Y-69626500D02*
X124511000Y-70326500D01*
D17*
%TO.N,+3V3*%
X123641711Y-71201500D02*
X123641711Y-71703711D01*
X128462000Y-71201500D02*
X128462000Y-71952000D01*
D18*
%TO.N,GND*%
X128052290Y-77018000D02*
X127716290Y-76682000D01*
X127716290Y-76682000D02*
X127716290Y-76044500D01*
X124511000Y-71593592D02*
X124511000Y-70326500D01*
X124906208Y-71988800D02*
X124511000Y-71593592D01*
X124511000Y-70326500D02*
X125414000Y-69423500D01*
D17*
X126938000Y-69626500D02*
X126938000Y-68490000D01*
X126938000Y-68490000D02*
X126995000Y-68433000D01*
X126938000Y-69626500D02*
X128462000Y-69626500D01*
X125400000Y-69626500D02*
X126938000Y-69626500D01*
X123641711Y-69626500D02*
X125400000Y-69626500D01*
D18*
%TO.N,+3V3*%
X123816290Y-73544500D02*
X123816290Y-72782000D01*
X123816290Y-72782000D02*
X123734290Y-72700000D01*
D17*
%TO.N,GND*%
X128462000Y-69677500D02*
X128462000Y-68490000D01*
X128462000Y-68490000D02*
X128519000Y-68433000D01*
%TO.N,+5V*%
X117780000Y-77526000D02*
X117780000Y-78034000D01*
X117780000Y-78034000D02*
X118556963Y-78697500D01*
X118556963Y-78697500D02*
X119468375Y-78697500D01*
D18*
%TO.N,BAT*%
X117218375Y-72447500D02*
X117218375Y-71647500D01*
X117218375Y-71647500D02*
X117543385Y-71322490D01*
X117543385Y-71322490D02*
X119704490Y-71322490D01*
X119704490Y-71322490D02*
X120066000Y-71684000D01*
D17*
%TO.N,XTAL1*%
X104546500Y-79278500D02*
X108921260Y-79278500D01*
X104064000Y-75816510D02*
X104064000Y-78796000D01*
X104546500Y-79278500D02*
X104064000Y-78796000D01*
X108921260Y-79278500D02*
X109427270Y-78772490D01*
%TO.N,XTAL2*%
X103417740Y-80853500D02*
X108336222Y-80853500D01*
X108336222Y-80853500D02*
X109692222Y-79497500D01*
X103417740Y-80853500D02*
X103025990Y-80461750D01*
X109692222Y-79497500D02*
X110968375Y-79497500D01*
%TO.N,GND*%
X121508625Y-75455750D02*
X121508625Y-74305375D01*
X121508625Y-74305375D02*
X121590000Y-74224000D01*
D18*
%TO.N,S3/MOSI*%
X116264000Y-85541000D02*
X116264000Y-87170000D01*
X116264000Y-87170000D02*
X116256000Y-87178000D01*
%TO.N,TX*%
X112192000Y-70668000D02*
X112192000Y-70922000D01*
X112192000Y-70922000D02*
X112592490Y-71322490D01*
X112592490Y-71322490D02*
X112893365Y-71322490D01*
X112893365Y-71322490D02*
X113218375Y-71647500D01*
X113218375Y-71647500D02*
X113218375Y-72447500D01*
D17*
%TO.N,GND*%
X111106400Y-85541000D02*
X111106400Y-83183600D01*
X111106400Y-83183600D02*
X111176000Y-83114000D01*
D18*
%TO.N,MISO*%
X118018375Y-80947500D02*
X119169500Y-80947500D01*
X119169500Y-80947500D02*
X119304000Y-81082000D01*
X119304000Y-81082000D02*
X119304000Y-87251000D01*
D17*
%TO.N,+5V*%
X118264000Y-85541000D02*
X118264000Y-83138000D01*
X118264000Y-83138000D02*
X118288000Y-83114000D01*
D18*
%TO.N,S2*%
X115748000Y-83114000D02*
X115748000Y-82354820D01*
X115748000Y-82354820D02*
X116418375Y-81684445D01*
%TO.N,S1*%
X116764000Y-83114000D02*
X116510000Y-83114000D01*
X116510000Y-83114000D02*
X116473001Y-83150999D01*
X116473001Y-83150999D02*
X116473001Y-83462001D01*
X116473001Y-83462001D02*
X116096001Y-83839001D01*
X116096001Y-83839001D02*
X115399999Y-83839001D01*
X115399999Y-83839001D02*
X114986000Y-83425002D01*
X114986000Y-83425002D02*
X114986000Y-82480410D01*
X114986000Y-82480410D02*
X115618375Y-81848035D01*
X115618375Y-81848035D02*
X115618375Y-80947500D01*
%TO.N,S3/MOSI*%
X117218375Y-81682136D02*
X117526000Y-81989761D01*
X117526000Y-81989761D02*
X117526000Y-84279000D01*
X117526000Y-84279000D02*
X116264000Y-85541000D01*
D17*
%TO.N,GND*%
X114264000Y-84678000D02*
X112700000Y-83114000D01*
D18*
%TO.N,BUZ*%
X111974999Y-87159599D02*
X111974999Y-82765999D01*
X111974999Y-82765999D02*
X112388998Y-82352000D01*
X112388998Y-82352000D02*
X114478000Y-82352000D01*
X114478000Y-82352000D02*
X114818375Y-82011625D01*
X114818375Y-82011625D02*
X114818375Y-80947500D01*
D17*
%TO.N,+5V*%
X113208000Y-67848500D02*
X111963500Y-67848500D01*
X111963500Y-67848500D02*
X111938000Y-67874000D01*
D18*
%TO.N,RESET*%
X113597625Y-69423500D02*
X114711375Y-70537250D01*
%TO.N,RX*%
X113208000Y-70668000D02*
X114018375Y-71478375D01*
X114018375Y-71478375D02*
X114018375Y-72447500D01*
%TO.N,S4*%
X110968375Y-73897500D02*
X110968375Y-71987462D01*
X110968375Y-71987462D02*
X110160000Y-71179087D01*
X110160000Y-71179087D02*
X110160000Y-68636000D01*
%TO.N,PPM*%
X112418375Y-72447500D02*
X111118374Y-71147499D01*
X111118374Y-71147499D02*
X111118374Y-65149624D01*
X111118374Y-65149624D02*
X113561999Y-62705999D01*
X113561999Y-62705999D02*
X115659999Y-62705999D01*
X115659999Y-62705999D02*
X116510000Y-63556000D01*
D17*
%TO.N,+3V3*%
X126034290Y-79914000D02*
X126034290Y-81133000D01*
X127558290Y-79914000D02*
X127558290Y-81133000D01*
D18*
%TO.N,RESET*%
X115264000Y-87291000D02*
X115264000Y-88932000D01*
D17*
X115264000Y-88932000D02*
X115240000Y-88956000D01*
D18*
X114818375Y-72447500D02*
X114818375Y-70644250D01*
D17*
%TO.N,XTAL1*%
X102363990Y-74116500D02*
X104064000Y-75816510D01*
%TO.N,GND*%
X117115000Y-65194000D02*
X118402000Y-65194000D01*
X118402000Y-65194000D02*
X118542000Y-65334000D01*
%TO.N,XTAL1*%
X110945510Y-78772490D02*
X109427270Y-78772490D01*
%TO.N,+3V3*%
X127558290Y-79914000D02*
X126034290Y-79914000D01*
D18*
%TO.N,Net-(C15-Pad1)*%
X125016290Y-76744500D02*
X125016290Y-77833000D01*
X125016290Y-77833000D02*
X124510290Y-78339000D01*
%TO.N,SDA*%
X127016290Y-76744500D02*
X127016290Y-77797000D01*
X127016290Y-77797000D02*
X127558290Y-78339000D01*
%TO.N,SCL*%
X126516290Y-76744500D02*
X126516290Y-77857000D01*
X126516290Y-77857000D02*
X126034290Y-78339000D01*
%TO.N,+3V3*%
X126516290Y-72844500D02*
X126516290Y-72294500D01*
D17*
%TO.N,GND*%
X101450990Y-80461750D02*
X101450990Y-81728250D01*
X101450990Y-81728250D02*
X101347990Y-81831250D01*
X101450990Y-72079750D02*
X101450990Y-70758250D01*
X101450990Y-70758250D02*
X101347990Y-70655250D01*
X121508625Y-80332750D02*
X121508625Y-81577250D01*
%TO.N,+5V*%
X119468375Y-78697500D02*
X121206875Y-78697500D01*
%TO.N,Net-(C13-Pad1)*%
X119468375Y-77097500D02*
X121257375Y-77097500D01*
%TO.N,GND*%
X107340500Y-76342000D02*
X107340500Y-75097500D01*
%TO.N,+5V*%
X110968375Y-77897500D02*
X109059375Y-77897500D01*
X110968375Y-76297500D02*
X109008875Y-76297500D01*
X108864500Y-76342000D02*
X108864500Y-75197500D01*
X108864500Y-75197500D02*
X108814500Y-75147500D01*
X108814500Y-75147500D02*
X108814500Y-74131500D01*
%TO.N,GND*%
X107289500Y-75148500D02*
X107391500Y-75046500D01*
X124510290Y-79914000D02*
X124510290Y-81164500D01*
X111031625Y-75533750D02*
X112563125Y-75533750D01*
X111031625Y-77133750D02*
X112639125Y-77133750D01*
X107340500Y-77866000D02*
X107340500Y-76393000D01*
%TO.N,+5V*%
X108915500Y-77866000D02*
X108915500Y-76393000D01*
%TD*%
%TO.N,GND*%
D19*
X129366001Y-84936507D02*
X129363163Y-84950582D01*
X129361999Y-84959862D01*
X129361435Y-84970986D01*
X129361417Y-84971368D01*
X129342881Y-85387589D01*
X129291232Y-85772118D01*
X129205609Y-86150516D01*
X129086681Y-86519830D01*
X128935402Y-86877084D01*
X128752957Y-87219492D01*
X128540797Y-87544328D01*
X128300610Y-87849002D01*
X128034280Y-88131132D01*
X127743923Y-88388471D01*
X127431854Y-88618968D01*
X127100515Y-88820821D01*
X126752555Y-88992416D01*
X126390707Y-89132405D01*
X126017849Y-89239673D01*
X125636940Y-89313369D01*
X125245986Y-89353425D01*
X124977113Y-89361170D01*
X124968193Y-89362065D01*
X124945412Y-89366000D01*
X119904815Y-89366000D01*
X119928595Y-89358273D01*
X119978578Y-89350357D01*
X119997441Y-89344228D01*
X120042528Y-89321255D01*
X120090646Y-89305621D01*
X120108318Y-89296616D01*
X120149249Y-89266877D01*
X120194336Y-89243904D01*
X120210382Y-89232246D01*
X120366809Y-89075819D01*
X120366814Y-89075812D01*
X122569844Y-86872783D01*
X122612637Y-86829991D01*
X122624294Y-86813946D01*
X122647262Y-86768868D01*
X122677006Y-86727930D01*
X122686010Y-86710258D01*
X122701647Y-86662133D01*
X122724618Y-86617050D01*
X122726155Y-86612320D01*
X123568699Y-86612320D01*
X123577814Y-86728135D01*
X123806604Y-86894363D01*
X123813873Y-86898922D01*
X124074740Y-87038798D01*
X124082560Y-87042329D01*
X124359998Y-87145507D01*
X124368224Y-87147944D01*
X124657098Y-87212514D01*
X124665579Y-87213812D01*
X124960543Y-87238581D01*
X124969122Y-87238716D01*
X125264718Y-87223225D01*
X125273236Y-87222194D01*
X125563996Y-87166728D01*
X125572295Y-87164551D01*
X125852836Y-87070138D01*
X125860762Y-87066855D01*
X126125896Y-86935242D01*
X126133303Y-86930913D01*
X126423477Y-86733712D01*
X126434637Y-86615656D01*
X125052191Y-85233210D01*
X124947809Y-85233210D01*
X123568699Y-86612320D01*
X122726155Y-86612320D01*
X122730747Y-86598189D01*
X122738664Y-86548204D01*
X122754297Y-86500090D01*
X122757399Y-86480502D01*
X122757399Y-86425203D01*
X122757400Y-86425191D01*
X122757400Y-85124598D01*
X122764541Y-85124598D01*
X122765035Y-85133164D01*
X122802133Y-85426832D01*
X122803785Y-85435252D01*
X122880397Y-85721168D01*
X122883176Y-85729285D01*
X122997881Y-86002159D01*
X123001736Y-86009824D01*
X123152413Y-86264606D01*
X123157273Y-86271677D01*
X123276974Y-86422701D01*
X123389776Y-86429205D01*
X124766790Y-85052191D01*
X124766790Y-84947809D01*
X125233210Y-84947809D01*
X125233210Y-85052191D01*
X126610388Y-86429369D01*
X126720911Y-86424736D01*
X126801873Y-86328930D01*
X126806953Y-86322015D01*
X126965559Y-86072093D01*
X126969653Y-86064553D01*
X127092873Y-85795417D01*
X127095905Y-85787391D01*
X127181459Y-85504022D01*
X127183375Y-85495659D01*
X127229731Y-85202974D01*
X127230505Y-85193766D01*
X127234073Y-84852988D01*
X127233493Y-84843766D01*
X127193276Y-84550176D01*
X127191536Y-84541774D01*
X127111936Y-84256675D01*
X127109072Y-84248588D01*
X126991515Y-83976930D01*
X126987580Y-83969306D01*
X126834243Y-83716116D01*
X126829309Y-83709096D01*
X126722158Y-83576777D01*
X126610114Y-83570905D01*
X125233210Y-84947809D01*
X124766790Y-84947809D01*
X123389831Y-83570850D01*
X123278547Y-83576098D01*
X123184309Y-83690011D01*
X123179302Y-83696979D01*
X123023323Y-83948549D01*
X123019308Y-83956131D01*
X122898912Y-84226543D01*
X122895964Y-84234601D01*
X122813382Y-84518850D01*
X122811554Y-84527233D01*
X122768313Y-84820059D01*
X122767640Y-84828613D01*
X122764541Y-85124598D01*
X122757400Y-85124598D01*
X122757400Y-83082848D01*
X122757399Y-83082836D01*
X122757399Y-83027537D01*
X122754297Y-83007949D01*
X122738664Y-82959835D01*
X122730747Y-82909850D01*
X122724618Y-82890989D01*
X122701647Y-82845906D01*
X122686010Y-82797781D01*
X122677006Y-82780109D01*
X122647262Y-82739171D01*
X122624294Y-82694093D01*
X122612637Y-82678048D01*
X122463391Y-82528803D01*
X121469615Y-81535028D01*
X121469615Y-80682561D01*
X121469614Y-80682549D01*
X121469614Y-80627249D01*
X121466512Y-80607660D01*
X121450878Y-80559545D01*
X121442961Y-80509563D01*
X121436833Y-80490701D01*
X121413860Y-80445613D01*
X121398225Y-80397495D01*
X121389221Y-80379824D01*
X121380626Y-80367994D01*
X121380626Y-80204750D01*
X121593384Y-80204751D01*
X121594103Y-80209290D01*
X121609739Y-80257411D01*
X121617654Y-80307389D01*
X121623784Y-80326252D01*
X121636625Y-80351454D01*
X121636624Y-81335665D01*
X121710433Y-81409474D01*
X121804087Y-81409474D01*
X121817517Y-81408030D01*
X122108571Y-81344715D01*
X122129405Y-81336085D01*
X122324086Y-81210972D01*
X122337707Y-81199169D01*
X122364649Y-81168076D01*
X123871177Y-82674606D01*
X123871192Y-82674619D01*
X123910808Y-82714236D01*
X123926854Y-82725894D01*
X123971938Y-82748866D01*
X124012872Y-82778606D01*
X124030542Y-82787610D01*
X124078661Y-82803245D01*
X124123749Y-82826218D01*
X124142611Y-82832346D01*
X124192593Y-82840263D01*
X124240708Y-82855897D01*
X124260297Y-82858999D01*
X124315597Y-82858999D01*
X124315609Y-82859000D01*
X124354991Y-82859000D01*
X124125533Y-82938905D01*
X124117641Y-82942272D01*
X123853901Y-83076654D01*
X123846539Y-83081060D01*
X123577115Y-83268315D01*
X123566645Y-83385626D01*
X124947809Y-84766790D01*
X125052191Y-84766790D01*
X126432243Y-83386738D01*
X126422455Y-83270174D01*
X126173493Y-83093244D01*
X126166177Y-83088761D01*
X125903859Y-82951625D01*
X125896003Y-82948176D01*
X125648307Y-82859000D01*
X127721471Y-82859000D01*
X127721483Y-82858999D01*
X127776781Y-82858999D01*
X127796370Y-82855897D01*
X127844485Y-82840263D01*
X127894468Y-82832347D01*
X127913331Y-82826218D01*
X127958418Y-82803245D01*
X128006536Y-82787611D01*
X128024208Y-82778606D01*
X128065139Y-82748867D01*
X128110226Y-82725894D01*
X128126272Y-82714236D01*
X128282699Y-82557809D01*
X128282702Y-82557805D01*
X128931744Y-81908764D01*
X128974536Y-81865972D01*
X128986194Y-81849926D01*
X129009165Y-81804844D01*
X129038906Y-81763909D01*
X129047910Y-81746237D01*
X129063543Y-81698121D01*
X129086518Y-81653032D01*
X129092647Y-81634169D01*
X129100563Y-81584186D01*
X129116196Y-81536071D01*
X129119299Y-81516483D01*
X129119299Y-81461183D01*
X129119300Y-81461171D01*
X129119300Y-79083831D01*
X129119299Y-79083819D01*
X129119299Y-79028520D01*
X129116197Y-79008932D01*
X129100564Y-78960818D01*
X129092647Y-78910833D01*
X129086518Y-78891972D01*
X129063547Y-78846889D01*
X129047910Y-78798764D01*
X129038906Y-78781092D01*
X129009162Y-78740154D01*
X128986194Y-78695076D01*
X128974537Y-78679031D01*
X128672514Y-78377009D01*
X128672514Y-78081038D01*
X128671070Y-78067608D01*
X128607755Y-77776554D01*
X128599125Y-77755720D01*
X128474012Y-77561039D01*
X128462209Y-77547418D01*
X128289026Y-77397354D01*
X128273864Y-77387610D01*
X128065418Y-77292416D01*
X128048125Y-77287338D01*
X127878280Y-77262918D01*
X127869303Y-77262276D01*
X127788828Y-77262276D01*
X127805845Y-77154836D01*
X127806622Y-77144966D01*
X127806622Y-76834832D01*
X128116756Y-76834832D01*
X128126626Y-76834055D01*
X128279536Y-76809836D01*
X128298398Y-76803708D01*
X128482668Y-76709818D01*
X128498713Y-76698160D01*
X128644950Y-76551923D01*
X128656608Y-76535878D01*
X128750498Y-76351608D01*
X128756626Y-76332746D01*
X128784488Y-76156839D01*
X128709039Y-76068500D01*
X128628373Y-76068500D01*
X128644950Y-76051923D01*
X128656608Y-76035878D01*
X128664443Y-76020501D01*
X128709039Y-76020501D01*
X128784488Y-75932162D01*
X128762684Y-75794500D01*
X128780845Y-75679837D01*
X128781622Y-75669966D01*
X128781622Y-75419034D01*
X128780845Y-75409163D01*
X128762684Y-75294500D01*
X128780845Y-75179837D01*
X128781622Y-75169966D01*
X128781622Y-74919034D01*
X128780845Y-74909163D01*
X128762684Y-74794500D01*
X128780845Y-74679837D01*
X128781622Y-74669966D01*
X128781622Y-74419034D01*
X128780845Y-74409163D01*
X128762684Y-74294500D01*
X128780845Y-74179837D01*
X128781622Y-74169966D01*
X128781622Y-73919034D01*
X128780845Y-73909163D01*
X128762684Y-73794500D01*
X128780845Y-73679837D01*
X128781622Y-73669966D01*
X128781622Y-73419034D01*
X128780845Y-73409164D01*
X128756808Y-73257406D01*
X128850006Y-73164209D01*
X128860061Y-73151105D01*
X128988123Y-72929295D01*
X128994444Y-72914035D01*
X129031593Y-72775394D01*
X129034463Y-72773583D01*
X129048135Y-72761947D01*
X129108608Y-72693473D01*
X129130252Y-72671830D01*
X129136125Y-72665056D01*
X129149685Y-72646963D01*
X129204128Y-72585318D01*
X129213985Y-72570313D01*
X129225478Y-72545834D01*
X129241695Y-72524196D01*
X129250316Y-72508448D01*
X129279182Y-72431446D01*
X129314217Y-72356825D01*
X129319526Y-72339269D01*
X129323362Y-72313598D01*
X129333036Y-72287793D01*
X129336891Y-72270258D01*
X129343866Y-72176408D01*
X129347307Y-72153382D01*
X129348000Y-72144056D01*
X129348000Y-72120775D01*
X129354355Y-72035254D01*
X129353134Y-72017342D01*
X129349531Y-72000465D01*
X129366000Y-71981459D01*
X129366001Y-84936507D01*
%TA.AperFunction,Conductor*%
G36*
X129366001Y-84936507D02*
G01*
X129363163Y-84950582D01*
X129361999Y-84959862D01*
X129361435Y-84970986D01*
X129361417Y-84971368D01*
X129342881Y-85387589D01*
X129291232Y-85772118D01*
X129205609Y-86150516D01*
X129086681Y-86519830D01*
X128935402Y-86877084D01*
X128752957Y-87219492D01*
X128540797Y-87544328D01*
X128300610Y-87849002D01*
X128034280Y-88131132D01*
X127743923Y-88388471D01*
X127431854Y-88618968D01*
X127100515Y-88820821D01*
X126752555Y-88992416D01*
X126390707Y-89132405D01*
X126017849Y-89239673D01*
X125636940Y-89313369D01*
X125245986Y-89353425D01*
X124977113Y-89361170D01*
X124968193Y-89362065D01*
X124945412Y-89366000D01*
X119904815Y-89366000D01*
X119928595Y-89358273D01*
X119978578Y-89350357D01*
X119997441Y-89344228D01*
X120042528Y-89321255D01*
X120090646Y-89305621D01*
X120108318Y-89296616D01*
X120149249Y-89266877D01*
X120194336Y-89243904D01*
X120210382Y-89232246D01*
X120366809Y-89075819D01*
X120366814Y-89075812D01*
X122569844Y-86872783D01*
X122612637Y-86829991D01*
X122624294Y-86813946D01*
X122647262Y-86768868D01*
X122677006Y-86727930D01*
X122686010Y-86710258D01*
X122701647Y-86662133D01*
X122724618Y-86617050D01*
X122726155Y-86612320D01*
X123568699Y-86612320D01*
X123577814Y-86728135D01*
X123806604Y-86894363D01*
X123813873Y-86898922D01*
X124074740Y-87038798D01*
X124082560Y-87042329D01*
X124359998Y-87145507D01*
X124368224Y-87147944D01*
X124657098Y-87212514D01*
X124665579Y-87213812D01*
X124960543Y-87238581D01*
X124969122Y-87238716D01*
X125264718Y-87223225D01*
X125273236Y-87222194D01*
X125563996Y-87166728D01*
X125572295Y-87164551D01*
X125852836Y-87070138D01*
X125860762Y-87066855D01*
X126125896Y-86935242D01*
X126133303Y-86930913D01*
X126423477Y-86733712D01*
X126434637Y-86615656D01*
X125052191Y-85233210D01*
X124947809Y-85233210D01*
X123568699Y-86612320D01*
X122726155Y-86612320D01*
X122730747Y-86598189D01*
X122738664Y-86548204D01*
X122754297Y-86500090D01*
X122757399Y-86480502D01*
X122757399Y-86425203D01*
X122757400Y-86425191D01*
X122757400Y-85124598D01*
X122764541Y-85124598D01*
X122765035Y-85133164D01*
X122802133Y-85426832D01*
X122803785Y-85435252D01*
X122880397Y-85721168D01*
X122883176Y-85729285D01*
X122997881Y-86002159D01*
X123001736Y-86009824D01*
X123152413Y-86264606D01*
X123157273Y-86271677D01*
X123276974Y-86422701D01*
X123389776Y-86429205D01*
X124766790Y-85052191D01*
X124766790Y-84947809D01*
X125233210Y-84947809D01*
X125233210Y-85052191D01*
X126610388Y-86429369D01*
X126720911Y-86424736D01*
X126801873Y-86328930D01*
X126806953Y-86322015D01*
X126965559Y-86072093D01*
X126969653Y-86064553D01*
X127092873Y-85795417D01*
X127095905Y-85787391D01*
X127181459Y-85504022D01*
X127183375Y-85495659D01*
X127229731Y-85202974D01*
X127230505Y-85193766D01*
X127234073Y-84852988D01*
X127233493Y-84843766D01*
X127193276Y-84550176D01*
X127191536Y-84541774D01*
X127111936Y-84256675D01*
X127109072Y-84248588D01*
X126991515Y-83976930D01*
X126987580Y-83969306D01*
X126834243Y-83716116D01*
X126829309Y-83709096D01*
X126722158Y-83576777D01*
X126610114Y-83570905D01*
X125233210Y-84947809D01*
X124766790Y-84947809D01*
X123389831Y-83570850D01*
X123278547Y-83576098D01*
X123184309Y-83690011D01*
X123179302Y-83696979D01*
X123023323Y-83948549D01*
X123019308Y-83956131D01*
X122898912Y-84226543D01*
X122895964Y-84234601D01*
X122813382Y-84518850D01*
X122811554Y-84527233D01*
X122768313Y-84820059D01*
X122767640Y-84828613D01*
X122764541Y-85124598D01*
X122757400Y-85124598D01*
X122757400Y-83082848D01*
X122757399Y-83082836D01*
X122757399Y-83027537D01*
X122754297Y-83007949D01*
X122738664Y-82959835D01*
X122730747Y-82909850D01*
X122724618Y-82890989D01*
X122701647Y-82845906D01*
X122686010Y-82797781D01*
X122677006Y-82780109D01*
X122647262Y-82739171D01*
X122624294Y-82694093D01*
X122612637Y-82678048D01*
X122463391Y-82528803D01*
X121469615Y-81535028D01*
X121469615Y-80682561D01*
X121469614Y-80682549D01*
X121469614Y-80627249D01*
X121466512Y-80607660D01*
X121450878Y-80559545D01*
X121442961Y-80509563D01*
X121436833Y-80490701D01*
X121413860Y-80445613D01*
X121398225Y-80397495D01*
X121389221Y-80379824D01*
X121380626Y-80367994D01*
X121380626Y-80204750D01*
X121593384Y-80204751D01*
X121594103Y-80209290D01*
X121609739Y-80257411D01*
X121617654Y-80307389D01*
X121623784Y-80326252D01*
X121636625Y-80351454D01*
X121636624Y-81335665D01*
X121710433Y-81409474D01*
X121804087Y-81409474D01*
X121817517Y-81408030D01*
X122108571Y-81344715D01*
X122129405Y-81336085D01*
X122324086Y-81210972D01*
X122337707Y-81199169D01*
X122364649Y-81168076D01*
X123871177Y-82674606D01*
X123871192Y-82674619D01*
X123910808Y-82714236D01*
X123926854Y-82725894D01*
X123971938Y-82748866D01*
X124012872Y-82778606D01*
X124030542Y-82787610D01*
X124078661Y-82803245D01*
X124123749Y-82826218D01*
X124142611Y-82832346D01*
X124192593Y-82840263D01*
X124240708Y-82855897D01*
X124260297Y-82858999D01*
X124315597Y-82858999D01*
X124315609Y-82859000D01*
X124354991Y-82859000D01*
X124125533Y-82938905D01*
X124117641Y-82942272D01*
X123853901Y-83076654D01*
X123846539Y-83081060D01*
X123577115Y-83268315D01*
X123566645Y-83385626D01*
X124947809Y-84766790D01*
X125052191Y-84766790D01*
X126432243Y-83386738D01*
X126422455Y-83270174D01*
X126173493Y-83093244D01*
X126166177Y-83088761D01*
X125903859Y-82951625D01*
X125896003Y-82948176D01*
X125648307Y-82859000D01*
X127721471Y-82859000D01*
X127721483Y-82858999D01*
X127776781Y-82858999D01*
X127796370Y-82855897D01*
X127844485Y-82840263D01*
X127894468Y-82832347D01*
X127913331Y-82826218D01*
X127958418Y-82803245D01*
X128006536Y-82787611D01*
X128024208Y-82778606D01*
X128065139Y-82748867D01*
X128110226Y-82725894D01*
X128126272Y-82714236D01*
X128282699Y-82557809D01*
X128282702Y-82557805D01*
X128931744Y-81908764D01*
X128974536Y-81865972D01*
X128986194Y-81849926D01*
X129009165Y-81804844D01*
X129038906Y-81763909D01*
X129047910Y-81746237D01*
X129063543Y-81698121D01*
X129086518Y-81653032D01*
X129092647Y-81634169D01*
X129100563Y-81584186D01*
X129116196Y-81536071D01*
X129119299Y-81516483D01*
X129119299Y-81461183D01*
X129119300Y-81461171D01*
X129119300Y-79083831D01*
X129119299Y-79083819D01*
X129119299Y-79028520D01*
X129116197Y-79008932D01*
X129100564Y-78960818D01*
X129092647Y-78910833D01*
X129086518Y-78891972D01*
X129063547Y-78846889D01*
X129047910Y-78798764D01*
X129038906Y-78781092D01*
X129009162Y-78740154D01*
X128986194Y-78695076D01*
X128974537Y-78679031D01*
X128672514Y-78377009D01*
X128672514Y-78081038D01*
X128671070Y-78067608D01*
X128607755Y-77776554D01*
X128599125Y-77755720D01*
X128474012Y-77561039D01*
X128462209Y-77547418D01*
X128289026Y-77397354D01*
X128273864Y-77387610D01*
X128065418Y-77292416D01*
X128048125Y-77287338D01*
X127878280Y-77262918D01*
X127869303Y-77262276D01*
X127788828Y-77262276D01*
X127805845Y-77154836D01*
X127806622Y-77144966D01*
X127806622Y-76834832D01*
X128116756Y-76834832D01*
X128126626Y-76834055D01*
X128279536Y-76809836D01*
X128298398Y-76803708D01*
X128482668Y-76709818D01*
X128498713Y-76698160D01*
X128644950Y-76551923D01*
X128656608Y-76535878D01*
X128750498Y-76351608D01*
X128756626Y-76332746D01*
X128784488Y-76156839D01*
X128709039Y-76068500D01*
X128628373Y-76068500D01*
X128644950Y-76051923D01*
X128656608Y-76035878D01*
X128664443Y-76020501D01*
X128709039Y-76020501D01*
X128784488Y-75932162D01*
X128762684Y-75794500D01*
X128780845Y-75679837D01*
X128781622Y-75669966D01*
X128781622Y-75419034D01*
X128780845Y-75409163D01*
X128762684Y-75294500D01*
X128780845Y-75179837D01*
X128781622Y-75169966D01*
X128781622Y-74919034D01*
X128780845Y-74909163D01*
X128762684Y-74794500D01*
X128780845Y-74679837D01*
X128781622Y-74669966D01*
X128781622Y-74419034D01*
X128780845Y-74409163D01*
X128762684Y-74294500D01*
X128780845Y-74179837D01*
X128781622Y-74169966D01*
X128781622Y-73919034D01*
X128780845Y-73909163D01*
X128762684Y-73794500D01*
X128780845Y-73679837D01*
X128781622Y-73669966D01*
X128781622Y-73419034D01*
X128780845Y-73409164D01*
X128756808Y-73257406D01*
X128850006Y-73164209D01*
X128860061Y-73151105D01*
X128988123Y-72929295D01*
X128994444Y-72914035D01*
X129031593Y-72775394D01*
X129034463Y-72773583D01*
X129048135Y-72761947D01*
X129108608Y-72693473D01*
X129130252Y-72671830D01*
X129136125Y-72665056D01*
X129149685Y-72646963D01*
X129204128Y-72585318D01*
X129213985Y-72570313D01*
X129225478Y-72545834D01*
X129241695Y-72524196D01*
X129250316Y-72508448D01*
X129279182Y-72431446D01*
X129314217Y-72356825D01*
X129319526Y-72339269D01*
X129323362Y-72313598D01*
X129333036Y-72287793D01*
X129336891Y-72270258D01*
X129343866Y-72176408D01*
X129347307Y-72153382D01*
X129348000Y-72144056D01*
X129348000Y-72120775D01*
X129354355Y-72035254D01*
X129353134Y-72017342D01*
X129349531Y-72000465D01*
X129366000Y-71981459D01*
X129366001Y-84936507D01*
G37*
%TD.AperFunction*%
X110151913Y-80413378D02*
X110162874Y-80414337D01*
X111501538Y-80414337D01*
X111501538Y-81755758D01*
X111503694Y-81772134D01*
X111578512Y-82051359D01*
X111590464Y-82074320D01*
X111358764Y-82306019D01*
X111347107Y-82322064D01*
X111324137Y-82367143D01*
X111294392Y-82408084D01*
X111285388Y-82425756D01*
X111269752Y-82473881D01*
X111246782Y-82518959D01*
X111240653Y-82537822D01*
X111232738Y-82587800D01*
X111217102Y-82635921D01*
X111214000Y-82655510D01*
X111214000Y-82716025D01*
X111213999Y-86174069D01*
X111207041Y-86186121D01*
X111199500Y-86206837D01*
X111165522Y-86399538D01*
X111164563Y-86410499D01*
X111164563Y-88174258D01*
X111166719Y-88190634D01*
X111241537Y-88469859D01*
X111254280Y-88494339D01*
X111385390Y-88650590D01*
X111402279Y-88664761D01*
X111576520Y-88765359D01*
X111597237Y-88772900D01*
X111789938Y-88806878D01*
X111800899Y-88807837D01*
X112414658Y-88807837D01*
X112431034Y-88805681D01*
X112710259Y-88730863D01*
X112734739Y-88718120D01*
X112890990Y-88587010D01*
X112905161Y-88570121D01*
X113005759Y-88395880D01*
X113013300Y-88375163D01*
X113047278Y-88182462D01*
X113048237Y-88171501D01*
X113048237Y-86407742D01*
X113046081Y-86391366D01*
X112971263Y-86112142D01*
X112958520Y-86087662D01*
X112827410Y-85931410D01*
X112810521Y-85917238D01*
X112735999Y-85874213D01*
X112735999Y-85742808D01*
X113322163Y-85742808D01*
X113322163Y-86424258D01*
X113324319Y-86440634D01*
X113399137Y-86719859D01*
X113411880Y-86744339D01*
X113542990Y-86900590D01*
X113559879Y-86914761D01*
X113734120Y-87015359D01*
X113754837Y-87022900D01*
X113947538Y-87056878D01*
X113958499Y-87057837D01*
X114062191Y-87057837D01*
X114136000Y-86984028D01*
X114136001Y-85742809D01*
X114062192Y-85669000D01*
X113395972Y-85668999D01*
X113322163Y-85742808D01*
X112735999Y-85742808D01*
X112735999Y-84660499D01*
X113322163Y-84660499D01*
X113322163Y-85339191D01*
X113395972Y-85413000D01*
X114062191Y-85413001D01*
X114136000Y-85339192D01*
X114136001Y-84097972D01*
X114062192Y-84024163D01*
X113955742Y-84024163D01*
X113939366Y-84026319D01*
X113660142Y-84101137D01*
X113635662Y-84113880D01*
X113479410Y-84244990D01*
X113465239Y-84261879D01*
X113364641Y-84436120D01*
X113357100Y-84456837D01*
X113323122Y-84649538D01*
X113322163Y-84660499D01*
X112735999Y-84660499D01*
X112735999Y-83113000D01*
X114225000Y-83113000D01*
X114225000Y-83480180D01*
X114225001Y-83480192D01*
X114225001Y-83535491D01*
X114228103Y-83555079D01*
X114243736Y-83603193D01*
X114251653Y-83653178D01*
X114257782Y-83672039D01*
X114280753Y-83717122D01*
X114296390Y-83765247D01*
X114305394Y-83782919D01*
X114335138Y-83823857D01*
X114358106Y-83868935D01*
X114369763Y-83884980D01*
X114508945Y-84024163D01*
X114465809Y-84024163D01*
X114392000Y-84097972D01*
X114391999Y-85339191D01*
X114465808Y-85413000D01*
X115132028Y-85413001D01*
X115205837Y-85339192D01*
X115205837Y-84657742D01*
X115203681Y-84641366D01*
X115186060Y-84575603D01*
X115221807Y-84581265D01*
X115269921Y-84596898D01*
X115289509Y-84600000D01*
X115331857Y-84600000D01*
X115323122Y-84649538D01*
X115322163Y-84660499D01*
X115322163Y-85774163D01*
X115205837Y-85774163D01*
X115205837Y-85742809D01*
X115132028Y-85669000D01*
X114465809Y-85668999D01*
X114392000Y-85742808D01*
X114392000Y-86138732D01*
X114364641Y-86186119D01*
X114357101Y-86206837D01*
X114323122Y-86399538D01*
X114322163Y-86410499D01*
X114322163Y-88174258D01*
X114324319Y-88190634D01*
X114375447Y-88381450D01*
X114278767Y-88548905D01*
X114272446Y-88564165D01*
X114206156Y-88811562D01*
X114204000Y-88827938D01*
X114204000Y-89084062D01*
X114206156Y-89100438D01*
X114272446Y-89347835D01*
X114278767Y-89363095D01*
X114280444Y-89366000D01*
X105063490Y-89366000D01*
X105049417Y-89363162D01*
X105040138Y-89361999D01*
X105029014Y-89361435D01*
X105028632Y-89361417D01*
X104612411Y-89342881D01*
X104227882Y-89291232D01*
X103849484Y-89205609D01*
X103480170Y-89086681D01*
X103122916Y-88935402D01*
X102780508Y-88752957D01*
X102455672Y-88540797D01*
X102150998Y-88300610D01*
X101868868Y-88034280D01*
X101611529Y-87743923D01*
X101381032Y-87431854D01*
X101179179Y-87100515D01*
X101007584Y-86752555D01*
X100953331Y-86612320D01*
X103568699Y-86612320D01*
X103577814Y-86728135D01*
X103806604Y-86894363D01*
X103813873Y-86898922D01*
X104074740Y-87038798D01*
X104082560Y-87042329D01*
X104359998Y-87145507D01*
X104368224Y-87147944D01*
X104657098Y-87212514D01*
X104665579Y-87213812D01*
X104960543Y-87238581D01*
X104969122Y-87238716D01*
X105264718Y-87223225D01*
X105273236Y-87222194D01*
X105563996Y-87166728D01*
X105572295Y-87164551D01*
X105852836Y-87070138D01*
X105860762Y-87066855D01*
X106125896Y-86935242D01*
X106133303Y-86930913D01*
X106423477Y-86733712D01*
X106434637Y-86615656D01*
X105052191Y-85233210D01*
X104947809Y-85233210D01*
X103568699Y-86612320D01*
X100953331Y-86612320D01*
X100867595Y-86390707D01*
X100760327Y-86017849D01*
X100686631Y-85636940D01*
X100646575Y-85245986D01*
X100643079Y-85124598D01*
X102764541Y-85124598D01*
X102765035Y-85133164D01*
X102802133Y-85426832D01*
X102803785Y-85435252D01*
X102880397Y-85721168D01*
X102883176Y-85729285D01*
X102997881Y-86002159D01*
X103001736Y-86009824D01*
X103152413Y-86264606D01*
X103157273Y-86271677D01*
X103276974Y-86422701D01*
X103389776Y-86429205D01*
X104766790Y-85052191D01*
X104766790Y-84947809D01*
X105233210Y-84947809D01*
X105233210Y-85052191D01*
X106610388Y-86429369D01*
X106720911Y-86424736D01*
X106801873Y-86328930D01*
X106806953Y-86322015D01*
X106965559Y-86072093D01*
X106969653Y-86064553D01*
X107092873Y-85795417D01*
X107095905Y-85787391D01*
X107109365Y-85742808D01*
X110164563Y-85742808D01*
X110164563Y-86424258D01*
X110166719Y-86440634D01*
X110241537Y-86719859D01*
X110254280Y-86744339D01*
X110385390Y-86900590D01*
X110402279Y-86914761D01*
X110576520Y-87015359D01*
X110597237Y-87022900D01*
X110789938Y-87056878D01*
X110800899Y-87057837D01*
X110904591Y-87057837D01*
X110978400Y-86984028D01*
X110978401Y-85742809D01*
X110904592Y-85669000D01*
X110238372Y-85668999D01*
X110164563Y-85742808D01*
X107109365Y-85742808D01*
X107181459Y-85504022D01*
X107183375Y-85495659D01*
X107229731Y-85202974D01*
X107230505Y-85193766D01*
X107234073Y-84852988D01*
X107233493Y-84843766D01*
X107208389Y-84660499D01*
X110164563Y-84660499D01*
X110164563Y-85339191D01*
X110238372Y-85413000D01*
X110904591Y-85413001D01*
X110978400Y-85339192D01*
X110978401Y-84097972D01*
X110904592Y-84024163D01*
X110798142Y-84024163D01*
X110781766Y-84026319D01*
X110502542Y-84101137D01*
X110478062Y-84113880D01*
X110321810Y-84244990D01*
X110307639Y-84261879D01*
X110207041Y-84436120D01*
X110199500Y-84456837D01*
X110165522Y-84649538D01*
X110164563Y-84660499D01*
X107208389Y-84660499D01*
X107193276Y-84550176D01*
X107191536Y-84541774D01*
X107111936Y-84256675D01*
X107109072Y-84248588D01*
X106991515Y-83976930D01*
X106987580Y-83969306D01*
X106834243Y-83716116D01*
X106829309Y-83709096D01*
X106722158Y-83576777D01*
X106610114Y-83570905D01*
X105233210Y-84947809D01*
X104766790Y-84947809D01*
X103389831Y-83570850D01*
X103278547Y-83576098D01*
X103184309Y-83690011D01*
X103179302Y-83696979D01*
X103023323Y-83948549D01*
X103019308Y-83956131D01*
X102898912Y-84226543D01*
X102895964Y-84234601D01*
X102813382Y-84518850D01*
X102811554Y-84527233D01*
X102768313Y-84820059D01*
X102767640Y-84828613D01*
X102764541Y-85124598D01*
X100643079Y-85124598D01*
X100638830Y-84977113D01*
X100637935Y-84968193D01*
X100634000Y-84945412D01*
X100634000Y-83385626D01*
X103566645Y-83385626D01*
X104947809Y-84766790D01*
X105052191Y-84766790D01*
X106432243Y-83386738D01*
X106422455Y-83270174D01*
X106173493Y-83093244D01*
X106166177Y-83088761D01*
X105903859Y-82951625D01*
X105896003Y-82948176D01*
X105617500Y-82847909D01*
X105609248Y-82845558D01*
X105319715Y-82784016D01*
X105311220Y-82782807D01*
X105016013Y-82761128D01*
X105007433Y-82761083D01*
X104712015Y-82779669D01*
X104703508Y-82780789D01*
X104413346Y-82839297D01*
X104405070Y-82841561D01*
X104125533Y-82938905D01*
X104117641Y-82942272D01*
X103853901Y-83076654D01*
X103846539Y-83081060D01*
X103577115Y-83268315D01*
X103566645Y-83385626D01*
X100634000Y-83385626D01*
X100634000Y-82732000D01*
X105132191Y-82732000D01*
X105206000Y-82658191D01*
X105206000Y-81841230D01*
X105334872Y-81900084D01*
X105352165Y-81905162D01*
X105522010Y-81929582D01*
X105530987Y-81930224D01*
X106137462Y-81930224D01*
X106150892Y-81928780D01*
X106441946Y-81865465D01*
X106462780Y-81856835D01*
X106645357Y-81739500D01*
X108236964Y-81739500D01*
X108255592Y-81743715D01*
X108273487Y-81745155D01*
X108364635Y-81739500D01*
X108395275Y-81739500D01*
X108404217Y-81738863D01*
X108426616Y-81735655D01*
X108508685Y-81730563D01*
X108526265Y-81726923D01*
X108551698Y-81717742D01*
X108578470Y-81713908D01*
X108595701Y-81708869D01*
X108670575Y-81674827D01*
X108748099Y-81646840D01*
X108764266Y-81638180D01*
X108785130Y-81622741D01*
X108810220Y-81611334D01*
X108825345Y-81601661D01*
X108896650Y-81540220D01*
X108915353Y-81526381D01*
X108922437Y-81520277D01*
X108938881Y-81503832D01*
X109003867Y-81447837D01*
X109015669Y-81434308D01*
X109029048Y-81413666D01*
X110047711Y-80395005D01*
X110151913Y-80413378D01*
%TA.AperFunction,Conductor*%
G36*
X110151913Y-80413378D02*
G01*
X110162874Y-80414337D01*
X111501538Y-80414337D01*
X111501538Y-81755758D01*
X111503694Y-81772134D01*
X111578512Y-82051359D01*
X111590464Y-82074320D01*
X111358764Y-82306019D01*
X111347107Y-82322064D01*
X111324137Y-82367143D01*
X111294392Y-82408084D01*
X111285388Y-82425756D01*
X111269752Y-82473881D01*
X111246782Y-82518959D01*
X111240653Y-82537822D01*
X111232738Y-82587800D01*
X111217102Y-82635921D01*
X111214000Y-82655510D01*
X111214000Y-82716025D01*
X111213999Y-86174069D01*
X111207041Y-86186121D01*
X111199500Y-86206837D01*
X111165522Y-86399538D01*
X111164563Y-86410499D01*
X111164563Y-88174258D01*
X111166719Y-88190634D01*
X111241537Y-88469859D01*
X111254280Y-88494339D01*
X111385390Y-88650590D01*
X111402279Y-88664761D01*
X111576520Y-88765359D01*
X111597237Y-88772900D01*
X111789938Y-88806878D01*
X111800899Y-88807837D01*
X112414658Y-88807837D01*
X112431034Y-88805681D01*
X112710259Y-88730863D01*
X112734739Y-88718120D01*
X112890990Y-88587010D01*
X112905161Y-88570121D01*
X113005759Y-88395880D01*
X113013300Y-88375163D01*
X113047278Y-88182462D01*
X113048237Y-88171501D01*
X113048237Y-86407742D01*
X113046081Y-86391366D01*
X112971263Y-86112142D01*
X112958520Y-86087662D01*
X112827410Y-85931410D01*
X112810521Y-85917238D01*
X112735999Y-85874213D01*
X112735999Y-85742808D01*
X113322163Y-85742808D01*
X113322163Y-86424258D01*
X113324319Y-86440634D01*
X113399137Y-86719859D01*
X113411880Y-86744339D01*
X113542990Y-86900590D01*
X113559879Y-86914761D01*
X113734120Y-87015359D01*
X113754837Y-87022900D01*
X113947538Y-87056878D01*
X113958499Y-87057837D01*
X114062191Y-87057837D01*
X114136000Y-86984028D01*
X114136001Y-85742809D01*
X114062192Y-85669000D01*
X113395972Y-85668999D01*
X113322163Y-85742808D01*
X112735999Y-85742808D01*
X112735999Y-84660499D01*
X113322163Y-84660499D01*
X113322163Y-85339191D01*
X113395972Y-85413000D01*
X114062191Y-85413001D01*
X114136000Y-85339192D01*
X114136001Y-84097972D01*
X114062192Y-84024163D01*
X113955742Y-84024163D01*
X113939366Y-84026319D01*
X113660142Y-84101137D01*
X113635662Y-84113880D01*
X113479410Y-84244990D01*
X113465239Y-84261879D01*
X113364641Y-84436120D01*
X113357100Y-84456837D01*
X113323122Y-84649538D01*
X113322163Y-84660499D01*
X112735999Y-84660499D01*
X112735999Y-83113000D01*
X114225000Y-83113000D01*
X114225000Y-83480180D01*
X114225001Y-83480192D01*
X114225001Y-83535491D01*
X114228103Y-83555079D01*
X114243736Y-83603193D01*
X114251653Y-83653178D01*
X114257782Y-83672039D01*
X114280753Y-83717122D01*
X114296390Y-83765247D01*
X114305394Y-83782919D01*
X114335138Y-83823857D01*
X114358106Y-83868935D01*
X114369763Y-83884980D01*
X114508945Y-84024163D01*
X114465809Y-84024163D01*
X114392000Y-84097972D01*
X114391999Y-85339191D01*
X114465808Y-85413000D01*
X115132028Y-85413001D01*
X115205837Y-85339192D01*
X115205837Y-84657742D01*
X115203681Y-84641366D01*
X115186060Y-84575603D01*
X115221807Y-84581265D01*
X115269921Y-84596898D01*
X115289509Y-84600000D01*
X115331857Y-84600000D01*
X115323122Y-84649538D01*
X115322163Y-84660499D01*
X115322163Y-85774163D01*
X115205837Y-85774163D01*
X115205837Y-85742809D01*
X115132028Y-85669000D01*
X114465809Y-85668999D01*
X114392000Y-85742808D01*
X114392000Y-86138732D01*
X114364641Y-86186119D01*
X114357101Y-86206837D01*
X114323122Y-86399538D01*
X114322163Y-86410499D01*
X114322163Y-88174258D01*
X114324319Y-88190634D01*
X114375447Y-88381450D01*
X114278767Y-88548905D01*
X114272446Y-88564165D01*
X114206156Y-88811562D01*
X114204000Y-88827938D01*
X114204000Y-89084062D01*
X114206156Y-89100438D01*
X114272446Y-89347835D01*
X114278767Y-89363095D01*
X114280444Y-89366000D01*
X105063490Y-89366000D01*
X105049417Y-89363162D01*
X105040138Y-89361999D01*
X105029014Y-89361435D01*
X105028632Y-89361417D01*
X104612411Y-89342881D01*
X104227882Y-89291232D01*
X103849484Y-89205609D01*
X103480170Y-89086681D01*
X103122916Y-88935402D01*
X102780508Y-88752957D01*
X102455672Y-88540797D01*
X102150998Y-88300610D01*
X101868868Y-88034280D01*
X101611529Y-87743923D01*
X101381032Y-87431854D01*
X101179179Y-87100515D01*
X101007584Y-86752555D01*
X100953331Y-86612320D01*
X103568699Y-86612320D01*
X103577814Y-86728135D01*
X103806604Y-86894363D01*
X103813873Y-86898922D01*
X104074740Y-87038798D01*
X104082560Y-87042329D01*
X104359998Y-87145507D01*
X104368224Y-87147944D01*
X104657098Y-87212514D01*
X104665579Y-87213812D01*
X104960543Y-87238581D01*
X104969122Y-87238716D01*
X105264718Y-87223225D01*
X105273236Y-87222194D01*
X105563996Y-87166728D01*
X105572295Y-87164551D01*
X105852836Y-87070138D01*
X105860762Y-87066855D01*
X106125896Y-86935242D01*
X106133303Y-86930913D01*
X106423477Y-86733712D01*
X106434637Y-86615656D01*
X105052191Y-85233210D01*
X104947809Y-85233210D01*
X103568699Y-86612320D01*
X100953331Y-86612320D01*
X100867595Y-86390707D01*
X100760327Y-86017849D01*
X100686631Y-85636940D01*
X100646575Y-85245986D01*
X100643079Y-85124598D01*
X102764541Y-85124598D01*
X102765035Y-85133164D01*
X102802133Y-85426832D01*
X102803785Y-85435252D01*
X102880397Y-85721168D01*
X102883176Y-85729285D01*
X102997881Y-86002159D01*
X103001736Y-86009824D01*
X103152413Y-86264606D01*
X103157273Y-86271677D01*
X103276974Y-86422701D01*
X103389776Y-86429205D01*
X104766790Y-85052191D01*
X104766790Y-84947809D01*
X105233210Y-84947809D01*
X105233210Y-85052191D01*
X106610388Y-86429369D01*
X106720911Y-86424736D01*
X106801873Y-86328930D01*
X106806953Y-86322015D01*
X106965559Y-86072093D01*
X106969653Y-86064553D01*
X107092873Y-85795417D01*
X107095905Y-85787391D01*
X107109365Y-85742808D01*
X110164563Y-85742808D01*
X110164563Y-86424258D01*
X110166719Y-86440634D01*
X110241537Y-86719859D01*
X110254280Y-86744339D01*
X110385390Y-86900590D01*
X110402279Y-86914761D01*
X110576520Y-87015359D01*
X110597237Y-87022900D01*
X110789938Y-87056878D01*
X110800899Y-87057837D01*
X110904591Y-87057837D01*
X110978400Y-86984028D01*
X110978401Y-85742809D01*
X110904592Y-85669000D01*
X110238372Y-85668999D01*
X110164563Y-85742808D01*
X107109365Y-85742808D01*
X107181459Y-85504022D01*
X107183375Y-85495659D01*
X107229731Y-85202974D01*
X107230505Y-85193766D01*
X107234073Y-84852988D01*
X107233493Y-84843766D01*
X107208389Y-84660499D01*
X110164563Y-84660499D01*
X110164563Y-85339191D01*
X110238372Y-85413000D01*
X110904591Y-85413001D01*
X110978400Y-85339192D01*
X110978401Y-84097972D01*
X110904592Y-84024163D01*
X110798142Y-84024163D01*
X110781766Y-84026319D01*
X110502542Y-84101137D01*
X110478062Y-84113880D01*
X110321810Y-84244990D01*
X110307639Y-84261879D01*
X110207041Y-84436120D01*
X110199500Y-84456837D01*
X110165522Y-84649538D01*
X110164563Y-84660499D01*
X107208389Y-84660499D01*
X107193276Y-84550176D01*
X107191536Y-84541774D01*
X107111936Y-84256675D01*
X107109072Y-84248588D01*
X106991515Y-83976930D01*
X106987580Y-83969306D01*
X106834243Y-83716116D01*
X106829309Y-83709096D01*
X106722158Y-83576777D01*
X106610114Y-83570905D01*
X105233210Y-84947809D01*
X104766790Y-84947809D01*
X103389831Y-83570850D01*
X103278547Y-83576098D01*
X103184309Y-83690011D01*
X103179302Y-83696979D01*
X103023323Y-83948549D01*
X103019308Y-83956131D01*
X102898912Y-84226543D01*
X102895964Y-84234601D01*
X102813382Y-84518850D01*
X102811554Y-84527233D01*
X102768313Y-84820059D01*
X102767640Y-84828613D01*
X102764541Y-85124598D01*
X100643079Y-85124598D01*
X100638830Y-84977113D01*
X100637935Y-84968193D01*
X100634000Y-84945412D01*
X100634000Y-83385626D01*
X103566645Y-83385626D01*
X104947809Y-84766790D01*
X105052191Y-84766790D01*
X106432243Y-83386738D01*
X106422455Y-83270174D01*
X106173493Y-83093244D01*
X106166177Y-83088761D01*
X105903859Y-82951625D01*
X105896003Y-82948176D01*
X105617500Y-82847909D01*
X105609248Y-82845558D01*
X105319715Y-82784016D01*
X105311220Y-82782807D01*
X105016013Y-82761128D01*
X105007433Y-82761083D01*
X104712015Y-82779669D01*
X104703508Y-82780789D01*
X104413346Y-82839297D01*
X104405070Y-82841561D01*
X104125533Y-82938905D01*
X104117641Y-82942272D01*
X103853901Y-83076654D01*
X103846539Y-83081060D01*
X103577115Y-83268315D01*
X103566645Y-83385626D01*
X100634000Y-83385626D01*
X100634000Y-82732000D01*
X105132191Y-82732000D01*
X105206000Y-82658191D01*
X105206000Y-81841230D01*
X105334872Y-81900084D01*
X105352165Y-81905162D01*
X105522010Y-81929582D01*
X105530987Y-81930224D01*
X106137462Y-81930224D01*
X106150892Y-81928780D01*
X106441946Y-81865465D01*
X106462780Y-81856835D01*
X106645357Y-81739500D01*
X108236964Y-81739500D01*
X108255592Y-81743715D01*
X108273487Y-81745155D01*
X108364635Y-81739500D01*
X108395275Y-81739500D01*
X108404217Y-81738863D01*
X108426616Y-81735655D01*
X108508685Y-81730563D01*
X108526265Y-81726923D01*
X108551698Y-81717742D01*
X108578470Y-81713908D01*
X108595701Y-81708869D01*
X108670575Y-81674827D01*
X108748099Y-81646840D01*
X108764266Y-81638180D01*
X108785130Y-81622741D01*
X108810220Y-81611334D01*
X108825345Y-81601661D01*
X108896650Y-81540220D01*
X108915353Y-81526381D01*
X108922437Y-81520277D01*
X108938881Y-81503832D01*
X109003867Y-81447837D01*
X109015669Y-81434308D01*
X109029048Y-81413666D01*
X110047711Y-80395005D01*
X110151913Y-80413378D01*
G37*
%TD.AperFunction*%
X120080721Y-82294175D02*
X120092378Y-82310220D01*
X120248805Y-82466648D01*
X120248812Y-82466653D01*
X121235401Y-83453243D01*
X121235400Y-86054797D01*
X120205837Y-87084361D01*
X120205837Y-86407742D01*
X120203681Y-86391366D01*
X120128863Y-86112142D01*
X120116120Y-86087662D01*
X120065000Y-86026739D01*
X120065000Y-82263320D01*
X120080721Y-82294175D01*
%TA.AperFunction,Conductor*%
G36*
X120080721Y-82294175D02*
G01*
X120092378Y-82310220D01*
X120248805Y-82466648D01*
X120248812Y-82466653D01*
X121235401Y-83453243D01*
X121235400Y-86054797D01*
X120205837Y-87084361D01*
X120205837Y-86407742D01*
X120203681Y-86391366D01*
X120128863Y-86112142D01*
X120116120Y-86087662D01*
X120065000Y-86026739D01*
X120065000Y-82263320D01*
X120080721Y-82294175D01*
G37*
%TD.AperFunction*%
X123401156Y-79600571D02*
X123396708Y-79631509D01*
X123396066Y-79640487D01*
X123396066Y-79712191D01*
X123469875Y-79786000D01*
X123628017Y-79786000D01*
X123638064Y-79791120D01*
X123686183Y-79806755D01*
X123731271Y-79829728D01*
X123750133Y-79835856D01*
X123800115Y-79843773D01*
X123848230Y-79859407D01*
X123867819Y-79862509D01*
X123923119Y-79862509D01*
X123923131Y-79862510D01*
X124638290Y-79862510D01*
X124638289Y-80916915D01*
X124712098Y-80990724D01*
X124805752Y-80990724D01*
X124819182Y-80989280D01*
X125011461Y-80947452D01*
X125000446Y-80988562D01*
X124998290Y-81004938D01*
X124998290Y-81261062D01*
X125000446Y-81277438D01*
X125016406Y-81337000D01*
X124686005Y-81337000D01*
X124324105Y-80975100D01*
X124382290Y-80916915D01*
X124382291Y-80115809D01*
X124308482Y-80042000D01*
X123462390Y-80041999D01*
X123430534Y-80081530D01*
X123113000Y-79763997D01*
X123113000Y-79312415D01*
X123401156Y-79600571D01*
%TA.AperFunction,Conductor*%
G36*
X123401156Y-79600571D02*
G01*
X123396708Y-79631509D01*
X123396066Y-79640487D01*
X123396066Y-79712191D01*
X123469875Y-79786000D01*
X123628017Y-79786000D01*
X123638064Y-79791120D01*
X123686183Y-79806755D01*
X123731271Y-79829728D01*
X123750133Y-79835856D01*
X123800115Y-79843773D01*
X123848230Y-79859407D01*
X123867819Y-79862509D01*
X123923119Y-79862509D01*
X123923131Y-79862510D01*
X124638290Y-79862510D01*
X124638289Y-80916915D01*
X124712098Y-80990724D01*
X124805752Y-80990724D01*
X124819182Y-80989280D01*
X125011461Y-80947452D01*
X125000446Y-80988562D01*
X124998290Y-81004938D01*
X124998290Y-81261062D01*
X125000446Y-81277438D01*
X125016406Y-81337000D01*
X124686005Y-81337000D01*
X124324105Y-80975100D01*
X124382290Y-80916915D01*
X124382291Y-80115809D01*
X124308482Y-80042000D01*
X123462390Y-80041999D01*
X123430534Y-80081530D01*
X123113000Y-79763997D01*
X123113000Y-79312415D01*
X123401156Y-79600571D01*
G37*
%TD.AperFunction*%
X117726913Y-73888378D02*
X117737874Y-73889337D01*
X118026538Y-73889337D01*
X118026538Y-74180758D01*
X118028694Y-74197134D01*
X118050188Y-74277352D01*
X118027497Y-74406038D01*
X118026538Y-74416999D01*
X118026538Y-74980758D01*
X118028694Y-74997134D01*
X118050188Y-75077352D01*
X118027497Y-75206038D01*
X118026538Y-75216999D01*
X118026538Y-75780758D01*
X118028694Y-75797134D01*
X118050188Y-75877352D01*
X118027497Y-76006038D01*
X118026538Y-76016999D01*
X118026538Y-76095691D01*
X118100347Y-76169500D01*
X118173869Y-76169500D01*
X118247365Y-76257090D01*
X118264254Y-76271261D01*
X118308525Y-76296821D01*
X118183785Y-76401490D01*
X118169613Y-76418380D01*
X118165502Y-76425500D01*
X118100347Y-76425500D01*
X118026538Y-76499309D01*
X118026538Y-76519514D01*
X117924438Y-76492156D01*
X117908062Y-76490000D01*
X117651938Y-76490000D01*
X117635562Y-76492156D01*
X117388165Y-76558446D01*
X117372905Y-76564767D01*
X117151095Y-76692829D01*
X117137991Y-76702884D01*
X116956884Y-76883991D01*
X116946829Y-76897095D01*
X116818767Y-77118905D01*
X116812446Y-77134165D01*
X116746156Y-77381562D01*
X116744000Y-77397938D01*
X116744000Y-77654062D01*
X116746156Y-77670438D01*
X116812446Y-77917835D01*
X116818767Y-77933095D01*
X116887739Y-78052558D01*
X116894538Y-78100602D01*
X116894637Y-78101995D01*
X116902801Y-78159000D01*
X116919187Y-78274801D01*
X116919583Y-78276163D01*
X116919599Y-78276276D01*
X116922032Y-78284592D01*
X116924195Y-78292035D01*
X116924237Y-78292128D01*
X116924635Y-78293488D01*
X116973358Y-78400650D01*
X117021458Y-78506912D01*
X117025655Y-78513453D01*
X117031830Y-78523112D01*
X117185665Y-78701645D01*
X117199193Y-78713447D01*
X117249415Y-78745999D01*
X117973231Y-79364113D01*
X118026538Y-79411192D01*
X118026538Y-79505663D01*
X117735117Y-79505663D01*
X117718741Y-79507819D01*
X117638523Y-79529313D01*
X117509837Y-79506622D01*
X117498876Y-79505663D01*
X116935117Y-79505663D01*
X116918741Y-79507819D01*
X116838523Y-79529313D01*
X116709837Y-79506622D01*
X116698876Y-79505663D01*
X116135117Y-79505663D01*
X116118741Y-79507819D01*
X116038523Y-79529313D01*
X115909837Y-79506622D01*
X115898876Y-79505663D01*
X115335117Y-79505663D01*
X115318741Y-79507819D01*
X115238523Y-79529313D01*
X115109837Y-79506622D01*
X115098876Y-79505663D01*
X114535117Y-79505663D01*
X114518741Y-79507819D01*
X114438523Y-79529313D01*
X114309837Y-79506622D01*
X114298876Y-79505663D01*
X113735117Y-79505663D01*
X113718741Y-79507819D01*
X113638523Y-79529313D01*
X113509837Y-79506622D01*
X113498876Y-79505663D01*
X112935117Y-79505663D01*
X112918741Y-79507819D01*
X112838523Y-79529313D01*
X112709837Y-79506622D01*
X112698876Y-79505663D01*
X112410212Y-79505663D01*
X112410212Y-79214242D01*
X112408056Y-79197866D01*
X112386562Y-79117648D01*
X112409253Y-78988962D01*
X112410212Y-78978001D01*
X112410212Y-78414242D01*
X112408056Y-78397866D01*
X112386562Y-78317648D01*
X112409253Y-78188962D01*
X112410212Y-78178001D01*
X112410212Y-77614242D01*
X112408056Y-77597866D01*
X112386562Y-77517648D01*
X112409253Y-77388962D01*
X112410212Y-77378001D01*
X112410212Y-77299309D01*
X112336403Y-77225500D01*
X112262881Y-77225500D01*
X112189385Y-77137910D01*
X112172496Y-77123739D01*
X112128225Y-77098179D01*
X112252965Y-76993510D01*
X112267137Y-76976620D01*
X112271248Y-76969500D01*
X112336403Y-76969500D01*
X112410212Y-76895691D01*
X112410212Y-76814242D01*
X112408056Y-76797866D01*
X112386562Y-76717648D01*
X112409253Y-76588962D01*
X112410212Y-76578001D01*
X112410212Y-76014242D01*
X112408056Y-75997866D01*
X112386562Y-75917648D01*
X112409253Y-75788962D01*
X112410212Y-75778001D01*
X112410212Y-75699309D01*
X112336403Y-75625500D01*
X112262881Y-75625500D01*
X112189385Y-75537910D01*
X112172496Y-75523739D01*
X112128225Y-75498179D01*
X112252965Y-75393510D01*
X112267137Y-75376620D01*
X112271248Y-75369500D01*
X112336403Y-75369500D01*
X112410212Y-75295691D01*
X112410212Y-75214242D01*
X112408056Y-75197866D01*
X112386562Y-75117648D01*
X112409253Y-74988962D01*
X112410212Y-74978001D01*
X112410212Y-74414242D01*
X112408056Y-74397866D01*
X112386562Y-74317648D01*
X112409253Y-74188962D01*
X112410212Y-74178001D01*
X112410212Y-73889337D01*
X112701633Y-73889337D01*
X112718009Y-73887181D01*
X112798227Y-73865687D01*
X112926913Y-73888378D01*
X112937874Y-73889337D01*
X113501633Y-73889337D01*
X113518009Y-73887181D01*
X113598227Y-73865687D01*
X113726913Y-73888378D01*
X113737874Y-73889337D01*
X114301633Y-73889337D01*
X114318009Y-73887181D01*
X114398227Y-73865687D01*
X114526913Y-73888378D01*
X114537874Y-73889337D01*
X115101633Y-73889337D01*
X115118009Y-73887181D01*
X115198227Y-73865687D01*
X115326913Y-73888378D01*
X115337874Y-73889337D01*
X115901633Y-73889337D01*
X115918009Y-73887181D01*
X115998227Y-73865687D01*
X116126913Y-73888378D01*
X116137874Y-73889337D01*
X116701633Y-73889337D01*
X116718009Y-73887181D01*
X116798227Y-73865687D01*
X116926913Y-73888378D01*
X116937874Y-73889337D01*
X117501633Y-73889337D01*
X117518009Y-73887181D01*
X117598227Y-73865687D01*
X117726913Y-73888378D01*
%TA.AperFunction,Conductor*%
G36*
X117726913Y-73888378D02*
G01*
X117737874Y-73889337D01*
X118026538Y-73889337D01*
X118026538Y-74180758D01*
X118028694Y-74197134D01*
X118050188Y-74277352D01*
X118027497Y-74406038D01*
X118026538Y-74416999D01*
X118026538Y-74980758D01*
X118028694Y-74997134D01*
X118050188Y-75077352D01*
X118027497Y-75206038D01*
X118026538Y-75216999D01*
X118026538Y-75780758D01*
X118028694Y-75797134D01*
X118050188Y-75877352D01*
X118027497Y-76006038D01*
X118026538Y-76016999D01*
X118026538Y-76095691D01*
X118100347Y-76169500D01*
X118173869Y-76169500D01*
X118247365Y-76257090D01*
X118264254Y-76271261D01*
X118308525Y-76296821D01*
X118183785Y-76401490D01*
X118169613Y-76418380D01*
X118165502Y-76425500D01*
X118100347Y-76425500D01*
X118026538Y-76499309D01*
X118026538Y-76519514D01*
X117924438Y-76492156D01*
X117908062Y-76490000D01*
X117651938Y-76490000D01*
X117635562Y-76492156D01*
X117388165Y-76558446D01*
X117372905Y-76564767D01*
X117151095Y-76692829D01*
X117137991Y-76702884D01*
X116956884Y-76883991D01*
X116946829Y-76897095D01*
X116818767Y-77118905D01*
X116812446Y-77134165D01*
X116746156Y-77381562D01*
X116744000Y-77397938D01*
X116744000Y-77654062D01*
X116746156Y-77670438D01*
X116812446Y-77917835D01*
X116818767Y-77933095D01*
X116887739Y-78052558D01*
X116894538Y-78100602D01*
X116894637Y-78101995D01*
X116902801Y-78159000D01*
X116919187Y-78274801D01*
X116919583Y-78276163D01*
X116919599Y-78276276D01*
X116922032Y-78284592D01*
X116924195Y-78292035D01*
X116924237Y-78292128D01*
X116924635Y-78293488D01*
X116973358Y-78400650D01*
X117021458Y-78506912D01*
X117025655Y-78513453D01*
X117031830Y-78523112D01*
X117185665Y-78701645D01*
X117199193Y-78713447D01*
X117249415Y-78745999D01*
X117973231Y-79364113D01*
X118026538Y-79411192D01*
X118026538Y-79505663D01*
X117735117Y-79505663D01*
X117718741Y-79507819D01*
X117638523Y-79529313D01*
X117509837Y-79506622D01*
X117498876Y-79505663D01*
X116935117Y-79505663D01*
X116918741Y-79507819D01*
X116838523Y-79529313D01*
X116709837Y-79506622D01*
X116698876Y-79505663D01*
X116135117Y-79505663D01*
X116118741Y-79507819D01*
X116038523Y-79529313D01*
X115909837Y-79506622D01*
X115898876Y-79505663D01*
X115335117Y-79505663D01*
X115318741Y-79507819D01*
X115238523Y-79529313D01*
X115109837Y-79506622D01*
X115098876Y-79505663D01*
X114535117Y-79505663D01*
X114518741Y-79507819D01*
X114438523Y-79529313D01*
X114309837Y-79506622D01*
X114298876Y-79505663D01*
X113735117Y-79505663D01*
X113718741Y-79507819D01*
X113638523Y-79529313D01*
X113509837Y-79506622D01*
X113498876Y-79505663D01*
X112935117Y-79505663D01*
X112918741Y-79507819D01*
X112838523Y-79529313D01*
X112709837Y-79506622D01*
X112698876Y-79505663D01*
X112410212Y-79505663D01*
X112410212Y-79214242D01*
X112408056Y-79197866D01*
X112386562Y-79117648D01*
X112409253Y-78988962D01*
X112410212Y-78978001D01*
X112410212Y-78414242D01*
X112408056Y-78397866D01*
X112386562Y-78317648D01*
X112409253Y-78188962D01*
X112410212Y-78178001D01*
X112410212Y-77614242D01*
X112408056Y-77597866D01*
X112386562Y-77517648D01*
X112409253Y-77388962D01*
X112410212Y-77378001D01*
X112410212Y-77299309D01*
X112336403Y-77225500D01*
X112262881Y-77225500D01*
X112189385Y-77137910D01*
X112172496Y-77123739D01*
X112128225Y-77098179D01*
X112252965Y-76993510D01*
X112267137Y-76976620D01*
X112271248Y-76969500D01*
X112336403Y-76969500D01*
X112410212Y-76895691D01*
X112410212Y-76814242D01*
X112408056Y-76797866D01*
X112386562Y-76717648D01*
X112409253Y-76588962D01*
X112410212Y-76578001D01*
X112410212Y-76014242D01*
X112408056Y-75997866D01*
X112386562Y-75917648D01*
X112409253Y-75788962D01*
X112410212Y-75778001D01*
X112410212Y-75699309D01*
X112336403Y-75625500D01*
X112262881Y-75625500D01*
X112189385Y-75537910D01*
X112172496Y-75523739D01*
X112128225Y-75498179D01*
X112252965Y-75393510D01*
X112267137Y-75376620D01*
X112271248Y-75369500D01*
X112336403Y-75369500D01*
X112410212Y-75295691D01*
X112410212Y-75214242D01*
X112408056Y-75197866D01*
X112386562Y-75117648D01*
X112409253Y-74988962D01*
X112410212Y-74978001D01*
X112410212Y-74414242D01*
X112408056Y-74397866D01*
X112386562Y-74317648D01*
X112409253Y-74188962D01*
X112410212Y-74178001D01*
X112410212Y-73889337D01*
X112701633Y-73889337D01*
X112718009Y-73887181D01*
X112798227Y-73865687D01*
X112926913Y-73888378D01*
X112937874Y-73889337D01*
X113501633Y-73889337D01*
X113518009Y-73887181D01*
X113598227Y-73865687D01*
X113726913Y-73888378D01*
X113737874Y-73889337D01*
X114301633Y-73889337D01*
X114318009Y-73887181D01*
X114398227Y-73865687D01*
X114526913Y-73888378D01*
X114537874Y-73889337D01*
X115101633Y-73889337D01*
X115118009Y-73887181D01*
X115198227Y-73865687D01*
X115326913Y-73888378D01*
X115337874Y-73889337D01*
X115901633Y-73889337D01*
X115918009Y-73887181D01*
X115998227Y-73865687D01*
X116126913Y-73888378D01*
X116137874Y-73889337D01*
X116701633Y-73889337D01*
X116718009Y-73887181D01*
X116798227Y-73865687D01*
X116926913Y-73888378D01*
X116937874Y-73889337D01*
X117501633Y-73889337D01*
X117518009Y-73887181D01*
X117598227Y-73865687D01*
X117726913Y-73888378D01*
G37*
%TD.AperFunction*%
X109156884Y-60784459D02*
X109151806Y-60801752D01*
X109126418Y-60978330D01*
X109125776Y-60987307D01*
X109125776Y-63584378D01*
X109127220Y-63597808D01*
X109193093Y-63900623D01*
X109201723Y-63921457D01*
X109331745Y-64123776D01*
X109343548Y-64137397D01*
X109523592Y-64293407D01*
X109538754Y-64303151D01*
X109755459Y-64402116D01*
X109772752Y-64407194D01*
X109949330Y-64432582D01*
X109958307Y-64433224D01*
X110758560Y-64433224D01*
X110502139Y-64689644D01*
X110490482Y-64705689D01*
X110467512Y-64750768D01*
X110437767Y-64791709D01*
X110428763Y-64809381D01*
X110413127Y-64857506D01*
X110390157Y-64902584D01*
X110384028Y-64921447D01*
X110376113Y-64971425D01*
X110360477Y-65019546D01*
X110357375Y-65039135D01*
X110357375Y-67616340D01*
X110304438Y-67602156D01*
X110288063Y-67600000D01*
X110031938Y-67600000D01*
X110015562Y-67602156D01*
X109768165Y-67668446D01*
X109752905Y-67674767D01*
X109531095Y-67802829D01*
X109517991Y-67812884D01*
X109336884Y-67993991D01*
X109326829Y-68007095D01*
X109198767Y-68228905D01*
X109192446Y-68244165D01*
X109126156Y-68491562D01*
X109124000Y-68507938D01*
X109124000Y-68764062D01*
X109126156Y-68780438D01*
X109192446Y-69027835D01*
X109198767Y-69043095D01*
X109326829Y-69264905D01*
X109336884Y-69278009D01*
X109399001Y-69340125D01*
X109399000Y-71234265D01*
X109399001Y-71234277D01*
X109399001Y-71289576D01*
X109402103Y-71309164D01*
X109417736Y-71357278D01*
X109425653Y-71407263D01*
X109431782Y-71426124D01*
X109454753Y-71471207D01*
X109470390Y-71519332D01*
X109479394Y-71537004D01*
X109509138Y-71577942D01*
X109532106Y-71623020D01*
X109543763Y-71639065D01*
X109700190Y-71795493D01*
X109700194Y-71795496D01*
X110207376Y-72302679D01*
X110207375Y-72980663D01*
X110160117Y-72980663D01*
X110143741Y-72982819D01*
X109864517Y-73057637D01*
X109840037Y-73070380D01*
X109683785Y-73201490D01*
X109669614Y-73218379D01*
X109569016Y-73392620D01*
X109561475Y-73413337D01*
X109561473Y-73413348D01*
X109456509Y-73308384D01*
X109443405Y-73298329D01*
X109221595Y-73170267D01*
X109206335Y-73163946D01*
X108958938Y-73097656D01*
X108942562Y-73095500D01*
X108686438Y-73095500D01*
X108670062Y-73097656D01*
X108422665Y-73163946D01*
X108407405Y-73170267D01*
X108185595Y-73298329D01*
X108172491Y-73308384D01*
X107991384Y-73489491D01*
X107981329Y-73502595D01*
X107853267Y-73724405D01*
X107846946Y-73739665D01*
X107780656Y-73987062D01*
X107778500Y-74003438D01*
X107778500Y-74259562D01*
X107780656Y-74275938D01*
X107846946Y-74523335D01*
X107853267Y-74538595D01*
X107882368Y-74589000D01*
X107853267Y-74639405D01*
X107846946Y-74654665D01*
X107780656Y-74902062D01*
X107778500Y-74918438D01*
X107778500Y-75174562D01*
X107780656Y-75190938D01*
X107797618Y-75254243D01*
X107792835Y-75252838D01*
X107622990Y-75228418D01*
X107614013Y-75227776D01*
X107542309Y-75227776D01*
X107468500Y-75301585D01*
X107468499Y-76140192D01*
X107468500Y-76140193D01*
X107468499Y-76895191D01*
X107468500Y-76895192D01*
X107468499Y-77664192D01*
X107468500Y-77664193D01*
X107468499Y-77994000D01*
X106337585Y-77993999D01*
X106263776Y-78067808D01*
X106263776Y-78161462D01*
X106265220Y-78174892D01*
X106274734Y-78218628D01*
X106161990Y-78202418D01*
X106153013Y-78201776D01*
X105546538Y-78201776D01*
X105533108Y-78203220D01*
X105242054Y-78266535D01*
X105221220Y-78275165D01*
X105206000Y-78284946D01*
X105206000Y-76543808D01*
X106263776Y-76543808D01*
X106263776Y-76637462D01*
X106265220Y-76650892D01*
X106328535Y-76941946D01*
X106337165Y-76962780D01*
X106427079Y-77102691D01*
X106398854Y-77135264D01*
X106389110Y-77150426D01*
X106293916Y-77358872D01*
X106288838Y-77376165D01*
X106264418Y-77546010D01*
X106263776Y-77554987D01*
X106263776Y-77664191D01*
X106337585Y-77738000D01*
X107138691Y-77738001D01*
X107212500Y-77664192D01*
X107212501Y-77312809D01*
X107212500Y-77312808D01*
X107212501Y-76543809D01*
X107138692Y-76470000D01*
X106337585Y-76469999D01*
X106263776Y-76543808D01*
X105206000Y-76543808D01*
X105206000Y-76030987D01*
X106263776Y-76030987D01*
X106263776Y-76140191D01*
X106337585Y-76214000D01*
X107138691Y-76214001D01*
X107212500Y-76140192D01*
X107212501Y-75294100D01*
X107118623Y-75218448D01*
X106778054Y-75292535D01*
X106757220Y-75301165D01*
X106562539Y-75426278D01*
X106548918Y-75438081D01*
X106398854Y-75611264D01*
X106389110Y-75626426D01*
X106293916Y-75834872D01*
X106288838Y-75852165D01*
X106264418Y-76022010D01*
X106263776Y-76030987D01*
X105206000Y-76030987D01*
X105206000Y-69599809D01*
X105132191Y-69526000D01*
X100634000Y-69526000D01*
X100634000Y-66612320D01*
X103568699Y-66612320D01*
X103577814Y-66728135D01*
X103806604Y-66894363D01*
X103813873Y-66898922D01*
X104074740Y-67038798D01*
X104082560Y-67042329D01*
X104359998Y-67145507D01*
X104368224Y-67147944D01*
X104657098Y-67212514D01*
X104665579Y-67213812D01*
X104960543Y-67238581D01*
X104969122Y-67238716D01*
X105264718Y-67223225D01*
X105273236Y-67222194D01*
X105563996Y-67166728D01*
X105572295Y-67164551D01*
X105852836Y-67070138D01*
X105860762Y-67066855D01*
X106125896Y-66935242D01*
X106133303Y-66930913D01*
X106423477Y-66733712D01*
X106434637Y-66615656D01*
X105052191Y-65233210D01*
X104947809Y-65233210D01*
X103568699Y-66612320D01*
X100634000Y-66612320D01*
X100634000Y-65124598D01*
X102764541Y-65124598D01*
X102765035Y-65133164D01*
X102802133Y-65426832D01*
X102803785Y-65435252D01*
X102880397Y-65721168D01*
X102883176Y-65729285D01*
X102997881Y-66002159D01*
X103001736Y-66009824D01*
X103152413Y-66264606D01*
X103157273Y-66271677D01*
X103276974Y-66422701D01*
X103389776Y-66429205D01*
X104766790Y-65052191D01*
X104766790Y-64947809D01*
X105233210Y-64947809D01*
X105233210Y-65052191D01*
X106610388Y-66429369D01*
X106720911Y-66424736D01*
X106801873Y-66328930D01*
X106806953Y-66322015D01*
X106965559Y-66072093D01*
X106969653Y-66064553D01*
X107092873Y-65795417D01*
X107095905Y-65787391D01*
X107181459Y-65504022D01*
X107183375Y-65495659D01*
X107229731Y-65202974D01*
X107230505Y-65193766D01*
X107234073Y-64852988D01*
X107233493Y-64843766D01*
X107193276Y-64550176D01*
X107191536Y-64541774D01*
X107111936Y-64256675D01*
X107109072Y-64248588D01*
X106991515Y-63976930D01*
X106987580Y-63969306D01*
X106834243Y-63716116D01*
X106829309Y-63709096D01*
X106722158Y-63576777D01*
X106610114Y-63570905D01*
X105233210Y-64947809D01*
X104766790Y-64947809D01*
X103389831Y-63570850D01*
X103278547Y-63576098D01*
X103184309Y-63690011D01*
X103179302Y-63696979D01*
X103023323Y-63948549D01*
X103019308Y-63956131D01*
X102898912Y-64226543D01*
X102895964Y-64234601D01*
X102813382Y-64518850D01*
X102811554Y-64527233D01*
X102768313Y-64820059D01*
X102767640Y-64828613D01*
X102764541Y-65124598D01*
X100634000Y-65124598D01*
X100634000Y-65063489D01*
X100636838Y-65049416D01*
X100638001Y-65040137D01*
X100638565Y-65029013D01*
X100638583Y-65028631D01*
X100657119Y-64612411D01*
X100708768Y-64227881D01*
X100794391Y-63849484D01*
X100913319Y-63480170D01*
X100953353Y-63385626D01*
X103566645Y-63385626D01*
X104947809Y-64766790D01*
X105052191Y-64766790D01*
X106432243Y-63386738D01*
X106422455Y-63270174D01*
X106173493Y-63093244D01*
X106166177Y-63088761D01*
X105903859Y-62951625D01*
X105896003Y-62948176D01*
X105617500Y-62847909D01*
X105609248Y-62845558D01*
X105319715Y-62784016D01*
X105311220Y-62782807D01*
X105016013Y-62761128D01*
X105007433Y-62761083D01*
X104712015Y-62779669D01*
X104703508Y-62780789D01*
X104413346Y-62839297D01*
X104405070Y-62841561D01*
X104125533Y-62938905D01*
X104117641Y-62942272D01*
X103853901Y-63076654D01*
X103846539Y-63081060D01*
X103577115Y-63268315D01*
X103566645Y-63385626D01*
X100953353Y-63385626D01*
X101064598Y-63122916D01*
X101247043Y-62780508D01*
X101459203Y-62455672D01*
X101699399Y-62150987D01*
X101965719Y-61868869D01*
X102256077Y-61611529D01*
X102568146Y-61381032D01*
X102899485Y-61179179D01*
X103247445Y-61007584D01*
X103609303Y-60867592D01*
X103982137Y-60760329D01*
X104363060Y-60686631D01*
X104754014Y-60646575D01*
X105022887Y-60638830D01*
X105031807Y-60637935D01*
X105054588Y-60634000D01*
X109225596Y-60634000D01*
X109156884Y-60784459D01*
%TA.AperFunction,Conductor*%
G36*
X109156884Y-60784459D02*
G01*
X109151806Y-60801752D01*
X109126418Y-60978330D01*
X109125776Y-60987307D01*
X109125776Y-63584378D01*
X109127220Y-63597808D01*
X109193093Y-63900623D01*
X109201723Y-63921457D01*
X109331745Y-64123776D01*
X109343548Y-64137397D01*
X109523592Y-64293407D01*
X109538754Y-64303151D01*
X109755459Y-64402116D01*
X109772752Y-64407194D01*
X109949330Y-64432582D01*
X109958307Y-64433224D01*
X110758560Y-64433224D01*
X110502139Y-64689644D01*
X110490482Y-64705689D01*
X110467512Y-64750768D01*
X110437767Y-64791709D01*
X110428763Y-64809381D01*
X110413127Y-64857506D01*
X110390157Y-64902584D01*
X110384028Y-64921447D01*
X110376113Y-64971425D01*
X110360477Y-65019546D01*
X110357375Y-65039135D01*
X110357375Y-67616340D01*
X110304438Y-67602156D01*
X110288063Y-67600000D01*
X110031938Y-67600000D01*
X110015562Y-67602156D01*
X109768165Y-67668446D01*
X109752905Y-67674767D01*
X109531095Y-67802829D01*
X109517991Y-67812884D01*
X109336884Y-67993991D01*
X109326829Y-68007095D01*
X109198767Y-68228905D01*
X109192446Y-68244165D01*
X109126156Y-68491562D01*
X109124000Y-68507938D01*
X109124000Y-68764062D01*
X109126156Y-68780438D01*
X109192446Y-69027835D01*
X109198767Y-69043095D01*
X109326829Y-69264905D01*
X109336884Y-69278009D01*
X109399001Y-69340125D01*
X109399000Y-71234265D01*
X109399001Y-71234277D01*
X109399001Y-71289576D01*
X109402103Y-71309164D01*
X109417736Y-71357278D01*
X109425653Y-71407263D01*
X109431782Y-71426124D01*
X109454753Y-71471207D01*
X109470390Y-71519332D01*
X109479394Y-71537004D01*
X109509138Y-71577942D01*
X109532106Y-71623020D01*
X109543763Y-71639065D01*
X109700190Y-71795493D01*
X109700194Y-71795496D01*
X110207376Y-72302679D01*
X110207375Y-72980663D01*
X110160117Y-72980663D01*
X110143741Y-72982819D01*
X109864517Y-73057637D01*
X109840037Y-73070380D01*
X109683785Y-73201490D01*
X109669614Y-73218379D01*
X109569016Y-73392620D01*
X109561475Y-73413337D01*
X109561473Y-73413348D01*
X109456509Y-73308384D01*
X109443405Y-73298329D01*
X109221595Y-73170267D01*
X109206335Y-73163946D01*
X108958938Y-73097656D01*
X108942562Y-73095500D01*
X108686438Y-73095500D01*
X108670062Y-73097656D01*
X108422665Y-73163946D01*
X108407405Y-73170267D01*
X108185595Y-73298329D01*
X108172491Y-73308384D01*
X107991384Y-73489491D01*
X107981329Y-73502595D01*
X107853267Y-73724405D01*
X107846946Y-73739665D01*
X107780656Y-73987062D01*
X107778500Y-74003438D01*
X107778500Y-74259562D01*
X107780656Y-74275938D01*
X107846946Y-74523335D01*
X107853267Y-74538595D01*
X107882368Y-74589000D01*
X107853267Y-74639405D01*
X107846946Y-74654665D01*
X107780656Y-74902062D01*
X107778500Y-74918438D01*
X107778500Y-75174562D01*
X107780656Y-75190938D01*
X107797618Y-75254243D01*
X107792835Y-75252838D01*
X107622990Y-75228418D01*
X107614013Y-75227776D01*
X107542309Y-75227776D01*
X107468500Y-75301585D01*
X107468499Y-76140192D01*
X107468500Y-76140193D01*
X107468499Y-76895191D01*
X107468500Y-76895192D01*
X107468499Y-77664192D01*
X107468500Y-77664193D01*
X107468499Y-77994000D01*
X106337585Y-77993999D01*
X106263776Y-78067808D01*
X106263776Y-78161462D01*
X106265220Y-78174892D01*
X106274734Y-78218628D01*
X106161990Y-78202418D01*
X106153013Y-78201776D01*
X105546538Y-78201776D01*
X105533108Y-78203220D01*
X105242054Y-78266535D01*
X105221220Y-78275165D01*
X105206000Y-78284946D01*
X105206000Y-76543808D01*
X106263776Y-76543808D01*
X106263776Y-76637462D01*
X106265220Y-76650892D01*
X106328535Y-76941946D01*
X106337165Y-76962780D01*
X106427079Y-77102691D01*
X106398854Y-77135264D01*
X106389110Y-77150426D01*
X106293916Y-77358872D01*
X106288838Y-77376165D01*
X106264418Y-77546010D01*
X106263776Y-77554987D01*
X106263776Y-77664191D01*
X106337585Y-77738000D01*
X107138691Y-77738001D01*
X107212500Y-77664192D01*
X107212501Y-77312809D01*
X107212500Y-77312808D01*
X107212501Y-76543809D01*
X107138692Y-76470000D01*
X106337585Y-76469999D01*
X106263776Y-76543808D01*
X105206000Y-76543808D01*
X105206000Y-76030987D01*
X106263776Y-76030987D01*
X106263776Y-76140191D01*
X106337585Y-76214000D01*
X107138691Y-76214001D01*
X107212500Y-76140192D01*
X107212501Y-75294100D01*
X107118623Y-75218448D01*
X106778054Y-75292535D01*
X106757220Y-75301165D01*
X106562539Y-75426278D01*
X106548918Y-75438081D01*
X106398854Y-75611264D01*
X106389110Y-75626426D01*
X106293916Y-75834872D01*
X106288838Y-75852165D01*
X106264418Y-76022010D01*
X106263776Y-76030987D01*
X105206000Y-76030987D01*
X105206000Y-69599809D01*
X105132191Y-69526000D01*
X100634000Y-69526000D01*
X100634000Y-66612320D01*
X103568699Y-66612320D01*
X103577814Y-66728135D01*
X103806604Y-66894363D01*
X103813873Y-66898922D01*
X104074740Y-67038798D01*
X104082560Y-67042329D01*
X104359998Y-67145507D01*
X104368224Y-67147944D01*
X104657098Y-67212514D01*
X104665579Y-67213812D01*
X104960543Y-67238581D01*
X104969122Y-67238716D01*
X105264718Y-67223225D01*
X105273236Y-67222194D01*
X105563996Y-67166728D01*
X105572295Y-67164551D01*
X105852836Y-67070138D01*
X105860762Y-67066855D01*
X106125896Y-66935242D01*
X106133303Y-66930913D01*
X106423477Y-66733712D01*
X106434637Y-66615656D01*
X105052191Y-65233210D01*
X104947809Y-65233210D01*
X103568699Y-66612320D01*
X100634000Y-66612320D01*
X100634000Y-65124598D01*
X102764541Y-65124598D01*
X102765035Y-65133164D01*
X102802133Y-65426832D01*
X102803785Y-65435252D01*
X102880397Y-65721168D01*
X102883176Y-65729285D01*
X102997881Y-66002159D01*
X103001736Y-66009824D01*
X103152413Y-66264606D01*
X103157273Y-66271677D01*
X103276974Y-66422701D01*
X103389776Y-66429205D01*
X104766790Y-65052191D01*
X104766790Y-64947809D01*
X105233210Y-64947809D01*
X105233210Y-65052191D01*
X106610388Y-66429369D01*
X106720911Y-66424736D01*
X106801873Y-66328930D01*
X106806953Y-66322015D01*
X106965559Y-66072093D01*
X106969653Y-66064553D01*
X107092873Y-65795417D01*
X107095905Y-65787391D01*
X107181459Y-65504022D01*
X107183375Y-65495659D01*
X107229731Y-65202974D01*
X107230505Y-65193766D01*
X107234073Y-64852988D01*
X107233493Y-64843766D01*
X107193276Y-64550176D01*
X107191536Y-64541774D01*
X107111936Y-64256675D01*
X107109072Y-64248588D01*
X106991515Y-63976930D01*
X106987580Y-63969306D01*
X106834243Y-63716116D01*
X106829309Y-63709096D01*
X106722158Y-63576777D01*
X106610114Y-63570905D01*
X105233210Y-64947809D01*
X104766790Y-64947809D01*
X103389831Y-63570850D01*
X103278547Y-63576098D01*
X103184309Y-63690011D01*
X103179302Y-63696979D01*
X103023323Y-63948549D01*
X103019308Y-63956131D01*
X102898912Y-64226543D01*
X102895964Y-64234601D01*
X102813382Y-64518850D01*
X102811554Y-64527233D01*
X102768313Y-64820059D01*
X102767640Y-64828613D01*
X102764541Y-65124598D01*
X100634000Y-65124598D01*
X100634000Y-65063489D01*
X100636838Y-65049416D01*
X100638001Y-65040137D01*
X100638565Y-65029013D01*
X100638583Y-65028631D01*
X100657119Y-64612411D01*
X100708768Y-64227881D01*
X100794391Y-63849484D01*
X100913319Y-63480170D01*
X100953353Y-63385626D01*
X103566645Y-63385626D01*
X104947809Y-64766790D01*
X105052191Y-64766790D01*
X106432243Y-63386738D01*
X106422455Y-63270174D01*
X106173493Y-63093244D01*
X106166177Y-63088761D01*
X105903859Y-62951625D01*
X105896003Y-62948176D01*
X105617500Y-62847909D01*
X105609248Y-62845558D01*
X105319715Y-62784016D01*
X105311220Y-62782807D01*
X105016013Y-62761128D01*
X105007433Y-62761083D01*
X104712015Y-62779669D01*
X104703508Y-62780789D01*
X104413346Y-62839297D01*
X104405070Y-62841561D01*
X104125533Y-62938905D01*
X104117641Y-62942272D01*
X103853901Y-63076654D01*
X103846539Y-63081060D01*
X103577115Y-63268315D01*
X103566645Y-63385626D01*
X100953353Y-63385626D01*
X101064598Y-63122916D01*
X101247043Y-62780508D01*
X101459203Y-62455672D01*
X101699399Y-62150987D01*
X101965719Y-61868869D01*
X102256077Y-61611529D01*
X102568146Y-61381032D01*
X102899485Y-61179179D01*
X103247445Y-61007584D01*
X103609303Y-60867592D01*
X103982137Y-60760329D01*
X104363060Y-60686631D01*
X104754014Y-60646575D01*
X105022887Y-60638830D01*
X105031807Y-60637935D01*
X105054588Y-60634000D01*
X109225596Y-60634000D01*
X109156884Y-60784459D01*
G37*
%TD.AperFunction*%
X123725958Y-77144966D02*
X123726735Y-77154836D01*
X123750954Y-77307746D01*
X123757082Y-77326608D01*
X123793225Y-77397543D01*
X123694829Y-77460778D01*
X123681208Y-77472581D01*
X123621000Y-77542065D01*
X123621000Y-76834832D01*
X123725958Y-76834832D01*
X123725958Y-77144966D01*
%TA.AperFunction,Conductor*%
G36*
X123725958Y-77144966D02*
G01*
X123726735Y-77154836D01*
X123750954Y-77307746D01*
X123757082Y-77326608D01*
X123793225Y-77397543D01*
X123694829Y-77460778D01*
X123681208Y-77472581D01*
X123621000Y-77542065D01*
X123621000Y-76834832D01*
X123725958Y-76834832D01*
X123725958Y-77144966D01*
G37*
%TD.AperFunction*%
X121591000Y-72178812D02*
X121591001Y-75583750D01*
X121380625Y-75583749D01*
X121380626Y-74452835D01*
X121306817Y-74379026D01*
X121213163Y-74379026D01*
X121199733Y-74380470D01*
X120910212Y-74443452D01*
X120910212Y-74414242D01*
X120908056Y-74397866D01*
X120886562Y-74317648D01*
X120909253Y-74188962D01*
X120910212Y-74178001D01*
X120910212Y-73614241D01*
X120908056Y-73597865D01*
X120902502Y-73577136D01*
X121027233Y-73361095D01*
X121033554Y-73345835D01*
X121099844Y-73098438D01*
X121102000Y-73082062D01*
X121102000Y-72825938D01*
X121099844Y-72809562D01*
X121033554Y-72562165D01*
X121027233Y-72546905D01*
X120899171Y-72325095D01*
X120894494Y-72319000D01*
X120899171Y-72312905D01*
X121027233Y-72091095D01*
X121033554Y-72075835D01*
X121099844Y-71828438D01*
X121102000Y-71812062D01*
X121102000Y-71689811D01*
X121591000Y-72178812D01*
%TA.AperFunction,Conductor*%
G36*
X121591000Y-72178812D02*
G01*
X121591001Y-75583750D01*
X121380625Y-75583749D01*
X121380626Y-74452835D01*
X121306817Y-74379026D01*
X121213163Y-74379026D01*
X121199733Y-74380470D01*
X120910212Y-74443452D01*
X120910212Y-74414242D01*
X120908056Y-74397866D01*
X120886562Y-74317648D01*
X120909253Y-74188962D01*
X120910212Y-74178001D01*
X120910212Y-73614241D01*
X120908056Y-73597865D01*
X120902502Y-73577136D01*
X121027233Y-73361095D01*
X121033554Y-73345835D01*
X121099844Y-73098438D01*
X121102000Y-73082062D01*
X121102000Y-72825938D01*
X121099844Y-72809562D01*
X121033554Y-72562165D01*
X121027233Y-72546905D01*
X120899171Y-72325095D01*
X120894494Y-72319000D01*
X120899171Y-72312905D01*
X121027233Y-72091095D01*
X121033554Y-72075835D01*
X121099844Y-71828438D01*
X121102000Y-71812062D01*
X121102000Y-71689811D01*
X121591000Y-72178812D01*
G37*
%TD.AperFunction*%
X118006884Y-60784459D02*
X118001806Y-60801752D01*
X117976418Y-60978330D01*
X117975776Y-60987307D01*
X117975776Y-63584378D01*
X117977220Y-63597808D01*
X118043093Y-63900623D01*
X118051723Y-63921457D01*
X118181745Y-64123776D01*
X118193548Y-64137397D01*
X118373592Y-64293407D01*
X118388754Y-64303151D01*
X118605459Y-64402116D01*
X118622752Y-64407194D01*
X118799330Y-64432582D01*
X118808307Y-64433224D01*
X120505378Y-64433224D01*
X120518808Y-64431780D01*
X120821623Y-64365907D01*
X120842457Y-64357277D01*
X121044776Y-64227255D01*
X121058397Y-64215452D01*
X121214407Y-64035408D01*
X121224151Y-64020246D01*
X121323116Y-63803541D01*
X121328194Y-63786248D01*
X121353582Y-63609670D01*
X121354224Y-63600693D01*
X121354224Y-63385626D01*
X123566645Y-63385626D01*
X124947809Y-64766790D01*
X125052191Y-64766790D01*
X126432243Y-63386738D01*
X126422455Y-63270174D01*
X126173493Y-63093244D01*
X126166177Y-63088761D01*
X125903859Y-62951625D01*
X125896003Y-62948176D01*
X125617500Y-62847909D01*
X125609248Y-62845558D01*
X125319715Y-62784016D01*
X125311220Y-62782807D01*
X125016013Y-62761128D01*
X125007433Y-62761083D01*
X124712015Y-62779669D01*
X124703508Y-62780789D01*
X124413346Y-62839297D01*
X124405070Y-62841561D01*
X124125533Y-62938905D01*
X124117641Y-62942272D01*
X123853901Y-63076654D01*
X123846539Y-63081060D01*
X123577115Y-63268315D01*
X123566645Y-63385626D01*
X121354224Y-63385626D01*
X121354224Y-61003622D01*
X121352780Y-60990192D01*
X121286907Y-60687377D01*
X121278277Y-60666543D01*
X121257363Y-60634000D01*
X124936511Y-60634000D01*
X124950584Y-60636838D01*
X124959863Y-60638001D01*
X124970987Y-60638565D01*
X124971369Y-60638583D01*
X125387589Y-60657119D01*
X125772119Y-60708768D01*
X126150516Y-60794391D01*
X126519830Y-60913319D01*
X126877084Y-61064598D01*
X127219492Y-61247043D01*
X127544328Y-61459203D01*
X127849013Y-61699399D01*
X128131131Y-61965719D01*
X128388471Y-62256077D01*
X128618968Y-62568146D01*
X128820821Y-62899485D01*
X128992416Y-63247445D01*
X129132408Y-63609303D01*
X129239671Y-63982137D01*
X129313369Y-64363060D01*
X129353425Y-64754014D01*
X129361170Y-65022887D01*
X129362065Y-65031807D01*
X129366000Y-65054588D01*
X129366000Y-68835012D01*
X129365919Y-68834918D01*
X129192736Y-68684854D01*
X129177574Y-68675110D01*
X128969128Y-68579916D01*
X128951835Y-68574838D01*
X128781990Y-68550418D01*
X128773013Y-68549776D01*
X128663809Y-68549776D01*
X128590000Y-68623585D01*
X128589999Y-69424692D01*
X128590000Y-69424693D01*
X128589999Y-69754500D01*
X127908809Y-69754499D01*
X127908808Y-69754500D01*
X127139808Y-69754499D01*
X127139807Y-69754500D01*
X126370809Y-69754499D01*
X126370808Y-69754500D01*
X125601808Y-69754499D01*
X125601807Y-69754500D01*
X124612520Y-69754499D01*
X124612519Y-69754500D01*
X123843519Y-69754499D01*
X123843518Y-69754500D01*
X122593811Y-69754499D01*
X122518159Y-69848377D01*
X122592246Y-70188946D01*
X122600876Y-70209780D01*
X122725989Y-70404461D01*
X122737792Y-70418082D01*
X122739458Y-70419525D01*
X122684258Y-70483229D01*
X121959214Y-69758185D01*
X121959211Y-69758181D01*
X121802784Y-69601754D01*
X121786738Y-69590096D01*
X121761212Y-69577090D01*
X121761212Y-69383809D01*
X121730390Y-69352987D01*
X122527487Y-69352987D01*
X122527487Y-69424691D01*
X122601296Y-69498500D01*
X123439902Y-69498501D01*
X123513711Y-69424692D01*
X123513711Y-69424691D01*
X123769710Y-69424691D01*
X123843519Y-69498500D01*
X124429191Y-69498501D01*
X124429192Y-69498500D01*
X125198191Y-69498501D01*
X125272000Y-69424692D01*
X125272000Y-69424691D01*
X125527999Y-69424691D01*
X125601808Y-69498500D01*
X125967191Y-69498501D01*
X125967192Y-69498500D01*
X126736191Y-69498501D01*
X126810000Y-69424692D01*
X126810000Y-69424691D01*
X127065999Y-69424691D01*
X127139808Y-69498500D01*
X127491191Y-69498501D01*
X127491192Y-69498500D01*
X128260191Y-69498501D01*
X128334000Y-69424692D01*
X128334001Y-68623585D01*
X128260192Y-68549776D01*
X128166538Y-68549776D01*
X128153108Y-68551220D01*
X127862054Y-68614535D01*
X127841220Y-68623165D01*
X127701309Y-68713079D01*
X127668736Y-68684854D01*
X127653574Y-68675110D01*
X127445128Y-68579916D01*
X127427835Y-68574838D01*
X127257990Y-68550418D01*
X127249013Y-68549776D01*
X127139809Y-68549776D01*
X127066000Y-68623585D01*
X127065999Y-69424691D01*
X126810000Y-69424691D01*
X126810001Y-68623585D01*
X126736192Y-68549776D01*
X126642538Y-68549776D01*
X126629108Y-68551220D01*
X126338054Y-68614535D01*
X126317220Y-68623165D01*
X126169271Y-68718245D01*
X126130736Y-68684854D01*
X126115574Y-68675110D01*
X125907128Y-68579916D01*
X125889835Y-68574838D01*
X125719990Y-68550418D01*
X125711013Y-68549776D01*
X125601809Y-68549776D01*
X125528000Y-68623585D01*
X125527999Y-69424691D01*
X125272000Y-69424691D01*
X125272001Y-68623585D01*
X125198192Y-68549776D01*
X125104538Y-68549776D01*
X125091108Y-68551220D01*
X124800054Y-68614535D01*
X124779220Y-68623165D01*
X124584539Y-68748278D01*
X124570918Y-68760081D01*
X124523036Y-68815340D01*
X124372447Y-68684854D01*
X124357285Y-68675110D01*
X124148839Y-68579916D01*
X124131546Y-68574838D01*
X123961701Y-68550418D01*
X123952724Y-68549776D01*
X123843520Y-68549776D01*
X123769711Y-68623585D01*
X123769710Y-69424691D01*
X123513711Y-69424691D01*
X123513712Y-68623585D01*
X123439903Y-68549776D01*
X123346249Y-68549776D01*
X123332819Y-68551220D01*
X123041765Y-68614535D01*
X123020931Y-68623165D01*
X122826250Y-68748278D01*
X122812629Y-68760081D01*
X122662565Y-68933264D01*
X122652821Y-68948426D01*
X122557627Y-69156872D01*
X122552549Y-69174165D01*
X122528129Y-69344010D01*
X122527487Y-69352987D01*
X121730390Y-69352987D01*
X121687403Y-69310000D01*
X119651347Y-69310000D01*
X119577538Y-69383809D01*
X119577538Y-69456990D01*
X117661212Y-69456990D01*
X117661212Y-69383809D01*
X117587403Y-69310000D01*
X116441375Y-69310000D01*
X116441375Y-69054000D01*
X117587403Y-69054000D01*
X117661212Y-68980191D01*
X117661212Y-68673742D01*
X117659056Y-68657366D01*
X117584238Y-68378142D01*
X117582455Y-68374717D01*
X117618734Y-68311880D01*
X117626275Y-68291163D01*
X117660253Y-68098462D01*
X117661212Y-68087501D01*
X117661212Y-67655999D01*
X119577538Y-67655999D01*
X119577538Y-68090258D01*
X119579694Y-68106634D01*
X119654512Y-68385859D01*
X119656295Y-68389283D01*
X119620016Y-68452120D01*
X119612475Y-68472837D01*
X119578497Y-68665538D01*
X119577538Y-68676499D01*
X119577538Y-68980191D01*
X119651347Y-69054000D01*
X121687403Y-69054000D01*
X121761212Y-68980191D01*
X121761212Y-68673742D01*
X121759056Y-68657366D01*
X121744047Y-68601352D01*
X121750362Y-68603044D01*
X121766737Y-68605200D01*
X122022862Y-68605200D01*
X122039238Y-68603044D01*
X122286635Y-68536754D01*
X122301895Y-68530433D01*
X122523705Y-68402371D01*
X122536809Y-68392316D01*
X122717916Y-68211209D01*
X122727971Y-68198105D01*
X122856033Y-67976295D01*
X122862354Y-67961035D01*
X122928644Y-67713638D01*
X122930800Y-67697262D01*
X122930800Y-67441138D01*
X122928644Y-67424762D01*
X122862354Y-67177365D01*
X122856033Y-67162105D01*
X122727971Y-66940295D01*
X122717916Y-66927191D01*
X122536809Y-66746084D01*
X122523705Y-66736029D01*
X122309435Y-66612320D01*
X123568699Y-66612320D01*
X123577814Y-66728135D01*
X123806604Y-66894363D01*
X123813873Y-66898922D01*
X124074740Y-67038798D01*
X124082560Y-67042329D01*
X124359998Y-67145507D01*
X124368224Y-67147944D01*
X124657098Y-67212514D01*
X124665579Y-67213812D01*
X124960543Y-67238581D01*
X124969122Y-67238716D01*
X125264718Y-67223225D01*
X125273236Y-67222194D01*
X125563996Y-67166728D01*
X125572295Y-67164551D01*
X125852836Y-67070138D01*
X125860762Y-67066855D01*
X126125896Y-66935242D01*
X126133303Y-66930913D01*
X126423477Y-66733712D01*
X126434637Y-66615656D01*
X125052191Y-65233210D01*
X124947809Y-65233210D01*
X123568699Y-66612320D01*
X122309435Y-66612320D01*
X122301895Y-66607967D01*
X122286635Y-66601646D01*
X122039238Y-66535356D01*
X122022862Y-66533200D01*
X121766738Y-66533200D01*
X121750362Y-66535356D01*
X121535154Y-66593021D01*
X121523496Y-66583238D01*
X121349255Y-66482641D01*
X121328538Y-66475100D01*
X121135837Y-66441122D01*
X121124876Y-66440163D01*
X120603752Y-66440163D01*
X120598786Y-66435197D01*
X120598781Y-66435190D01*
X120442354Y-66278763D01*
X120426308Y-66267105D01*
X120381221Y-66244132D01*
X120340290Y-66214393D01*
X120322618Y-66205388D01*
X120274500Y-66189754D01*
X120229413Y-66166781D01*
X120210550Y-66160652D01*
X120160567Y-66152736D01*
X120112452Y-66137102D01*
X120092863Y-66134000D01*
X120037565Y-66134000D01*
X120037553Y-66133999D01*
X118081589Y-66133999D01*
X118124664Y-66039678D01*
X118129742Y-66022385D01*
X118153582Y-65856575D01*
X118154224Y-65847598D01*
X118154224Y-65395809D01*
X118080415Y-65322000D01*
X116987000Y-65321999D01*
X116987000Y-65124598D01*
X122764541Y-65124598D01*
X122765035Y-65133164D01*
X122802133Y-65426832D01*
X122803785Y-65435252D01*
X122880397Y-65721168D01*
X122883176Y-65729285D01*
X122997881Y-66002159D01*
X123001736Y-66009824D01*
X123152413Y-66264606D01*
X123157273Y-66271677D01*
X123276974Y-66422701D01*
X123389776Y-66429205D01*
X124766790Y-65052191D01*
X124766790Y-64947809D01*
X125233210Y-64947809D01*
X125233210Y-65052191D01*
X126610388Y-66429369D01*
X126720911Y-66424736D01*
X126801873Y-66328930D01*
X126806953Y-66322015D01*
X126965559Y-66072093D01*
X126969653Y-66064553D01*
X127092873Y-65795417D01*
X127095905Y-65787391D01*
X127181459Y-65504022D01*
X127183375Y-65495659D01*
X127229731Y-65202974D01*
X127230505Y-65193766D01*
X127234073Y-64852988D01*
X127233493Y-64843766D01*
X127193276Y-64550176D01*
X127191536Y-64541774D01*
X127111936Y-64256675D01*
X127109072Y-64248588D01*
X126991515Y-63976930D01*
X126987580Y-63969306D01*
X126834243Y-63716116D01*
X126829309Y-63709096D01*
X126722158Y-63576777D01*
X126610114Y-63570905D01*
X125233210Y-64947809D01*
X124766790Y-64947809D01*
X123389831Y-63570850D01*
X123278547Y-63576098D01*
X123184309Y-63690011D01*
X123179302Y-63696979D01*
X123023323Y-63948549D01*
X123019308Y-63956131D01*
X122898912Y-64226543D01*
X122895964Y-64234601D01*
X122813382Y-64518850D01*
X122811554Y-64527233D01*
X122768313Y-64820059D01*
X122767640Y-64828613D01*
X122764541Y-65124598D01*
X116987000Y-65124598D01*
X116987001Y-65066000D01*
X118080415Y-65066001D01*
X118154224Y-64992192D01*
X118154224Y-64555493D01*
X118152780Y-64542063D01*
X118091000Y-64258062D01*
X118082370Y-64237228D01*
X117960201Y-64047129D01*
X117948398Y-64033508D01*
X117779332Y-63887011D01*
X117764170Y-63877267D01*
X117560678Y-63784336D01*
X117543385Y-63779258D01*
X117523491Y-63776398D01*
X117543844Y-63700438D01*
X117546000Y-63684062D01*
X117546000Y-63427938D01*
X117543844Y-63411562D01*
X117477554Y-63164165D01*
X117471233Y-63148905D01*
X117343171Y-62927095D01*
X117333116Y-62913991D01*
X117152009Y-62732884D01*
X117138905Y-62722829D01*
X116917095Y-62594767D01*
X116901835Y-62588446D01*
X116654438Y-62522156D01*
X116638062Y-62520000D01*
X116550214Y-62520000D01*
X116276411Y-62246197D01*
X116276406Y-62246190D01*
X116119979Y-62089763D01*
X116103933Y-62078105D01*
X116058846Y-62055132D01*
X116017915Y-62025393D01*
X116000243Y-62016388D01*
X115952125Y-62000754D01*
X115907038Y-61977781D01*
X115888175Y-61971652D01*
X115838192Y-61963736D01*
X115790077Y-61948102D01*
X115770488Y-61945000D01*
X115715190Y-61945000D01*
X115715178Y-61944999D01*
X113506820Y-61944999D01*
X113506808Y-61945000D01*
X113451509Y-61945000D01*
X113431921Y-61948102D01*
X113383807Y-61963735D01*
X113333822Y-61971652D01*
X113314961Y-61977781D01*
X113269878Y-62000751D01*
X113221754Y-62016388D01*
X113204083Y-62025392D01*
X113163144Y-62055136D01*
X113118064Y-62078106D01*
X113102019Y-62089763D01*
X113062404Y-62129379D01*
X113062389Y-62129392D01*
X112504224Y-62687558D01*
X112504224Y-61003622D01*
X112502780Y-60990192D01*
X112436907Y-60687377D01*
X112428277Y-60666543D01*
X112407363Y-60634000D01*
X118075596Y-60634000D01*
X118006884Y-60784459D01*
%TA.AperFunction,Conductor*%
G36*
X118006884Y-60784459D02*
G01*
X118001806Y-60801752D01*
X117976418Y-60978330D01*
X117975776Y-60987307D01*
X117975776Y-63584378D01*
X117977220Y-63597808D01*
X118043093Y-63900623D01*
X118051723Y-63921457D01*
X118181745Y-64123776D01*
X118193548Y-64137397D01*
X118373592Y-64293407D01*
X118388754Y-64303151D01*
X118605459Y-64402116D01*
X118622752Y-64407194D01*
X118799330Y-64432582D01*
X118808307Y-64433224D01*
X120505378Y-64433224D01*
X120518808Y-64431780D01*
X120821623Y-64365907D01*
X120842457Y-64357277D01*
X121044776Y-64227255D01*
X121058397Y-64215452D01*
X121214407Y-64035408D01*
X121224151Y-64020246D01*
X121323116Y-63803541D01*
X121328194Y-63786248D01*
X121353582Y-63609670D01*
X121354224Y-63600693D01*
X121354224Y-63385626D01*
X123566645Y-63385626D01*
X124947809Y-64766790D01*
X125052191Y-64766790D01*
X126432243Y-63386738D01*
X126422455Y-63270174D01*
X126173493Y-63093244D01*
X126166177Y-63088761D01*
X125903859Y-62951625D01*
X125896003Y-62948176D01*
X125617500Y-62847909D01*
X125609248Y-62845558D01*
X125319715Y-62784016D01*
X125311220Y-62782807D01*
X125016013Y-62761128D01*
X125007433Y-62761083D01*
X124712015Y-62779669D01*
X124703508Y-62780789D01*
X124413346Y-62839297D01*
X124405070Y-62841561D01*
X124125533Y-62938905D01*
X124117641Y-62942272D01*
X123853901Y-63076654D01*
X123846539Y-63081060D01*
X123577115Y-63268315D01*
X123566645Y-63385626D01*
X121354224Y-63385626D01*
X121354224Y-61003622D01*
X121352780Y-60990192D01*
X121286907Y-60687377D01*
X121278277Y-60666543D01*
X121257363Y-60634000D01*
X124936511Y-60634000D01*
X124950584Y-60636838D01*
X124959863Y-60638001D01*
X124970987Y-60638565D01*
X124971369Y-60638583D01*
X125387589Y-60657119D01*
X125772119Y-60708768D01*
X126150516Y-60794391D01*
X126519830Y-60913319D01*
X126877084Y-61064598D01*
X127219492Y-61247043D01*
X127544328Y-61459203D01*
X127849013Y-61699399D01*
X128131131Y-61965719D01*
X128388471Y-62256077D01*
X128618968Y-62568146D01*
X128820821Y-62899485D01*
X128992416Y-63247445D01*
X129132408Y-63609303D01*
X129239671Y-63982137D01*
X129313369Y-64363060D01*
X129353425Y-64754014D01*
X129361170Y-65022887D01*
X129362065Y-65031807D01*
X129366000Y-65054588D01*
X129366000Y-68835012D01*
X129365919Y-68834918D01*
X129192736Y-68684854D01*
X129177574Y-68675110D01*
X128969128Y-68579916D01*
X128951835Y-68574838D01*
X128781990Y-68550418D01*
X128773013Y-68549776D01*
X128663809Y-68549776D01*
X128590000Y-68623585D01*
X128589999Y-69424692D01*
X128590000Y-69424693D01*
X128589999Y-69754500D01*
X127908809Y-69754499D01*
X127908808Y-69754500D01*
X127139808Y-69754499D01*
X127139807Y-69754500D01*
X126370809Y-69754499D01*
X126370808Y-69754500D01*
X125601808Y-69754499D01*
X125601807Y-69754500D01*
X124612520Y-69754499D01*
X124612519Y-69754500D01*
X123843519Y-69754499D01*
X123843518Y-69754500D01*
X122593811Y-69754499D01*
X122518159Y-69848377D01*
X122592246Y-70188946D01*
X122600876Y-70209780D01*
X122725989Y-70404461D01*
X122737792Y-70418082D01*
X122739458Y-70419525D01*
X122684258Y-70483229D01*
X121959214Y-69758185D01*
X121959211Y-69758181D01*
X121802784Y-69601754D01*
X121786738Y-69590096D01*
X121761212Y-69577090D01*
X121761212Y-69383809D01*
X121730390Y-69352987D01*
X122527487Y-69352987D01*
X122527487Y-69424691D01*
X122601296Y-69498500D01*
X123439902Y-69498501D01*
X123513711Y-69424692D01*
X123513711Y-69424691D01*
X123769710Y-69424691D01*
X123843519Y-69498500D01*
X124429191Y-69498501D01*
X124429192Y-69498500D01*
X125198191Y-69498501D01*
X125272000Y-69424692D01*
X125272000Y-69424691D01*
X125527999Y-69424691D01*
X125601808Y-69498500D01*
X125967191Y-69498501D01*
X125967192Y-69498500D01*
X126736191Y-69498501D01*
X126810000Y-69424692D01*
X126810000Y-69424691D01*
X127065999Y-69424691D01*
X127139808Y-69498500D01*
X127491191Y-69498501D01*
X127491192Y-69498500D01*
X128260191Y-69498501D01*
X128334000Y-69424692D01*
X128334001Y-68623585D01*
X128260192Y-68549776D01*
X128166538Y-68549776D01*
X128153108Y-68551220D01*
X127862054Y-68614535D01*
X127841220Y-68623165D01*
X127701309Y-68713079D01*
X127668736Y-68684854D01*
X127653574Y-68675110D01*
X127445128Y-68579916D01*
X127427835Y-68574838D01*
X127257990Y-68550418D01*
X127249013Y-68549776D01*
X127139809Y-68549776D01*
X127066000Y-68623585D01*
X127065999Y-69424691D01*
X126810000Y-69424691D01*
X126810001Y-68623585D01*
X126736192Y-68549776D01*
X126642538Y-68549776D01*
X126629108Y-68551220D01*
X126338054Y-68614535D01*
X126317220Y-68623165D01*
X126169271Y-68718245D01*
X126130736Y-68684854D01*
X126115574Y-68675110D01*
X125907128Y-68579916D01*
X125889835Y-68574838D01*
X125719990Y-68550418D01*
X125711013Y-68549776D01*
X125601809Y-68549776D01*
X125528000Y-68623585D01*
X125527999Y-69424691D01*
X125272000Y-69424691D01*
X125272001Y-68623585D01*
X125198192Y-68549776D01*
X125104538Y-68549776D01*
X125091108Y-68551220D01*
X124800054Y-68614535D01*
X124779220Y-68623165D01*
X124584539Y-68748278D01*
X124570918Y-68760081D01*
X124523036Y-68815340D01*
X124372447Y-68684854D01*
X124357285Y-68675110D01*
X124148839Y-68579916D01*
X124131546Y-68574838D01*
X123961701Y-68550418D01*
X123952724Y-68549776D01*
X123843520Y-68549776D01*
X123769711Y-68623585D01*
X123769710Y-69424691D01*
X123513711Y-69424691D01*
X123513712Y-68623585D01*
X123439903Y-68549776D01*
X123346249Y-68549776D01*
X123332819Y-68551220D01*
X123041765Y-68614535D01*
X123020931Y-68623165D01*
X122826250Y-68748278D01*
X122812629Y-68760081D01*
X122662565Y-68933264D01*
X122652821Y-68948426D01*
X122557627Y-69156872D01*
X122552549Y-69174165D01*
X122528129Y-69344010D01*
X122527487Y-69352987D01*
X121730390Y-69352987D01*
X121687403Y-69310000D01*
X119651347Y-69310000D01*
X119577538Y-69383809D01*
X119577538Y-69456990D01*
X117661212Y-69456990D01*
X117661212Y-69383809D01*
X117587403Y-69310000D01*
X116441375Y-69310000D01*
X116441375Y-69054000D01*
X117587403Y-69054000D01*
X117661212Y-68980191D01*
X117661212Y-68673742D01*
X117659056Y-68657366D01*
X117584238Y-68378142D01*
X117582455Y-68374717D01*
X117618734Y-68311880D01*
X117626275Y-68291163D01*
X117660253Y-68098462D01*
X117661212Y-68087501D01*
X117661212Y-67655999D01*
X119577538Y-67655999D01*
X119577538Y-68090258D01*
X119579694Y-68106634D01*
X119654512Y-68385859D01*
X119656295Y-68389283D01*
X119620016Y-68452120D01*
X119612475Y-68472837D01*
X119578497Y-68665538D01*
X119577538Y-68676499D01*
X119577538Y-68980191D01*
X119651347Y-69054000D01*
X121687403Y-69054000D01*
X121761212Y-68980191D01*
X121761212Y-68673742D01*
X121759056Y-68657366D01*
X121744047Y-68601352D01*
X121750362Y-68603044D01*
X121766737Y-68605200D01*
X122022862Y-68605200D01*
X122039238Y-68603044D01*
X122286635Y-68536754D01*
X122301895Y-68530433D01*
X122523705Y-68402371D01*
X122536809Y-68392316D01*
X122717916Y-68211209D01*
X122727971Y-68198105D01*
X122856033Y-67976295D01*
X122862354Y-67961035D01*
X122928644Y-67713638D01*
X122930800Y-67697262D01*
X122930800Y-67441138D01*
X122928644Y-67424762D01*
X122862354Y-67177365D01*
X122856033Y-67162105D01*
X122727971Y-66940295D01*
X122717916Y-66927191D01*
X122536809Y-66746084D01*
X122523705Y-66736029D01*
X122309435Y-66612320D01*
X123568699Y-66612320D01*
X123577814Y-66728135D01*
X123806604Y-66894363D01*
X123813873Y-66898922D01*
X124074740Y-67038798D01*
X124082560Y-67042329D01*
X124359998Y-67145507D01*
X124368224Y-67147944D01*
X124657098Y-67212514D01*
X124665579Y-67213812D01*
X124960543Y-67238581D01*
X124969122Y-67238716D01*
X125264718Y-67223225D01*
X125273236Y-67222194D01*
X125563996Y-67166728D01*
X125572295Y-67164551D01*
X125852836Y-67070138D01*
X125860762Y-67066855D01*
X126125896Y-66935242D01*
X126133303Y-66930913D01*
X126423477Y-66733712D01*
X126434637Y-66615656D01*
X125052191Y-65233210D01*
X124947809Y-65233210D01*
X123568699Y-66612320D01*
X122309435Y-66612320D01*
X122301895Y-66607967D01*
X122286635Y-66601646D01*
X122039238Y-66535356D01*
X122022862Y-66533200D01*
X121766738Y-66533200D01*
X121750362Y-66535356D01*
X121535154Y-66593021D01*
X121523496Y-66583238D01*
X121349255Y-66482641D01*
X121328538Y-66475100D01*
X121135837Y-66441122D01*
X121124876Y-66440163D01*
X120603752Y-66440163D01*
X120598786Y-66435197D01*
X120598781Y-66435190D01*
X120442354Y-66278763D01*
X120426308Y-66267105D01*
X120381221Y-66244132D01*
X120340290Y-66214393D01*
X120322618Y-66205388D01*
X120274500Y-66189754D01*
X120229413Y-66166781D01*
X120210550Y-66160652D01*
X120160567Y-66152736D01*
X120112452Y-66137102D01*
X120092863Y-66134000D01*
X120037565Y-66134000D01*
X120037553Y-66133999D01*
X118081589Y-66133999D01*
X118124664Y-66039678D01*
X118129742Y-66022385D01*
X118153582Y-65856575D01*
X118154224Y-65847598D01*
X118154224Y-65395809D01*
X118080415Y-65322000D01*
X116987000Y-65321999D01*
X116987000Y-65124598D01*
X122764541Y-65124598D01*
X122765035Y-65133164D01*
X122802133Y-65426832D01*
X122803785Y-65435252D01*
X122880397Y-65721168D01*
X122883176Y-65729285D01*
X122997881Y-66002159D01*
X123001736Y-66009824D01*
X123152413Y-66264606D01*
X123157273Y-66271677D01*
X123276974Y-66422701D01*
X123389776Y-66429205D01*
X124766790Y-65052191D01*
X124766790Y-64947809D01*
X125233210Y-64947809D01*
X125233210Y-65052191D01*
X126610388Y-66429369D01*
X126720911Y-66424736D01*
X126801873Y-66328930D01*
X126806953Y-66322015D01*
X126965559Y-66072093D01*
X126969653Y-66064553D01*
X127092873Y-65795417D01*
X127095905Y-65787391D01*
X127181459Y-65504022D01*
X127183375Y-65495659D01*
X127229731Y-65202974D01*
X127230505Y-65193766D01*
X127234073Y-64852988D01*
X127233493Y-64843766D01*
X127193276Y-64550176D01*
X127191536Y-64541774D01*
X127111936Y-64256675D01*
X127109072Y-64248588D01*
X126991515Y-63976930D01*
X126987580Y-63969306D01*
X126834243Y-63716116D01*
X126829309Y-63709096D01*
X126722158Y-63576777D01*
X126610114Y-63570905D01*
X125233210Y-64947809D01*
X124766790Y-64947809D01*
X123389831Y-63570850D01*
X123278547Y-63576098D01*
X123184309Y-63690011D01*
X123179302Y-63696979D01*
X123023323Y-63948549D01*
X123019308Y-63956131D01*
X122898912Y-64226543D01*
X122895964Y-64234601D01*
X122813382Y-64518850D01*
X122811554Y-64527233D01*
X122768313Y-64820059D01*
X122767640Y-64828613D01*
X122764541Y-65124598D01*
X116987000Y-65124598D01*
X116987001Y-65066000D01*
X118080415Y-65066001D01*
X118154224Y-64992192D01*
X118154224Y-64555493D01*
X118152780Y-64542063D01*
X118091000Y-64258062D01*
X118082370Y-64237228D01*
X117960201Y-64047129D01*
X117948398Y-64033508D01*
X117779332Y-63887011D01*
X117764170Y-63877267D01*
X117560678Y-63784336D01*
X117543385Y-63779258D01*
X117523491Y-63776398D01*
X117543844Y-63700438D01*
X117546000Y-63684062D01*
X117546000Y-63427938D01*
X117543844Y-63411562D01*
X117477554Y-63164165D01*
X117471233Y-63148905D01*
X117343171Y-62927095D01*
X117333116Y-62913991D01*
X117152009Y-62732884D01*
X117138905Y-62722829D01*
X116917095Y-62594767D01*
X116901835Y-62588446D01*
X116654438Y-62522156D01*
X116638062Y-62520000D01*
X116550214Y-62520000D01*
X116276411Y-62246197D01*
X116276406Y-62246190D01*
X116119979Y-62089763D01*
X116103933Y-62078105D01*
X116058846Y-62055132D01*
X116017915Y-62025393D01*
X116000243Y-62016388D01*
X115952125Y-62000754D01*
X115907038Y-61977781D01*
X115888175Y-61971652D01*
X115838192Y-61963736D01*
X115790077Y-61948102D01*
X115770488Y-61945000D01*
X115715190Y-61945000D01*
X115715178Y-61944999D01*
X113506820Y-61944999D01*
X113506808Y-61945000D01*
X113451509Y-61945000D01*
X113431921Y-61948102D01*
X113383807Y-61963735D01*
X113333822Y-61971652D01*
X113314961Y-61977781D01*
X113269878Y-62000751D01*
X113221754Y-62016388D01*
X113204083Y-62025392D01*
X113163144Y-62055136D01*
X113118064Y-62078106D01*
X113102019Y-62089763D01*
X113062404Y-62129379D01*
X113062389Y-62129392D01*
X112504224Y-62687558D01*
X112504224Y-61003622D01*
X112502780Y-60990192D01*
X112436907Y-60687377D01*
X112428277Y-60666543D01*
X112407363Y-60634000D01*
X118075596Y-60634000D01*
X118006884Y-60784459D01*
G37*
%TD.AperFunction*%
X114204000Y-63684062D02*
X114206156Y-63700438D01*
X114228921Y-63785400D01*
X114079062Y-63818000D01*
X114058228Y-63826630D01*
X113993865Y-63867994D01*
X113810678Y-63784336D01*
X113793385Y-63779258D01*
X113627575Y-63755418D01*
X113618598Y-63754776D01*
X113589438Y-63754776D01*
X113877216Y-63466999D01*
X114204000Y-63466999D01*
X114204000Y-63684062D01*
%TA.AperFunction,Conductor*%
G36*
X114204000Y-63684062D02*
G01*
X114206156Y-63700438D01*
X114228921Y-63785400D01*
X114079062Y-63818000D01*
X114058228Y-63826630D01*
X113993865Y-63867994D01*
X113810678Y-63784336D01*
X113793385Y-63779258D01*
X113627575Y-63755418D01*
X113618598Y-63754776D01*
X113589438Y-63754776D01*
X113877216Y-63466999D01*
X114204000Y-63466999D01*
X114204000Y-63684062D01*
G37*
%TD.AperFunction*%
%TD*%
M02*
