%TF.GenerationSoftware,KiCad,Pcbnew,(5.99.0-2358-g6d8fb94d8)*%
%TF.CreationDate,2020-07-21T23:14:41+08:00*%
%TF.ProjectId,TheFC,54686546-432e-46b6-9963-61645f706362,1.0*%
%TF.SameCoordinates,Original*%
%TF.FileFunction,Legend,Top*%
%TF.FilePolarity,Positive*%
%FSLAX46Y46*%
G04 Gerber Fmt 4.6, Leading zero omitted, Abs format (unit mm)*
G04 Created by KiCad (PCBNEW (5.99.0-2358-g6d8fb94d8)) date 2020-07-21 23:14:41*
%MOMM*%
%LPD*%
G01*
G04 APERTURE LIST*
%ADD10C,0.300000*%
%ADD11C,0.120000*%
%ADD12C,0.150000*%
%ADD13C,0.125000*%
G04 APERTURE END LIST*
D10*
X120836000Y-71878571D02*
X121336000Y-73378571D01*
X121836000Y-71878571D01*
D11*
X117342711Y-66350000D02*
G75*
G03*
X117342711Y-66350000I-70711J0D01*
G01*
D12*
X117796380Y-88154380D02*
X118367809Y-88154380D01*
X118082095Y-89154380D02*
X118082095Y-88154380D01*
X118701142Y-89154380D02*
X118701142Y-88154380D01*
X119129714Y-89154380D02*
X119129714Y-88630571D01*
X119082095Y-88535333D01*
X118986857Y-88487714D01*
X118844000Y-88487714D01*
X118748761Y-88535333D01*
X118701142Y-88582952D01*
X119986857Y-89106761D02*
X119891619Y-89154380D01*
X119701142Y-89154380D01*
X119605904Y-89106761D01*
X119558285Y-89011523D01*
X119558285Y-88630571D01*
X119605904Y-88535333D01*
X119701142Y-88487714D01*
X119891619Y-88487714D01*
X119986857Y-88535333D01*
X120034476Y-88630571D01*
X120034476Y-88725809D01*
X119558285Y-88821047D01*
X120796380Y-88630571D02*
X120463047Y-88630571D01*
X120463047Y-89154380D02*
X120463047Y-88154380D01*
X120939238Y-88154380D01*
X121891619Y-89059142D02*
X121844000Y-89106761D01*
X121701142Y-89154380D01*
X121605904Y-89154380D01*
X121463047Y-89106761D01*
X121367809Y-89011523D01*
X121320190Y-88916285D01*
X121272571Y-88725809D01*
X121272571Y-88582952D01*
X121320190Y-88392476D01*
X121367809Y-88297238D01*
X121463047Y-88202000D01*
X121605904Y-88154380D01*
X121701142Y-88154380D01*
X121844000Y-88202000D01*
X121891619Y-88249619D01*
X122986857Y-88487714D02*
X123224952Y-89154380D01*
X123463047Y-88487714D01*
X124367809Y-89154380D02*
X123796380Y-89154380D01*
X124082095Y-89154380D02*
X124082095Y-88154380D01*
X123986857Y-88297238D01*
X123891619Y-88392476D01*
X123796380Y-88440095D01*
X124796380Y-89059142D02*
X124844000Y-89106761D01*
X124796380Y-89154380D01*
X124748761Y-89106761D01*
X124796380Y-89059142D01*
X124796380Y-89154380D01*
X125463047Y-88154380D02*
X125558285Y-88154380D01*
X125653523Y-88202000D01*
X125701142Y-88249619D01*
X125748761Y-88344857D01*
X125796380Y-88535333D01*
X125796380Y-88773428D01*
X125748761Y-88963904D01*
X125701142Y-89059142D01*
X125653523Y-89106761D01*
X125558285Y-89154380D01*
X125463047Y-89154380D01*
X125367809Y-89106761D01*
X125320190Y-89059142D01*
X125272571Y-88963904D01*
X125224952Y-88773428D01*
X125224952Y-88535333D01*
X125272571Y-88344857D01*
X125320190Y-88249619D01*
X125367809Y-88202000D01*
X125463047Y-88154380D01*
D11*
X114294711Y-87432000D02*
G75*
G03*
X114294711Y-87432000I-70711J0D01*
G01*
X111246711Y-87432000D02*
G75*
G03*
X111246711Y-87432000I-70711J0D01*
G01*
X128448001Y-76053000D02*
G75*
G03*
X128448001Y-76053000I-70711J0D01*
G01*
X109976711Y-73899290D02*
G75*
G03*
X109976711Y-73899290I-70711J0D01*
G01*
D13*
X106509238Y-66330190D02*
X107175904Y-66830190D01*
X107175904Y-66330190D02*
X106509238Y-66830190D01*
X107556857Y-66830190D02*
X107556857Y-66496857D01*
X107556857Y-66330190D02*
X107509238Y-66354000D01*
X107556857Y-66377809D01*
X107604476Y-66354000D01*
X107556857Y-66330190D01*
X107556857Y-66377809D01*
X108461619Y-66830190D02*
X108461619Y-66568285D01*
X108414000Y-66520666D01*
X108318761Y-66496857D01*
X108128285Y-66496857D01*
X108033047Y-66520666D01*
X108461619Y-66806380D02*
X108366380Y-66830190D01*
X108128285Y-66830190D01*
X108033047Y-66806380D01*
X107985428Y-66758761D01*
X107985428Y-66711142D01*
X108033047Y-66663523D01*
X108128285Y-66639714D01*
X108366380Y-66639714D01*
X108461619Y-66615904D01*
X109080666Y-66830190D02*
X108985428Y-66806380D01*
X108937809Y-66782571D01*
X108890190Y-66734952D01*
X108890190Y-66592095D01*
X108937809Y-66544476D01*
X108985428Y-66520666D01*
X109080666Y-66496857D01*
X109223523Y-66496857D01*
X109318761Y-66520666D01*
X109366380Y-66544476D01*
X109414000Y-66592095D01*
X109414000Y-66734952D01*
X109366380Y-66782571D01*
X109318761Y-66806380D01*
X109223523Y-66830190D01*
X109080666Y-66830190D01*
X109842571Y-66830190D02*
X109842571Y-66330190D01*
X110414000Y-66830190D01*
X110414000Y-66330190D01*
X110890190Y-66830190D02*
X110890190Y-66496857D01*
X110890190Y-66330190D02*
X110842571Y-66354000D01*
X110890190Y-66377809D01*
X110937809Y-66354000D01*
X110890190Y-66330190D01*
X110890190Y-66377809D01*
X111794952Y-66496857D02*
X111794952Y-66830190D01*
X111366380Y-66496857D02*
X111366380Y-66758761D01*
X111414000Y-66806380D01*
X111509238Y-66830190D01*
X111652095Y-66830190D01*
X111747333Y-66806380D01*
X111794952Y-66782571D01*
X112271142Y-66830190D02*
X112271142Y-66330190D01*
X112842571Y-66830190D01*
X112842571Y-66330190D01*
X113318761Y-66830190D02*
X113318761Y-66496857D01*
X113318761Y-66330190D02*
X113271142Y-66354000D01*
X113318761Y-66377809D01*
X113366380Y-66354000D01*
X113318761Y-66330190D01*
X113318761Y-66377809D01*
X114223523Y-66496857D02*
X114223523Y-66830190D01*
X113794952Y-66496857D02*
X113794952Y-66758761D01*
X113842571Y-66806380D01*
X113937809Y-66830190D01*
X114080666Y-66830190D01*
X114175904Y-66806380D01*
X114223523Y-66782571D01*
D11*
%TO.C,SW1*%
X116419375Y-68432000D02*
X116419375Y-68332000D01*
X120819375Y-66832000D02*
X116419375Y-66832000D01*
X116419375Y-69932000D02*
X120819375Y-69932000D01*
X120819375Y-68432000D02*
X120819375Y-68332000D01*
%TO.C,Y1*%
X100563990Y-73266500D02*
X100563990Y-79016500D01*
X104163990Y-73266500D02*
X100563990Y-73266500D01*
X104163990Y-79016500D02*
X104163990Y-73266500D01*
%TO.C,G\u002A\u002A\u002A*%
G36*
X107649919Y-68615855D02*
G01*
X107702875Y-68650339D01*
X107738735Y-68702000D01*
X107752502Y-68763955D01*
X107739176Y-68829321D01*
X107700631Y-68884638D01*
X107634215Y-68929517D01*
X107563831Y-68938209D01*
X107494457Y-68910111D01*
X107493841Y-68909681D01*
X107445210Y-68855328D01*
X107425457Y-68788142D01*
X107433863Y-68718901D01*
X107469713Y-68658383D01*
X107512723Y-68625945D01*
X107584869Y-68605429D01*
X107649919Y-68615855D01*
G37*
G36*
X106705124Y-68616670D02*
G01*
X106759958Y-68647811D01*
X106800311Y-68695784D01*
X106819052Y-68756077D01*
X106809051Y-68824176D01*
X106800362Y-68843577D01*
X106750344Y-68907412D01*
X106687757Y-68937763D01*
X106619355Y-68933557D01*
X106551896Y-68893719D01*
X106542311Y-68884638D01*
X106497342Y-68818195D01*
X106489173Y-68748153D01*
X106518136Y-68678667D01*
X106525057Y-68669367D01*
X106580543Y-68622935D01*
X106642942Y-68606874D01*
X106705124Y-68616670D01*
G37*
G36*
X107428670Y-69967925D02*
G01*
X107463091Y-69992140D01*
X107471881Y-70000705D01*
X107503101Y-70056288D01*
X107507317Y-70124636D01*
X107487269Y-70195055D01*
X107445697Y-70256852D01*
X107396737Y-70293971D01*
X107337828Y-70318220D01*
X107295498Y-70316768D01*
X107257743Y-70288778D01*
X107253265Y-70283945D01*
X107223789Y-70225663D01*
X107222669Y-70156243D01*
X107246888Y-70085773D01*
X107293425Y-70024343D01*
X107341165Y-69990267D01*
X107393008Y-69967699D01*
X107428670Y-69967925D01*
G37*
G36*
X106869624Y-69979630D02*
G01*
X106934702Y-70019702D01*
X106982602Y-70078498D01*
X107009945Y-70146628D01*
X107013354Y-70214704D01*
X106989451Y-70273336D01*
X106979413Y-70284821D01*
X106929451Y-70317338D01*
X106876148Y-70314918D01*
X106814709Y-70277271D01*
X106811660Y-70274731D01*
X106762879Y-70218106D01*
X106730280Y-70150030D01*
X106719459Y-70084346D01*
X106723774Y-70057321D01*
X106756264Y-70006877D01*
X106807431Y-69977929D01*
X106863806Y-69977649D01*
X106869624Y-69979630D01*
G37*
G36*
X104638165Y-69988021D02*
G01*
X104660802Y-69695913D01*
X104717087Y-69408113D01*
X104806682Y-69128211D01*
X104929250Y-68859798D01*
X105084451Y-68606467D01*
X105134630Y-68537506D01*
X105202580Y-68447536D01*
X105101324Y-68447256D01*
X105011219Y-68441623D01*
X104915565Y-68426712D01*
X104821736Y-68404797D01*
X104737107Y-68378154D01*
X104669050Y-68349058D01*
X104624938Y-68319785D01*
X104611777Y-68296190D01*
X104624435Y-68271957D01*
X104744364Y-68271957D01*
X104761651Y-68287063D01*
X104807356Y-68304244D01*
X104872242Y-68321414D01*
X104947075Y-68336485D01*
X105022619Y-68347369D01*
X105089638Y-68351979D01*
X105098513Y-68351999D01*
X105173102Y-68345301D01*
X105247284Y-68329628D01*
X105265244Y-68323873D01*
X105330929Y-68302001D01*
X105374158Y-68295335D01*
X105397611Y-68308211D01*
X105403965Y-68344962D01*
X105395899Y-68409924D01*
X105376750Y-68504359D01*
X105360907Y-68603495D01*
X105350128Y-68723171D01*
X105344560Y-68852694D01*
X105344350Y-68981371D01*
X105349642Y-69098508D01*
X105360584Y-69193411D01*
X105366912Y-69224121D01*
X105399966Y-69328010D01*
X105449933Y-69449357D01*
X105510843Y-69575433D01*
X105576725Y-69693506D01*
X105615601Y-69754392D01*
X105701993Y-69868613D01*
X105810944Y-69992761D01*
X105932849Y-70116748D01*
X106058105Y-70230485D01*
X106108123Y-70271751D01*
X106250181Y-70385145D01*
X106258987Y-70315467D01*
X106373226Y-70315467D01*
X106375318Y-70389695D01*
X106384085Y-70442211D01*
X106385179Y-70445272D01*
X106410322Y-70472030D01*
X106464502Y-70507090D01*
X106540651Y-70547281D01*
X106631701Y-70589432D01*
X106730586Y-70630374D01*
X106830238Y-70666936D01*
X106923589Y-70695947D01*
X106969942Y-70707594D01*
X107065281Y-70717719D01*
X107181146Y-70712644D01*
X107303754Y-70693228D01*
X107340999Y-70684427D01*
X107425089Y-70659022D01*
X107520981Y-70624135D01*
X107618133Y-70584233D01*
X107706006Y-70543780D01*
X107774060Y-70507243D01*
X107799656Y-70490101D01*
X107834563Y-70441348D01*
X107853038Y-70368004D01*
X107855470Y-70279421D01*
X107842245Y-70184952D01*
X107813751Y-70093949D01*
X107780618Y-70030532D01*
X107682414Y-69912928D01*
X107561305Y-69820650D01*
X107422906Y-69754090D01*
X107272831Y-69713641D01*
X107116693Y-69699694D01*
X106960107Y-69712643D01*
X106808688Y-69752878D01*
X106668050Y-69820792D01*
X106543806Y-69916777D01*
X106518582Y-69942392D01*
X106467555Y-70002215D01*
X106424382Y-70062117D01*
X106400575Y-70104674D01*
X106386498Y-70158741D01*
X106377167Y-70233744D01*
X106373226Y-70315467D01*
X106258987Y-70315467D01*
X106263971Y-70276035D01*
X106281025Y-70192207D01*
X106308614Y-70103571D01*
X106323832Y-70066292D01*
X106407128Y-69927830D01*
X106520307Y-69811638D01*
X106664035Y-69717147D01*
X106800986Y-69656966D01*
X106912259Y-69629012D01*
X107044546Y-69615142D01*
X107183692Y-69615359D01*
X107315543Y-69629661D01*
X107423015Y-69656966D01*
X107585300Y-69731964D01*
X107721967Y-69828015D01*
X107830404Y-69942157D01*
X107907998Y-70071425D01*
X107952135Y-70212853D01*
X107959266Y-70265443D01*
X107966697Y-70325470D01*
X107975614Y-70366796D01*
X107982808Y-70379527D01*
X108001617Y-70368056D01*
X108043253Y-70336780D01*
X108101659Y-70290407D01*
X108170778Y-70233645D01*
X108174417Y-70230610D01*
X108373970Y-70045146D01*
X108543929Y-69847498D01*
X108682228Y-69640756D01*
X108786805Y-69428014D01*
X108855593Y-69212363D01*
X108856284Y-69209373D01*
X108867560Y-69131766D01*
X108873634Y-69027079D01*
X108874670Y-68905733D01*
X108870833Y-68778149D01*
X108862288Y-68654746D01*
X108849200Y-68545945D01*
X108845426Y-68523300D01*
X108828121Y-68421718D01*
X108820444Y-68352890D01*
X108824929Y-68312360D01*
X108844107Y-68295670D01*
X108880512Y-68298363D01*
X108936677Y-68315983D01*
X108958756Y-68323873D01*
X109027182Y-68341300D01*
X109104672Y-68351214D01*
X109125487Y-68351999D01*
X109190398Y-68348527D01*
X109265240Y-68338464D01*
X109340778Y-68323896D01*
X109407774Y-68306911D01*
X109456995Y-68289597D01*
X109479205Y-68274040D01*
X109479636Y-68271957D01*
X109465336Y-68245508D01*
X109426758Y-68202754D01*
X109370384Y-68149498D01*
X109302697Y-68091545D01*
X109230179Y-68034698D01*
X109159313Y-67984762D01*
X109157638Y-67983665D01*
X108983334Y-67889284D01*
X108798502Y-67828752D01*
X108665169Y-67805677D01*
X108584072Y-67798002D01*
X108530168Y-67798720D01*
X108493597Y-67808333D01*
X108481160Y-67815065D01*
X108434807Y-67835618D01*
X108402920Y-67841421D01*
X108385677Y-67845004D01*
X108374279Y-67860427D01*
X108366974Y-67894700D01*
X108362011Y-67954836D01*
X108358932Y-68017444D01*
X108348960Y-68134737D01*
X108328642Y-68221941D01*
X108294699Y-68286183D01*
X108243850Y-68334591D01*
X108201113Y-68360454D01*
X108109885Y-68392080D01*
X107995709Y-68406869D01*
X107865898Y-68406317D01*
X107727766Y-68391920D01*
X107588627Y-68365173D01*
X107455792Y-68327573D01*
X107336576Y-68280614D01*
X107238292Y-68225793D01*
X107168253Y-68164606D01*
X107154618Y-68146413D01*
X107118355Y-68059142D01*
X107112724Y-67960253D01*
X107136204Y-67858161D01*
X107187275Y-67761285D01*
X107234254Y-67705392D01*
X107276673Y-67674410D01*
X107342056Y-67639206D01*
X107417187Y-67606791D01*
X107426820Y-67603206D01*
X107537298Y-67558414D01*
X107611824Y-67515837D01*
X107651911Y-67472079D01*
X107659072Y-67423740D01*
X107634819Y-67367423D01*
X107580664Y-67299728D01*
X107567931Y-67286149D01*
X107474569Y-67188279D01*
X107188972Y-67181313D01*
X106904971Y-67186797D01*
X106647167Y-67218014D01*
X106413626Y-67275328D01*
X106202413Y-67359101D01*
X106178559Y-67370907D01*
X106134602Y-67395022D01*
X106119371Y-67413238D01*
X106127286Y-67435724D01*
X106135942Y-67448560D01*
X106161238Y-67514962D01*
X106160838Y-67595375D01*
X106137100Y-67678357D01*
X106092387Y-67752466D01*
X106067946Y-67778169D01*
X105993924Y-67823100D01*
X105902407Y-67846458D01*
X105809347Y-67844464D01*
X105798014Y-67842156D01*
X105746746Y-67827363D01*
X105711867Y-67811731D01*
X105707718Y-67808474D01*
X105678378Y-67800523D01*
X105621661Y-67800972D01*
X105546824Y-67808576D01*
X105463124Y-67822089D01*
X105379817Y-67840264D01*
X105306161Y-67861857D01*
X105303126Y-67862923D01*
X105227298Y-67895045D01*
X105140466Y-67939532D01*
X105066363Y-67983665D01*
X104995620Y-68033357D01*
X104923064Y-68090103D01*
X104855180Y-68148099D01*
X104798448Y-68201541D01*
X104759352Y-68244624D01*
X104744373Y-68271546D01*
X104744364Y-68271957D01*
X104624435Y-68271957D01*
X104624884Y-68271098D01*
X104660728Y-68226408D01*
X104714087Y-68168086D01*
X104779741Y-68102100D01*
X104791414Y-68090869D01*
X104881924Y-68007332D01*
X104958960Y-67944378D01*
X105033746Y-67893864D01*
X105117501Y-67847648D01*
X105146560Y-67833156D01*
X105251885Y-67787083D01*
X105356989Y-67750853D01*
X105453689Y-67726512D01*
X105533798Y-67716104D01*
X105589132Y-67721673D01*
X105590668Y-67722239D01*
X105612104Y-67724171D01*
X105612653Y-67716587D01*
X105600899Y-67692273D01*
X105577213Y-67643575D01*
X105546293Y-67580148D01*
X105539930Y-67567109D01*
X105485993Y-67428745D01*
X105467608Y-67327451D01*
X105464667Y-67265118D01*
X105469832Y-67228114D01*
X105486915Y-67204132D01*
X105511337Y-67186304D01*
X105545905Y-67167660D01*
X105581618Y-67161718D01*
X105632499Y-67167455D01*
X105669744Y-67174743D01*
X105741827Y-67194930D01*
X105828429Y-67226622D01*
X105910917Y-67262992D01*
X105911631Y-67263343D01*
X106046609Y-67329763D01*
X106168704Y-67274402D01*
X106418636Y-67180851D01*
X106684180Y-67117894D01*
X106959114Y-67085539D01*
X107237217Y-67083795D01*
X107512266Y-67112672D01*
X107778039Y-67172179D01*
X108028313Y-67262323D01*
X108049297Y-67271682D01*
X108165393Y-67324322D01*
X108287429Y-67261458D01*
X108407845Y-67207798D01*
X108515391Y-67176328D01*
X108606067Y-67167338D01*
X108675874Y-67181117D01*
X108720812Y-67217956D01*
X108727144Y-67229576D01*
X108737249Y-67288510D01*
X108728165Y-67370603D01*
X108701710Y-67467491D01*
X108659700Y-67570810D01*
X108647728Y-67595194D01*
X108618551Y-67661831D01*
X108608338Y-67707204D01*
X108617221Y-67727481D01*
X108643443Y-67720026D01*
X108681785Y-67713718D01*
X108746357Y-67721208D01*
X108829011Y-67740370D01*
X108921603Y-67769084D01*
X109015987Y-67805224D01*
X109077441Y-67833156D01*
X109166168Y-67879682D01*
X109242500Y-67928021D01*
X109317660Y-67986316D01*
X109402869Y-68062710D01*
X109432586Y-68090869D01*
X109499770Y-68157548D01*
X109555521Y-68217548D01*
X109594620Y-68264903D01*
X109611846Y-68293646D01*
X109612224Y-68296190D01*
X109594630Y-68323698D01*
X109546787Y-68353050D01*
X109476097Y-68381952D01*
X109389968Y-68408111D01*
X109295802Y-68429230D01*
X109201007Y-68443015D01*
X109124711Y-68447256D01*
X109025491Y-68447536D01*
X109127811Y-68590141D01*
X109288590Y-68846586D01*
X109416786Y-69122292D01*
X109512295Y-69417018D01*
X109539625Y-69532223D01*
X109565620Y-69694914D01*
X109580235Y-69879570D01*
X109583497Y-70073687D01*
X109575433Y-70264765D01*
X109556070Y-70440298D01*
X109537441Y-70540127D01*
X109450809Y-70843299D01*
X109332771Y-71125464D01*
X109182777Y-71387588D01*
X109000277Y-71630640D01*
X108796247Y-71844798D01*
X108623777Y-72007153D01*
X108663155Y-72062454D01*
X108730906Y-72185118D01*
X108775881Y-72325334D01*
X108790741Y-72425165D01*
X108792102Y-72518976D01*
X108776745Y-72586310D01*
X108739837Y-72636660D01*
X108676544Y-72679517D01*
X108655699Y-72690340D01*
X108624056Y-72705460D01*
X108593682Y-72717059D01*
X108559023Y-72725695D01*
X108514522Y-72731922D01*
X108454623Y-72736296D01*
X108373771Y-72739374D01*
X108266411Y-72741710D01*
X108126986Y-72743860D01*
X108119582Y-72743965D01*
X107918880Y-72745114D01*
X107752410Y-72741848D01*
X107616698Y-72733433D01*
X107508272Y-72719137D01*
X107423660Y-72698226D01*
X107359390Y-72669967D01*
X107311989Y-72633626D01*
X107277985Y-72588470D01*
X107265456Y-72563569D01*
X107248558Y-72530193D01*
X107228340Y-72512780D01*
X107193548Y-72506773D01*
X107132928Y-72507618D01*
X107127713Y-72507805D01*
X107064522Y-72511509D01*
X107027324Y-72520635D01*
X107004234Y-72540932D01*
X106983727Y-72577414D01*
X106934610Y-72639957D01*
X106855713Y-72687653D01*
X106744153Y-72722120D01*
X106715365Y-72728008D01*
X106653938Y-72735402D01*
X106563350Y-72740792D01*
X106450991Y-72744243D01*
X106324252Y-72745819D01*
X106190521Y-72745585D01*
X106057191Y-72743606D01*
X105931651Y-72739946D01*
X105821291Y-72734669D01*
X105733502Y-72727841D01*
X105675674Y-72719525D01*
X105673005Y-72718905D01*
X105576102Y-72684288D01*
X105511359Y-72632676D01*
X105475220Y-72559702D01*
X105464125Y-72462275D01*
X105475775Y-72346472D01*
X105507407Y-72227460D01*
X105554047Y-72121821D01*
X105577345Y-72084825D01*
X105617947Y-72027805D01*
X105392695Y-71805045D01*
X105230132Y-71633570D01*
X105095357Y-71466388D01*
X104981036Y-71293600D01*
X104890858Y-71127700D01*
X104775523Y-70854275D01*
X104695188Y-70570793D01*
X104673793Y-70434967D01*
X104751329Y-70434967D01*
X104755702Y-70466881D01*
X104767726Y-70523076D01*
X104785181Y-70597349D01*
X104864428Y-70855249D01*
X104976263Y-71108461D01*
X105116488Y-71350176D01*
X105280903Y-71573583D01*
X105465308Y-71771873D01*
X105563244Y-71859096D01*
X105673492Y-71950845D01*
X105767817Y-71883079D01*
X105917798Y-71797108D01*
X106076006Y-71746271D01*
X106237715Y-71730191D01*
X106398202Y-71748491D01*
X106552740Y-71800792D01*
X106696606Y-71886719D01*
X106786156Y-71964392D01*
X106871995Y-72067457D01*
X106939924Y-72183544D01*
X106983418Y-72300487D01*
X106993351Y-72350679D01*
X107003342Y-72425165D01*
X107123604Y-72425165D01*
X107189139Y-72424204D01*
X107226340Y-72418807D01*
X107244750Y-72405203D01*
X107253912Y-72379619D01*
X107255399Y-72373077D01*
X107296469Y-72228921D01*
X107352695Y-72110237D01*
X107430316Y-72005678D01*
X107492048Y-71942852D01*
X107623142Y-71844174D01*
X107770807Y-71774811D01*
X107927722Y-71737004D01*
X108086567Y-71732992D01*
X108150076Y-71741548D01*
X108233528Y-71762672D01*
X108322524Y-71794428D01*
X108406220Y-71831991D01*
X108473773Y-71870538D01*
X108512358Y-71902739D01*
X108542948Y-71927746D01*
X108576862Y-71925104D01*
X108622921Y-71893511D01*
X108632812Y-71884975D01*
X108666451Y-71851291D01*
X108674036Y-71825495D01*
X108661524Y-71795603D01*
X108650706Y-71756847D01*
X108641087Y-71682134D01*
X108632849Y-71573375D01*
X108626169Y-71432479D01*
X108625422Y-71411816D01*
X108620882Y-71289270D01*
X108616212Y-71196277D01*
X108610117Y-71124526D01*
X108601301Y-71065708D01*
X108588472Y-71011511D01*
X108570333Y-70953625D01*
X108545591Y-70883738D01*
X108541335Y-70871995D01*
X108499769Y-70746363D01*
X108475846Y-70645484D01*
X108467737Y-70562689D01*
X108468888Y-70497702D01*
X108477904Y-70456195D01*
X108499923Y-70423863D01*
X108526837Y-70398123D01*
X108583993Y-70356636D01*
X108651508Y-70328509D01*
X108737229Y-70311796D01*
X108849002Y-70304555D01*
X108907277Y-70303868D01*
X109009973Y-70300458D01*
X109092596Y-70291030D01*
X109144040Y-70277510D01*
X109183779Y-70252379D01*
X109239604Y-70206845D01*
X109302308Y-70148706D01*
X109334164Y-70116510D01*
X109391130Y-70059127D01*
X109439747Y-70013905D01*
X109473377Y-69986822D01*
X109483761Y-69981764D01*
X109493784Y-69964307D01*
X109497440Y-69916587D01*
X109495312Y-69845580D01*
X109487982Y-69758262D01*
X109476034Y-69661608D01*
X109460051Y-69562595D01*
X109440933Y-69469553D01*
X109422550Y-69392359D01*
X109406991Y-69330391D01*
X109396394Y-69291992D01*
X109393297Y-69283724D01*
X109373132Y-69277544D01*
X109325090Y-69267209D01*
X109258669Y-69254724D01*
X109242829Y-69251940D01*
X109165924Y-69235585D01*
X109098020Y-69215889D01*
X109052700Y-69196852D01*
X109049896Y-69195115D01*
X109025492Y-69176847D01*
X109011758Y-69155496D01*
X109006506Y-69121346D01*
X109007548Y-69064680D01*
X109010121Y-69018547D01*
X109025112Y-68897447D01*
X109054764Y-68804418D01*
X109061116Y-68791374D01*
X109083776Y-68736922D01*
X109093197Y-68692242D01*
X109091643Y-68678250D01*
X109074097Y-68646097D01*
X109043566Y-68600671D01*
X109007801Y-68552301D01*
X108974555Y-68511317D01*
X108951581Y-68488051D01*
X108947379Y-68486004D01*
X108943807Y-68502476D01*
X108946714Y-68545480D01*
X108952197Y-68584859D01*
X108964604Y-68691143D01*
X108971311Y-68814842D01*
X108972479Y-68945289D01*
X108968269Y-69071820D01*
X108958842Y-69183766D01*
X108944359Y-69270463D01*
X108941675Y-69280944D01*
X108860264Y-69509021D01*
X108743216Y-69731198D01*
X108592628Y-69944955D01*
X108410593Y-70147777D01*
X108199206Y-70337145D01*
X107960563Y-70510544D01*
X107871901Y-70566439D01*
X107797832Y-70608336D01*
X107711597Y-70652345D01*
X107621529Y-70694765D01*
X107535956Y-70731894D01*
X107463212Y-70760029D01*
X107411625Y-70775469D01*
X107397394Y-70777290D01*
X107373793Y-70793096D01*
X107351395Y-70829760D01*
X107339576Y-70871146D01*
X107339293Y-70877285D01*
X107351273Y-70902106D01*
X107383510Y-70947244D01*
X107430455Y-71005283D01*
X107464307Y-71044265D01*
X107544567Y-71139611D01*
X107598602Y-71217657D01*
X107629898Y-71284604D01*
X107641938Y-71346654D01*
X107642351Y-71361054D01*
X107624690Y-71436493D01*
X107576663Y-71505776D01*
X107505698Y-71565270D01*
X107419228Y-71611346D01*
X107324683Y-71640372D01*
X107229493Y-71648717D01*
X107141089Y-71632751D01*
X107112039Y-71620188D01*
X107046153Y-71569318D01*
X106987232Y-71493669D01*
X106945247Y-71406227D01*
X106943364Y-71400513D01*
X106903768Y-71305278D01*
X106846628Y-71217969D01*
X106768069Y-71135049D01*
X106664213Y-71052976D01*
X106531186Y-70968212D01*
X106377352Y-70883581D01*
X106250430Y-70813765D01*
X106158191Y-70754623D01*
X106099285Y-70705132D01*
X106072365Y-70664270D01*
X106070240Y-70650981D01*
X106080529Y-70601633D01*
X106105745Y-70544271D01*
X106137415Y-70495689D01*
X106158436Y-70476167D01*
X106182658Y-70458359D01*
X106174028Y-70444118D01*
X106159826Y-70435194D01*
X106073007Y-70374334D01*
X105971625Y-70288970D01*
X105862403Y-70185934D01*
X105752063Y-70072058D01*
X105647326Y-69954176D01*
X105554915Y-69839121D01*
X105504862Y-69769413D01*
X105451766Y-69679208D01*
X105396588Y-69565573D01*
X105345126Y-69442136D01*
X105303174Y-69322521D01*
X105281757Y-69244895D01*
X105268385Y-69161147D01*
X105259452Y-69051757D01*
X105255123Y-68928724D01*
X105255560Y-68804047D01*
X105260927Y-68689724D01*
X105271387Y-68597755D01*
X105272841Y-68589598D01*
X105282507Y-68532814D01*
X105284845Y-68498208D01*
X105277604Y-68487407D01*
X105258530Y-68502041D01*
X105225370Y-68543736D01*
X105175872Y-68614119D01*
X105115558Y-68703241D01*
X105016147Y-68861038D01*
X104937255Y-69010304D01*
X104870513Y-69167012D01*
X104865103Y-69181265D01*
X104836427Y-69262556D01*
X104824138Y-69317528D01*
X104829091Y-69354415D01*
X104852142Y-69381449D01*
X104888218Y-69403703D01*
X104962549Y-69456187D01*
X105034442Y-69528086D01*
X105094325Y-69607974D01*
X105132625Y-69684427D01*
X105137637Y-69701382D01*
X105149388Y-69758654D01*
X105162986Y-69838761D01*
X105175967Y-69926901D01*
X105179225Y-69951533D01*
X105192421Y-70036939D01*
X105208536Y-70116232D01*
X105224684Y-70175776D01*
X105229331Y-70188297D01*
X105272325Y-70264444D01*
X105328249Y-70326667D01*
X105387400Y-70364747D01*
X105401133Y-70369192D01*
X105447332Y-70398716D01*
X105482539Y-70455435D01*
X105506134Y-70530342D01*
X105517498Y-70614429D01*
X105516012Y-70698687D01*
X105501058Y-70774108D01*
X105472017Y-70831685D01*
X105434865Y-70860229D01*
X105384429Y-70871374D01*
X105330246Y-70865001D01*
X105268276Y-70838853D01*
X105194479Y-70790673D01*
X105104816Y-70718204D01*
X104995245Y-70619189D01*
X104983234Y-70607926D01*
X104910457Y-70540622D01*
X104846680Y-70483754D01*
X104797252Y-70441930D01*
X104767517Y-70419755D01*
X104762129Y-70417409D01*
X104753755Y-70420691D01*
X104751329Y-70434967D01*
X104673793Y-70434967D01*
X104649515Y-70280845D01*
X104638165Y-69988021D01*
G37*
%TO.C,J13*%
X115704000Y-85721000D02*
X114824000Y-85721000D01*
X117704000Y-85721000D02*
X116824000Y-85721000D01*
X119704000Y-85721000D02*
X118824000Y-85721000D01*
X119824000Y-85721000D02*
X118824000Y-85721000D01*
X113704000Y-85721000D02*
X113704000Y-85721000D01*
X119824000Y-87111000D02*
X119824000Y-87111000D01*
X119824000Y-87111000D02*
X119824000Y-88106000D01*
X114704000Y-87111000D02*
X113704000Y-87111000D01*
X116704000Y-87111000D02*
X115824000Y-87111000D01*
X118704000Y-87111000D02*
X117824000Y-87111000D01*
X113704000Y-85721000D02*
X113704000Y-87111000D01*
X119824000Y-85721000D02*
X119824000Y-87111000D01*
%TO.C,J3*%
X110666400Y-87111000D02*
X111546400Y-87111000D01*
X110546400Y-87111000D02*
X111546400Y-87111000D01*
X112666400Y-87111000D02*
X112666400Y-87111000D01*
X110546400Y-85721000D02*
X110546400Y-85721000D01*
X110546400Y-85721000D02*
X110546400Y-84726000D01*
X111666400Y-85721000D02*
X112666400Y-85721000D01*
X112666400Y-87111000D02*
X112666400Y-85721000D01*
X110546400Y-87111000D02*
X110546400Y-85721000D01*
%TO.C,J12*%
X111755000Y-60084000D02*
X111755000Y-60534000D01*
X118725000Y-60084000D02*
X111755000Y-60084000D01*
X118725000Y-60534000D02*
X118725000Y-60084000D01*
X111755000Y-64504000D02*
X112705000Y-64504000D01*
X111755000Y-64054000D02*
X111755000Y-64504000D01*
X117775000Y-64504000D02*
X117775000Y-65994000D01*
X118725000Y-64504000D02*
X117775000Y-64504000D01*
X118725000Y-64054000D02*
X118725000Y-64504000D01*
D12*
%TO.C,U4*%
X123616290Y-76944500D02*
X123616290Y-76419500D01*
X127916290Y-72644500D02*
X127916290Y-73169500D01*
X123616290Y-72644500D02*
X123616290Y-73169500D01*
X127916290Y-76944500D02*
X127391290Y-76944500D01*
X127916290Y-72644500D02*
X127391290Y-72644500D01*
X123616290Y-72644500D02*
X124141290Y-72644500D01*
X123616290Y-76944500D02*
X124141290Y-76944500D01*
%TO.C,U3*%
X111593375Y-73072500D02*
X111593375Y-73297500D01*
X118843375Y-73072500D02*
X118843375Y-73397500D01*
X118843375Y-80322500D02*
X118843375Y-79997500D01*
X111593375Y-80322500D02*
X111593375Y-79997500D01*
X111593375Y-73072500D02*
X111918375Y-73072500D01*
X111593375Y-80322500D02*
X111918375Y-80322500D01*
X118843375Y-80322500D02*
X118518375Y-80322500D01*
X118843375Y-73072500D02*
X118518375Y-73072500D01*
X111593375Y-73297500D02*
X110168375Y-73297500D01*
D11*
%TO.C,R5*%
X113718000Y-68473221D02*
X113718000Y-68798779D01*
X112698000Y-68473221D02*
X112698000Y-68798779D01*
%TO.C,R4*%
X125524290Y-79289279D02*
X125524290Y-78963721D01*
X126544290Y-79289279D02*
X126544290Y-78963721D01*
%TO.C,R3*%
X106352000Y-79903221D02*
X106352000Y-80228779D01*
X105332000Y-79903221D02*
X105332000Y-80228779D01*
%TO.C,R2*%
X126428000Y-70576779D02*
X126428000Y-70251221D01*
X127448000Y-70576779D02*
X127448000Y-70251221D01*
%TO.C,R1*%
X127048290Y-79289279D02*
X127048290Y-78963721D01*
X128068290Y-79289279D02*
X128068290Y-78963721D01*
%TO.C,C15*%
X125020290Y-78963721D02*
X125020290Y-79289279D01*
X124000290Y-78963721D02*
X124000290Y-79289279D01*
%TO.C,C14*%
X124890000Y-70576779D02*
X124890000Y-70251221D01*
X125910000Y-70576779D02*
X125910000Y-70251221D01*
%TO.C,C13*%
X120998625Y-76406029D02*
X120998625Y-76080471D01*
X122018625Y-76406029D02*
X122018625Y-76080471D01*
%TO.C,C12*%
X115221375Y-69586971D02*
X115221375Y-69912529D01*
X114201375Y-69586971D02*
X114201375Y-69912529D01*
%TO.C,C11*%
X127952000Y-70576779D02*
X127952000Y-70251221D01*
X128972000Y-70576779D02*
X128972000Y-70251221D01*
%TO.C,C8*%
X122018625Y-79382471D02*
X122018625Y-79708029D01*
X120998625Y-79382471D02*
X120998625Y-79708029D01*
%TO.C,C5*%
X108290779Y-78376000D02*
X107965221Y-78376000D01*
X108290779Y-77356000D02*
X107965221Y-77356000D01*
%TO.C,C4*%
X123131711Y-70576779D02*
X123131711Y-70251221D01*
X124151711Y-70576779D02*
X124151711Y-70251221D01*
%TO.C,C3*%
X102401269Y-80971750D02*
X102075711Y-80971750D01*
X102401269Y-79951750D02*
X102075711Y-79951750D01*
%TO.C,C2*%
X108290779Y-76852000D02*
X107965221Y-76852000D01*
X108290779Y-75832000D02*
X107965221Y-75832000D01*
%TO.C,C1*%
X102401269Y-72589750D02*
X102075711Y-72589750D01*
X102401269Y-71569750D02*
X102075711Y-71569750D01*
%TD*%
M02*
