%TF.GenerationSoftware,KiCad,Pcbnew,(5.99.0-2358-g6d8fb94d8)*%
%TF.CreationDate,2020-07-21T23:14:41+08:00*%
%TF.ProjectId,TheFC,54686546-432e-46b6-9963-61645f706362,1.0*%
%TF.SameCoordinates,Original*%
%TF.FileFunction,Soldermask,Top*%
%TF.FilePolarity,Negative*%
%FSLAX46Y46*%
G04 Gerber Fmt 4.6, Leading zero omitted, Abs format (unit mm)*
G04 Created by KiCad (PCBNEW (5.99.0-2358-g6d8fb94d8)) date 2020-07-21 23:14:41*
%MOMM*%
%LPD*%
G01*
G04 APERTURE LIST*
%ADD10R,0.900000X1.000000*%
%ADD11R,2.400000X2.000000*%
%ADD12R,0.600000X1.750000*%
%ADD13R,1.600000X0.550000*%
%ADD14R,0.550000X1.600000*%
%ADD15C,3.200000*%
G04 APERTURE END LIST*
D10*
%TO.C,SW1*%
X120669375Y-69182000D03*
X120669375Y-67582000D03*
X116569375Y-69182000D03*
X116569375Y-67582000D03*
%TD*%
D11*
%TO.C,Y1*%
X102363990Y-78166500D03*
X102363990Y-74466500D03*
%TD*%
D12*
%TO.C,J13*%
X115264000Y-87291000D03*
X117264000Y-87291000D03*
X119264000Y-87291000D03*
X114264000Y-85541000D03*
X116264000Y-85541000D03*
X118264000Y-85541000D03*
%TD*%
%TO.C,J3*%
X111106400Y-85541000D03*
X112106400Y-87291000D03*
%TD*%
%TO.C,J12*%
G36*
G01*
X111865000Y-61044001D02*
X111865000Y-63543999D01*
G75*
G02*
X111614999Y-63794000I-250001J0D01*
G01*
X110015001Y-63794000D01*
G75*
G02*
X109765000Y-63543999I0J250001D01*
G01*
X109765000Y-61044001D01*
G75*
G02*
X110015001Y-60794000I250001J0D01*
G01*
X111614999Y-60794000D01*
G75*
G02*
X111865000Y-61044001I0J-250001D01*
G01*
G37*
G36*
G01*
X120715000Y-61044001D02*
X120715000Y-63543999D01*
G75*
G02*
X120464999Y-63794000I-250001J0D01*
G01*
X118865001Y-63794000D01*
G75*
G02*
X118615000Y-63543999I0J250001D01*
G01*
X118615000Y-61044001D01*
G75*
G02*
X118865001Y-60794000I250001J0D01*
G01*
X120464999Y-60794000D01*
G75*
G02*
X120715000Y-61044001I0J-250001D01*
G01*
G37*
G36*
G01*
X113765000Y-64594000D02*
X113765000Y-65794000D01*
G75*
G02*
X113565000Y-65994000I-200000J0D01*
G01*
X113165000Y-65994000D01*
G75*
G02*
X112965000Y-65794000I0J200000D01*
G01*
X112965000Y-64594000D01*
G75*
G02*
X113165000Y-64394000I200000J0D01*
G01*
X113565000Y-64394000D01*
G75*
G02*
X113765000Y-64594000I0J-200000D01*
G01*
G37*
G36*
G01*
X115015000Y-64594000D02*
X115015000Y-65794000D01*
G75*
G02*
X114815000Y-65994000I-200000J0D01*
G01*
X114415000Y-65994000D01*
G75*
G02*
X114215000Y-65794000I0J200000D01*
G01*
X114215000Y-64594000D01*
G75*
G02*
X114415000Y-64394000I200000J0D01*
G01*
X114815000Y-64394000D01*
G75*
G02*
X115015000Y-64594000I0J-200000D01*
G01*
G37*
G36*
G01*
X116265000Y-64594000D02*
X116265000Y-65794000D01*
G75*
G02*
X116065000Y-65994000I-200000J0D01*
G01*
X115665000Y-65994000D01*
G75*
G02*
X115465000Y-65794000I0J200000D01*
G01*
X115465000Y-64594000D01*
G75*
G02*
X115665000Y-64394000I200000J0D01*
G01*
X116065000Y-64394000D01*
G75*
G02*
X116265000Y-64594000I0J-200000D01*
G01*
G37*
G36*
G01*
X117515000Y-64594000D02*
X117515000Y-65794000D01*
G75*
G02*
X117315000Y-65994000I-200000J0D01*
G01*
X116915000Y-65994000D01*
G75*
G02*
X116715000Y-65794000I0J200000D01*
G01*
X116715000Y-64594000D01*
G75*
G02*
X116915000Y-64394000I200000J0D01*
G01*
X117315000Y-64394000D01*
G75*
G02*
X117515000Y-64594000I0J-200000D01*
G01*
G37*
%TD*%
%TO.C,U4*%
G36*
G01*
X128141290Y-75969500D02*
X128141290Y-76119500D01*
G75*
G02*
X128066290Y-76194500I-75000J0D01*
G01*
X127366290Y-76194500D01*
G75*
G02*
X127291290Y-76119500I0J75000D01*
G01*
X127291290Y-75969500D01*
G75*
G02*
X127366290Y-75894500I75000J0D01*
G01*
X128066290Y-75894500D01*
G75*
G02*
X128141290Y-75969500I0J-75000D01*
G01*
G37*
G36*
G01*
X128141290Y-75469500D02*
X128141290Y-75619500D01*
G75*
G02*
X128066290Y-75694500I-75000J0D01*
G01*
X127366290Y-75694500D01*
G75*
G02*
X127291290Y-75619500I0J75000D01*
G01*
X127291290Y-75469500D01*
G75*
G02*
X127366290Y-75394500I75000J0D01*
G01*
X128066290Y-75394500D01*
G75*
G02*
X128141290Y-75469500I0J-75000D01*
G01*
G37*
G36*
G01*
X128141290Y-74969500D02*
X128141290Y-75119500D01*
G75*
G02*
X128066290Y-75194500I-75000J0D01*
G01*
X127366290Y-75194500D01*
G75*
G02*
X127291290Y-75119500I0J75000D01*
G01*
X127291290Y-74969500D01*
G75*
G02*
X127366290Y-74894500I75000J0D01*
G01*
X128066290Y-74894500D01*
G75*
G02*
X128141290Y-74969500I0J-75000D01*
G01*
G37*
G36*
G01*
X128141290Y-74469500D02*
X128141290Y-74619500D01*
G75*
G02*
X128066290Y-74694500I-75000J0D01*
G01*
X127366290Y-74694500D01*
G75*
G02*
X127291290Y-74619500I0J75000D01*
G01*
X127291290Y-74469500D01*
G75*
G02*
X127366290Y-74394500I75000J0D01*
G01*
X128066290Y-74394500D01*
G75*
G02*
X128141290Y-74469500I0J-75000D01*
G01*
G37*
G36*
G01*
X128141290Y-73969500D02*
X128141290Y-74119500D01*
G75*
G02*
X128066290Y-74194500I-75000J0D01*
G01*
X127366290Y-74194500D01*
G75*
G02*
X127291290Y-74119500I0J75000D01*
G01*
X127291290Y-73969500D01*
G75*
G02*
X127366290Y-73894500I75000J0D01*
G01*
X128066290Y-73894500D01*
G75*
G02*
X128141290Y-73969500I0J-75000D01*
G01*
G37*
G36*
G01*
X128141290Y-73469500D02*
X128141290Y-73619500D01*
G75*
G02*
X128066290Y-73694500I-75000J0D01*
G01*
X127366290Y-73694500D01*
G75*
G02*
X127291290Y-73619500I0J75000D01*
G01*
X127291290Y-73469500D01*
G75*
G02*
X127366290Y-73394500I75000J0D01*
G01*
X128066290Y-73394500D01*
G75*
G02*
X128141290Y-73469500I0J-75000D01*
G01*
G37*
G36*
G01*
X126941290Y-72419500D02*
X127091290Y-72419500D01*
G75*
G02*
X127166290Y-72494500I0J-75000D01*
G01*
X127166290Y-73194500D01*
G75*
G02*
X127091290Y-73269500I-75000J0D01*
G01*
X126941290Y-73269500D01*
G75*
G02*
X126866290Y-73194500I0J75000D01*
G01*
X126866290Y-72494500D01*
G75*
G02*
X126941290Y-72419500I75000J0D01*
G01*
G37*
G36*
G01*
X126441290Y-72419500D02*
X126591290Y-72419500D01*
G75*
G02*
X126666290Y-72494500I0J-75000D01*
G01*
X126666290Y-73194500D01*
G75*
G02*
X126591290Y-73269500I-75000J0D01*
G01*
X126441290Y-73269500D01*
G75*
G02*
X126366290Y-73194500I0J75000D01*
G01*
X126366290Y-72494500D01*
G75*
G02*
X126441290Y-72419500I75000J0D01*
G01*
G37*
G36*
G01*
X125941290Y-72419500D02*
X126091290Y-72419500D01*
G75*
G02*
X126166290Y-72494500I0J-75000D01*
G01*
X126166290Y-73194500D01*
G75*
G02*
X126091290Y-73269500I-75000J0D01*
G01*
X125941290Y-73269500D01*
G75*
G02*
X125866290Y-73194500I0J75000D01*
G01*
X125866290Y-72494500D01*
G75*
G02*
X125941290Y-72419500I75000J0D01*
G01*
G37*
G36*
G01*
X125441290Y-72419500D02*
X125591290Y-72419500D01*
G75*
G02*
X125666290Y-72494500I0J-75000D01*
G01*
X125666290Y-73194500D01*
G75*
G02*
X125591290Y-73269500I-75000J0D01*
G01*
X125441290Y-73269500D01*
G75*
G02*
X125366290Y-73194500I0J75000D01*
G01*
X125366290Y-72494500D01*
G75*
G02*
X125441290Y-72419500I75000J0D01*
G01*
G37*
G36*
G01*
X124941290Y-72419500D02*
X125091290Y-72419500D01*
G75*
G02*
X125166290Y-72494500I0J-75000D01*
G01*
X125166290Y-73194500D01*
G75*
G02*
X125091290Y-73269500I-75000J0D01*
G01*
X124941290Y-73269500D01*
G75*
G02*
X124866290Y-73194500I0J75000D01*
G01*
X124866290Y-72494500D01*
G75*
G02*
X124941290Y-72419500I75000J0D01*
G01*
G37*
G36*
G01*
X124441290Y-72419500D02*
X124591290Y-72419500D01*
G75*
G02*
X124666290Y-72494500I0J-75000D01*
G01*
X124666290Y-73194500D01*
G75*
G02*
X124591290Y-73269500I-75000J0D01*
G01*
X124441290Y-73269500D01*
G75*
G02*
X124366290Y-73194500I0J75000D01*
G01*
X124366290Y-72494500D01*
G75*
G02*
X124441290Y-72419500I75000J0D01*
G01*
G37*
G36*
G01*
X124241290Y-73469500D02*
X124241290Y-73619500D01*
G75*
G02*
X124166290Y-73694500I-75000J0D01*
G01*
X123466290Y-73694500D01*
G75*
G02*
X123391290Y-73619500I0J75000D01*
G01*
X123391290Y-73469500D01*
G75*
G02*
X123466290Y-73394500I75000J0D01*
G01*
X124166290Y-73394500D01*
G75*
G02*
X124241290Y-73469500I0J-75000D01*
G01*
G37*
G36*
G01*
X124241290Y-73969500D02*
X124241290Y-74119500D01*
G75*
G02*
X124166290Y-74194500I-75000J0D01*
G01*
X123466290Y-74194500D01*
G75*
G02*
X123391290Y-74119500I0J75000D01*
G01*
X123391290Y-73969500D01*
G75*
G02*
X123466290Y-73894500I75000J0D01*
G01*
X124166290Y-73894500D01*
G75*
G02*
X124241290Y-73969500I0J-75000D01*
G01*
G37*
G36*
G01*
X124241290Y-74469500D02*
X124241290Y-74619500D01*
G75*
G02*
X124166290Y-74694500I-75000J0D01*
G01*
X123466290Y-74694500D01*
G75*
G02*
X123391290Y-74619500I0J75000D01*
G01*
X123391290Y-74469500D01*
G75*
G02*
X123466290Y-74394500I75000J0D01*
G01*
X124166290Y-74394500D01*
G75*
G02*
X124241290Y-74469500I0J-75000D01*
G01*
G37*
G36*
G01*
X124241290Y-74969500D02*
X124241290Y-75119500D01*
G75*
G02*
X124166290Y-75194500I-75000J0D01*
G01*
X123466290Y-75194500D01*
G75*
G02*
X123391290Y-75119500I0J75000D01*
G01*
X123391290Y-74969500D01*
G75*
G02*
X123466290Y-74894500I75000J0D01*
G01*
X124166290Y-74894500D01*
G75*
G02*
X124241290Y-74969500I0J-75000D01*
G01*
G37*
G36*
G01*
X124241290Y-75469500D02*
X124241290Y-75619500D01*
G75*
G02*
X124166290Y-75694500I-75000J0D01*
G01*
X123466290Y-75694500D01*
G75*
G02*
X123391290Y-75619500I0J75000D01*
G01*
X123391290Y-75469500D01*
G75*
G02*
X123466290Y-75394500I75000J0D01*
G01*
X124166290Y-75394500D01*
G75*
G02*
X124241290Y-75469500I0J-75000D01*
G01*
G37*
G36*
G01*
X124241290Y-75969500D02*
X124241290Y-76119500D01*
G75*
G02*
X124166290Y-76194500I-75000J0D01*
G01*
X123466290Y-76194500D01*
G75*
G02*
X123391290Y-76119500I0J75000D01*
G01*
X123391290Y-75969500D01*
G75*
G02*
X123466290Y-75894500I75000J0D01*
G01*
X124166290Y-75894500D01*
G75*
G02*
X124241290Y-75969500I0J-75000D01*
G01*
G37*
G36*
G01*
X124441290Y-76319500D02*
X124591290Y-76319500D01*
G75*
G02*
X124666290Y-76394500I0J-75000D01*
G01*
X124666290Y-77094500D01*
G75*
G02*
X124591290Y-77169500I-75000J0D01*
G01*
X124441290Y-77169500D01*
G75*
G02*
X124366290Y-77094500I0J75000D01*
G01*
X124366290Y-76394500D01*
G75*
G02*
X124441290Y-76319500I75000J0D01*
G01*
G37*
G36*
G01*
X124941290Y-76319500D02*
X125091290Y-76319500D01*
G75*
G02*
X125166290Y-76394500I0J-75000D01*
G01*
X125166290Y-77094500D01*
G75*
G02*
X125091290Y-77169500I-75000J0D01*
G01*
X124941290Y-77169500D01*
G75*
G02*
X124866290Y-77094500I0J75000D01*
G01*
X124866290Y-76394500D01*
G75*
G02*
X124941290Y-76319500I75000J0D01*
G01*
G37*
G36*
G01*
X125441290Y-76319500D02*
X125591290Y-76319500D01*
G75*
G02*
X125666290Y-76394500I0J-75000D01*
G01*
X125666290Y-77094500D01*
G75*
G02*
X125591290Y-77169500I-75000J0D01*
G01*
X125441290Y-77169500D01*
G75*
G02*
X125366290Y-77094500I0J75000D01*
G01*
X125366290Y-76394500D01*
G75*
G02*
X125441290Y-76319500I75000J0D01*
G01*
G37*
G36*
G01*
X125941290Y-76319500D02*
X126091290Y-76319500D01*
G75*
G02*
X126166290Y-76394500I0J-75000D01*
G01*
X126166290Y-77094500D01*
G75*
G02*
X126091290Y-77169500I-75000J0D01*
G01*
X125941290Y-77169500D01*
G75*
G02*
X125866290Y-77094500I0J75000D01*
G01*
X125866290Y-76394500D01*
G75*
G02*
X125941290Y-76319500I75000J0D01*
G01*
G37*
G36*
G01*
X126441290Y-76319500D02*
X126591290Y-76319500D01*
G75*
G02*
X126666290Y-76394500I0J-75000D01*
G01*
X126666290Y-77094500D01*
G75*
G02*
X126591290Y-77169500I-75000J0D01*
G01*
X126441290Y-77169500D01*
G75*
G02*
X126366290Y-77094500I0J75000D01*
G01*
X126366290Y-76394500D01*
G75*
G02*
X126441290Y-76319500I75000J0D01*
G01*
G37*
G36*
G01*
X126941290Y-76319500D02*
X127091290Y-76319500D01*
G75*
G02*
X127166290Y-76394500I0J-75000D01*
G01*
X127166290Y-77094500D01*
G75*
G02*
X127091290Y-77169500I-75000J0D01*
G01*
X126941290Y-77169500D01*
G75*
G02*
X126866290Y-77094500I0J75000D01*
G01*
X126866290Y-76394500D01*
G75*
G02*
X126941290Y-76319500I75000J0D01*
G01*
G37*
%TD*%
D13*
%TO.C,U3*%
X110968375Y-73897500D03*
X110968375Y-74697500D03*
X110968375Y-75497500D03*
X110968375Y-76297500D03*
X110968375Y-77097500D03*
X110968375Y-77897500D03*
X110968375Y-78697500D03*
X110968375Y-79497500D03*
D14*
X112418375Y-80947500D03*
X113218375Y-80947500D03*
X114018375Y-80947500D03*
X114818375Y-80947500D03*
X115618375Y-80947500D03*
X116418375Y-80947500D03*
X117218375Y-80947500D03*
X118018375Y-80947500D03*
D13*
X119468375Y-79497500D03*
X119468375Y-78697500D03*
X119468375Y-77897500D03*
X119468375Y-77097500D03*
X119468375Y-76297500D03*
X119468375Y-75497500D03*
X119468375Y-74697500D03*
X119468375Y-73897500D03*
D14*
X118018375Y-72447500D03*
X117218375Y-72447500D03*
X116418375Y-72447500D03*
X115618375Y-72447500D03*
X114818375Y-72447500D03*
X114018375Y-72447500D03*
X113218375Y-72447500D03*
X112418375Y-72447500D03*
%TD*%
%TO.C,R5*%
G36*
G01*
X112951750Y-67411000D02*
X113464250Y-67411000D01*
G75*
G02*
X113683000Y-67629750I0J-218750D01*
G01*
X113683000Y-68067250D01*
G75*
G02*
X113464250Y-68286000I-218750J0D01*
G01*
X112951750Y-68286000D01*
G75*
G02*
X112733000Y-68067250I0J218750D01*
G01*
X112733000Y-67629750D01*
G75*
G02*
X112951750Y-67411000I218750J0D01*
G01*
G37*
G36*
G01*
X112951750Y-68986000D02*
X113464250Y-68986000D01*
G75*
G02*
X113683000Y-69204750I0J-218750D01*
G01*
X113683000Y-69642250D01*
G75*
G02*
X113464250Y-69861000I-218750J0D01*
G01*
X112951750Y-69861000D01*
G75*
G02*
X112733000Y-69642250I0J218750D01*
G01*
X112733000Y-69204750D01*
G75*
G02*
X112951750Y-68986000I218750J0D01*
G01*
G37*
%TD*%
%TO.C,R4*%
G36*
G01*
X126290540Y-80351500D02*
X125778040Y-80351500D01*
G75*
G02*
X125559290Y-80132750I0J218750D01*
G01*
X125559290Y-79695250D01*
G75*
G02*
X125778040Y-79476500I218750J0D01*
G01*
X126290540Y-79476500D01*
G75*
G02*
X126509290Y-79695250I0J-218750D01*
G01*
X126509290Y-80132750D01*
G75*
G02*
X126290540Y-80351500I-218750J0D01*
G01*
G37*
G36*
G01*
X126290540Y-78776500D02*
X125778040Y-78776500D01*
G75*
G02*
X125559290Y-78557750I0J218750D01*
G01*
X125559290Y-78120250D01*
G75*
G02*
X125778040Y-77901500I218750J0D01*
G01*
X126290540Y-77901500D01*
G75*
G02*
X126509290Y-78120250I0J-218750D01*
G01*
X126509290Y-78557750D01*
G75*
G02*
X126290540Y-78776500I-218750J0D01*
G01*
G37*
%TD*%
%TO.C,R3*%
G36*
G01*
X105585750Y-78841000D02*
X106098250Y-78841000D01*
G75*
G02*
X106317000Y-79059750I0J-218750D01*
G01*
X106317000Y-79497250D01*
G75*
G02*
X106098250Y-79716000I-218750J0D01*
G01*
X105585750Y-79716000D01*
G75*
G02*
X105367000Y-79497250I0J218750D01*
G01*
X105367000Y-79059750D01*
G75*
G02*
X105585750Y-78841000I218750J0D01*
G01*
G37*
G36*
G01*
X105585750Y-80416000D02*
X106098250Y-80416000D01*
G75*
G02*
X106317000Y-80634750I0J-218750D01*
G01*
X106317000Y-81072250D01*
G75*
G02*
X106098250Y-81291000I-218750J0D01*
G01*
X105585750Y-81291000D01*
G75*
G02*
X105367000Y-81072250I0J218750D01*
G01*
X105367000Y-80634750D01*
G75*
G02*
X105585750Y-80416000I218750J0D01*
G01*
G37*
%TD*%
%TO.C,R2*%
G36*
G01*
X127194250Y-71639000D02*
X126681750Y-71639000D01*
G75*
G02*
X126463000Y-71420250I0J218750D01*
G01*
X126463000Y-70982750D01*
G75*
G02*
X126681750Y-70764000I218750J0D01*
G01*
X127194250Y-70764000D01*
G75*
G02*
X127413000Y-70982750I0J-218750D01*
G01*
X127413000Y-71420250D01*
G75*
G02*
X127194250Y-71639000I-218750J0D01*
G01*
G37*
G36*
G01*
X127194250Y-70064000D02*
X126681750Y-70064000D01*
G75*
G02*
X126463000Y-69845250I0J218750D01*
G01*
X126463000Y-69407750D01*
G75*
G02*
X126681750Y-69189000I218750J0D01*
G01*
X127194250Y-69189000D01*
G75*
G02*
X127413000Y-69407750I0J-218750D01*
G01*
X127413000Y-69845250D01*
G75*
G02*
X127194250Y-70064000I-218750J0D01*
G01*
G37*
%TD*%
%TO.C,R1*%
G36*
G01*
X127814540Y-80351500D02*
X127302040Y-80351500D01*
G75*
G02*
X127083290Y-80132750I0J218750D01*
G01*
X127083290Y-79695250D01*
G75*
G02*
X127302040Y-79476500I218750J0D01*
G01*
X127814540Y-79476500D01*
G75*
G02*
X128033290Y-79695250I0J-218750D01*
G01*
X128033290Y-80132750D01*
G75*
G02*
X127814540Y-80351500I-218750J0D01*
G01*
G37*
G36*
G01*
X127814540Y-78776500D02*
X127302040Y-78776500D01*
G75*
G02*
X127083290Y-78557750I0J218750D01*
G01*
X127083290Y-78120250D01*
G75*
G02*
X127302040Y-77901500I218750J0D01*
G01*
X127814540Y-77901500D01*
G75*
G02*
X128033290Y-78120250I0J-218750D01*
G01*
X128033290Y-78557750D01*
G75*
G02*
X127814540Y-78776500I-218750J0D01*
G01*
G37*
%TD*%
D15*
%TO.C,H4*%
X105000000Y-85000000D03*
%TD*%
%TO.C,H3*%
X125000000Y-85000000D03*
%TD*%
%TO.C,H2*%
X125000000Y-65000000D03*
%TD*%
%TO.C,H1*%
X105000000Y-65000000D03*
%TD*%
%TO.C,C15*%
G36*
G01*
X124254040Y-77901500D02*
X124766540Y-77901500D01*
G75*
G02*
X124985290Y-78120250I0J-218750D01*
G01*
X124985290Y-78557750D01*
G75*
G02*
X124766540Y-78776500I-218750J0D01*
G01*
X124254040Y-78776500D01*
G75*
G02*
X124035290Y-78557750I0J218750D01*
G01*
X124035290Y-78120250D01*
G75*
G02*
X124254040Y-77901500I218750J0D01*
G01*
G37*
G36*
G01*
X124254040Y-79476500D02*
X124766540Y-79476500D01*
G75*
G02*
X124985290Y-79695250I0J-218750D01*
G01*
X124985290Y-80132750D01*
G75*
G02*
X124766540Y-80351500I-218750J0D01*
G01*
X124254040Y-80351500D01*
G75*
G02*
X124035290Y-80132750I0J218750D01*
G01*
X124035290Y-79695250D01*
G75*
G02*
X124254040Y-79476500I218750J0D01*
G01*
G37*
%TD*%
%TO.C,C14*%
G36*
G01*
X125656250Y-71639000D02*
X125143750Y-71639000D01*
G75*
G02*
X124925000Y-71420250I0J218750D01*
G01*
X124925000Y-70982750D01*
G75*
G02*
X125143750Y-70764000I218750J0D01*
G01*
X125656250Y-70764000D01*
G75*
G02*
X125875000Y-70982750I0J-218750D01*
G01*
X125875000Y-71420250D01*
G75*
G02*
X125656250Y-71639000I-218750J0D01*
G01*
G37*
G36*
G01*
X125656250Y-70064000D02*
X125143750Y-70064000D01*
G75*
G02*
X124925000Y-69845250I0J218750D01*
G01*
X124925000Y-69407750D01*
G75*
G02*
X125143750Y-69189000I218750J0D01*
G01*
X125656250Y-69189000D01*
G75*
G02*
X125875000Y-69407750I0J-218750D01*
G01*
X125875000Y-69845250D01*
G75*
G02*
X125656250Y-70064000I-218750J0D01*
G01*
G37*
%TD*%
%TO.C,C13*%
G36*
G01*
X121764875Y-77468250D02*
X121252375Y-77468250D01*
G75*
G02*
X121033625Y-77249500I0J218750D01*
G01*
X121033625Y-76812000D01*
G75*
G02*
X121252375Y-76593250I218750J0D01*
G01*
X121764875Y-76593250D01*
G75*
G02*
X121983625Y-76812000I0J-218750D01*
G01*
X121983625Y-77249500D01*
G75*
G02*
X121764875Y-77468250I-218750J0D01*
G01*
G37*
G36*
G01*
X121764875Y-75893250D02*
X121252375Y-75893250D01*
G75*
G02*
X121033625Y-75674500I0J218750D01*
G01*
X121033625Y-75237000D01*
G75*
G02*
X121252375Y-75018250I218750J0D01*
G01*
X121764875Y-75018250D01*
G75*
G02*
X121983625Y-75237000I0J-218750D01*
G01*
X121983625Y-75674500D01*
G75*
G02*
X121764875Y-75893250I-218750J0D01*
G01*
G37*
%TD*%
%TO.C,C12*%
G36*
G01*
X114455125Y-68524750D02*
X114967625Y-68524750D01*
G75*
G02*
X115186375Y-68743500I0J-218750D01*
G01*
X115186375Y-69181000D01*
G75*
G02*
X114967625Y-69399750I-218750J0D01*
G01*
X114455125Y-69399750D01*
G75*
G02*
X114236375Y-69181000I0J218750D01*
G01*
X114236375Y-68743500D01*
G75*
G02*
X114455125Y-68524750I218750J0D01*
G01*
G37*
G36*
G01*
X114455125Y-70099750D02*
X114967625Y-70099750D01*
G75*
G02*
X115186375Y-70318500I0J-218750D01*
G01*
X115186375Y-70756000D01*
G75*
G02*
X114967625Y-70974750I-218750J0D01*
G01*
X114455125Y-70974750D01*
G75*
G02*
X114236375Y-70756000I0J218750D01*
G01*
X114236375Y-70318500D01*
G75*
G02*
X114455125Y-70099750I218750J0D01*
G01*
G37*
%TD*%
%TO.C,C11*%
G36*
G01*
X128718250Y-71639000D02*
X128205750Y-71639000D01*
G75*
G02*
X127987000Y-71420250I0J218750D01*
G01*
X127987000Y-70982750D01*
G75*
G02*
X128205750Y-70764000I218750J0D01*
G01*
X128718250Y-70764000D01*
G75*
G02*
X128937000Y-70982750I0J-218750D01*
G01*
X128937000Y-71420250D01*
G75*
G02*
X128718250Y-71639000I-218750J0D01*
G01*
G37*
G36*
G01*
X128718250Y-70064000D02*
X128205750Y-70064000D01*
G75*
G02*
X127987000Y-69845250I0J218750D01*
G01*
X127987000Y-69407750D01*
G75*
G02*
X128205750Y-69189000I218750J0D01*
G01*
X128718250Y-69189000D01*
G75*
G02*
X128937000Y-69407750I0J-218750D01*
G01*
X128937000Y-69845250D01*
G75*
G02*
X128718250Y-70064000I-218750J0D01*
G01*
G37*
%TD*%
%TO.C,C8*%
G36*
G01*
X121252375Y-78320250D02*
X121764875Y-78320250D01*
G75*
G02*
X121983625Y-78539000I0J-218750D01*
G01*
X121983625Y-78976500D01*
G75*
G02*
X121764875Y-79195250I-218750J0D01*
G01*
X121252375Y-79195250D01*
G75*
G02*
X121033625Y-78976500I0J218750D01*
G01*
X121033625Y-78539000D01*
G75*
G02*
X121252375Y-78320250I218750J0D01*
G01*
G37*
G36*
G01*
X121252375Y-79895250D02*
X121764875Y-79895250D01*
G75*
G02*
X121983625Y-80114000I0J-218750D01*
G01*
X121983625Y-80551500D01*
G75*
G02*
X121764875Y-80770250I-218750J0D01*
G01*
X121252375Y-80770250D01*
G75*
G02*
X121033625Y-80551500I0J218750D01*
G01*
X121033625Y-80114000D01*
G75*
G02*
X121252375Y-79895250I218750J0D01*
G01*
G37*
%TD*%
%TO.C,C5*%
G36*
G01*
X109353000Y-77609750D02*
X109353000Y-78122250D01*
G75*
G02*
X109134250Y-78341000I-218750J0D01*
G01*
X108696750Y-78341000D01*
G75*
G02*
X108478000Y-78122250I0J218750D01*
G01*
X108478000Y-77609750D01*
G75*
G02*
X108696750Y-77391000I218750J0D01*
G01*
X109134250Y-77391000D01*
G75*
G02*
X109353000Y-77609750I0J-218750D01*
G01*
G37*
G36*
G01*
X107778000Y-77609750D02*
X107778000Y-78122250D01*
G75*
G02*
X107559250Y-78341000I-218750J0D01*
G01*
X107121750Y-78341000D01*
G75*
G02*
X106903000Y-78122250I0J218750D01*
G01*
X106903000Y-77609750D01*
G75*
G02*
X107121750Y-77391000I218750J0D01*
G01*
X107559250Y-77391000D01*
G75*
G02*
X107778000Y-77609750I0J-218750D01*
G01*
G37*
%TD*%
%TO.C,C4*%
G36*
G01*
X123897961Y-71639000D02*
X123385461Y-71639000D01*
G75*
G02*
X123166711Y-71420250I0J218750D01*
G01*
X123166711Y-70982750D01*
G75*
G02*
X123385461Y-70764000I218750J0D01*
G01*
X123897961Y-70764000D01*
G75*
G02*
X124116711Y-70982750I0J-218750D01*
G01*
X124116711Y-71420250D01*
G75*
G02*
X123897961Y-71639000I-218750J0D01*
G01*
G37*
G36*
G01*
X123897961Y-70064000D02*
X123385461Y-70064000D01*
G75*
G02*
X123166711Y-69845250I0J218750D01*
G01*
X123166711Y-69407750D01*
G75*
G02*
X123385461Y-69189000I218750J0D01*
G01*
X123897961Y-69189000D01*
G75*
G02*
X124116711Y-69407750I0J-218750D01*
G01*
X124116711Y-69845250D01*
G75*
G02*
X123897961Y-70064000I-218750J0D01*
G01*
G37*
%TD*%
%TO.C,C3*%
G36*
G01*
X103463490Y-80205500D02*
X103463490Y-80718000D01*
G75*
G02*
X103244740Y-80936750I-218750J0D01*
G01*
X102807240Y-80936750D01*
G75*
G02*
X102588490Y-80718000I0J218750D01*
G01*
X102588490Y-80205500D01*
G75*
G02*
X102807240Y-79986750I218750J0D01*
G01*
X103244740Y-79986750D01*
G75*
G02*
X103463490Y-80205500I0J-218750D01*
G01*
G37*
G36*
G01*
X101888490Y-80205500D02*
X101888490Y-80718000D01*
G75*
G02*
X101669740Y-80936750I-218750J0D01*
G01*
X101232240Y-80936750D01*
G75*
G02*
X101013490Y-80718000I0J218750D01*
G01*
X101013490Y-80205500D01*
G75*
G02*
X101232240Y-79986750I218750J0D01*
G01*
X101669740Y-79986750D01*
G75*
G02*
X101888490Y-80205500I0J-218750D01*
G01*
G37*
%TD*%
%TO.C,C2*%
G36*
G01*
X109353000Y-76085750D02*
X109353000Y-76598250D01*
G75*
G02*
X109134250Y-76817000I-218750J0D01*
G01*
X108696750Y-76817000D01*
G75*
G02*
X108478000Y-76598250I0J218750D01*
G01*
X108478000Y-76085750D01*
G75*
G02*
X108696750Y-75867000I218750J0D01*
G01*
X109134250Y-75867000D01*
G75*
G02*
X109353000Y-76085750I0J-218750D01*
G01*
G37*
G36*
G01*
X107778000Y-76085750D02*
X107778000Y-76598250D01*
G75*
G02*
X107559250Y-76817000I-218750J0D01*
G01*
X107121750Y-76817000D01*
G75*
G02*
X106903000Y-76598250I0J218750D01*
G01*
X106903000Y-76085750D01*
G75*
G02*
X107121750Y-75867000I218750J0D01*
G01*
X107559250Y-75867000D01*
G75*
G02*
X107778000Y-76085750I0J-218750D01*
G01*
G37*
%TD*%
%TO.C,C1*%
G36*
G01*
X103463490Y-71823500D02*
X103463490Y-72336000D01*
G75*
G02*
X103244740Y-72554750I-218750J0D01*
G01*
X102807240Y-72554750D01*
G75*
G02*
X102588490Y-72336000I0J218750D01*
G01*
X102588490Y-71823500D01*
G75*
G02*
X102807240Y-71604750I218750J0D01*
G01*
X103244740Y-71604750D01*
G75*
G02*
X103463490Y-71823500I0J-218750D01*
G01*
G37*
G36*
G01*
X101888490Y-71823500D02*
X101888490Y-72336000D01*
G75*
G02*
X101669740Y-72554750I-218750J0D01*
G01*
X101232240Y-72554750D01*
G75*
G02*
X101013490Y-72336000I0J218750D01*
G01*
X101013490Y-71823500D01*
G75*
G02*
X101232240Y-71604750I218750J0D01*
G01*
X101669740Y-71604750D01*
G75*
G02*
X101888490Y-71823500I0J-218750D01*
G01*
G37*
%TD*%
M02*
