%TF.GenerationSoftware,KiCad,Pcbnew,(5.99.0-2358-g6d8fb94d8)*%
%TF.CreationDate,2020-07-21T23:14:40+08:00*%
%TF.ProjectId,TheFC,54686546-432e-46b6-9963-61645f706362,1.0*%
%TF.SameCoordinates,Original*%
%TF.FileFunction,Copper,L2,Inr*%
%TF.FilePolarity,Positive*%
%FSLAX46Y46*%
G04 Gerber Fmt 4.6, Leading zero omitted, Abs format (unit mm)*
G04 Created by KiCad (PCBNEW (5.99.0-2358-g6d8fb94d8)) date 2020-07-21 23:14:40*
%MOMM*%
%LPD*%
G01*
G04 APERTURE LIST*
%TA.AperFunction,ComponentPad*%
%ADD10C,3.200000*%
%TD*%
%TA.AperFunction,ViaPad*%
%ADD11C,0.800000*%
%TD*%
%TA.AperFunction,Conductor*%
%ADD12C,0.254000*%
%TD*%
G04 APERTURE END LIST*
D10*
%TO.N,GND*%
%TO.C,H4*%
X105000000Y-85000000D03*
%TD*%
%TO.N,GND*%
%TO.C,H3*%
X125000000Y-85000000D03*
%TD*%
%TO.N,GND*%
%TO.C,H2*%
X125000000Y-65000000D03*
%TD*%
%TO.N,GND*%
%TO.C,H1*%
X105000000Y-65000000D03*
%TD*%
D11*
%TO.N,GND*%
X117780000Y-76243250D03*
X117780000Y-75240000D03*
X120066000Y-83622000D03*
X120066000Y-82606000D03*
%TO.N,+3V3*%
X123698200Y-72496800D03*
%TO.N,GND*%
X123672800Y-77018000D03*
X121844000Y-69144000D03*
%TO.N,RESET*%
X121894800Y-67569200D03*
%TO.N,GND*%
X123693000Y-68433000D03*
X125471000Y-68433000D03*
%TO.N,+3V3*%
X128026890Y-72522200D03*
%TO.N,GND*%
X128052290Y-77018000D03*
X126995000Y-68433000D03*
X128519000Y-68433000D03*
%TO.N,+5V*%
X117780000Y-77526000D03*
%TO.N,+3V3*%
X119050000Y-72954000D03*
X120066000Y-72954000D03*
%TO.N,S1*%
X116764000Y-83114000D03*
%TO.N,S2*%
X115748000Y-83114000D03*
%TO.N,+5V*%
X111938000Y-67874000D03*
%TO.N,GND*%
X107874000Y-82098000D03*
%TO.N,S4*%
X110160000Y-68636000D03*
%TO.N,RX*%
X113208000Y-70668000D03*
%TO.N,TX*%
X111938000Y-70668000D03*
X114478000Y-66604000D03*
%TO.N,RX*%
X115494000Y-66604000D03*
%TO.N,BAT*%
X120066000Y-71684000D03*
%TO.N,PPM*%
X116510000Y-63556000D03*
%TO.N,GND*%
X113970000Y-63556000D03*
%TO.N,+5V*%
X115240000Y-63556000D03*
%TO.N,S3/MOSI*%
X116256000Y-87178000D03*
%TO.N,GND*%
X112446000Y-79050000D03*
%TO.N,+3V3*%
X127558290Y-81133000D03*
X126034290Y-81133000D03*
%TO.N,GND*%
X112700000Y-83114000D03*
X119558000Y-67620000D03*
%TO.N,RESET*%
X115240000Y-88956000D03*
%TO.N,+5V*%
X118288000Y-83114000D03*
%TO.N,GND*%
X118542000Y-65334000D03*
X111176000Y-83114000D03*
%TO.N,+5V*%
X108814500Y-74131500D03*
%TO.N,GND*%
X124510290Y-81164500D03*
%TO.N,+5V*%
X108814500Y-75046500D03*
%TO.N,GND*%
X107391500Y-74030500D03*
X107391500Y-75046500D03*
X112642625Y-77137250D03*
X112642625Y-75613250D03*
X121590000Y-74224000D03*
X101347990Y-70655250D03*
X101347990Y-81831250D03*
X121508625Y-81577250D03*
%TD*%
%TO.N,+3V3*%
D12*
X124637829Y-69061905D02*
X124647884Y-69075009D01*
X124828991Y-69256116D01*
X124842095Y-69266171D01*
X125063905Y-69394233D01*
X125079165Y-69400554D01*
X125326562Y-69466844D01*
X125342938Y-69469000D01*
X125599062Y-69469000D01*
X125615438Y-69466844D01*
X125862835Y-69400554D01*
X125878095Y-69394233D01*
X126099905Y-69266171D01*
X126113009Y-69256116D01*
X126233000Y-69136125D01*
X126352991Y-69256116D01*
X126366095Y-69266171D01*
X126587905Y-69394233D01*
X126603165Y-69400554D01*
X126850562Y-69466844D01*
X126866938Y-69469000D01*
X127123062Y-69469000D01*
X127139438Y-69466844D01*
X127386835Y-69400554D01*
X127402095Y-69394233D01*
X127623905Y-69266171D01*
X127637009Y-69256116D01*
X127757000Y-69136125D01*
X127876991Y-69256116D01*
X127890095Y-69266171D01*
X128111905Y-69394233D01*
X128127165Y-69400554D01*
X128374562Y-69466844D01*
X128390938Y-69469000D01*
X128647062Y-69469000D01*
X128663438Y-69466844D01*
X128910835Y-69400554D01*
X128926095Y-69394233D01*
X129147905Y-69266171D01*
X129161009Y-69256116D01*
X129342116Y-69075009D01*
X129352171Y-69061905D01*
X129366000Y-69037952D01*
X129366001Y-81464000D01*
X125502585Y-81464000D01*
X125544134Y-81308938D01*
X125546290Y-81292562D01*
X125546290Y-81036438D01*
X125544134Y-81020062D01*
X125477844Y-80772665D01*
X125471523Y-80757405D01*
X125343461Y-80535595D01*
X125333406Y-80522491D01*
X125152299Y-80341384D01*
X125139195Y-80331329D01*
X124917385Y-80203267D01*
X124902125Y-80196946D01*
X124654728Y-80130656D01*
X124638352Y-80128500D01*
X124382228Y-80128500D01*
X124365852Y-80130656D01*
X124118455Y-80196946D01*
X124103195Y-80203267D01*
X123881385Y-80331329D01*
X123868281Y-80341384D01*
X123687174Y-80522491D01*
X123677119Y-80535595D01*
X123549057Y-80757405D01*
X123542736Y-80772665D01*
X123476446Y-81020062D01*
X123474290Y-81036438D01*
X123474290Y-81292562D01*
X123476446Y-81308938D01*
X123517995Y-81464000D01*
X122732000Y-81464000D01*
X122732000Y-77460486D01*
X122839629Y-77646905D01*
X122849684Y-77660009D01*
X123030791Y-77841116D01*
X123043895Y-77851171D01*
X123265705Y-77979233D01*
X123280965Y-77985554D01*
X123528362Y-78051844D01*
X123544738Y-78054000D01*
X123800862Y-78054000D01*
X123817238Y-78051844D01*
X124064635Y-77985554D01*
X124079895Y-77979233D01*
X124301705Y-77851171D01*
X124314809Y-77841116D01*
X124495916Y-77660009D01*
X124505971Y-77646905D01*
X124634033Y-77425095D01*
X124640354Y-77409835D01*
X124706644Y-77162438D01*
X124708800Y-77146062D01*
X124708800Y-76889938D01*
X127016290Y-76889938D01*
X127016290Y-77146062D01*
X127018446Y-77162438D01*
X127084736Y-77409835D01*
X127091057Y-77425095D01*
X127219119Y-77646905D01*
X127229174Y-77660009D01*
X127410281Y-77841116D01*
X127423385Y-77851171D01*
X127645195Y-77979233D01*
X127660455Y-77985554D01*
X127907852Y-78051844D01*
X127924228Y-78054000D01*
X128180352Y-78054000D01*
X128196728Y-78051844D01*
X128444125Y-77985554D01*
X128459385Y-77979233D01*
X128681195Y-77851171D01*
X128694299Y-77841116D01*
X128875406Y-77660009D01*
X128885461Y-77646905D01*
X129013523Y-77425095D01*
X129019844Y-77409835D01*
X129086134Y-77162438D01*
X129088290Y-77146062D01*
X129088290Y-76889938D01*
X129086134Y-76873562D01*
X129019844Y-76626165D01*
X129013523Y-76610905D01*
X128885461Y-76389095D01*
X128875406Y-76375991D01*
X128694299Y-76194884D01*
X128681195Y-76184829D01*
X128459385Y-76056767D01*
X128444125Y-76050446D01*
X128196728Y-75984156D01*
X128180352Y-75982000D01*
X127924228Y-75982000D01*
X127907852Y-75984156D01*
X127660455Y-76050446D01*
X127645195Y-76056767D01*
X127423385Y-76184829D01*
X127410281Y-76194884D01*
X127229174Y-76375991D01*
X127219119Y-76389095D01*
X127091057Y-76610905D01*
X127084736Y-76626165D01*
X127018446Y-76873562D01*
X127016290Y-76889938D01*
X124708800Y-76889938D01*
X124706644Y-76873562D01*
X124640354Y-76626165D01*
X124634033Y-76610905D01*
X124505971Y-76389095D01*
X124495916Y-76375991D01*
X124314809Y-76194884D01*
X124301705Y-76184829D01*
X124163768Y-76105191D01*
X124288888Y-76105191D01*
X124362697Y-76179000D01*
X127159479Y-76179000D01*
X127233288Y-76105191D01*
X127233290Y-73460809D01*
X127159481Y-73387000D01*
X124362699Y-73387000D01*
X124288890Y-73460809D01*
X124288888Y-76105191D01*
X124163768Y-76105191D01*
X124079895Y-76056767D01*
X124064635Y-76050446D01*
X123817238Y-75984156D01*
X123800862Y-75982000D01*
X123544738Y-75982000D01*
X123528362Y-75984156D01*
X123280965Y-76050446D01*
X123265705Y-76056767D01*
X123043895Y-76184829D01*
X123030791Y-76194884D01*
X122849684Y-76375991D01*
X122839629Y-76389095D01*
X122732000Y-76575514D01*
X122732000Y-73663809D01*
X122658191Y-73590000D01*
X122419261Y-73590000D01*
X122413116Y-73581991D01*
X122232009Y-73400884D01*
X122218905Y-73390829D01*
X121997095Y-73262767D01*
X121981835Y-73256446D01*
X121734438Y-73190156D01*
X121718062Y-73188000D01*
X121461938Y-73188000D01*
X121445562Y-73190156D01*
X121198165Y-73256446D01*
X121182905Y-73262767D01*
X120961095Y-73390829D01*
X120947991Y-73400884D01*
X120766884Y-73581991D01*
X120760739Y-73590000D01*
X117398000Y-73590000D01*
X117398000Y-72064000D01*
X119095275Y-72064000D01*
X119098446Y-72075835D01*
X119104767Y-72091095D01*
X119232829Y-72312905D01*
X119242884Y-72326009D01*
X119423991Y-72507116D01*
X119437095Y-72517171D01*
X119658905Y-72645233D01*
X119674165Y-72651554D01*
X119921562Y-72717844D01*
X119937938Y-72720000D01*
X120194062Y-72720000D01*
X120210438Y-72717844D01*
X120457835Y-72651554D01*
X120473095Y-72645233D01*
X120694905Y-72517171D01*
X120708009Y-72507116D01*
X120889116Y-72326009D01*
X120899171Y-72312905D01*
X121027233Y-72091095D01*
X121033554Y-72075835D01*
X121036725Y-72064000D01*
X122404191Y-72064000D01*
X122478000Y-71990191D01*
X122478000Y-69973261D01*
X122486009Y-69967116D01*
X122667116Y-69786009D01*
X122677171Y-69772905D01*
X122805233Y-69551095D01*
X122811554Y-69535835D01*
X122877844Y-69288438D01*
X122880000Y-69272062D01*
X122880000Y-69085125D01*
X123050991Y-69256116D01*
X123064095Y-69266171D01*
X123285905Y-69394233D01*
X123301165Y-69400554D01*
X123548562Y-69466844D01*
X123564938Y-69469000D01*
X123821062Y-69469000D01*
X123837438Y-69466844D01*
X124084835Y-69400554D01*
X124100095Y-69394233D01*
X124321905Y-69266171D01*
X124335009Y-69256116D01*
X124516116Y-69075009D01*
X124526171Y-69061905D01*
X124582000Y-68965206D01*
X124637829Y-69061905D01*
%TA.AperFunction,Conductor*%
G36*
X124637829Y-69061905D02*
G01*
X124647884Y-69075009D01*
X124828991Y-69256116D01*
X124842095Y-69266171D01*
X125063905Y-69394233D01*
X125079165Y-69400554D01*
X125326562Y-69466844D01*
X125342938Y-69469000D01*
X125599062Y-69469000D01*
X125615438Y-69466844D01*
X125862835Y-69400554D01*
X125878095Y-69394233D01*
X126099905Y-69266171D01*
X126113009Y-69256116D01*
X126233000Y-69136125D01*
X126352991Y-69256116D01*
X126366095Y-69266171D01*
X126587905Y-69394233D01*
X126603165Y-69400554D01*
X126850562Y-69466844D01*
X126866938Y-69469000D01*
X127123062Y-69469000D01*
X127139438Y-69466844D01*
X127386835Y-69400554D01*
X127402095Y-69394233D01*
X127623905Y-69266171D01*
X127637009Y-69256116D01*
X127757000Y-69136125D01*
X127876991Y-69256116D01*
X127890095Y-69266171D01*
X128111905Y-69394233D01*
X128127165Y-69400554D01*
X128374562Y-69466844D01*
X128390938Y-69469000D01*
X128647062Y-69469000D01*
X128663438Y-69466844D01*
X128910835Y-69400554D01*
X128926095Y-69394233D01*
X129147905Y-69266171D01*
X129161009Y-69256116D01*
X129342116Y-69075009D01*
X129352171Y-69061905D01*
X129366000Y-69037952D01*
X129366001Y-81464000D01*
X125502585Y-81464000D01*
X125544134Y-81308938D01*
X125546290Y-81292562D01*
X125546290Y-81036438D01*
X125544134Y-81020062D01*
X125477844Y-80772665D01*
X125471523Y-80757405D01*
X125343461Y-80535595D01*
X125333406Y-80522491D01*
X125152299Y-80341384D01*
X125139195Y-80331329D01*
X124917385Y-80203267D01*
X124902125Y-80196946D01*
X124654728Y-80130656D01*
X124638352Y-80128500D01*
X124382228Y-80128500D01*
X124365852Y-80130656D01*
X124118455Y-80196946D01*
X124103195Y-80203267D01*
X123881385Y-80331329D01*
X123868281Y-80341384D01*
X123687174Y-80522491D01*
X123677119Y-80535595D01*
X123549057Y-80757405D01*
X123542736Y-80772665D01*
X123476446Y-81020062D01*
X123474290Y-81036438D01*
X123474290Y-81292562D01*
X123476446Y-81308938D01*
X123517995Y-81464000D01*
X122732000Y-81464000D01*
X122732000Y-77460486D01*
X122839629Y-77646905D01*
X122849684Y-77660009D01*
X123030791Y-77841116D01*
X123043895Y-77851171D01*
X123265705Y-77979233D01*
X123280965Y-77985554D01*
X123528362Y-78051844D01*
X123544738Y-78054000D01*
X123800862Y-78054000D01*
X123817238Y-78051844D01*
X124064635Y-77985554D01*
X124079895Y-77979233D01*
X124301705Y-77851171D01*
X124314809Y-77841116D01*
X124495916Y-77660009D01*
X124505971Y-77646905D01*
X124634033Y-77425095D01*
X124640354Y-77409835D01*
X124706644Y-77162438D01*
X124708800Y-77146062D01*
X124708800Y-76889938D01*
X127016290Y-76889938D01*
X127016290Y-77146062D01*
X127018446Y-77162438D01*
X127084736Y-77409835D01*
X127091057Y-77425095D01*
X127219119Y-77646905D01*
X127229174Y-77660009D01*
X127410281Y-77841116D01*
X127423385Y-77851171D01*
X127645195Y-77979233D01*
X127660455Y-77985554D01*
X127907852Y-78051844D01*
X127924228Y-78054000D01*
X128180352Y-78054000D01*
X128196728Y-78051844D01*
X128444125Y-77985554D01*
X128459385Y-77979233D01*
X128681195Y-77851171D01*
X128694299Y-77841116D01*
X128875406Y-77660009D01*
X128885461Y-77646905D01*
X129013523Y-77425095D01*
X129019844Y-77409835D01*
X129086134Y-77162438D01*
X129088290Y-77146062D01*
X129088290Y-76889938D01*
X129086134Y-76873562D01*
X129019844Y-76626165D01*
X129013523Y-76610905D01*
X128885461Y-76389095D01*
X128875406Y-76375991D01*
X128694299Y-76194884D01*
X128681195Y-76184829D01*
X128459385Y-76056767D01*
X128444125Y-76050446D01*
X128196728Y-75984156D01*
X128180352Y-75982000D01*
X127924228Y-75982000D01*
X127907852Y-75984156D01*
X127660455Y-76050446D01*
X127645195Y-76056767D01*
X127423385Y-76184829D01*
X127410281Y-76194884D01*
X127229174Y-76375991D01*
X127219119Y-76389095D01*
X127091057Y-76610905D01*
X127084736Y-76626165D01*
X127018446Y-76873562D01*
X127016290Y-76889938D01*
X124708800Y-76889938D01*
X124706644Y-76873562D01*
X124640354Y-76626165D01*
X124634033Y-76610905D01*
X124505971Y-76389095D01*
X124495916Y-76375991D01*
X124314809Y-76194884D01*
X124301705Y-76184829D01*
X124163768Y-76105191D01*
X124288888Y-76105191D01*
X124362697Y-76179000D01*
X127159479Y-76179000D01*
X127233288Y-76105191D01*
X127233290Y-73460809D01*
X127159481Y-73387000D01*
X124362699Y-73387000D01*
X124288890Y-73460809D01*
X124288888Y-76105191D01*
X124163768Y-76105191D01*
X124079895Y-76056767D01*
X124064635Y-76050446D01*
X123817238Y-75984156D01*
X123800862Y-75982000D01*
X123544738Y-75982000D01*
X123528362Y-75984156D01*
X123280965Y-76050446D01*
X123265705Y-76056767D01*
X123043895Y-76184829D01*
X123030791Y-76194884D01*
X122849684Y-76375991D01*
X122839629Y-76389095D01*
X122732000Y-76575514D01*
X122732000Y-73663809D01*
X122658191Y-73590000D01*
X122419261Y-73590000D01*
X122413116Y-73581991D01*
X122232009Y-73400884D01*
X122218905Y-73390829D01*
X121997095Y-73262767D01*
X121981835Y-73256446D01*
X121734438Y-73190156D01*
X121718062Y-73188000D01*
X121461938Y-73188000D01*
X121445562Y-73190156D01*
X121198165Y-73256446D01*
X121182905Y-73262767D01*
X120961095Y-73390829D01*
X120947991Y-73400884D01*
X120766884Y-73581991D01*
X120760739Y-73590000D01*
X117398000Y-73590000D01*
X117398000Y-72064000D01*
X119095275Y-72064000D01*
X119098446Y-72075835D01*
X119104767Y-72091095D01*
X119232829Y-72312905D01*
X119242884Y-72326009D01*
X119423991Y-72507116D01*
X119437095Y-72517171D01*
X119658905Y-72645233D01*
X119674165Y-72651554D01*
X119921562Y-72717844D01*
X119937938Y-72720000D01*
X120194062Y-72720000D01*
X120210438Y-72717844D01*
X120457835Y-72651554D01*
X120473095Y-72645233D01*
X120694905Y-72517171D01*
X120708009Y-72507116D01*
X120889116Y-72326009D01*
X120899171Y-72312905D01*
X121027233Y-72091095D01*
X121033554Y-72075835D01*
X121036725Y-72064000D01*
X122404191Y-72064000D01*
X122478000Y-71990191D01*
X122478000Y-69973261D01*
X122486009Y-69967116D01*
X122667116Y-69786009D01*
X122677171Y-69772905D01*
X122805233Y-69551095D01*
X122811554Y-69535835D01*
X122877844Y-69288438D01*
X122880000Y-69272062D01*
X122880000Y-69085125D01*
X123050991Y-69256116D01*
X123064095Y-69266171D01*
X123285905Y-69394233D01*
X123301165Y-69400554D01*
X123548562Y-69466844D01*
X123564938Y-69469000D01*
X123821062Y-69469000D01*
X123837438Y-69466844D01*
X124084835Y-69400554D01*
X124100095Y-69394233D01*
X124321905Y-69266171D01*
X124335009Y-69256116D01*
X124516116Y-69075009D01*
X124526171Y-69061905D01*
X124582000Y-68965206D01*
X124637829Y-69061905D01*
G37*
%TD.AperFunction*%
%TD*%
%TO.N,+5V*%
X124950584Y-60636838D02*
X124959863Y-60638001D01*
X124970987Y-60638565D01*
X124971369Y-60638583D01*
X125387589Y-60657119D01*
X125772119Y-60708768D01*
X126150516Y-60794391D01*
X126519830Y-60913319D01*
X126877084Y-61064598D01*
X127219492Y-61247043D01*
X127544328Y-61459203D01*
X127849013Y-61699399D01*
X128131131Y-61965719D01*
X128388471Y-62256077D01*
X128618968Y-62568146D01*
X128820821Y-62899485D01*
X128992416Y-63247445D01*
X129132408Y-63609303D01*
X129239671Y-63982137D01*
X129313369Y-64363060D01*
X129353425Y-64754014D01*
X129361170Y-65022887D01*
X129362065Y-65031807D01*
X129366000Y-65054588D01*
X129366000Y-67828048D01*
X129352171Y-67804095D01*
X129342116Y-67790991D01*
X129161009Y-67609884D01*
X129147905Y-67599829D01*
X128926095Y-67471767D01*
X128910835Y-67465446D01*
X128663438Y-67399156D01*
X128647062Y-67397000D01*
X128390938Y-67397000D01*
X128374562Y-67399156D01*
X128127165Y-67465446D01*
X128111905Y-67471767D01*
X127890095Y-67599829D01*
X127876991Y-67609884D01*
X127757000Y-67729875D01*
X127637009Y-67609884D01*
X127623905Y-67599829D01*
X127402095Y-67471767D01*
X127386835Y-67465446D01*
X127139438Y-67399156D01*
X127123062Y-67397000D01*
X126866938Y-67397000D01*
X126850562Y-67399156D01*
X126603165Y-67465446D01*
X126587905Y-67471767D01*
X126366095Y-67599829D01*
X126352991Y-67609884D01*
X126233000Y-67729875D01*
X126113009Y-67609884D01*
X126099905Y-67599829D01*
X125878095Y-67471767D01*
X125862835Y-67465446D01*
X125615438Y-67399156D01*
X125599062Y-67397000D01*
X125342938Y-67397000D01*
X125326562Y-67399156D01*
X125079165Y-67465446D01*
X125063905Y-67471767D01*
X124842095Y-67599829D01*
X124828991Y-67609884D01*
X124647884Y-67790991D01*
X124637829Y-67804095D01*
X124582000Y-67900794D01*
X124526171Y-67804095D01*
X124516116Y-67790991D01*
X124335009Y-67609884D01*
X124321905Y-67599829D01*
X124100095Y-67471767D01*
X124084835Y-67465446D01*
X123837438Y-67399156D01*
X123821062Y-67397000D01*
X123564938Y-67397000D01*
X123548562Y-67399156D01*
X123301165Y-67465446D01*
X123285905Y-67471767D01*
X123064095Y-67599829D01*
X123050991Y-67609884D01*
X122921838Y-67739037D01*
X122928644Y-67713638D01*
X122930800Y-67697262D01*
X122930800Y-67441138D01*
X122928644Y-67424762D01*
X122862354Y-67177365D01*
X122856033Y-67162105D01*
X122727971Y-66940295D01*
X122717916Y-66927191D01*
X122536809Y-66746084D01*
X122523705Y-66736029D01*
X122301895Y-66607967D01*
X122286635Y-66601646D01*
X122039238Y-66535356D01*
X122022862Y-66533200D01*
X121766738Y-66533200D01*
X121750362Y-66535356D01*
X121502965Y-66601646D01*
X121487705Y-66607967D01*
X121265895Y-66736029D01*
X121252791Y-66746084D01*
X121071684Y-66927191D01*
X121061629Y-66940295D01*
X120933567Y-67162105D01*
X120927246Y-67177365D01*
X120860956Y-67424762D01*
X120858800Y-67441138D01*
X120858800Y-67697262D01*
X120860956Y-67713638D01*
X120927246Y-67961035D01*
X120933567Y-67976295D01*
X121061629Y-68198105D01*
X121071684Y-68211209D01*
X121191675Y-68331200D01*
X121020884Y-68501991D01*
X121010829Y-68515095D01*
X120882767Y-68736905D01*
X120876446Y-68752165D01*
X120810156Y-68999562D01*
X120808000Y-69015938D01*
X120808000Y-69272062D01*
X120810156Y-69288438D01*
X120876446Y-69535835D01*
X120882767Y-69551095D01*
X121010829Y-69772905D01*
X121020884Y-69786009D01*
X121201991Y-69967116D01*
X121215095Y-69977171D01*
X121436905Y-70105233D01*
X121452165Y-70111554D01*
X121699562Y-70177844D01*
X121715938Y-70180000D01*
X121718000Y-70180000D01*
X121718000Y-71304000D01*
X121036725Y-71304000D01*
X121033554Y-71292165D01*
X121027233Y-71276905D01*
X120899171Y-71055095D01*
X120889116Y-71041991D01*
X120708009Y-70860884D01*
X120694905Y-70850829D01*
X120473095Y-70722767D01*
X120457835Y-70716446D01*
X120210438Y-70650156D01*
X120194062Y-70648000D01*
X119937938Y-70648000D01*
X119921562Y-70650156D01*
X119674165Y-70716446D01*
X119658905Y-70722767D01*
X119437095Y-70850829D01*
X119423991Y-70860884D01*
X119242884Y-71041991D01*
X119232829Y-71055095D01*
X119104767Y-71276905D01*
X119098446Y-71292165D01*
X119095275Y-71304000D01*
X116711809Y-71304000D01*
X116638000Y-71377809D01*
X116638000Y-74276191D01*
X116711809Y-74350000D01*
X117249526Y-74350000D01*
X117151095Y-74406829D01*
X117137991Y-74416884D01*
X116956884Y-74597991D01*
X116946829Y-74611095D01*
X116818767Y-74832905D01*
X116812446Y-74848165D01*
X116746156Y-75095562D01*
X116744000Y-75111938D01*
X116744000Y-75368062D01*
X116746156Y-75384438D01*
X116812446Y-75631835D01*
X116818767Y-75647095D01*
X116873344Y-75741625D01*
X116818767Y-75836155D01*
X116812446Y-75851415D01*
X116746156Y-76098812D01*
X116744000Y-76115188D01*
X116744000Y-76371312D01*
X116746156Y-76387688D01*
X116812446Y-76635085D01*
X116818767Y-76650345D01*
X116946829Y-76872155D01*
X116956884Y-76885259D01*
X117137991Y-77066366D01*
X117151095Y-77076421D01*
X117372905Y-77204483D01*
X117388165Y-77210804D01*
X117635562Y-77277094D01*
X117651938Y-77279250D01*
X117908062Y-77279250D01*
X117924438Y-77277094D01*
X118171835Y-77210804D01*
X118187095Y-77204483D01*
X118408905Y-77076421D01*
X118422009Y-77066366D01*
X118603116Y-76885259D01*
X118613171Y-76872155D01*
X118741233Y-76650345D01*
X118747554Y-76635085D01*
X118813844Y-76387688D01*
X118816000Y-76371312D01*
X118816000Y-76115188D01*
X118813844Y-76098812D01*
X118747554Y-75851415D01*
X118741233Y-75836155D01*
X118686656Y-75741625D01*
X118741233Y-75647095D01*
X118747554Y-75631835D01*
X118813844Y-75384438D01*
X118816000Y-75368062D01*
X118816000Y-75111938D01*
X118813844Y-75095562D01*
X118747554Y-74848165D01*
X118741233Y-74832905D01*
X118613171Y-74611095D01*
X118603116Y-74597991D01*
X118422009Y-74416884D01*
X118408905Y-74406829D01*
X118310474Y-74350000D01*
X120554000Y-74350000D01*
X120554000Y-74352062D01*
X120556156Y-74368438D01*
X120622446Y-74615835D01*
X120628767Y-74631095D01*
X120756829Y-74852905D01*
X120766884Y-74866009D01*
X120947991Y-75047116D01*
X120961095Y-75057171D01*
X121182905Y-75185233D01*
X121198165Y-75191554D01*
X121445562Y-75257844D01*
X121461938Y-75260000D01*
X121718062Y-75260000D01*
X121734438Y-75257844D01*
X121972000Y-75194189D01*
X121972000Y-80648510D01*
X121915720Y-80616017D01*
X121900460Y-80609696D01*
X121653063Y-80543406D01*
X121636687Y-80541250D01*
X121380563Y-80541250D01*
X121364187Y-80543406D01*
X121116790Y-80609696D01*
X121101530Y-80616017D01*
X120879720Y-80744079D01*
X120866616Y-80754134D01*
X120685509Y-80935241D01*
X120675454Y-80948345D01*
X120547392Y-81170155D01*
X120541071Y-81185415D01*
X120474781Y-81432812D01*
X120472625Y-81449188D01*
X120472625Y-81644572D01*
X120457835Y-81638446D01*
X120210438Y-81572156D01*
X120194062Y-81570000D01*
X119937938Y-81570000D01*
X119921562Y-81572156D01*
X119674165Y-81638446D01*
X119658905Y-81644767D01*
X119437095Y-81772829D01*
X119423991Y-81782884D01*
X119242884Y-81963991D01*
X119232829Y-81977095D01*
X119104767Y-82198905D01*
X119098446Y-82214165D01*
X119032156Y-82461562D01*
X119030000Y-82477938D01*
X119030000Y-82734062D01*
X119032156Y-82750438D01*
X119098446Y-82997835D01*
X119104767Y-83013095D01*
X119163025Y-83114000D01*
X119104767Y-83214905D01*
X119098446Y-83230165D01*
X119032156Y-83477562D01*
X119030000Y-83493938D01*
X119030000Y-83750062D01*
X119032156Y-83766438D01*
X119098446Y-84013835D01*
X119104767Y-84029095D01*
X119232829Y-84250905D01*
X119242884Y-84264009D01*
X119423991Y-84445116D01*
X119437095Y-84455171D01*
X119658905Y-84583233D01*
X119674165Y-84589554D01*
X119921562Y-84655844D01*
X119937938Y-84658000D01*
X120194062Y-84658000D01*
X120210438Y-84655844D01*
X120457835Y-84589554D01*
X120473095Y-84583233D01*
X120694905Y-84455171D01*
X120708009Y-84445116D01*
X120889116Y-84264009D01*
X120899171Y-84250905D01*
X121027233Y-84029095D01*
X121033554Y-84013835D01*
X121099844Y-83766438D01*
X121102000Y-83750062D01*
X121102000Y-83493938D01*
X121099844Y-83477562D01*
X121033554Y-83230165D01*
X121027233Y-83214905D01*
X120968975Y-83114000D01*
X121027233Y-83013095D01*
X121033554Y-82997835D01*
X121099844Y-82750438D01*
X121102000Y-82734062D01*
X121102000Y-82538678D01*
X121116790Y-82544804D01*
X121364187Y-82611094D01*
X121380563Y-82613250D01*
X121636687Y-82613250D01*
X121653063Y-82611094D01*
X121900460Y-82544804D01*
X121915720Y-82538483D01*
X122137530Y-82410421D01*
X122150634Y-82400366D01*
X122327000Y-82224000D01*
X129366001Y-82224000D01*
X129366001Y-84936507D01*
X129363163Y-84950582D01*
X129361999Y-84959862D01*
X129361435Y-84970986D01*
X129361417Y-84971368D01*
X129342881Y-85387589D01*
X129291232Y-85772118D01*
X129205609Y-86150516D01*
X129086681Y-86519830D01*
X128935402Y-86877084D01*
X128752957Y-87219492D01*
X128540797Y-87544328D01*
X128300610Y-87849002D01*
X128034280Y-88131132D01*
X127743923Y-88388471D01*
X127431854Y-88618968D01*
X127100515Y-88820821D01*
X126752555Y-88992416D01*
X126390707Y-89132405D01*
X126017849Y-89239673D01*
X125636940Y-89313369D01*
X125245986Y-89353425D01*
X124977113Y-89361170D01*
X124968193Y-89362065D01*
X124945412Y-89366000D01*
X116199556Y-89366000D01*
X116201233Y-89363095D01*
X116207554Y-89347835D01*
X116273844Y-89100438D01*
X116276000Y-89084062D01*
X116276000Y-88827938D01*
X116273844Y-88811562D01*
X116207554Y-88564165D01*
X116201233Y-88548905D01*
X116073171Y-88327095D01*
X116063116Y-88313991D01*
X115905848Y-88156723D01*
X116111562Y-88211844D01*
X116127938Y-88214000D01*
X116384062Y-88214000D01*
X116400438Y-88211844D01*
X116647835Y-88145554D01*
X116663095Y-88139233D01*
X116884905Y-88011171D01*
X116898009Y-88001116D01*
X117079116Y-87820009D01*
X117089171Y-87806905D01*
X117217233Y-87585095D01*
X117223554Y-87569835D01*
X117289844Y-87322438D01*
X117292000Y-87306062D01*
X117292000Y-87049938D01*
X117289844Y-87033562D01*
X117223554Y-86786165D01*
X117217233Y-86770905D01*
X117089171Y-86549095D01*
X117079116Y-86535991D01*
X116898009Y-86354884D01*
X116884905Y-86344829D01*
X116663095Y-86216767D01*
X116647835Y-86210446D01*
X116400438Y-86144156D01*
X116384062Y-86142000D01*
X116127938Y-86142000D01*
X116111562Y-86144156D01*
X115864165Y-86210446D01*
X115848905Y-86216767D01*
X115627095Y-86344829D01*
X115613991Y-86354884D01*
X115432884Y-86535991D01*
X115422829Y-86549095D01*
X115294767Y-86770905D01*
X115288446Y-86786165D01*
X115222156Y-87033562D01*
X115220000Y-87049938D01*
X115220000Y-87306062D01*
X115222156Y-87322438D01*
X115288446Y-87569835D01*
X115294767Y-87585095D01*
X115422829Y-87806905D01*
X115432884Y-87820009D01*
X115590152Y-87977277D01*
X115384438Y-87922156D01*
X115368062Y-87920000D01*
X115111938Y-87920000D01*
X115095562Y-87922156D01*
X114848165Y-87988446D01*
X114832905Y-87994767D01*
X114611095Y-88122829D01*
X114597991Y-88132884D01*
X114416884Y-88313991D01*
X114406829Y-88327095D01*
X114278767Y-88548905D01*
X114272446Y-88564165D01*
X114206156Y-88811562D01*
X114204000Y-88827938D01*
X114204000Y-89084062D01*
X114206156Y-89100438D01*
X114272446Y-89347835D01*
X114278767Y-89363095D01*
X114280444Y-89366000D01*
X105063490Y-89366000D01*
X105049417Y-89363162D01*
X105040138Y-89361999D01*
X105029014Y-89361435D01*
X105028632Y-89361417D01*
X104612411Y-89342881D01*
X104227882Y-89291232D01*
X103849484Y-89205609D01*
X103480170Y-89086681D01*
X103122916Y-88935402D01*
X102780508Y-88752957D01*
X102455672Y-88540797D01*
X102150998Y-88300610D01*
X101868868Y-88034280D01*
X101611529Y-87743923D01*
X101381032Y-87431854D01*
X101179179Y-87100515D01*
X101007584Y-86752555D01*
X100867595Y-86390707D01*
X100760327Y-86017849D01*
X100686631Y-85636940D01*
X100646575Y-85245986D01*
X100643079Y-85124598D01*
X102764541Y-85124598D01*
X102765035Y-85133164D01*
X102802133Y-85426832D01*
X102803785Y-85435252D01*
X102880397Y-85721168D01*
X102883176Y-85729285D01*
X102997881Y-86002159D01*
X103001736Y-86009824D01*
X103152413Y-86264606D01*
X103157273Y-86271677D01*
X103341134Y-86503652D01*
X103346909Y-86509998D01*
X103560551Y-86714873D01*
X103567133Y-86720377D01*
X103806605Y-86894363D01*
X103813873Y-86898922D01*
X104074740Y-87038798D01*
X104082560Y-87042329D01*
X104359998Y-87145507D01*
X104368224Y-87147944D01*
X104657098Y-87212514D01*
X104665579Y-87213812D01*
X104960543Y-87238581D01*
X104969122Y-87238716D01*
X105264718Y-87223225D01*
X105273236Y-87222194D01*
X105563996Y-87166728D01*
X105572295Y-87164551D01*
X105852836Y-87070138D01*
X105860762Y-87066855D01*
X106125895Y-86935242D01*
X106133303Y-86930914D01*
X106378121Y-86764536D01*
X106384873Y-86759242D01*
X106604846Y-86561178D01*
X106610816Y-86555016D01*
X106801873Y-86328930D01*
X106806953Y-86322015D01*
X106965559Y-86072093D01*
X106969653Y-86064553D01*
X107092873Y-85795417D01*
X107095905Y-85787391D01*
X107181459Y-85504022D01*
X107183375Y-85495659D01*
X107229731Y-85202974D01*
X107230505Y-85193766D01*
X107231229Y-85124598D01*
X122764541Y-85124598D01*
X122765035Y-85133164D01*
X122802133Y-85426832D01*
X122803785Y-85435252D01*
X122880397Y-85721168D01*
X122883176Y-85729285D01*
X122997881Y-86002159D01*
X123001736Y-86009824D01*
X123152413Y-86264606D01*
X123157273Y-86271677D01*
X123341134Y-86503652D01*
X123346909Y-86509998D01*
X123560551Y-86714873D01*
X123567133Y-86720377D01*
X123806605Y-86894363D01*
X123813873Y-86898922D01*
X124074740Y-87038798D01*
X124082560Y-87042329D01*
X124359998Y-87145507D01*
X124368224Y-87147944D01*
X124657098Y-87212514D01*
X124665579Y-87213812D01*
X124960543Y-87238581D01*
X124969122Y-87238716D01*
X125264718Y-87223225D01*
X125273236Y-87222194D01*
X125563996Y-87166728D01*
X125572295Y-87164551D01*
X125852836Y-87070138D01*
X125860762Y-87066855D01*
X126125895Y-86935242D01*
X126133303Y-86930914D01*
X126378121Y-86764536D01*
X126384873Y-86759242D01*
X126604846Y-86561178D01*
X126610816Y-86555016D01*
X126801873Y-86328930D01*
X126806953Y-86322015D01*
X126965559Y-86072093D01*
X126969653Y-86064553D01*
X127092873Y-85795417D01*
X127095905Y-85787391D01*
X127181459Y-85504022D01*
X127183375Y-85495659D01*
X127229731Y-85202974D01*
X127230505Y-85193766D01*
X127234073Y-84852988D01*
X127233493Y-84843766D01*
X127193276Y-84550176D01*
X127191536Y-84541774D01*
X127111936Y-84256675D01*
X127109072Y-84248588D01*
X126991515Y-83976930D01*
X126987580Y-83969306D01*
X126834243Y-83716116D01*
X126829309Y-83709096D01*
X126643029Y-83479060D01*
X126637188Y-83472775D01*
X126421412Y-83270147D01*
X126414772Y-83264713D01*
X126173493Y-83093244D01*
X126166177Y-83088761D01*
X125903859Y-82951625D01*
X125896003Y-82948176D01*
X125617500Y-82847909D01*
X125609248Y-82845558D01*
X125319715Y-82784016D01*
X125311220Y-82782807D01*
X125016013Y-82761128D01*
X125007433Y-82761083D01*
X124712015Y-82779669D01*
X124703508Y-82780789D01*
X124413346Y-82839297D01*
X124405070Y-82841561D01*
X124125533Y-82938905D01*
X124117641Y-82942272D01*
X123853901Y-83076654D01*
X123846539Y-83081060D01*
X123603476Y-83249992D01*
X123596781Y-83255357D01*
X123378894Y-83455713D01*
X123372988Y-83461937D01*
X123184309Y-83690011D01*
X123179302Y-83696979D01*
X123023323Y-83948549D01*
X123019308Y-83956131D01*
X122898912Y-84226543D01*
X122895964Y-84234601D01*
X122813382Y-84518850D01*
X122811554Y-84527233D01*
X122768313Y-84820059D01*
X122767640Y-84828613D01*
X122764541Y-85124598D01*
X107231229Y-85124598D01*
X107234073Y-84852988D01*
X107233493Y-84843766D01*
X107193276Y-84550176D01*
X107191536Y-84541774D01*
X107111936Y-84256675D01*
X107109072Y-84248588D01*
X106991515Y-83976930D01*
X106987580Y-83969306D01*
X106834243Y-83716116D01*
X106829309Y-83709096D01*
X106643029Y-83479060D01*
X106637188Y-83472775D01*
X106421412Y-83270147D01*
X106414772Y-83264713D01*
X106173493Y-83093244D01*
X106166177Y-83088761D01*
X105903859Y-82951625D01*
X105896003Y-82948176D01*
X105617500Y-82847909D01*
X105609248Y-82845558D01*
X105319715Y-82784016D01*
X105311220Y-82782807D01*
X105016013Y-82761128D01*
X105007433Y-82761083D01*
X104712015Y-82779669D01*
X104703508Y-82780789D01*
X104413346Y-82839297D01*
X104405070Y-82841561D01*
X104125533Y-82938905D01*
X104117641Y-82942272D01*
X103853901Y-83076654D01*
X103846539Y-83081060D01*
X103603476Y-83249992D01*
X103596781Y-83255357D01*
X103378894Y-83455713D01*
X103372988Y-83461937D01*
X103184309Y-83690011D01*
X103179302Y-83696979D01*
X103023323Y-83948549D01*
X103019308Y-83956131D01*
X102898912Y-84226543D01*
X102895964Y-84234601D01*
X102813382Y-84518850D01*
X102811554Y-84527233D01*
X102768313Y-84820059D01*
X102767640Y-84828613D01*
X102764541Y-85124598D01*
X100643079Y-85124598D01*
X100638830Y-84977113D01*
X100637935Y-84968193D01*
X100634000Y-84945412D01*
X100634000Y-82732000D01*
X100836136Y-82732000D01*
X100940895Y-82792483D01*
X100956155Y-82798804D01*
X101203552Y-82865094D01*
X101219928Y-82867250D01*
X101476052Y-82867250D01*
X101492428Y-82865094D01*
X101739825Y-82798804D01*
X101755085Y-82792483D01*
X101859844Y-82732000D01*
X105132191Y-82732000D01*
X105206000Y-82658191D01*
X105206000Y-81716000D01*
X106903811Y-81716000D01*
X106840156Y-81953562D01*
X106838000Y-81969938D01*
X106838000Y-82226062D01*
X106840156Y-82242438D01*
X106906446Y-82489835D01*
X106912767Y-82505095D01*
X107040829Y-82726905D01*
X107050884Y-82740009D01*
X107231991Y-82921116D01*
X107245095Y-82931171D01*
X107466905Y-83059233D01*
X107482165Y-83065554D01*
X107729562Y-83131844D01*
X107745938Y-83134000D01*
X108002062Y-83134000D01*
X108018438Y-83131844D01*
X108265835Y-83065554D01*
X108281095Y-83059233D01*
X108408045Y-82985938D01*
X110140000Y-82985938D01*
X110140000Y-83242062D01*
X110142156Y-83258438D01*
X110208446Y-83505835D01*
X110214767Y-83521095D01*
X110342829Y-83742905D01*
X110352884Y-83756009D01*
X110533991Y-83937116D01*
X110547095Y-83947171D01*
X110768905Y-84075233D01*
X110784165Y-84081554D01*
X111031562Y-84147844D01*
X111047938Y-84150000D01*
X111304062Y-84150000D01*
X111320438Y-84147844D01*
X111567835Y-84081554D01*
X111583095Y-84075233D01*
X111804905Y-83947171D01*
X111818009Y-83937116D01*
X111938000Y-83817125D01*
X112057991Y-83937116D01*
X112071095Y-83947171D01*
X112292905Y-84075233D01*
X112308165Y-84081554D01*
X112555562Y-84147844D01*
X112571938Y-84150000D01*
X112828062Y-84150000D01*
X112844438Y-84147844D01*
X113091835Y-84081554D01*
X113107095Y-84075233D01*
X113328905Y-83947171D01*
X113342009Y-83937116D01*
X113523116Y-83756009D01*
X113533171Y-83742905D01*
X113661233Y-83521095D01*
X113667554Y-83505835D01*
X113733844Y-83258438D01*
X113736000Y-83242062D01*
X113736000Y-82985938D01*
X114712000Y-82985938D01*
X114712000Y-83242062D01*
X114714156Y-83258438D01*
X114780446Y-83505835D01*
X114786767Y-83521095D01*
X114914829Y-83742905D01*
X114924884Y-83756009D01*
X115105991Y-83937116D01*
X115119095Y-83947171D01*
X115340905Y-84075233D01*
X115356165Y-84081554D01*
X115603562Y-84147844D01*
X115619938Y-84150000D01*
X115876062Y-84150000D01*
X115892438Y-84147844D01*
X116139835Y-84081554D01*
X116155095Y-84075233D01*
X116256000Y-84016975D01*
X116356905Y-84075233D01*
X116372165Y-84081554D01*
X116619562Y-84147844D01*
X116635938Y-84150000D01*
X116892062Y-84150000D01*
X116908438Y-84147844D01*
X117155835Y-84081554D01*
X117171095Y-84075233D01*
X117392905Y-83947171D01*
X117406009Y-83937116D01*
X117587116Y-83756009D01*
X117597171Y-83742905D01*
X117725233Y-83521095D01*
X117731554Y-83505835D01*
X117797844Y-83258438D01*
X117800000Y-83242062D01*
X117800000Y-82985938D01*
X117797844Y-82969562D01*
X117731554Y-82722165D01*
X117725233Y-82706905D01*
X117597171Y-82485095D01*
X117587116Y-82471991D01*
X117406009Y-82290884D01*
X117392905Y-82280829D01*
X117171095Y-82152767D01*
X117155835Y-82146446D01*
X116908438Y-82080156D01*
X116892062Y-82078000D01*
X116635938Y-82078000D01*
X116619562Y-82080156D01*
X116372165Y-82146446D01*
X116356905Y-82152767D01*
X116256000Y-82211025D01*
X116155095Y-82152767D01*
X116139835Y-82146446D01*
X115892438Y-82080156D01*
X115876062Y-82078000D01*
X115619938Y-82078000D01*
X115603562Y-82080156D01*
X115356165Y-82146446D01*
X115340905Y-82152767D01*
X115119095Y-82280829D01*
X115105991Y-82290884D01*
X114924884Y-82471991D01*
X114914829Y-82485095D01*
X114786767Y-82706905D01*
X114780446Y-82722165D01*
X114714156Y-82969562D01*
X114712000Y-82985938D01*
X113736000Y-82985938D01*
X113733844Y-82969562D01*
X113667554Y-82722165D01*
X113661233Y-82706905D01*
X113533171Y-82485095D01*
X113523116Y-82471991D01*
X113342009Y-82290884D01*
X113328905Y-82280829D01*
X113107095Y-82152767D01*
X113091835Y-82146446D01*
X112844438Y-82080156D01*
X112828062Y-82078000D01*
X112571938Y-82078000D01*
X112555562Y-82080156D01*
X112308165Y-82146446D01*
X112292905Y-82152767D01*
X112071095Y-82280829D01*
X112057991Y-82290884D01*
X111938000Y-82410875D01*
X111818009Y-82290884D01*
X111804905Y-82280829D01*
X111583095Y-82152767D01*
X111567835Y-82146446D01*
X111320438Y-82080156D01*
X111304062Y-82078000D01*
X111047938Y-82078000D01*
X111031562Y-82080156D01*
X110784165Y-82146446D01*
X110768905Y-82152767D01*
X110547095Y-82280829D01*
X110533991Y-82290884D01*
X110352884Y-82471991D01*
X110342829Y-82485095D01*
X110214767Y-82706905D01*
X110208446Y-82722165D01*
X110142156Y-82969562D01*
X110140000Y-82985938D01*
X108408045Y-82985938D01*
X108502905Y-82931171D01*
X108516009Y-82921116D01*
X108697116Y-82740009D01*
X108707171Y-82726905D01*
X108835233Y-82505095D01*
X108841554Y-82489835D01*
X108907844Y-82242438D01*
X108910000Y-82226062D01*
X108910000Y-81969938D01*
X108907844Y-81953562D01*
X108841554Y-81706165D01*
X108835233Y-81690905D01*
X108707171Y-81469095D01*
X108697116Y-81455991D01*
X108568658Y-81327533D01*
X109958190Y-79938000D01*
X111912062Y-79938000D01*
X112038905Y-80011233D01*
X112054165Y-80017554D01*
X112301562Y-80083844D01*
X112317938Y-80086000D01*
X112574062Y-80086000D01*
X112590438Y-80083844D01*
X112837835Y-80017554D01*
X112853095Y-80011233D01*
X113074905Y-79883171D01*
X113088009Y-79873116D01*
X113269116Y-79692009D01*
X113279171Y-79678905D01*
X113407233Y-79457095D01*
X113413554Y-79441835D01*
X113479844Y-79194438D01*
X113482000Y-79178062D01*
X113482000Y-78921938D01*
X113479844Y-78905562D01*
X113413554Y-78658165D01*
X113407233Y-78642905D01*
X113279171Y-78421095D01*
X113269116Y-78407991D01*
X113088009Y-78226884D01*
X113074905Y-78216829D01*
X112929557Y-78132913D01*
X113034460Y-78104804D01*
X113049720Y-78098483D01*
X113271530Y-77970421D01*
X113284634Y-77960366D01*
X113465741Y-77779259D01*
X113475796Y-77766155D01*
X113603858Y-77544345D01*
X113610179Y-77529085D01*
X113676469Y-77281688D01*
X113678625Y-77265312D01*
X113678625Y-77009188D01*
X113676469Y-76992812D01*
X113610179Y-76745415D01*
X113603858Y-76730155D01*
X113475796Y-76508345D01*
X113465741Y-76495241D01*
X113345750Y-76375250D01*
X113465741Y-76255259D01*
X113475796Y-76242155D01*
X113603858Y-76020345D01*
X113610179Y-76005085D01*
X113676469Y-75757688D01*
X113678625Y-75741312D01*
X113678625Y-75485188D01*
X113676469Y-75468812D01*
X113610179Y-75221415D01*
X113603858Y-75206155D01*
X113475796Y-74984345D01*
X113465741Y-74971241D01*
X113284634Y-74790134D01*
X113271530Y-74780079D01*
X113049720Y-74652017D01*
X113034460Y-74645696D01*
X112787063Y-74579406D01*
X112770687Y-74577250D01*
X112514563Y-74577250D01*
X112498187Y-74579406D01*
X112250790Y-74645696D01*
X112235530Y-74652017D01*
X112013720Y-74780079D01*
X112000616Y-74790134D01*
X111819509Y-74971241D01*
X111809454Y-74984345D01*
X111681392Y-75206155D01*
X111675071Y-75221415D01*
X111608781Y-75468812D01*
X111606625Y-75485188D01*
X111606625Y-75741312D01*
X111608781Y-75757688D01*
X111675071Y-76005085D01*
X111681392Y-76020345D01*
X111809454Y-76242155D01*
X111819509Y-76255259D01*
X111939500Y-76375250D01*
X111819509Y-76495241D01*
X111809454Y-76508345D01*
X111681392Y-76730155D01*
X111675071Y-76745415D01*
X111608781Y-76992812D01*
X111606625Y-77009188D01*
X111606625Y-77265312D01*
X111608781Y-77281688D01*
X111675071Y-77529085D01*
X111681392Y-77544345D01*
X111809454Y-77766155D01*
X111819509Y-77779259D01*
X112000616Y-77960366D01*
X112013720Y-77970421D01*
X112159068Y-78054337D01*
X112054165Y-78082446D01*
X112038905Y-78088767D01*
X111912062Y-78162000D01*
X109626937Y-78162000D01*
X109580627Y-78181182D01*
X109345810Y-78416000D01*
X105206000Y-78416000D01*
X105206000Y-73902438D01*
X106355500Y-73902438D01*
X106355500Y-74158562D01*
X106357656Y-74174938D01*
X106423946Y-74422335D01*
X106430267Y-74437595D01*
X106488525Y-74538500D01*
X106430267Y-74639405D01*
X106423946Y-74654665D01*
X106357656Y-74902062D01*
X106355500Y-74918438D01*
X106355500Y-75174562D01*
X106357656Y-75190938D01*
X106423946Y-75438335D01*
X106430267Y-75453595D01*
X106558329Y-75675405D01*
X106568384Y-75688509D01*
X106749491Y-75869616D01*
X106762595Y-75879671D01*
X106984405Y-76007733D01*
X106999665Y-76014054D01*
X107247062Y-76080344D01*
X107263438Y-76082500D01*
X107519562Y-76082500D01*
X107535938Y-76080344D01*
X107783335Y-76014054D01*
X107798595Y-76007733D01*
X108020405Y-75879671D01*
X108033509Y-75869616D01*
X108214616Y-75688509D01*
X108224671Y-75675405D01*
X108352733Y-75453595D01*
X108359054Y-75438335D01*
X108425344Y-75190938D01*
X108427500Y-75174562D01*
X108427500Y-74918438D01*
X108425344Y-74902062D01*
X108359054Y-74654665D01*
X108352733Y-74639405D01*
X108294475Y-74538500D01*
X108352733Y-74437595D01*
X108359054Y-74422335D01*
X108425344Y-74174938D01*
X108427500Y-74158562D01*
X108427500Y-73902438D01*
X108425344Y-73886062D01*
X108359054Y-73638665D01*
X108352733Y-73623405D01*
X108224671Y-73401595D01*
X108214616Y-73388491D01*
X108033509Y-73207384D01*
X108020405Y-73197329D01*
X107798595Y-73069267D01*
X107783335Y-73062946D01*
X107535938Y-72996656D01*
X107519562Y-72994500D01*
X107263438Y-72994500D01*
X107247062Y-72996656D01*
X106999665Y-73062946D01*
X106984405Y-73069267D01*
X106762595Y-73197329D01*
X106749491Y-73207384D01*
X106568384Y-73388491D01*
X106558329Y-73401595D01*
X106430267Y-73623405D01*
X106423946Y-73638665D01*
X106357656Y-73886062D01*
X106355500Y-73902438D01*
X105206000Y-73902438D01*
X105206000Y-70539938D01*
X110902000Y-70539938D01*
X110902000Y-70796062D01*
X110904156Y-70812438D01*
X110970446Y-71059835D01*
X110976767Y-71075095D01*
X111104829Y-71296905D01*
X111114884Y-71310009D01*
X111295991Y-71491116D01*
X111309095Y-71501171D01*
X111530905Y-71629233D01*
X111546165Y-71635554D01*
X111793562Y-71701844D01*
X111809938Y-71704000D01*
X112066062Y-71704000D01*
X112082438Y-71701844D01*
X112329835Y-71635554D01*
X112345095Y-71629233D01*
X112566905Y-71501171D01*
X112573000Y-71496494D01*
X112579095Y-71501171D01*
X112800905Y-71629233D01*
X112816165Y-71635554D01*
X113063562Y-71701844D01*
X113079938Y-71704000D01*
X113336062Y-71704000D01*
X113352438Y-71701844D01*
X113599835Y-71635554D01*
X113615095Y-71629233D01*
X113836905Y-71501171D01*
X113850009Y-71491116D01*
X114031116Y-71310009D01*
X114041171Y-71296905D01*
X114169233Y-71075095D01*
X114175554Y-71059835D01*
X114241844Y-70812438D01*
X114244000Y-70796062D01*
X114244000Y-70539938D01*
X114241844Y-70523562D01*
X114175554Y-70276165D01*
X114169233Y-70260905D01*
X114041171Y-70039095D01*
X114031116Y-70025991D01*
X113850009Y-69844884D01*
X113836905Y-69834829D01*
X113615095Y-69706767D01*
X113599835Y-69700446D01*
X113352438Y-69634156D01*
X113336062Y-69632000D01*
X113079938Y-69632000D01*
X113063562Y-69634156D01*
X112816165Y-69700446D01*
X112800905Y-69706767D01*
X112579095Y-69834829D01*
X112573000Y-69839506D01*
X112566905Y-69834829D01*
X112345095Y-69706767D01*
X112329835Y-69700446D01*
X112082438Y-69634156D01*
X112066062Y-69632000D01*
X111809938Y-69632000D01*
X111793562Y-69634156D01*
X111546165Y-69700446D01*
X111530905Y-69706767D01*
X111309095Y-69834829D01*
X111295991Y-69844884D01*
X111114884Y-70025991D01*
X111104829Y-70039095D01*
X110976767Y-70260905D01*
X110970446Y-70276165D01*
X110904156Y-70523562D01*
X110902000Y-70539938D01*
X105206000Y-70539938D01*
X105206000Y-69599809D01*
X105132191Y-69526000D01*
X100634000Y-69526000D01*
X100634000Y-68507938D01*
X109124000Y-68507938D01*
X109124000Y-68764062D01*
X109126156Y-68780438D01*
X109192446Y-69027835D01*
X109198767Y-69043095D01*
X109326829Y-69264905D01*
X109336884Y-69278009D01*
X109517991Y-69459116D01*
X109531095Y-69469171D01*
X109752905Y-69597233D01*
X109768165Y-69603554D01*
X110015562Y-69669844D01*
X110031938Y-69672000D01*
X110288062Y-69672000D01*
X110304438Y-69669844D01*
X110551835Y-69603554D01*
X110567095Y-69597233D01*
X110788905Y-69469171D01*
X110802009Y-69459116D01*
X110983116Y-69278009D01*
X110993171Y-69264905D01*
X111121233Y-69043095D01*
X111127554Y-69027835D01*
X111193844Y-68780438D01*
X111196000Y-68764062D01*
X111196000Y-68507938D01*
X111193844Y-68491562D01*
X111127554Y-68244165D01*
X111121233Y-68228905D01*
X110993171Y-68007095D01*
X110983116Y-67993991D01*
X110802009Y-67812884D01*
X110788905Y-67802829D01*
X110567095Y-67674767D01*
X110551835Y-67668446D01*
X110304438Y-67602156D01*
X110288062Y-67600000D01*
X110031938Y-67600000D01*
X110015562Y-67602156D01*
X109768165Y-67668446D01*
X109752905Y-67674767D01*
X109531095Y-67802829D01*
X109517991Y-67812884D01*
X109336884Y-67993991D01*
X109326829Y-68007095D01*
X109198767Y-68228905D01*
X109192446Y-68244165D01*
X109126156Y-68491562D01*
X109124000Y-68507938D01*
X100634000Y-68507938D01*
X100634000Y-65124598D01*
X102764541Y-65124598D01*
X102765035Y-65133164D01*
X102802133Y-65426832D01*
X102803785Y-65435252D01*
X102880397Y-65721168D01*
X102883176Y-65729285D01*
X102997881Y-66002159D01*
X103001736Y-66009824D01*
X103152413Y-66264606D01*
X103157273Y-66271677D01*
X103341134Y-66503652D01*
X103346909Y-66509998D01*
X103560551Y-66714873D01*
X103567133Y-66720377D01*
X103806605Y-66894363D01*
X103813873Y-66898922D01*
X104074740Y-67038798D01*
X104082560Y-67042329D01*
X104359998Y-67145507D01*
X104368224Y-67147944D01*
X104657098Y-67212514D01*
X104665579Y-67213812D01*
X104960543Y-67238581D01*
X104969122Y-67238716D01*
X105264718Y-67223225D01*
X105273236Y-67222194D01*
X105563996Y-67166728D01*
X105572295Y-67164551D01*
X105852836Y-67070138D01*
X105860762Y-67066855D01*
X106125895Y-66935242D01*
X106133303Y-66930914D01*
X106378121Y-66764536D01*
X106384873Y-66759242D01*
X106604846Y-66561178D01*
X106610816Y-66555016D01*
X106677641Y-66475938D01*
X113442000Y-66475938D01*
X113442000Y-66732062D01*
X113444156Y-66748438D01*
X113510446Y-66995835D01*
X113516767Y-67011095D01*
X113644829Y-67232905D01*
X113654884Y-67246009D01*
X113835991Y-67427116D01*
X113849095Y-67437171D01*
X114070905Y-67565233D01*
X114086165Y-67571554D01*
X114333562Y-67637844D01*
X114349938Y-67640000D01*
X114606062Y-67640000D01*
X114622438Y-67637844D01*
X114869835Y-67571554D01*
X114885095Y-67565233D01*
X114986000Y-67506975D01*
X115086905Y-67565233D01*
X115102165Y-67571554D01*
X115349562Y-67637844D01*
X115365938Y-67640000D01*
X115622062Y-67640000D01*
X115638438Y-67637844D01*
X115885835Y-67571554D01*
X115901095Y-67565233D01*
X116028045Y-67491938D01*
X118522000Y-67491938D01*
X118522000Y-67748062D01*
X118524156Y-67764438D01*
X118590446Y-68011835D01*
X118596767Y-68027095D01*
X118724829Y-68248905D01*
X118734884Y-68262009D01*
X118915991Y-68443116D01*
X118929095Y-68453171D01*
X119150905Y-68581233D01*
X119166165Y-68587554D01*
X119413562Y-68653844D01*
X119429938Y-68656000D01*
X119686062Y-68656000D01*
X119702438Y-68653844D01*
X119949835Y-68587554D01*
X119965095Y-68581233D01*
X120186905Y-68453171D01*
X120200009Y-68443116D01*
X120381116Y-68262009D01*
X120391171Y-68248905D01*
X120519233Y-68027095D01*
X120525554Y-68011835D01*
X120591844Y-67764438D01*
X120594000Y-67748062D01*
X120594000Y-67491938D01*
X120591844Y-67475562D01*
X120525554Y-67228165D01*
X120519233Y-67212905D01*
X120391171Y-66991095D01*
X120381116Y-66977991D01*
X120200009Y-66796884D01*
X120186905Y-66786829D01*
X119965095Y-66658767D01*
X119949835Y-66652446D01*
X119702438Y-66586156D01*
X119686062Y-66584000D01*
X119429938Y-66584000D01*
X119413562Y-66586156D01*
X119166165Y-66652446D01*
X119150905Y-66658767D01*
X118929095Y-66786829D01*
X118915991Y-66796884D01*
X118734884Y-66977991D01*
X118724829Y-66991095D01*
X118596767Y-67212905D01*
X118590446Y-67228165D01*
X118524156Y-67475562D01*
X118522000Y-67491938D01*
X116028045Y-67491938D01*
X116122905Y-67437171D01*
X116136009Y-67427116D01*
X116317116Y-67246009D01*
X116327171Y-67232905D01*
X116455233Y-67011095D01*
X116461554Y-66995835D01*
X116527844Y-66748438D01*
X116530000Y-66732062D01*
X116530000Y-66475938D01*
X116527844Y-66459562D01*
X116461554Y-66212165D01*
X116455233Y-66196905D01*
X116327171Y-65975095D01*
X116317116Y-65961991D01*
X116136009Y-65780884D01*
X116122905Y-65770829D01*
X115901095Y-65642767D01*
X115885835Y-65636446D01*
X115638438Y-65570156D01*
X115622062Y-65568000D01*
X115365938Y-65568000D01*
X115349562Y-65570156D01*
X115102165Y-65636446D01*
X115086905Y-65642767D01*
X114986000Y-65701025D01*
X114885095Y-65642767D01*
X114869835Y-65636446D01*
X114622438Y-65570156D01*
X114606062Y-65568000D01*
X114349938Y-65568000D01*
X114333562Y-65570156D01*
X114086165Y-65636446D01*
X114070905Y-65642767D01*
X113849095Y-65770829D01*
X113835991Y-65780884D01*
X113654884Y-65961991D01*
X113644829Y-65975095D01*
X113516767Y-66196905D01*
X113510446Y-66212165D01*
X113444156Y-66459562D01*
X113442000Y-66475938D01*
X106677641Y-66475938D01*
X106801873Y-66328930D01*
X106806953Y-66322015D01*
X106965559Y-66072093D01*
X106969653Y-66064553D01*
X107092873Y-65795417D01*
X107095905Y-65787391D01*
X107181459Y-65504022D01*
X107183375Y-65495659D01*
X107229261Y-65205938D01*
X117506000Y-65205938D01*
X117506000Y-65462062D01*
X117508156Y-65478438D01*
X117574446Y-65725835D01*
X117580767Y-65741095D01*
X117708829Y-65962905D01*
X117718884Y-65976009D01*
X117899991Y-66157116D01*
X117913095Y-66167171D01*
X118134905Y-66295233D01*
X118150165Y-66301554D01*
X118397562Y-66367844D01*
X118413938Y-66370000D01*
X118670062Y-66370000D01*
X118686438Y-66367844D01*
X118933835Y-66301554D01*
X118949095Y-66295233D01*
X119170905Y-66167171D01*
X119184009Y-66157116D01*
X119365116Y-65976009D01*
X119375171Y-65962905D01*
X119503233Y-65741095D01*
X119509554Y-65725835D01*
X119575844Y-65478438D01*
X119578000Y-65462062D01*
X119578000Y-65205938D01*
X119575844Y-65189562D01*
X119558437Y-65124598D01*
X122764541Y-65124598D01*
X122765035Y-65133164D01*
X122802133Y-65426832D01*
X122803785Y-65435252D01*
X122880397Y-65721168D01*
X122883176Y-65729285D01*
X122997881Y-66002159D01*
X123001736Y-66009824D01*
X123152413Y-66264606D01*
X123157273Y-66271677D01*
X123341134Y-66503652D01*
X123346909Y-66509998D01*
X123560551Y-66714873D01*
X123567133Y-66720377D01*
X123806605Y-66894363D01*
X123813873Y-66898922D01*
X124074740Y-67038798D01*
X124082560Y-67042329D01*
X124359998Y-67145507D01*
X124368224Y-67147944D01*
X124657098Y-67212514D01*
X124665579Y-67213812D01*
X124960543Y-67238581D01*
X124969122Y-67238716D01*
X125264718Y-67223225D01*
X125273236Y-67222194D01*
X125563996Y-67166728D01*
X125572295Y-67164551D01*
X125852836Y-67070138D01*
X125860762Y-67066855D01*
X126125895Y-66935242D01*
X126133303Y-66930914D01*
X126378121Y-66764536D01*
X126384873Y-66759242D01*
X126604846Y-66561178D01*
X126610816Y-66555016D01*
X126801873Y-66328930D01*
X126806953Y-66322015D01*
X126965559Y-66072093D01*
X126969653Y-66064553D01*
X127092873Y-65795417D01*
X127095905Y-65787391D01*
X127181459Y-65504022D01*
X127183375Y-65495659D01*
X127229731Y-65202974D01*
X127230505Y-65193766D01*
X127234073Y-64852988D01*
X127233493Y-64843766D01*
X127193276Y-64550176D01*
X127191536Y-64541774D01*
X127111936Y-64256675D01*
X127109072Y-64248588D01*
X126991515Y-63976930D01*
X126987580Y-63969306D01*
X126834243Y-63716116D01*
X126829309Y-63709096D01*
X126643029Y-63479060D01*
X126637188Y-63472775D01*
X126421412Y-63270147D01*
X126414772Y-63264713D01*
X126173493Y-63093244D01*
X126166177Y-63088761D01*
X125903859Y-62951625D01*
X125896003Y-62948176D01*
X125617500Y-62847909D01*
X125609248Y-62845558D01*
X125319715Y-62784016D01*
X125311220Y-62782807D01*
X125016013Y-62761128D01*
X125007433Y-62761083D01*
X124712015Y-62779669D01*
X124703508Y-62780789D01*
X124413346Y-62839297D01*
X124405070Y-62841561D01*
X124125533Y-62938905D01*
X124117641Y-62942272D01*
X123853901Y-63076654D01*
X123846539Y-63081060D01*
X123603476Y-63249992D01*
X123596781Y-63255357D01*
X123378894Y-63455713D01*
X123372988Y-63461937D01*
X123184309Y-63690011D01*
X123179302Y-63696979D01*
X123023323Y-63948549D01*
X123019308Y-63956131D01*
X122898912Y-64226543D01*
X122895964Y-64234601D01*
X122813382Y-64518850D01*
X122811554Y-64527233D01*
X122768313Y-64820059D01*
X122767640Y-64828613D01*
X122764541Y-65124598D01*
X119558437Y-65124598D01*
X119509554Y-64942165D01*
X119503233Y-64926905D01*
X119375171Y-64705095D01*
X119365116Y-64691991D01*
X119184009Y-64510884D01*
X119170905Y-64500829D01*
X118949095Y-64372767D01*
X118933835Y-64366446D01*
X118686438Y-64300156D01*
X118670062Y-64298000D01*
X118413938Y-64298000D01*
X118397562Y-64300156D01*
X118150165Y-64366446D01*
X118134905Y-64372767D01*
X117913095Y-64500829D01*
X117899991Y-64510884D01*
X117718884Y-64691991D01*
X117708829Y-64705095D01*
X117580767Y-64926905D01*
X117574446Y-64942165D01*
X117508156Y-65189562D01*
X117506000Y-65205938D01*
X107229261Y-65205938D01*
X107229731Y-65202974D01*
X107230505Y-65193766D01*
X107234073Y-64852988D01*
X107233493Y-64843766D01*
X107193276Y-64550176D01*
X107191536Y-64541774D01*
X107111936Y-64256675D01*
X107109072Y-64248588D01*
X106991515Y-63976930D01*
X106987580Y-63969306D01*
X106834243Y-63716116D01*
X106829309Y-63709096D01*
X106643029Y-63479060D01*
X106637188Y-63472775D01*
X106589442Y-63427938D01*
X112934000Y-63427938D01*
X112934000Y-63684062D01*
X112936156Y-63700438D01*
X113002446Y-63947835D01*
X113008767Y-63963095D01*
X113136829Y-64184905D01*
X113146884Y-64198009D01*
X113327991Y-64379116D01*
X113341095Y-64389171D01*
X113562905Y-64517233D01*
X113578165Y-64523554D01*
X113825562Y-64589844D01*
X113841938Y-64592000D01*
X114098062Y-64592000D01*
X114114438Y-64589844D01*
X114361835Y-64523554D01*
X114377095Y-64517233D01*
X114598905Y-64389171D01*
X114612009Y-64379116D01*
X114793116Y-64198009D01*
X114803171Y-64184905D01*
X114931233Y-63963095D01*
X114937554Y-63947835D01*
X115003844Y-63700438D01*
X115006000Y-63684062D01*
X115006000Y-63427938D01*
X115474000Y-63427938D01*
X115474000Y-63684062D01*
X115476156Y-63700438D01*
X115542446Y-63947835D01*
X115548767Y-63963095D01*
X115676829Y-64184905D01*
X115686884Y-64198009D01*
X115867991Y-64379116D01*
X115881095Y-64389171D01*
X116102905Y-64517233D01*
X116118165Y-64523554D01*
X116365562Y-64589844D01*
X116381938Y-64592000D01*
X116638062Y-64592000D01*
X116654438Y-64589844D01*
X116901835Y-64523554D01*
X116917095Y-64517233D01*
X117138905Y-64389171D01*
X117152009Y-64379116D01*
X117333116Y-64198009D01*
X117343171Y-64184905D01*
X117471233Y-63963095D01*
X117477554Y-63947835D01*
X117543844Y-63700438D01*
X117546000Y-63684062D01*
X117546000Y-63427938D01*
X117543844Y-63411562D01*
X117477554Y-63164165D01*
X117471233Y-63148905D01*
X117343171Y-62927095D01*
X117333116Y-62913991D01*
X117152009Y-62732884D01*
X117138905Y-62722829D01*
X116917095Y-62594767D01*
X116901835Y-62588446D01*
X116654438Y-62522156D01*
X116638062Y-62520000D01*
X116381938Y-62520000D01*
X116365562Y-62522156D01*
X116118165Y-62588446D01*
X116102905Y-62594767D01*
X115881095Y-62722829D01*
X115867991Y-62732884D01*
X115686884Y-62913991D01*
X115676829Y-62927095D01*
X115548767Y-63148905D01*
X115542446Y-63164165D01*
X115476156Y-63411562D01*
X115474000Y-63427938D01*
X115006000Y-63427938D01*
X115003844Y-63411562D01*
X114937554Y-63164165D01*
X114931233Y-63148905D01*
X114803171Y-62927095D01*
X114793116Y-62913991D01*
X114612009Y-62732884D01*
X114598905Y-62722829D01*
X114377095Y-62594767D01*
X114361835Y-62588446D01*
X114114438Y-62522156D01*
X114098062Y-62520000D01*
X113841938Y-62520000D01*
X113825562Y-62522156D01*
X113578165Y-62588446D01*
X113562905Y-62594767D01*
X113341095Y-62722829D01*
X113327991Y-62732884D01*
X113146884Y-62913991D01*
X113136829Y-62927095D01*
X113008767Y-63148905D01*
X113002446Y-63164165D01*
X112936156Y-63411562D01*
X112934000Y-63427938D01*
X106589442Y-63427938D01*
X106421412Y-63270147D01*
X106414772Y-63264713D01*
X106173493Y-63093244D01*
X106166177Y-63088761D01*
X105903859Y-62951625D01*
X105896003Y-62948176D01*
X105617500Y-62847909D01*
X105609248Y-62845558D01*
X105319715Y-62784016D01*
X105311220Y-62782807D01*
X105016013Y-62761128D01*
X105007433Y-62761083D01*
X104712015Y-62779669D01*
X104703508Y-62780789D01*
X104413346Y-62839297D01*
X104405070Y-62841561D01*
X104125533Y-62938905D01*
X104117641Y-62942272D01*
X103853901Y-63076654D01*
X103846539Y-63081060D01*
X103603476Y-63249992D01*
X103596781Y-63255357D01*
X103378894Y-63455713D01*
X103372988Y-63461937D01*
X103184309Y-63690011D01*
X103179302Y-63696979D01*
X103023323Y-63948549D01*
X103019308Y-63956131D01*
X102898912Y-64226543D01*
X102895964Y-64234601D01*
X102813382Y-64518850D01*
X102811554Y-64527233D01*
X102768313Y-64820059D01*
X102767640Y-64828613D01*
X102764541Y-65124598D01*
X100634000Y-65124598D01*
X100634000Y-65063489D01*
X100636838Y-65049416D01*
X100638001Y-65040137D01*
X100638565Y-65029013D01*
X100638583Y-65028631D01*
X100657119Y-64612411D01*
X100708768Y-64227881D01*
X100794391Y-63849484D01*
X100913319Y-63480170D01*
X101064598Y-63122916D01*
X101247043Y-62780508D01*
X101459203Y-62455672D01*
X101699399Y-62150987D01*
X101965719Y-61868869D01*
X102256077Y-61611529D01*
X102568146Y-61381032D01*
X102899485Y-61179179D01*
X103247445Y-61007584D01*
X103609303Y-60867592D01*
X103982137Y-60760329D01*
X104363060Y-60686631D01*
X104754014Y-60646575D01*
X105022887Y-60638830D01*
X105031807Y-60637935D01*
X105054588Y-60634000D01*
X124936511Y-60634000D01*
X124950584Y-60636838D01*
%TA.AperFunction,Conductor*%
G36*
X124950584Y-60636838D02*
G01*
X124959863Y-60638001D01*
X124970987Y-60638565D01*
X124971369Y-60638583D01*
X125387589Y-60657119D01*
X125772119Y-60708768D01*
X126150516Y-60794391D01*
X126519830Y-60913319D01*
X126877084Y-61064598D01*
X127219492Y-61247043D01*
X127544328Y-61459203D01*
X127849013Y-61699399D01*
X128131131Y-61965719D01*
X128388471Y-62256077D01*
X128618968Y-62568146D01*
X128820821Y-62899485D01*
X128992416Y-63247445D01*
X129132408Y-63609303D01*
X129239671Y-63982137D01*
X129313369Y-64363060D01*
X129353425Y-64754014D01*
X129361170Y-65022887D01*
X129362065Y-65031807D01*
X129366000Y-65054588D01*
X129366000Y-67828048D01*
X129352171Y-67804095D01*
X129342116Y-67790991D01*
X129161009Y-67609884D01*
X129147905Y-67599829D01*
X128926095Y-67471767D01*
X128910835Y-67465446D01*
X128663438Y-67399156D01*
X128647062Y-67397000D01*
X128390938Y-67397000D01*
X128374562Y-67399156D01*
X128127165Y-67465446D01*
X128111905Y-67471767D01*
X127890095Y-67599829D01*
X127876991Y-67609884D01*
X127757000Y-67729875D01*
X127637009Y-67609884D01*
X127623905Y-67599829D01*
X127402095Y-67471767D01*
X127386835Y-67465446D01*
X127139438Y-67399156D01*
X127123062Y-67397000D01*
X126866938Y-67397000D01*
X126850562Y-67399156D01*
X126603165Y-67465446D01*
X126587905Y-67471767D01*
X126366095Y-67599829D01*
X126352991Y-67609884D01*
X126233000Y-67729875D01*
X126113009Y-67609884D01*
X126099905Y-67599829D01*
X125878095Y-67471767D01*
X125862835Y-67465446D01*
X125615438Y-67399156D01*
X125599062Y-67397000D01*
X125342938Y-67397000D01*
X125326562Y-67399156D01*
X125079165Y-67465446D01*
X125063905Y-67471767D01*
X124842095Y-67599829D01*
X124828991Y-67609884D01*
X124647884Y-67790991D01*
X124637829Y-67804095D01*
X124582000Y-67900794D01*
X124526171Y-67804095D01*
X124516116Y-67790991D01*
X124335009Y-67609884D01*
X124321905Y-67599829D01*
X124100095Y-67471767D01*
X124084835Y-67465446D01*
X123837438Y-67399156D01*
X123821062Y-67397000D01*
X123564938Y-67397000D01*
X123548562Y-67399156D01*
X123301165Y-67465446D01*
X123285905Y-67471767D01*
X123064095Y-67599829D01*
X123050991Y-67609884D01*
X122921838Y-67739037D01*
X122928644Y-67713638D01*
X122930800Y-67697262D01*
X122930800Y-67441138D01*
X122928644Y-67424762D01*
X122862354Y-67177365D01*
X122856033Y-67162105D01*
X122727971Y-66940295D01*
X122717916Y-66927191D01*
X122536809Y-66746084D01*
X122523705Y-66736029D01*
X122301895Y-66607967D01*
X122286635Y-66601646D01*
X122039238Y-66535356D01*
X122022862Y-66533200D01*
X121766738Y-66533200D01*
X121750362Y-66535356D01*
X121502965Y-66601646D01*
X121487705Y-66607967D01*
X121265895Y-66736029D01*
X121252791Y-66746084D01*
X121071684Y-66927191D01*
X121061629Y-66940295D01*
X120933567Y-67162105D01*
X120927246Y-67177365D01*
X120860956Y-67424762D01*
X120858800Y-67441138D01*
X120858800Y-67697262D01*
X120860956Y-67713638D01*
X120927246Y-67961035D01*
X120933567Y-67976295D01*
X121061629Y-68198105D01*
X121071684Y-68211209D01*
X121191675Y-68331200D01*
X121020884Y-68501991D01*
X121010829Y-68515095D01*
X120882767Y-68736905D01*
X120876446Y-68752165D01*
X120810156Y-68999562D01*
X120808000Y-69015938D01*
X120808000Y-69272062D01*
X120810156Y-69288438D01*
X120876446Y-69535835D01*
X120882767Y-69551095D01*
X121010829Y-69772905D01*
X121020884Y-69786009D01*
X121201991Y-69967116D01*
X121215095Y-69977171D01*
X121436905Y-70105233D01*
X121452165Y-70111554D01*
X121699562Y-70177844D01*
X121715938Y-70180000D01*
X121718000Y-70180000D01*
X121718000Y-71304000D01*
X121036725Y-71304000D01*
X121033554Y-71292165D01*
X121027233Y-71276905D01*
X120899171Y-71055095D01*
X120889116Y-71041991D01*
X120708009Y-70860884D01*
X120694905Y-70850829D01*
X120473095Y-70722767D01*
X120457835Y-70716446D01*
X120210438Y-70650156D01*
X120194062Y-70648000D01*
X119937938Y-70648000D01*
X119921562Y-70650156D01*
X119674165Y-70716446D01*
X119658905Y-70722767D01*
X119437095Y-70850829D01*
X119423991Y-70860884D01*
X119242884Y-71041991D01*
X119232829Y-71055095D01*
X119104767Y-71276905D01*
X119098446Y-71292165D01*
X119095275Y-71304000D01*
X116711809Y-71304000D01*
X116638000Y-71377809D01*
X116638000Y-74276191D01*
X116711809Y-74350000D01*
X117249526Y-74350000D01*
X117151095Y-74406829D01*
X117137991Y-74416884D01*
X116956884Y-74597991D01*
X116946829Y-74611095D01*
X116818767Y-74832905D01*
X116812446Y-74848165D01*
X116746156Y-75095562D01*
X116744000Y-75111938D01*
X116744000Y-75368062D01*
X116746156Y-75384438D01*
X116812446Y-75631835D01*
X116818767Y-75647095D01*
X116873344Y-75741625D01*
X116818767Y-75836155D01*
X116812446Y-75851415D01*
X116746156Y-76098812D01*
X116744000Y-76115188D01*
X116744000Y-76371312D01*
X116746156Y-76387688D01*
X116812446Y-76635085D01*
X116818767Y-76650345D01*
X116946829Y-76872155D01*
X116956884Y-76885259D01*
X117137991Y-77066366D01*
X117151095Y-77076421D01*
X117372905Y-77204483D01*
X117388165Y-77210804D01*
X117635562Y-77277094D01*
X117651938Y-77279250D01*
X117908062Y-77279250D01*
X117924438Y-77277094D01*
X118171835Y-77210804D01*
X118187095Y-77204483D01*
X118408905Y-77076421D01*
X118422009Y-77066366D01*
X118603116Y-76885259D01*
X118613171Y-76872155D01*
X118741233Y-76650345D01*
X118747554Y-76635085D01*
X118813844Y-76387688D01*
X118816000Y-76371312D01*
X118816000Y-76115188D01*
X118813844Y-76098812D01*
X118747554Y-75851415D01*
X118741233Y-75836155D01*
X118686656Y-75741625D01*
X118741233Y-75647095D01*
X118747554Y-75631835D01*
X118813844Y-75384438D01*
X118816000Y-75368062D01*
X118816000Y-75111938D01*
X118813844Y-75095562D01*
X118747554Y-74848165D01*
X118741233Y-74832905D01*
X118613171Y-74611095D01*
X118603116Y-74597991D01*
X118422009Y-74416884D01*
X118408905Y-74406829D01*
X118310474Y-74350000D01*
X120554000Y-74350000D01*
X120554000Y-74352062D01*
X120556156Y-74368438D01*
X120622446Y-74615835D01*
X120628767Y-74631095D01*
X120756829Y-74852905D01*
X120766884Y-74866009D01*
X120947991Y-75047116D01*
X120961095Y-75057171D01*
X121182905Y-75185233D01*
X121198165Y-75191554D01*
X121445562Y-75257844D01*
X121461938Y-75260000D01*
X121718062Y-75260000D01*
X121734438Y-75257844D01*
X121972000Y-75194189D01*
X121972000Y-80648510D01*
X121915720Y-80616017D01*
X121900460Y-80609696D01*
X121653063Y-80543406D01*
X121636687Y-80541250D01*
X121380563Y-80541250D01*
X121364187Y-80543406D01*
X121116790Y-80609696D01*
X121101530Y-80616017D01*
X120879720Y-80744079D01*
X120866616Y-80754134D01*
X120685509Y-80935241D01*
X120675454Y-80948345D01*
X120547392Y-81170155D01*
X120541071Y-81185415D01*
X120474781Y-81432812D01*
X120472625Y-81449188D01*
X120472625Y-81644572D01*
X120457835Y-81638446D01*
X120210438Y-81572156D01*
X120194062Y-81570000D01*
X119937938Y-81570000D01*
X119921562Y-81572156D01*
X119674165Y-81638446D01*
X119658905Y-81644767D01*
X119437095Y-81772829D01*
X119423991Y-81782884D01*
X119242884Y-81963991D01*
X119232829Y-81977095D01*
X119104767Y-82198905D01*
X119098446Y-82214165D01*
X119032156Y-82461562D01*
X119030000Y-82477938D01*
X119030000Y-82734062D01*
X119032156Y-82750438D01*
X119098446Y-82997835D01*
X119104767Y-83013095D01*
X119163025Y-83114000D01*
X119104767Y-83214905D01*
X119098446Y-83230165D01*
X119032156Y-83477562D01*
X119030000Y-83493938D01*
X119030000Y-83750062D01*
X119032156Y-83766438D01*
X119098446Y-84013835D01*
X119104767Y-84029095D01*
X119232829Y-84250905D01*
X119242884Y-84264009D01*
X119423991Y-84445116D01*
X119437095Y-84455171D01*
X119658905Y-84583233D01*
X119674165Y-84589554D01*
X119921562Y-84655844D01*
X119937938Y-84658000D01*
X120194062Y-84658000D01*
X120210438Y-84655844D01*
X120457835Y-84589554D01*
X120473095Y-84583233D01*
X120694905Y-84455171D01*
X120708009Y-84445116D01*
X120889116Y-84264009D01*
X120899171Y-84250905D01*
X121027233Y-84029095D01*
X121033554Y-84013835D01*
X121099844Y-83766438D01*
X121102000Y-83750062D01*
X121102000Y-83493938D01*
X121099844Y-83477562D01*
X121033554Y-83230165D01*
X121027233Y-83214905D01*
X120968975Y-83114000D01*
X121027233Y-83013095D01*
X121033554Y-82997835D01*
X121099844Y-82750438D01*
X121102000Y-82734062D01*
X121102000Y-82538678D01*
X121116790Y-82544804D01*
X121364187Y-82611094D01*
X121380563Y-82613250D01*
X121636687Y-82613250D01*
X121653063Y-82611094D01*
X121900460Y-82544804D01*
X121915720Y-82538483D01*
X122137530Y-82410421D01*
X122150634Y-82400366D01*
X122327000Y-82224000D01*
X129366001Y-82224000D01*
X129366001Y-84936507D01*
X129363163Y-84950582D01*
X129361999Y-84959862D01*
X129361435Y-84970986D01*
X129361417Y-84971368D01*
X129342881Y-85387589D01*
X129291232Y-85772118D01*
X129205609Y-86150516D01*
X129086681Y-86519830D01*
X128935402Y-86877084D01*
X128752957Y-87219492D01*
X128540797Y-87544328D01*
X128300610Y-87849002D01*
X128034280Y-88131132D01*
X127743923Y-88388471D01*
X127431854Y-88618968D01*
X127100515Y-88820821D01*
X126752555Y-88992416D01*
X126390707Y-89132405D01*
X126017849Y-89239673D01*
X125636940Y-89313369D01*
X125245986Y-89353425D01*
X124977113Y-89361170D01*
X124968193Y-89362065D01*
X124945412Y-89366000D01*
X116199556Y-89366000D01*
X116201233Y-89363095D01*
X116207554Y-89347835D01*
X116273844Y-89100438D01*
X116276000Y-89084062D01*
X116276000Y-88827938D01*
X116273844Y-88811562D01*
X116207554Y-88564165D01*
X116201233Y-88548905D01*
X116073171Y-88327095D01*
X116063116Y-88313991D01*
X115905848Y-88156723D01*
X116111562Y-88211844D01*
X116127938Y-88214000D01*
X116384062Y-88214000D01*
X116400438Y-88211844D01*
X116647835Y-88145554D01*
X116663095Y-88139233D01*
X116884905Y-88011171D01*
X116898009Y-88001116D01*
X117079116Y-87820009D01*
X117089171Y-87806905D01*
X117217233Y-87585095D01*
X117223554Y-87569835D01*
X117289844Y-87322438D01*
X117292000Y-87306062D01*
X117292000Y-87049938D01*
X117289844Y-87033562D01*
X117223554Y-86786165D01*
X117217233Y-86770905D01*
X117089171Y-86549095D01*
X117079116Y-86535991D01*
X116898009Y-86354884D01*
X116884905Y-86344829D01*
X116663095Y-86216767D01*
X116647835Y-86210446D01*
X116400438Y-86144156D01*
X116384062Y-86142000D01*
X116127938Y-86142000D01*
X116111562Y-86144156D01*
X115864165Y-86210446D01*
X115848905Y-86216767D01*
X115627095Y-86344829D01*
X115613991Y-86354884D01*
X115432884Y-86535991D01*
X115422829Y-86549095D01*
X115294767Y-86770905D01*
X115288446Y-86786165D01*
X115222156Y-87033562D01*
X115220000Y-87049938D01*
X115220000Y-87306062D01*
X115222156Y-87322438D01*
X115288446Y-87569835D01*
X115294767Y-87585095D01*
X115422829Y-87806905D01*
X115432884Y-87820009D01*
X115590152Y-87977277D01*
X115384438Y-87922156D01*
X115368062Y-87920000D01*
X115111938Y-87920000D01*
X115095562Y-87922156D01*
X114848165Y-87988446D01*
X114832905Y-87994767D01*
X114611095Y-88122829D01*
X114597991Y-88132884D01*
X114416884Y-88313991D01*
X114406829Y-88327095D01*
X114278767Y-88548905D01*
X114272446Y-88564165D01*
X114206156Y-88811562D01*
X114204000Y-88827938D01*
X114204000Y-89084062D01*
X114206156Y-89100438D01*
X114272446Y-89347835D01*
X114278767Y-89363095D01*
X114280444Y-89366000D01*
X105063490Y-89366000D01*
X105049417Y-89363162D01*
X105040138Y-89361999D01*
X105029014Y-89361435D01*
X105028632Y-89361417D01*
X104612411Y-89342881D01*
X104227882Y-89291232D01*
X103849484Y-89205609D01*
X103480170Y-89086681D01*
X103122916Y-88935402D01*
X102780508Y-88752957D01*
X102455672Y-88540797D01*
X102150998Y-88300610D01*
X101868868Y-88034280D01*
X101611529Y-87743923D01*
X101381032Y-87431854D01*
X101179179Y-87100515D01*
X101007584Y-86752555D01*
X100867595Y-86390707D01*
X100760327Y-86017849D01*
X100686631Y-85636940D01*
X100646575Y-85245986D01*
X100643079Y-85124598D01*
X102764541Y-85124598D01*
X102765035Y-85133164D01*
X102802133Y-85426832D01*
X102803785Y-85435252D01*
X102880397Y-85721168D01*
X102883176Y-85729285D01*
X102997881Y-86002159D01*
X103001736Y-86009824D01*
X103152413Y-86264606D01*
X103157273Y-86271677D01*
X103341134Y-86503652D01*
X103346909Y-86509998D01*
X103560551Y-86714873D01*
X103567133Y-86720377D01*
X103806605Y-86894363D01*
X103813873Y-86898922D01*
X104074740Y-87038798D01*
X104082560Y-87042329D01*
X104359998Y-87145507D01*
X104368224Y-87147944D01*
X104657098Y-87212514D01*
X104665579Y-87213812D01*
X104960543Y-87238581D01*
X104969122Y-87238716D01*
X105264718Y-87223225D01*
X105273236Y-87222194D01*
X105563996Y-87166728D01*
X105572295Y-87164551D01*
X105852836Y-87070138D01*
X105860762Y-87066855D01*
X106125895Y-86935242D01*
X106133303Y-86930914D01*
X106378121Y-86764536D01*
X106384873Y-86759242D01*
X106604846Y-86561178D01*
X106610816Y-86555016D01*
X106801873Y-86328930D01*
X106806953Y-86322015D01*
X106965559Y-86072093D01*
X106969653Y-86064553D01*
X107092873Y-85795417D01*
X107095905Y-85787391D01*
X107181459Y-85504022D01*
X107183375Y-85495659D01*
X107229731Y-85202974D01*
X107230505Y-85193766D01*
X107231229Y-85124598D01*
X122764541Y-85124598D01*
X122765035Y-85133164D01*
X122802133Y-85426832D01*
X122803785Y-85435252D01*
X122880397Y-85721168D01*
X122883176Y-85729285D01*
X122997881Y-86002159D01*
X123001736Y-86009824D01*
X123152413Y-86264606D01*
X123157273Y-86271677D01*
X123341134Y-86503652D01*
X123346909Y-86509998D01*
X123560551Y-86714873D01*
X123567133Y-86720377D01*
X123806605Y-86894363D01*
X123813873Y-86898922D01*
X124074740Y-87038798D01*
X124082560Y-87042329D01*
X124359998Y-87145507D01*
X124368224Y-87147944D01*
X124657098Y-87212514D01*
X124665579Y-87213812D01*
X124960543Y-87238581D01*
X124969122Y-87238716D01*
X125264718Y-87223225D01*
X125273236Y-87222194D01*
X125563996Y-87166728D01*
X125572295Y-87164551D01*
X125852836Y-87070138D01*
X125860762Y-87066855D01*
X126125895Y-86935242D01*
X126133303Y-86930914D01*
X126378121Y-86764536D01*
X126384873Y-86759242D01*
X126604846Y-86561178D01*
X126610816Y-86555016D01*
X126801873Y-86328930D01*
X126806953Y-86322015D01*
X126965559Y-86072093D01*
X126969653Y-86064553D01*
X127092873Y-85795417D01*
X127095905Y-85787391D01*
X127181459Y-85504022D01*
X127183375Y-85495659D01*
X127229731Y-85202974D01*
X127230505Y-85193766D01*
X127234073Y-84852988D01*
X127233493Y-84843766D01*
X127193276Y-84550176D01*
X127191536Y-84541774D01*
X127111936Y-84256675D01*
X127109072Y-84248588D01*
X126991515Y-83976930D01*
X126987580Y-83969306D01*
X126834243Y-83716116D01*
X126829309Y-83709096D01*
X126643029Y-83479060D01*
X126637188Y-83472775D01*
X126421412Y-83270147D01*
X126414772Y-83264713D01*
X126173493Y-83093244D01*
X126166177Y-83088761D01*
X125903859Y-82951625D01*
X125896003Y-82948176D01*
X125617500Y-82847909D01*
X125609248Y-82845558D01*
X125319715Y-82784016D01*
X125311220Y-82782807D01*
X125016013Y-82761128D01*
X125007433Y-82761083D01*
X124712015Y-82779669D01*
X124703508Y-82780789D01*
X124413346Y-82839297D01*
X124405070Y-82841561D01*
X124125533Y-82938905D01*
X124117641Y-82942272D01*
X123853901Y-83076654D01*
X123846539Y-83081060D01*
X123603476Y-83249992D01*
X123596781Y-83255357D01*
X123378894Y-83455713D01*
X123372988Y-83461937D01*
X123184309Y-83690011D01*
X123179302Y-83696979D01*
X123023323Y-83948549D01*
X123019308Y-83956131D01*
X122898912Y-84226543D01*
X122895964Y-84234601D01*
X122813382Y-84518850D01*
X122811554Y-84527233D01*
X122768313Y-84820059D01*
X122767640Y-84828613D01*
X122764541Y-85124598D01*
X107231229Y-85124598D01*
X107234073Y-84852988D01*
X107233493Y-84843766D01*
X107193276Y-84550176D01*
X107191536Y-84541774D01*
X107111936Y-84256675D01*
X107109072Y-84248588D01*
X106991515Y-83976930D01*
X106987580Y-83969306D01*
X106834243Y-83716116D01*
X106829309Y-83709096D01*
X106643029Y-83479060D01*
X106637188Y-83472775D01*
X106421412Y-83270147D01*
X106414772Y-83264713D01*
X106173493Y-83093244D01*
X106166177Y-83088761D01*
X105903859Y-82951625D01*
X105896003Y-82948176D01*
X105617500Y-82847909D01*
X105609248Y-82845558D01*
X105319715Y-82784016D01*
X105311220Y-82782807D01*
X105016013Y-82761128D01*
X105007433Y-82761083D01*
X104712015Y-82779669D01*
X104703508Y-82780789D01*
X104413346Y-82839297D01*
X104405070Y-82841561D01*
X104125533Y-82938905D01*
X104117641Y-82942272D01*
X103853901Y-83076654D01*
X103846539Y-83081060D01*
X103603476Y-83249992D01*
X103596781Y-83255357D01*
X103378894Y-83455713D01*
X103372988Y-83461937D01*
X103184309Y-83690011D01*
X103179302Y-83696979D01*
X103023323Y-83948549D01*
X103019308Y-83956131D01*
X102898912Y-84226543D01*
X102895964Y-84234601D01*
X102813382Y-84518850D01*
X102811554Y-84527233D01*
X102768313Y-84820059D01*
X102767640Y-84828613D01*
X102764541Y-85124598D01*
X100643079Y-85124598D01*
X100638830Y-84977113D01*
X100637935Y-84968193D01*
X100634000Y-84945412D01*
X100634000Y-82732000D01*
X100836136Y-82732000D01*
X100940895Y-82792483D01*
X100956155Y-82798804D01*
X101203552Y-82865094D01*
X101219928Y-82867250D01*
X101476052Y-82867250D01*
X101492428Y-82865094D01*
X101739825Y-82798804D01*
X101755085Y-82792483D01*
X101859844Y-82732000D01*
X105132191Y-82732000D01*
X105206000Y-82658191D01*
X105206000Y-81716000D01*
X106903811Y-81716000D01*
X106840156Y-81953562D01*
X106838000Y-81969938D01*
X106838000Y-82226062D01*
X106840156Y-82242438D01*
X106906446Y-82489835D01*
X106912767Y-82505095D01*
X107040829Y-82726905D01*
X107050884Y-82740009D01*
X107231991Y-82921116D01*
X107245095Y-82931171D01*
X107466905Y-83059233D01*
X107482165Y-83065554D01*
X107729562Y-83131844D01*
X107745938Y-83134000D01*
X108002062Y-83134000D01*
X108018438Y-83131844D01*
X108265835Y-83065554D01*
X108281095Y-83059233D01*
X108408045Y-82985938D01*
X110140000Y-82985938D01*
X110140000Y-83242062D01*
X110142156Y-83258438D01*
X110208446Y-83505835D01*
X110214767Y-83521095D01*
X110342829Y-83742905D01*
X110352884Y-83756009D01*
X110533991Y-83937116D01*
X110547095Y-83947171D01*
X110768905Y-84075233D01*
X110784165Y-84081554D01*
X111031562Y-84147844D01*
X111047938Y-84150000D01*
X111304062Y-84150000D01*
X111320438Y-84147844D01*
X111567835Y-84081554D01*
X111583095Y-84075233D01*
X111804905Y-83947171D01*
X111818009Y-83937116D01*
X111938000Y-83817125D01*
X112057991Y-83937116D01*
X112071095Y-83947171D01*
X112292905Y-84075233D01*
X112308165Y-84081554D01*
X112555562Y-84147844D01*
X112571938Y-84150000D01*
X112828062Y-84150000D01*
X112844438Y-84147844D01*
X113091835Y-84081554D01*
X113107095Y-84075233D01*
X113328905Y-83947171D01*
X113342009Y-83937116D01*
X113523116Y-83756009D01*
X113533171Y-83742905D01*
X113661233Y-83521095D01*
X113667554Y-83505835D01*
X113733844Y-83258438D01*
X113736000Y-83242062D01*
X113736000Y-82985938D01*
X114712000Y-82985938D01*
X114712000Y-83242062D01*
X114714156Y-83258438D01*
X114780446Y-83505835D01*
X114786767Y-83521095D01*
X114914829Y-83742905D01*
X114924884Y-83756009D01*
X115105991Y-83937116D01*
X115119095Y-83947171D01*
X115340905Y-84075233D01*
X115356165Y-84081554D01*
X115603562Y-84147844D01*
X115619938Y-84150000D01*
X115876062Y-84150000D01*
X115892438Y-84147844D01*
X116139835Y-84081554D01*
X116155095Y-84075233D01*
X116256000Y-84016975D01*
X116356905Y-84075233D01*
X116372165Y-84081554D01*
X116619562Y-84147844D01*
X116635938Y-84150000D01*
X116892062Y-84150000D01*
X116908438Y-84147844D01*
X117155835Y-84081554D01*
X117171095Y-84075233D01*
X117392905Y-83947171D01*
X117406009Y-83937116D01*
X117587116Y-83756009D01*
X117597171Y-83742905D01*
X117725233Y-83521095D01*
X117731554Y-83505835D01*
X117797844Y-83258438D01*
X117800000Y-83242062D01*
X117800000Y-82985938D01*
X117797844Y-82969562D01*
X117731554Y-82722165D01*
X117725233Y-82706905D01*
X117597171Y-82485095D01*
X117587116Y-82471991D01*
X117406009Y-82290884D01*
X117392905Y-82280829D01*
X117171095Y-82152767D01*
X117155835Y-82146446D01*
X116908438Y-82080156D01*
X116892062Y-82078000D01*
X116635938Y-82078000D01*
X116619562Y-82080156D01*
X116372165Y-82146446D01*
X116356905Y-82152767D01*
X116256000Y-82211025D01*
X116155095Y-82152767D01*
X116139835Y-82146446D01*
X115892438Y-82080156D01*
X115876062Y-82078000D01*
X115619938Y-82078000D01*
X115603562Y-82080156D01*
X115356165Y-82146446D01*
X115340905Y-82152767D01*
X115119095Y-82280829D01*
X115105991Y-82290884D01*
X114924884Y-82471991D01*
X114914829Y-82485095D01*
X114786767Y-82706905D01*
X114780446Y-82722165D01*
X114714156Y-82969562D01*
X114712000Y-82985938D01*
X113736000Y-82985938D01*
X113733844Y-82969562D01*
X113667554Y-82722165D01*
X113661233Y-82706905D01*
X113533171Y-82485095D01*
X113523116Y-82471991D01*
X113342009Y-82290884D01*
X113328905Y-82280829D01*
X113107095Y-82152767D01*
X113091835Y-82146446D01*
X112844438Y-82080156D01*
X112828062Y-82078000D01*
X112571938Y-82078000D01*
X112555562Y-82080156D01*
X112308165Y-82146446D01*
X112292905Y-82152767D01*
X112071095Y-82280829D01*
X112057991Y-82290884D01*
X111938000Y-82410875D01*
X111818009Y-82290884D01*
X111804905Y-82280829D01*
X111583095Y-82152767D01*
X111567835Y-82146446D01*
X111320438Y-82080156D01*
X111304062Y-82078000D01*
X111047938Y-82078000D01*
X111031562Y-82080156D01*
X110784165Y-82146446D01*
X110768905Y-82152767D01*
X110547095Y-82280829D01*
X110533991Y-82290884D01*
X110352884Y-82471991D01*
X110342829Y-82485095D01*
X110214767Y-82706905D01*
X110208446Y-82722165D01*
X110142156Y-82969562D01*
X110140000Y-82985938D01*
X108408045Y-82985938D01*
X108502905Y-82931171D01*
X108516009Y-82921116D01*
X108697116Y-82740009D01*
X108707171Y-82726905D01*
X108835233Y-82505095D01*
X108841554Y-82489835D01*
X108907844Y-82242438D01*
X108910000Y-82226062D01*
X108910000Y-81969938D01*
X108907844Y-81953562D01*
X108841554Y-81706165D01*
X108835233Y-81690905D01*
X108707171Y-81469095D01*
X108697116Y-81455991D01*
X108568658Y-81327533D01*
X109958190Y-79938000D01*
X111912062Y-79938000D01*
X112038905Y-80011233D01*
X112054165Y-80017554D01*
X112301562Y-80083844D01*
X112317938Y-80086000D01*
X112574062Y-80086000D01*
X112590438Y-80083844D01*
X112837835Y-80017554D01*
X112853095Y-80011233D01*
X113074905Y-79883171D01*
X113088009Y-79873116D01*
X113269116Y-79692009D01*
X113279171Y-79678905D01*
X113407233Y-79457095D01*
X113413554Y-79441835D01*
X113479844Y-79194438D01*
X113482000Y-79178062D01*
X113482000Y-78921938D01*
X113479844Y-78905562D01*
X113413554Y-78658165D01*
X113407233Y-78642905D01*
X113279171Y-78421095D01*
X113269116Y-78407991D01*
X113088009Y-78226884D01*
X113074905Y-78216829D01*
X112929557Y-78132913D01*
X113034460Y-78104804D01*
X113049720Y-78098483D01*
X113271530Y-77970421D01*
X113284634Y-77960366D01*
X113465741Y-77779259D01*
X113475796Y-77766155D01*
X113603858Y-77544345D01*
X113610179Y-77529085D01*
X113676469Y-77281688D01*
X113678625Y-77265312D01*
X113678625Y-77009188D01*
X113676469Y-76992812D01*
X113610179Y-76745415D01*
X113603858Y-76730155D01*
X113475796Y-76508345D01*
X113465741Y-76495241D01*
X113345750Y-76375250D01*
X113465741Y-76255259D01*
X113475796Y-76242155D01*
X113603858Y-76020345D01*
X113610179Y-76005085D01*
X113676469Y-75757688D01*
X113678625Y-75741312D01*
X113678625Y-75485188D01*
X113676469Y-75468812D01*
X113610179Y-75221415D01*
X113603858Y-75206155D01*
X113475796Y-74984345D01*
X113465741Y-74971241D01*
X113284634Y-74790134D01*
X113271530Y-74780079D01*
X113049720Y-74652017D01*
X113034460Y-74645696D01*
X112787063Y-74579406D01*
X112770687Y-74577250D01*
X112514563Y-74577250D01*
X112498187Y-74579406D01*
X112250790Y-74645696D01*
X112235530Y-74652017D01*
X112013720Y-74780079D01*
X112000616Y-74790134D01*
X111819509Y-74971241D01*
X111809454Y-74984345D01*
X111681392Y-75206155D01*
X111675071Y-75221415D01*
X111608781Y-75468812D01*
X111606625Y-75485188D01*
X111606625Y-75741312D01*
X111608781Y-75757688D01*
X111675071Y-76005085D01*
X111681392Y-76020345D01*
X111809454Y-76242155D01*
X111819509Y-76255259D01*
X111939500Y-76375250D01*
X111819509Y-76495241D01*
X111809454Y-76508345D01*
X111681392Y-76730155D01*
X111675071Y-76745415D01*
X111608781Y-76992812D01*
X111606625Y-77009188D01*
X111606625Y-77265312D01*
X111608781Y-77281688D01*
X111675071Y-77529085D01*
X111681392Y-77544345D01*
X111809454Y-77766155D01*
X111819509Y-77779259D01*
X112000616Y-77960366D01*
X112013720Y-77970421D01*
X112159068Y-78054337D01*
X112054165Y-78082446D01*
X112038905Y-78088767D01*
X111912062Y-78162000D01*
X109626937Y-78162000D01*
X109580627Y-78181182D01*
X109345810Y-78416000D01*
X105206000Y-78416000D01*
X105206000Y-73902438D01*
X106355500Y-73902438D01*
X106355500Y-74158562D01*
X106357656Y-74174938D01*
X106423946Y-74422335D01*
X106430267Y-74437595D01*
X106488525Y-74538500D01*
X106430267Y-74639405D01*
X106423946Y-74654665D01*
X106357656Y-74902062D01*
X106355500Y-74918438D01*
X106355500Y-75174562D01*
X106357656Y-75190938D01*
X106423946Y-75438335D01*
X106430267Y-75453595D01*
X106558329Y-75675405D01*
X106568384Y-75688509D01*
X106749491Y-75869616D01*
X106762595Y-75879671D01*
X106984405Y-76007733D01*
X106999665Y-76014054D01*
X107247062Y-76080344D01*
X107263438Y-76082500D01*
X107519562Y-76082500D01*
X107535938Y-76080344D01*
X107783335Y-76014054D01*
X107798595Y-76007733D01*
X108020405Y-75879671D01*
X108033509Y-75869616D01*
X108214616Y-75688509D01*
X108224671Y-75675405D01*
X108352733Y-75453595D01*
X108359054Y-75438335D01*
X108425344Y-75190938D01*
X108427500Y-75174562D01*
X108427500Y-74918438D01*
X108425344Y-74902062D01*
X108359054Y-74654665D01*
X108352733Y-74639405D01*
X108294475Y-74538500D01*
X108352733Y-74437595D01*
X108359054Y-74422335D01*
X108425344Y-74174938D01*
X108427500Y-74158562D01*
X108427500Y-73902438D01*
X108425344Y-73886062D01*
X108359054Y-73638665D01*
X108352733Y-73623405D01*
X108224671Y-73401595D01*
X108214616Y-73388491D01*
X108033509Y-73207384D01*
X108020405Y-73197329D01*
X107798595Y-73069267D01*
X107783335Y-73062946D01*
X107535938Y-72996656D01*
X107519562Y-72994500D01*
X107263438Y-72994500D01*
X107247062Y-72996656D01*
X106999665Y-73062946D01*
X106984405Y-73069267D01*
X106762595Y-73197329D01*
X106749491Y-73207384D01*
X106568384Y-73388491D01*
X106558329Y-73401595D01*
X106430267Y-73623405D01*
X106423946Y-73638665D01*
X106357656Y-73886062D01*
X106355500Y-73902438D01*
X105206000Y-73902438D01*
X105206000Y-70539938D01*
X110902000Y-70539938D01*
X110902000Y-70796062D01*
X110904156Y-70812438D01*
X110970446Y-71059835D01*
X110976767Y-71075095D01*
X111104829Y-71296905D01*
X111114884Y-71310009D01*
X111295991Y-71491116D01*
X111309095Y-71501171D01*
X111530905Y-71629233D01*
X111546165Y-71635554D01*
X111793562Y-71701844D01*
X111809938Y-71704000D01*
X112066062Y-71704000D01*
X112082438Y-71701844D01*
X112329835Y-71635554D01*
X112345095Y-71629233D01*
X112566905Y-71501171D01*
X112573000Y-71496494D01*
X112579095Y-71501171D01*
X112800905Y-71629233D01*
X112816165Y-71635554D01*
X113063562Y-71701844D01*
X113079938Y-71704000D01*
X113336062Y-71704000D01*
X113352438Y-71701844D01*
X113599835Y-71635554D01*
X113615095Y-71629233D01*
X113836905Y-71501171D01*
X113850009Y-71491116D01*
X114031116Y-71310009D01*
X114041171Y-71296905D01*
X114169233Y-71075095D01*
X114175554Y-71059835D01*
X114241844Y-70812438D01*
X114244000Y-70796062D01*
X114244000Y-70539938D01*
X114241844Y-70523562D01*
X114175554Y-70276165D01*
X114169233Y-70260905D01*
X114041171Y-70039095D01*
X114031116Y-70025991D01*
X113850009Y-69844884D01*
X113836905Y-69834829D01*
X113615095Y-69706767D01*
X113599835Y-69700446D01*
X113352438Y-69634156D01*
X113336062Y-69632000D01*
X113079938Y-69632000D01*
X113063562Y-69634156D01*
X112816165Y-69700446D01*
X112800905Y-69706767D01*
X112579095Y-69834829D01*
X112573000Y-69839506D01*
X112566905Y-69834829D01*
X112345095Y-69706767D01*
X112329835Y-69700446D01*
X112082438Y-69634156D01*
X112066062Y-69632000D01*
X111809938Y-69632000D01*
X111793562Y-69634156D01*
X111546165Y-69700446D01*
X111530905Y-69706767D01*
X111309095Y-69834829D01*
X111295991Y-69844884D01*
X111114884Y-70025991D01*
X111104829Y-70039095D01*
X110976767Y-70260905D01*
X110970446Y-70276165D01*
X110904156Y-70523562D01*
X110902000Y-70539938D01*
X105206000Y-70539938D01*
X105206000Y-69599809D01*
X105132191Y-69526000D01*
X100634000Y-69526000D01*
X100634000Y-68507938D01*
X109124000Y-68507938D01*
X109124000Y-68764062D01*
X109126156Y-68780438D01*
X109192446Y-69027835D01*
X109198767Y-69043095D01*
X109326829Y-69264905D01*
X109336884Y-69278009D01*
X109517991Y-69459116D01*
X109531095Y-69469171D01*
X109752905Y-69597233D01*
X109768165Y-69603554D01*
X110015562Y-69669844D01*
X110031938Y-69672000D01*
X110288062Y-69672000D01*
X110304438Y-69669844D01*
X110551835Y-69603554D01*
X110567095Y-69597233D01*
X110788905Y-69469171D01*
X110802009Y-69459116D01*
X110983116Y-69278009D01*
X110993171Y-69264905D01*
X111121233Y-69043095D01*
X111127554Y-69027835D01*
X111193844Y-68780438D01*
X111196000Y-68764062D01*
X111196000Y-68507938D01*
X111193844Y-68491562D01*
X111127554Y-68244165D01*
X111121233Y-68228905D01*
X110993171Y-68007095D01*
X110983116Y-67993991D01*
X110802009Y-67812884D01*
X110788905Y-67802829D01*
X110567095Y-67674767D01*
X110551835Y-67668446D01*
X110304438Y-67602156D01*
X110288062Y-67600000D01*
X110031938Y-67600000D01*
X110015562Y-67602156D01*
X109768165Y-67668446D01*
X109752905Y-67674767D01*
X109531095Y-67802829D01*
X109517991Y-67812884D01*
X109336884Y-67993991D01*
X109326829Y-68007095D01*
X109198767Y-68228905D01*
X109192446Y-68244165D01*
X109126156Y-68491562D01*
X109124000Y-68507938D01*
X100634000Y-68507938D01*
X100634000Y-65124598D01*
X102764541Y-65124598D01*
X102765035Y-65133164D01*
X102802133Y-65426832D01*
X102803785Y-65435252D01*
X102880397Y-65721168D01*
X102883176Y-65729285D01*
X102997881Y-66002159D01*
X103001736Y-66009824D01*
X103152413Y-66264606D01*
X103157273Y-66271677D01*
X103341134Y-66503652D01*
X103346909Y-66509998D01*
X103560551Y-66714873D01*
X103567133Y-66720377D01*
X103806605Y-66894363D01*
X103813873Y-66898922D01*
X104074740Y-67038798D01*
X104082560Y-67042329D01*
X104359998Y-67145507D01*
X104368224Y-67147944D01*
X104657098Y-67212514D01*
X104665579Y-67213812D01*
X104960543Y-67238581D01*
X104969122Y-67238716D01*
X105264718Y-67223225D01*
X105273236Y-67222194D01*
X105563996Y-67166728D01*
X105572295Y-67164551D01*
X105852836Y-67070138D01*
X105860762Y-67066855D01*
X106125895Y-66935242D01*
X106133303Y-66930914D01*
X106378121Y-66764536D01*
X106384873Y-66759242D01*
X106604846Y-66561178D01*
X106610816Y-66555016D01*
X106677641Y-66475938D01*
X113442000Y-66475938D01*
X113442000Y-66732062D01*
X113444156Y-66748438D01*
X113510446Y-66995835D01*
X113516767Y-67011095D01*
X113644829Y-67232905D01*
X113654884Y-67246009D01*
X113835991Y-67427116D01*
X113849095Y-67437171D01*
X114070905Y-67565233D01*
X114086165Y-67571554D01*
X114333562Y-67637844D01*
X114349938Y-67640000D01*
X114606062Y-67640000D01*
X114622438Y-67637844D01*
X114869835Y-67571554D01*
X114885095Y-67565233D01*
X114986000Y-67506975D01*
X115086905Y-67565233D01*
X115102165Y-67571554D01*
X115349562Y-67637844D01*
X115365938Y-67640000D01*
X115622062Y-67640000D01*
X115638438Y-67637844D01*
X115885835Y-67571554D01*
X115901095Y-67565233D01*
X116028045Y-67491938D01*
X118522000Y-67491938D01*
X118522000Y-67748062D01*
X118524156Y-67764438D01*
X118590446Y-68011835D01*
X118596767Y-68027095D01*
X118724829Y-68248905D01*
X118734884Y-68262009D01*
X118915991Y-68443116D01*
X118929095Y-68453171D01*
X119150905Y-68581233D01*
X119166165Y-68587554D01*
X119413562Y-68653844D01*
X119429938Y-68656000D01*
X119686062Y-68656000D01*
X119702438Y-68653844D01*
X119949835Y-68587554D01*
X119965095Y-68581233D01*
X120186905Y-68453171D01*
X120200009Y-68443116D01*
X120381116Y-68262009D01*
X120391171Y-68248905D01*
X120519233Y-68027095D01*
X120525554Y-68011835D01*
X120591844Y-67764438D01*
X120594000Y-67748062D01*
X120594000Y-67491938D01*
X120591844Y-67475562D01*
X120525554Y-67228165D01*
X120519233Y-67212905D01*
X120391171Y-66991095D01*
X120381116Y-66977991D01*
X120200009Y-66796884D01*
X120186905Y-66786829D01*
X119965095Y-66658767D01*
X119949835Y-66652446D01*
X119702438Y-66586156D01*
X119686062Y-66584000D01*
X119429938Y-66584000D01*
X119413562Y-66586156D01*
X119166165Y-66652446D01*
X119150905Y-66658767D01*
X118929095Y-66786829D01*
X118915991Y-66796884D01*
X118734884Y-66977991D01*
X118724829Y-66991095D01*
X118596767Y-67212905D01*
X118590446Y-67228165D01*
X118524156Y-67475562D01*
X118522000Y-67491938D01*
X116028045Y-67491938D01*
X116122905Y-67437171D01*
X116136009Y-67427116D01*
X116317116Y-67246009D01*
X116327171Y-67232905D01*
X116455233Y-67011095D01*
X116461554Y-66995835D01*
X116527844Y-66748438D01*
X116530000Y-66732062D01*
X116530000Y-66475938D01*
X116527844Y-66459562D01*
X116461554Y-66212165D01*
X116455233Y-66196905D01*
X116327171Y-65975095D01*
X116317116Y-65961991D01*
X116136009Y-65780884D01*
X116122905Y-65770829D01*
X115901095Y-65642767D01*
X115885835Y-65636446D01*
X115638438Y-65570156D01*
X115622062Y-65568000D01*
X115365938Y-65568000D01*
X115349562Y-65570156D01*
X115102165Y-65636446D01*
X115086905Y-65642767D01*
X114986000Y-65701025D01*
X114885095Y-65642767D01*
X114869835Y-65636446D01*
X114622438Y-65570156D01*
X114606062Y-65568000D01*
X114349938Y-65568000D01*
X114333562Y-65570156D01*
X114086165Y-65636446D01*
X114070905Y-65642767D01*
X113849095Y-65770829D01*
X113835991Y-65780884D01*
X113654884Y-65961991D01*
X113644829Y-65975095D01*
X113516767Y-66196905D01*
X113510446Y-66212165D01*
X113444156Y-66459562D01*
X113442000Y-66475938D01*
X106677641Y-66475938D01*
X106801873Y-66328930D01*
X106806953Y-66322015D01*
X106965559Y-66072093D01*
X106969653Y-66064553D01*
X107092873Y-65795417D01*
X107095905Y-65787391D01*
X107181459Y-65504022D01*
X107183375Y-65495659D01*
X107229261Y-65205938D01*
X117506000Y-65205938D01*
X117506000Y-65462062D01*
X117508156Y-65478438D01*
X117574446Y-65725835D01*
X117580767Y-65741095D01*
X117708829Y-65962905D01*
X117718884Y-65976009D01*
X117899991Y-66157116D01*
X117913095Y-66167171D01*
X118134905Y-66295233D01*
X118150165Y-66301554D01*
X118397562Y-66367844D01*
X118413938Y-66370000D01*
X118670062Y-66370000D01*
X118686438Y-66367844D01*
X118933835Y-66301554D01*
X118949095Y-66295233D01*
X119170905Y-66167171D01*
X119184009Y-66157116D01*
X119365116Y-65976009D01*
X119375171Y-65962905D01*
X119503233Y-65741095D01*
X119509554Y-65725835D01*
X119575844Y-65478438D01*
X119578000Y-65462062D01*
X119578000Y-65205938D01*
X119575844Y-65189562D01*
X119558437Y-65124598D01*
X122764541Y-65124598D01*
X122765035Y-65133164D01*
X122802133Y-65426832D01*
X122803785Y-65435252D01*
X122880397Y-65721168D01*
X122883176Y-65729285D01*
X122997881Y-66002159D01*
X123001736Y-66009824D01*
X123152413Y-66264606D01*
X123157273Y-66271677D01*
X123341134Y-66503652D01*
X123346909Y-66509998D01*
X123560551Y-66714873D01*
X123567133Y-66720377D01*
X123806605Y-66894363D01*
X123813873Y-66898922D01*
X124074740Y-67038798D01*
X124082560Y-67042329D01*
X124359998Y-67145507D01*
X124368224Y-67147944D01*
X124657098Y-67212514D01*
X124665579Y-67213812D01*
X124960543Y-67238581D01*
X124969122Y-67238716D01*
X125264718Y-67223225D01*
X125273236Y-67222194D01*
X125563996Y-67166728D01*
X125572295Y-67164551D01*
X125852836Y-67070138D01*
X125860762Y-67066855D01*
X126125895Y-66935242D01*
X126133303Y-66930914D01*
X126378121Y-66764536D01*
X126384873Y-66759242D01*
X126604846Y-66561178D01*
X126610816Y-66555016D01*
X126801873Y-66328930D01*
X126806953Y-66322015D01*
X126965559Y-66072093D01*
X126969653Y-66064553D01*
X127092873Y-65795417D01*
X127095905Y-65787391D01*
X127181459Y-65504022D01*
X127183375Y-65495659D01*
X127229731Y-65202974D01*
X127230505Y-65193766D01*
X127234073Y-64852988D01*
X127233493Y-64843766D01*
X127193276Y-64550176D01*
X127191536Y-64541774D01*
X127111936Y-64256675D01*
X127109072Y-64248588D01*
X126991515Y-63976930D01*
X126987580Y-63969306D01*
X126834243Y-63716116D01*
X126829309Y-63709096D01*
X126643029Y-63479060D01*
X126637188Y-63472775D01*
X126421412Y-63270147D01*
X126414772Y-63264713D01*
X126173493Y-63093244D01*
X126166177Y-63088761D01*
X125903859Y-62951625D01*
X125896003Y-62948176D01*
X125617500Y-62847909D01*
X125609248Y-62845558D01*
X125319715Y-62784016D01*
X125311220Y-62782807D01*
X125016013Y-62761128D01*
X125007433Y-62761083D01*
X124712015Y-62779669D01*
X124703508Y-62780789D01*
X124413346Y-62839297D01*
X124405070Y-62841561D01*
X124125533Y-62938905D01*
X124117641Y-62942272D01*
X123853901Y-63076654D01*
X123846539Y-63081060D01*
X123603476Y-63249992D01*
X123596781Y-63255357D01*
X123378894Y-63455713D01*
X123372988Y-63461937D01*
X123184309Y-63690011D01*
X123179302Y-63696979D01*
X123023323Y-63948549D01*
X123019308Y-63956131D01*
X122898912Y-64226543D01*
X122895964Y-64234601D01*
X122813382Y-64518850D01*
X122811554Y-64527233D01*
X122768313Y-64820059D01*
X122767640Y-64828613D01*
X122764541Y-65124598D01*
X119558437Y-65124598D01*
X119509554Y-64942165D01*
X119503233Y-64926905D01*
X119375171Y-64705095D01*
X119365116Y-64691991D01*
X119184009Y-64510884D01*
X119170905Y-64500829D01*
X118949095Y-64372767D01*
X118933835Y-64366446D01*
X118686438Y-64300156D01*
X118670062Y-64298000D01*
X118413938Y-64298000D01*
X118397562Y-64300156D01*
X118150165Y-64366446D01*
X118134905Y-64372767D01*
X117913095Y-64500829D01*
X117899991Y-64510884D01*
X117718884Y-64691991D01*
X117708829Y-64705095D01*
X117580767Y-64926905D01*
X117574446Y-64942165D01*
X117508156Y-65189562D01*
X117506000Y-65205938D01*
X107229261Y-65205938D01*
X107229731Y-65202974D01*
X107230505Y-65193766D01*
X107234073Y-64852988D01*
X107233493Y-64843766D01*
X107193276Y-64550176D01*
X107191536Y-64541774D01*
X107111936Y-64256675D01*
X107109072Y-64248588D01*
X106991515Y-63976930D01*
X106987580Y-63969306D01*
X106834243Y-63716116D01*
X106829309Y-63709096D01*
X106643029Y-63479060D01*
X106637188Y-63472775D01*
X106589442Y-63427938D01*
X112934000Y-63427938D01*
X112934000Y-63684062D01*
X112936156Y-63700438D01*
X113002446Y-63947835D01*
X113008767Y-63963095D01*
X113136829Y-64184905D01*
X113146884Y-64198009D01*
X113327991Y-64379116D01*
X113341095Y-64389171D01*
X113562905Y-64517233D01*
X113578165Y-64523554D01*
X113825562Y-64589844D01*
X113841938Y-64592000D01*
X114098062Y-64592000D01*
X114114438Y-64589844D01*
X114361835Y-64523554D01*
X114377095Y-64517233D01*
X114598905Y-64389171D01*
X114612009Y-64379116D01*
X114793116Y-64198009D01*
X114803171Y-64184905D01*
X114931233Y-63963095D01*
X114937554Y-63947835D01*
X115003844Y-63700438D01*
X115006000Y-63684062D01*
X115006000Y-63427938D01*
X115474000Y-63427938D01*
X115474000Y-63684062D01*
X115476156Y-63700438D01*
X115542446Y-63947835D01*
X115548767Y-63963095D01*
X115676829Y-64184905D01*
X115686884Y-64198009D01*
X115867991Y-64379116D01*
X115881095Y-64389171D01*
X116102905Y-64517233D01*
X116118165Y-64523554D01*
X116365562Y-64589844D01*
X116381938Y-64592000D01*
X116638062Y-64592000D01*
X116654438Y-64589844D01*
X116901835Y-64523554D01*
X116917095Y-64517233D01*
X117138905Y-64389171D01*
X117152009Y-64379116D01*
X117333116Y-64198009D01*
X117343171Y-64184905D01*
X117471233Y-63963095D01*
X117477554Y-63947835D01*
X117543844Y-63700438D01*
X117546000Y-63684062D01*
X117546000Y-63427938D01*
X117543844Y-63411562D01*
X117477554Y-63164165D01*
X117471233Y-63148905D01*
X117343171Y-62927095D01*
X117333116Y-62913991D01*
X117152009Y-62732884D01*
X117138905Y-62722829D01*
X116917095Y-62594767D01*
X116901835Y-62588446D01*
X116654438Y-62522156D01*
X116638062Y-62520000D01*
X116381938Y-62520000D01*
X116365562Y-62522156D01*
X116118165Y-62588446D01*
X116102905Y-62594767D01*
X115881095Y-62722829D01*
X115867991Y-62732884D01*
X115686884Y-62913991D01*
X115676829Y-62927095D01*
X115548767Y-63148905D01*
X115542446Y-63164165D01*
X115476156Y-63411562D01*
X115474000Y-63427938D01*
X115006000Y-63427938D01*
X115003844Y-63411562D01*
X114937554Y-63164165D01*
X114931233Y-63148905D01*
X114803171Y-62927095D01*
X114793116Y-62913991D01*
X114612009Y-62732884D01*
X114598905Y-62722829D01*
X114377095Y-62594767D01*
X114361835Y-62588446D01*
X114114438Y-62522156D01*
X114098062Y-62520000D01*
X113841938Y-62520000D01*
X113825562Y-62522156D01*
X113578165Y-62588446D01*
X113562905Y-62594767D01*
X113341095Y-62722829D01*
X113327991Y-62732884D01*
X113146884Y-62913991D01*
X113136829Y-62927095D01*
X113008767Y-63148905D01*
X113002446Y-63164165D01*
X112936156Y-63411562D01*
X112934000Y-63427938D01*
X106589442Y-63427938D01*
X106421412Y-63270147D01*
X106414772Y-63264713D01*
X106173493Y-63093244D01*
X106166177Y-63088761D01*
X105903859Y-62951625D01*
X105896003Y-62948176D01*
X105617500Y-62847909D01*
X105609248Y-62845558D01*
X105319715Y-62784016D01*
X105311220Y-62782807D01*
X105016013Y-62761128D01*
X105007433Y-62761083D01*
X104712015Y-62779669D01*
X104703508Y-62780789D01*
X104413346Y-62839297D01*
X104405070Y-62841561D01*
X104125533Y-62938905D01*
X104117641Y-62942272D01*
X103853901Y-63076654D01*
X103846539Y-63081060D01*
X103603476Y-63249992D01*
X103596781Y-63255357D01*
X103378894Y-63455713D01*
X103372988Y-63461937D01*
X103184309Y-63690011D01*
X103179302Y-63696979D01*
X103023323Y-63948549D01*
X103019308Y-63956131D01*
X102898912Y-64226543D01*
X102895964Y-64234601D01*
X102813382Y-64518850D01*
X102811554Y-64527233D01*
X102768313Y-64820059D01*
X102767640Y-64828613D01*
X102764541Y-65124598D01*
X100634000Y-65124598D01*
X100634000Y-65063489D01*
X100636838Y-65049416D01*
X100638001Y-65040137D01*
X100638565Y-65029013D01*
X100638583Y-65028631D01*
X100657119Y-64612411D01*
X100708768Y-64227881D01*
X100794391Y-63849484D01*
X100913319Y-63480170D01*
X101064598Y-63122916D01*
X101247043Y-62780508D01*
X101459203Y-62455672D01*
X101699399Y-62150987D01*
X101965719Y-61868869D01*
X102256077Y-61611529D01*
X102568146Y-61381032D01*
X102899485Y-61179179D01*
X103247445Y-61007584D01*
X103609303Y-60867592D01*
X103982137Y-60760329D01*
X104363060Y-60686631D01*
X104754014Y-60646575D01*
X105022887Y-60638830D01*
X105031807Y-60637935D01*
X105054588Y-60634000D01*
X124936511Y-60634000D01*
X124950584Y-60636838D01*
G37*
%TD.AperFunction*%
%TD*%
M02*
