%TF.GenerationSoftware,KiCad,Pcbnew,(5.99.0-2358-g6d8fb94d8)*%
%TF.CreationDate,2020-07-21T23:14:41+08:00*%
%TF.ProjectId,TheFC,54686546-432e-46b6-9963-61645f706362,1.0*%
%TF.SameCoordinates,Original*%
%TF.FileFunction,Soldermask,Bot*%
%TF.FilePolarity,Negative*%
%FSLAX46Y46*%
G04 Gerber Fmt 4.6, Leading zero omitted, Abs format (unit mm)*
G04 Created by KiCad (PCBNEW (5.99.0-2358-g6d8fb94d8)) date 2020-07-21 23:14:41*
%MOMM*%
%LPD*%
G01*
G04 APERTURE LIST*
%ADD10R,3.800000X2.000000*%
%ADD11R,1.500000X2.000000*%
%ADD12C,3.200000*%
G04 APERTURE END LIST*
%TO.C,J1*%
G36*
G01*
X118000000Y-63535999D02*
X118000000Y-61036001D01*
G75*
G02*
X118250001Y-60786000I250001J0D01*
G01*
X119849999Y-60786000D01*
G75*
G02*
X120100000Y-61036001I0J-250001D01*
G01*
X120100000Y-63535999D01*
G75*
G02*
X119849999Y-63786000I-250001J0D01*
G01*
X118250001Y-63786000D01*
G75*
G02*
X118000000Y-63535999I0J250001D01*
G01*
G37*
G36*
G01*
X110400000Y-63535999D02*
X110400000Y-61036001D01*
G75*
G02*
X110650001Y-60786000I250001J0D01*
G01*
X112249999Y-60786000D01*
G75*
G02*
X112500000Y-61036001I0J-250001D01*
G01*
X112500000Y-63535999D01*
G75*
G02*
X112249999Y-63786000I-250001J0D01*
G01*
X110650001Y-63786000D01*
G75*
G02*
X110400000Y-63535999I0J250001D01*
G01*
G37*
G36*
G01*
X116100000Y-65786000D02*
X116100000Y-64586000D01*
G75*
G02*
X116300000Y-64386000I200000J0D01*
G01*
X116700000Y-64386000D01*
G75*
G02*
X116900000Y-64586000I0J-200000D01*
G01*
X116900000Y-65786000D01*
G75*
G02*
X116700000Y-65986000I-200000J0D01*
G01*
X116300000Y-65986000D01*
G75*
G02*
X116100000Y-65786000I0J200000D01*
G01*
G37*
G36*
G01*
X114850000Y-65786000D02*
X114850000Y-64586000D01*
G75*
G02*
X115050000Y-64386000I200000J0D01*
G01*
X115450000Y-64386000D01*
G75*
G02*
X115650000Y-64586000I0J-200000D01*
G01*
X115650000Y-65786000D01*
G75*
G02*
X115450000Y-65986000I-200000J0D01*
G01*
X115050000Y-65986000D01*
G75*
G02*
X114850000Y-65786000I0J200000D01*
G01*
G37*
G36*
G01*
X113600000Y-65786000D02*
X113600000Y-64586000D01*
G75*
G02*
X113800000Y-64386000I200000J0D01*
G01*
X114200000Y-64386000D01*
G75*
G02*
X114400000Y-64586000I0J-200000D01*
G01*
X114400000Y-65786000D01*
G75*
G02*
X114200000Y-65986000I-200000J0D01*
G01*
X113800000Y-65986000D01*
G75*
G02*
X113600000Y-65786000I0J200000D01*
G01*
G37*
%TD*%
%TO.C,J2*%
G36*
G01*
X110361000Y-86428001D02*
X110361000Y-88927999D01*
G75*
G02*
X110110999Y-89178000I-250001J0D01*
G01*
X108511001Y-89178000D01*
G75*
G02*
X108261000Y-88927999I0J250001D01*
G01*
X108261000Y-86428001D01*
G75*
G02*
X108511001Y-86178000I250001J0D01*
G01*
X110110999Y-86178000D01*
G75*
G02*
X110361000Y-86428001I0J-250001D01*
G01*
G37*
G36*
G01*
X121711000Y-86428001D02*
X121711000Y-88927999D01*
G75*
G02*
X121460999Y-89178000I-250001J0D01*
G01*
X119861001Y-89178000D01*
G75*
G02*
X119611000Y-88927999I0J250001D01*
G01*
X119611000Y-86428001D01*
G75*
G02*
X119861001Y-86178000I250001J0D01*
G01*
X121460999Y-86178000D01*
G75*
G02*
X121711000Y-86428001I0J-250001D01*
G01*
G37*
G36*
G01*
X112261000Y-84178000D02*
X112261000Y-85378000D01*
G75*
G02*
X112061000Y-85578000I-200000J0D01*
G01*
X111661000Y-85578000D01*
G75*
G02*
X111461000Y-85378000I0J200000D01*
G01*
X111461000Y-84178000D01*
G75*
G02*
X111661000Y-83978000I200000J0D01*
G01*
X112061000Y-83978000D01*
G75*
G02*
X112261000Y-84178000I0J-200000D01*
G01*
G37*
G36*
G01*
X113511000Y-84178000D02*
X113511000Y-85378000D01*
G75*
G02*
X113311000Y-85578000I-200000J0D01*
G01*
X112911000Y-85578000D01*
G75*
G02*
X112711000Y-85378000I0J200000D01*
G01*
X112711000Y-84178000D01*
G75*
G02*
X112911000Y-83978000I200000J0D01*
G01*
X113311000Y-83978000D01*
G75*
G02*
X113511000Y-84178000I0J-200000D01*
G01*
G37*
G36*
G01*
X114761000Y-84178000D02*
X114761000Y-85378000D01*
G75*
G02*
X114561000Y-85578000I-200000J0D01*
G01*
X114161000Y-85578000D01*
G75*
G02*
X113961000Y-85378000I0J200000D01*
G01*
X113961000Y-84178000D01*
G75*
G02*
X114161000Y-83978000I200000J0D01*
G01*
X114561000Y-83978000D01*
G75*
G02*
X114761000Y-84178000I0J-200000D01*
G01*
G37*
G36*
G01*
X116011000Y-84178000D02*
X116011000Y-85378000D01*
G75*
G02*
X115811000Y-85578000I-200000J0D01*
G01*
X115411000Y-85578000D01*
G75*
G02*
X115211000Y-85378000I0J200000D01*
G01*
X115211000Y-84178000D01*
G75*
G02*
X115411000Y-83978000I200000J0D01*
G01*
X115811000Y-83978000D01*
G75*
G02*
X116011000Y-84178000I0J-200000D01*
G01*
G37*
G36*
G01*
X117261000Y-84178000D02*
X117261000Y-85378000D01*
G75*
G02*
X117061000Y-85578000I-200000J0D01*
G01*
X116661000Y-85578000D01*
G75*
G02*
X116461000Y-85378000I0J200000D01*
G01*
X116461000Y-84178000D01*
G75*
G02*
X116661000Y-83978000I200000J0D01*
G01*
X117061000Y-83978000D01*
G75*
G02*
X117261000Y-84178000I0J-200000D01*
G01*
G37*
G36*
G01*
X118511000Y-84178000D02*
X118511000Y-85378000D01*
G75*
G02*
X118311000Y-85578000I-200000J0D01*
G01*
X117911000Y-85578000D01*
G75*
G02*
X117711000Y-85378000I0J200000D01*
G01*
X117711000Y-84178000D01*
G75*
G02*
X117911000Y-83978000I200000J0D01*
G01*
X118311000Y-83978000D01*
G75*
G02*
X118511000Y-84178000I0J-200000D01*
G01*
G37*
%TD*%
D10*
%TO.C,U2*%
X116524000Y-72750000D03*
D11*
X116524000Y-79050000D03*
X114224000Y-79050000D03*
X118824000Y-79050000D03*
%TD*%
D10*
%TO.C,U1*%
X108876000Y-70404500D03*
D11*
X108876000Y-76704500D03*
X106576000Y-76704500D03*
X111176000Y-76704500D03*
%TD*%
%TO.C,R9*%
G36*
G01*
X119814250Y-70851500D02*
X119301750Y-70851500D01*
G75*
G02*
X119083000Y-70632750I0J218750D01*
G01*
X119083000Y-70195250D01*
G75*
G02*
X119301750Y-69976500I218750J0D01*
G01*
X119814250Y-69976500D01*
G75*
G02*
X120033000Y-70195250I0J-218750D01*
G01*
X120033000Y-70632750D01*
G75*
G02*
X119814250Y-70851500I-218750J0D01*
G01*
G37*
G36*
G01*
X119814250Y-69276500D02*
X119301750Y-69276500D01*
G75*
G02*
X119083000Y-69057750I0J218750D01*
G01*
X119083000Y-68620250D01*
G75*
G02*
X119301750Y-68401500I218750J0D01*
G01*
X119814250Y-68401500D01*
G75*
G02*
X120033000Y-68620250I0J-218750D01*
G01*
X120033000Y-69057750D01*
G75*
G02*
X119814250Y-69276500I-218750J0D01*
G01*
G37*
%TD*%
%TO.C,R8*%
G36*
G01*
X117803250Y-68401500D02*
X118315750Y-68401500D01*
G75*
G02*
X118534500Y-68620250I0J-218750D01*
G01*
X118534500Y-69057750D01*
G75*
G02*
X118315750Y-69276500I-218750J0D01*
G01*
X117803250Y-69276500D01*
G75*
G02*
X117584500Y-69057750I0J218750D01*
G01*
X117584500Y-68620250D01*
G75*
G02*
X117803250Y-68401500I218750J0D01*
G01*
G37*
G36*
G01*
X117803250Y-69976500D02*
X118315750Y-69976500D01*
G75*
G02*
X118534500Y-70195250I0J-218750D01*
G01*
X118534500Y-70632750D01*
G75*
G02*
X118315750Y-70851500I-218750J0D01*
G01*
X117803250Y-70851500D01*
G75*
G02*
X117584500Y-70632750I0J218750D01*
G01*
X117584500Y-70195250D01*
G75*
G02*
X117803250Y-69976500I218750J0D01*
G01*
G37*
%TD*%
D12*
%TO.C,H4*%
X105000000Y-85000000D03*
%TD*%
%TO.C,H3*%
X125000000Y-85000000D03*
%TD*%
%TO.C,H2*%
X125000000Y-65000000D03*
%TD*%
%TO.C,H1*%
X105000000Y-65000000D03*
%TD*%
%TO.C,FB2*%
G36*
G01*
X114275750Y-68148500D02*
X115188250Y-68148500D01*
G75*
G02*
X115432000Y-68392250I0J-243750D01*
G01*
X115432000Y-68879750D01*
G75*
G02*
X115188250Y-69123500I-243750J0D01*
G01*
X114275750Y-69123500D01*
G75*
G02*
X114032000Y-68879750I0J243750D01*
G01*
X114032000Y-68392250D01*
G75*
G02*
X114275750Y-68148500I243750J0D01*
G01*
G37*
G36*
G01*
X114275750Y-70023500D02*
X115188250Y-70023500D01*
G75*
G02*
X115432000Y-70267250I0J-243750D01*
G01*
X115432000Y-70754750D01*
G75*
G02*
X115188250Y-70998500I-243750J0D01*
G01*
X114275750Y-70998500D01*
G75*
G02*
X114032000Y-70754750I0J243750D01*
G01*
X114032000Y-70267250D01*
G75*
G02*
X114275750Y-70023500I243750J0D01*
G01*
G37*
%TD*%
%TO.C,F1*%
G36*
G01*
X116791750Y-70877000D02*
X116279250Y-70877000D01*
G75*
G02*
X116060500Y-70658250I0J218750D01*
G01*
X116060500Y-70220750D01*
G75*
G02*
X116279250Y-70002000I218750J0D01*
G01*
X116791750Y-70002000D01*
G75*
G02*
X117010500Y-70220750I0J-218750D01*
G01*
X117010500Y-70658250D01*
G75*
G02*
X116791750Y-70877000I-218750J0D01*
G01*
G37*
G36*
G01*
X116791750Y-69302000D02*
X116279250Y-69302000D01*
G75*
G02*
X116060500Y-69083250I0J218750D01*
G01*
X116060500Y-68645750D01*
G75*
G02*
X116279250Y-68427000I218750J0D01*
G01*
X116791750Y-68427000D01*
G75*
G02*
X117010500Y-68645750I0J-218750D01*
G01*
X117010500Y-69083250D01*
G75*
G02*
X116791750Y-69302000I-218750J0D01*
G01*
G37*
%TD*%
%TO.C,C10*%
G36*
G01*
X116101000Y-81792250D02*
X116101000Y-80879750D01*
G75*
G02*
X116344750Y-80636000I243750J0D01*
G01*
X116832250Y-80636000D01*
G75*
G02*
X117076000Y-80879750I0J-243750D01*
G01*
X117076000Y-81792250D01*
G75*
G02*
X116832250Y-82036000I-243750J0D01*
G01*
X116344750Y-82036000D01*
G75*
G02*
X116101000Y-81792250I0J243750D01*
G01*
G37*
G36*
G01*
X117976000Y-81792250D02*
X117976000Y-80879750D01*
G75*
G02*
X118219750Y-80636000I243750J0D01*
G01*
X118707250Y-80636000D01*
G75*
G02*
X118951000Y-80879750I0J-243750D01*
G01*
X118951000Y-81792250D01*
G75*
G02*
X118707250Y-82036000I-243750J0D01*
G01*
X118219750Y-82036000D01*
G75*
G02*
X117976000Y-81792250I0J243750D01*
G01*
G37*
%TD*%
%TO.C,C9*%
G36*
G01*
X108467000Y-79598750D02*
X108467000Y-78686250D01*
G75*
G02*
X108710750Y-78442500I243750J0D01*
G01*
X109198250Y-78442500D01*
G75*
G02*
X109442000Y-78686250I0J-243750D01*
G01*
X109442000Y-79598750D01*
G75*
G02*
X109198250Y-79842500I-243750J0D01*
G01*
X108710750Y-79842500D01*
G75*
G02*
X108467000Y-79598750I0J243750D01*
G01*
G37*
G36*
G01*
X110342000Y-79598750D02*
X110342000Y-78686250D01*
G75*
G02*
X110585750Y-78442500I243750J0D01*
G01*
X111073250Y-78442500D01*
G75*
G02*
X111317000Y-78686250I0J-243750D01*
G01*
X111317000Y-79598750D01*
G75*
G02*
X111073250Y-79842500I-243750J0D01*
G01*
X110585750Y-79842500D01*
G75*
G02*
X110342000Y-79598750I0J243750D01*
G01*
G37*
%TD*%
%TO.C,C7*%
G36*
G01*
X114633000Y-81133750D02*
X114633000Y-82046250D01*
G75*
G02*
X114389250Y-82290000I-243750J0D01*
G01*
X113901750Y-82290000D01*
G75*
G02*
X113658000Y-82046250I0J243750D01*
G01*
X113658000Y-81133750D01*
G75*
G02*
X113901750Y-80890000I243750J0D01*
G01*
X114389250Y-80890000D01*
G75*
G02*
X114633000Y-81133750I0J-243750D01*
G01*
G37*
G36*
G01*
X112758000Y-81133750D02*
X112758000Y-82046250D01*
G75*
G02*
X112514250Y-82290000I-243750J0D01*
G01*
X112026750Y-82290000D01*
G75*
G02*
X111783000Y-82046250I0J243750D01*
G01*
X111783000Y-81133750D01*
G75*
G02*
X112026750Y-80890000I243750J0D01*
G01*
X112514250Y-80890000D01*
G75*
G02*
X112758000Y-81133750I0J-243750D01*
G01*
G37*
%TD*%
%TO.C,C6*%
G36*
G01*
X106133750Y-78401000D02*
X107046250Y-78401000D01*
G75*
G02*
X107290000Y-78644750I0J-243750D01*
G01*
X107290000Y-79132250D01*
G75*
G02*
X107046250Y-79376000I-243750J0D01*
G01*
X106133750Y-79376000D01*
G75*
G02*
X105890000Y-79132250I0J243750D01*
G01*
X105890000Y-78644750D01*
G75*
G02*
X106133750Y-78401000I243750J0D01*
G01*
G37*
G36*
G01*
X106133750Y-80276000D02*
X107046250Y-80276000D01*
G75*
G02*
X107290000Y-80519750I0J-243750D01*
G01*
X107290000Y-81007250D01*
G75*
G02*
X107046250Y-81251000I-243750J0D01*
G01*
X106133750Y-81251000D01*
G75*
G02*
X105890000Y-81007250I0J243750D01*
G01*
X105890000Y-80519750D01*
G75*
G02*
X106133750Y-80276000I243750J0D01*
G01*
G37*
%TD*%
M02*
