%TF.GenerationSoftware,KiCad,Pcbnew,(5.99.0-2358-g6d8fb94d8)*%
%TF.CreationDate,2020-07-21T23:14:40+08:00*%
%TF.ProjectId,TheFC,54686546-432e-46b6-9963-61645f706362,1.0*%
%TF.SameCoordinates,Original*%
%TF.FileFunction,Copper,L3,Inr*%
%TF.FilePolarity,Positive*%
%FSLAX46Y46*%
G04 Gerber Fmt 4.6, Leading zero omitted, Abs format (unit mm)*
G04 Created by KiCad (PCBNEW (5.99.0-2358-g6d8fb94d8)) date 2020-07-21 23:14:40*
%MOMM*%
%LPD*%
G01*
G04 APERTURE LIST*
%TA.AperFunction,ComponentPad*%
%ADD10C,3.200000*%
%TD*%
%TA.AperFunction,ViaPad*%
%ADD11C,0.800000*%
%TD*%
%TA.AperFunction,Conductor*%
%ADD12C,0.500000*%
%TD*%
%TA.AperFunction,Conductor*%
%ADD13C,0.254000*%
%TD*%
G04 APERTURE END LIST*
D10*
%TO.N,GND*%
%TO.C,H4*%
X105000000Y-85000000D03*
%TD*%
%TO.N,GND*%
%TO.C,H3*%
X125000000Y-85000000D03*
%TD*%
%TO.N,GND*%
%TO.C,H2*%
X125000000Y-65000000D03*
%TD*%
%TO.N,GND*%
%TO.C,H1*%
X105000000Y-65000000D03*
%TD*%
D11*
%TO.N,GND*%
X117780000Y-76243250D03*
X117780000Y-75240000D03*
X120066000Y-83622000D03*
X120066000Y-82606000D03*
%TO.N,+3V3*%
X123698200Y-72496800D03*
%TO.N,GND*%
X123672800Y-77018000D03*
X121844000Y-69144000D03*
%TO.N,RESET*%
X121894800Y-67569200D03*
%TO.N,GND*%
X123693000Y-68433000D03*
X125471000Y-68433000D03*
%TO.N,+3V3*%
X128026890Y-72522200D03*
%TO.N,GND*%
X128052290Y-77018000D03*
X126995000Y-68433000D03*
X128519000Y-68433000D03*
%TO.N,+5V*%
X117780000Y-77526000D03*
%TO.N,+3V3*%
X119050000Y-72954000D03*
X120066000Y-72954000D03*
%TO.N,S1*%
X116764000Y-83114000D03*
%TO.N,S2*%
X115748000Y-83114000D03*
%TO.N,+5V*%
X111938000Y-67874000D03*
%TO.N,GND*%
X107874000Y-82098000D03*
%TO.N,S4*%
X110160000Y-68636000D03*
%TO.N,RX*%
X113208000Y-70668000D03*
%TO.N,TX*%
X111938000Y-70668000D03*
X114478000Y-66604000D03*
%TO.N,RX*%
X115494000Y-66604000D03*
%TO.N,BAT*%
X120066000Y-71684000D03*
%TO.N,PPM*%
X116510000Y-63556000D03*
%TO.N,GND*%
X113970000Y-63556000D03*
%TO.N,+5V*%
X115240000Y-63556000D03*
%TO.N,S3/MOSI*%
X116256000Y-87178000D03*
%TO.N,GND*%
X112446000Y-79050000D03*
%TO.N,+3V3*%
X127558290Y-81133000D03*
X126034290Y-81133000D03*
%TO.N,GND*%
X112700000Y-83114000D03*
X119558000Y-67620000D03*
%TO.N,RESET*%
X115240000Y-88956000D03*
%TO.N,+5V*%
X118288000Y-83114000D03*
%TO.N,GND*%
X118542000Y-65334000D03*
X111176000Y-83114000D03*
%TO.N,+5V*%
X108814500Y-74131500D03*
%TO.N,GND*%
X124510290Y-81164500D03*
%TO.N,+5V*%
X108814500Y-75046500D03*
%TO.N,GND*%
X107391500Y-74030500D03*
X107391500Y-75046500D03*
X112642625Y-77137250D03*
X112642625Y-75613250D03*
X121590000Y-74224000D03*
X101347990Y-70655250D03*
X101347990Y-81831250D03*
X121508625Y-81577250D03*
%TD*%
D12*
%TO.N,GND*%
X101347990Y-70655250D02*
X101347990Y-68967990D01*
%TD*%
%TO.N,GND*%
D13*
X124950584Y-60636838D02*
X124959863Y-60638001D01*
X124970987Y-60638565D01*
X124971369Y-60638583D01*
X125387589Y-60657119D01*
X125772119Y-60708768D01*
X126150516Y-60794391D01*
X126519830Y-60913319D01*
X126877084Y-61064598D01*
X127219492Y-61247043D01*
X127544328Y-61459203D01*
X127849013Y-61699399D01*
X128131131Y-61965719D01*
X128388471Y-62256077D01*
X128618968Y-62568146D01*
X128820821Y-62899485D01*
X128992416Y-63247445D01*
X129132408Y-63609303D01*
X129239671Y-63982137D01*
X129313369Y-64363060D01*
X129353425Y-64754014D01*
X129361170Y-65022887D01*
X129362065Y-65031807D01*
X129366000Y-65054588D01*
X129366001Y-84936507D01*
X129363163Y-84950582D01*
X129361999Y-84959862D01*
X129361435Y-84970986D01*
X129361417Y-84971368D01*
X129342881Y-85387589D01*
X129291232Y-85772118D01*
X129205609Y-86150516D01*
X129086681Y-86519830D01*
X128935402Y-86877084D01*
X128752957Y-87219492D01*
X128540797Y-87544328D01*
X128300610Y-87849002D01*
X128034280Y-88131132D01*
X127743923Y-88388471D01*
X127431854Y-88618968D01*
X127100515Y-88820821D01*
X126752555Y-88992416D01*
X126390707Y-89132405D01*
X126017849Y-89239673D01*
X125636940Y-89313369D01*
X125245986Y-89353425D01*
X124977113Y-89361170D01*
X124968193Y-89362065D01*
X124945412Y-89366000D01*
X116199556Y-89366000D01*
X116201233Y-89363095D01*
X116207554Y-89347835D01*
X116273844Y-89100438D01*
X116276000Y-89084062D01*
X116276000Y-88827938D01*
X116273844Y-88811562D01*
X116207554Y-88564165D01*
X116201233Y-88548905D01*
X116073171Y-88327095D01*
X116063116Y-88313991D01*
X115905848Y-88156723D01*
X116111562Y-88211844D01*
X116127938Y-88214000D01*
X116384062Y-88214000D01*
X116400438Y-88211844D01*
X116647835Y-88145554D01*
X116663095Y-88139233D01*
X116884905Y-88011171D01*
X116898009Y-88001116D01*
X117079116Y-87820009D01*
X117089171Y-87806905D01*
X117217233Y-87585095D01*
X117223554Y-87569835D01*
X117289844Y-87322438D01*
X117292000Y-87306062D01*
X117292000Y-87049938D01*
X117289844Y-87033562D01*
X117223554Y-86786165D01*
X117217233Y-86770905D01*
X117125674Y-86612320D01*
X123568699Y-86612320D01*
X123577814Y-86728135D01*
X123806604Y-86894363D01*
X123813873Y-86898922D01*
X124074740Y-87038798D01*
X124082560Y-87042329D01*
X124359998Y-87145507D01*
X124368224Y-87147944D01*
X124657098Y-87212514D01*
X124665579Y-87213812D01*
X124960543Y-87238581D01*
X124969122Y-87238716D01*
X125264718Y-87223225D01*
X125273236Y-87222194D01*
X125563996Y-87166728D01*
X125572295Y-87164551D01*
X125852836Y-87070138D01*
X125860762Y-87066855D01*
X126125896Y-86935242D01*
X126133303Y-86930913D01*
X126423477Y-86733712D01*
X126434637Y-86615656D01*
X125052191Y-85233210D01*
X124947809Y-85233210D01*
X123568699Y-86612320D01*
X117125674Y-86612320D01*
X117089171Y-86549095D01*
X117079116Y-86535991D01*
X116898009Y-86354884D01*
X116884905Y-86344829D01*
X116663095Y-86216767D01*
X116647835Y-86210446D01*
X116400438Y-86144156D01*
X116384062Y-86142000D01*
X116127938Y-86142000D01*
X116111562Y-86144156D01*
X115864165Y-86210446D01*
X115848905Y-86216767D01*
X115627095Y-86344829D01*
X115613991Y-86354884D01*
X115432884Y-86535991D01*
X115422829Y-86549095D01*
X115294767Y-86770905D01*
X115288446Y-86786165D01*
X115222156Y-87033562D01*
X115220000Y-87049938D01*
X115220000Y-87306062D01*
X115222156Y-87322438D01*
X115288446Y-87569835D01*
X115294767Y-87585095D01*
X115422829Y-87806905D01*
X115432884Y-87820009D01*
X115590152Y-87977277D01*
X115384438Y-87922156D01*
X115368062Y-87920000D01*
X115111938Y-87920000D01*
X115095562Y-87922156D01*
X114848165Y-87988446D01*
X114832905Y-87994767D01*
X114611095Y-88122829D01*
X114597991Y-88132884D01*
X114416884Y-88313991D01*
X114406829Y-88327095D01*
X114278767Y-88548905D01*
X114272446Y-88564165D01*
X114206156Y-88811562D01*
X114204000Y-88827938D01*
X114204000Y-89084062D01*
X114206156Y-89100438D01*
X114272446Y-89347835D01*
X114278767Y-89363095D01*
X114280444Y-89366000D01*
X105063490Y-89366000D01*
X105049417Y-89363162D01*
X105040138Y-89361999D01*
X105029014Y-89361435D01*
X105028632Y-89361417D01*
X104612411Y-89342881D01*
X104227882Y-89291232D01*
X103849484Y-89205609D01*
X103480170Y-89086681D01*
X103122916Y-88935402D01*
X102780508Y-88752957D01*
X102455672Y-88540797D01*
X102150998Y-88300610D01*
X101868868Y-88034280D01*
X101611529Y-87743923D01*
X101381032Y-87431854D01*
X101179179Y-87100515D01*
X101007584Y-86752555D01*
X100953331Y-86612320D01*
X103568699Y-86612320D01*
X103577814Y-86728135D01*
X103806604Y-86894363D01*
X103813873Y-86898922D01*
X104074740Y-87038798D01*
X104082560Y-87042329D01*
X104359998Y-87145507D01*
X104368224Y-87147944D01*
X104657098Y-87212514D01*
X104665579Y-87213812D01*
X104960543Y-87238581D01*
X104969122Y-87238716D01*
X105264718Y-87223225D01*
X105273236Y-87222194D01*
X105563996Y-87166728D01*
X105572295Y-87164551D01*
X105852836Y-87070138D01*
X105860762Y-87066855D01*
X106125896Y-86935242D01*
X106133303Y-86930913D01*
X106423477Y-86733712D01*
X106434637Y-86615656D01*
X105052191Y-85233210D01*
X104947809Y-85233210D01*
X103568699Y-86612320D01*
X100953331Y-86612320D01*
X100867595Y-86390707D01*
X100760327Y-86017849D01*
X100686631Y-85636940D01*
X100646575Y-85245986D01*
X100643079Y-85124598D01*
X102764541Y-85124598D01*
X102765035Y-85133164D01*
X102802133Y-85426832D01*
X102803785Y-85435252D01*
X102880397Y-85721168D01*
X102883176Y-85729285D01*
X102997881Y-86002159D01*
X103001736Y-86009824D01*
X103152413Y-86264606D01*
X103157273Y-86271677D01*
X103276974Y-86422701D01*
X103389776Y-86429205D01*
X104766790Y-85052191D01*
X104766790Y-84947809D01*
X105233210Y-84947809D01*
X105233210Y-85052191D01*
X106610388Y-86429369D01*
X106720911Y-86424736D01*
X106801873Y-86328930D01*
X106806953Y-86322015D01*
X106965559Y-86072093D01*
X106969653Y-86064553D01*
X107092873Y-85795417D01*
X107095905Y-85787391D01*
X107181459Y-85504022D01*
X107183375Y-85495659D01*
X107229731Y-85202974D01*
X107230505Y-85193766D01*
X107231229Y-85124598D01*
X122764541Y-85124598D01*
X122765035Y-85133164D01*
X122802133Y-85426832D01*
X122803785Y-85435252D01*
X122880397Y-85721168D01*
X122883176Y-85729285D01*
X122997881Y-86002159D01*
X123001736Y-86009824D01*
X123152413Y-86264606D01*
X123157273Y-86271677D01*
X123276974Y-86422701D01*
X123389776Y-86429205D01*
X124766790Y-85052191D01*
X124766790Y-84947809D01*
X125233210Y-84947809D01*
X125233210Y-85052191D01*
X126610388Y-86429369D01*
X126720911Y-86424736D01*
X126801873Y-86328930D01*
X126806953Y-86322015D01*
X126965559Y-86072093D01*
X126969653Y-86064553D01*
X127092873Y-85795417D01*
X127095905Y-85787391D01*
X127181459Y-85504022D01*
X127183375Y-85495659D01*
X127229731Y-85202974D01*
X127230505Y-85193766D01*
X127234073Y-84852988D01*
X127233493Y-84843766D01*
X127193276Y-84550176D01*
X127191536Y-84541774D01*
X127111936Y-84256675D01*
X127109072Y-84248588D01*
X126991515Y-83976930D01*
X126987580Y-83969306D01*
X126834243Y-83716116D01*
X126829309Y-83709096D01*
X126722158Y-83576777D01*
X126610114Y-83570905D01*
X125233210Y-84947809D01*
X124766790Y-84947809D01*
X123389831Y-83570850D01*
X123278547Y-83576098D01*
X123184309Y-83690011D01*
X123179302Y-83696979D01*
X123023323Y-83948549D01*
X123019308Y-83956131D01*
X122898912Y-84226543D01*
X122895964Y-84234601D01*
X122813382Y-84518850D01*
X122811554Y-84527233D01*
X122768313Y-84820059D01*
X122767640Y-84828613D01*
X122764541Y-85124598D01*
X107231229Y-85124598D01*
X107234073Y-84852988D01*
X107233493Y-84843766D01*
X107193276Y-84550176D01*
X107191536Y-84541774D01*
X107111936Y-84256675D01*
X107109072Y-84248588D01*
X106991515Y-83976930D01*
X106987580Y-83969306D01*
X106834243Y-83716116D01*
X106829309Y-83709096D01*
X106722158Y-83576777D01*
X106610114Y-83570905D01*
X105233210Y-84947809D01*
X104766790Y-84947809D01*
X103389831Y-83570850D01*
X103278547Y-83576098D01*
X103184309Y-83690011D01*
X103179302Y-83696979D01*
X103023323Y-83948549D01*
X103019308Y-83956131D01*
X102898912Y-84226543D01*
X102895964Y-84234601D01*
X102813382Y-84518850D01*
X102811554Y-84527233D01*
X102768313Y-84820059D01*
X102767640Y-84828613D01*
X102764541Y-85124598D01*
X100643079Y-85124598D01*
X100638830Y-84977113D01*
X100637935Y-84968193D01*
X100634000Y-84945412D01*
X100634000Y-83385626D01*
X103566645Y-83385626D01*
X104947809Y-84766790D01*
X105052191Y-84766790D01*
X106432243Y-83386738D01*
X106422455Y-83270174D01*
X106173493Y-83093244D01*
X106166177Y-83088761D01*
X105969494Y-82985938D01*
X114712000Y-82985938D01*
X114712000Y-83242062D01*
X114714156Y-83258438D01*
X114780446Y-83505835D01*
X114786767Y-83521095D01*
X114914829Y-83742905D01*
X114924884Y-83756009D01*
X115105991Y-83937116D01*
X115119095Y-83947171D01*
X115340905Y-84075233D01*
X115356165Y-84081554D01*
X115603562Y-84147844D01*
X115619938Y-84150000D01*
X115876062Y-84150000D01*
X115892438Y-84147844D01*
X116139835Y-84081554D01*
X116155095Y-84075233D01*
X116256000Y-84016975D01*
X116356905Y-84075233D01*
X116372165Y-84081554D01*
X116619562Y-84147844D01*
X116635938Y-84150000D01*
X116892062Y-84150000D01*
X116908438Y-84147844D01*
X117155835Y-84081554D01*
X117171095Y-84075233D01*
X117392905Y-83947171D01*
X117406009Y-83937116D01*
X117526000Y-83817125D01*
X117645991Y-83937116D01*
X117659095Y-83947171D01*
X117880905Y-84075233D01*
X117896165Y-84081554D01*
X118143562Y-84147844D01*
X118159938Y-84150000D01*
X118416062Y-84150000D01*
X118432438Y-84147844D01*
X118679835Y-84081554D01*
X118695095Y-84075233D01*
X118916905Y-83947171D01*
X118930009Y-83937116D01*
X119111116Y-83756009D01*
X119121171Y-83742905D01*
X119249233Y-83521095D01*
X119255554Y-83505835D01*
X119287763Y-83385626D01*
X123566645Y-83385626D01*
X124947809Y-84766790D01*
X125052191Y-84766790D01*
X126432243Y-83386738D01*
X126422455Y-83270174D01*
X126173493Y-83093244D01*
X126166177Y-83088761D01*
X125903859Y-82951625D01*
X125896003Y-82948176D01*
X125617500Y-82847909D01*
X125609248Y-82845558D01*
X125319715Y-82784016D01*
X125311220Y-82782807D01*
X125016013Y-82761128D01*
X125007433Y-82761083D01*
X124712015Y-82779669D01*
X124703508Y-82780789D01*
X124413346Y-82839297D01*
X124405070Y-82841561D01*
X124125533Y-82938905D01*
X124117641Y-82942272D01*
X123853901Y-83076654D01*
X123846539Y-83081060D01*
X123577115Y-83268315D01*
X123566645Y-83385626D01*
X119287763Y-83385626D01*
X119321844Y-83258438D01*
X119324000Y-83242062D01*
X119324000Y-82985938D01*
X119321844Y-82969562D01*
X119255554Y-82722165D01*
X119249233Y-82706905D01*
X119121171Y-82485095D01*
X119111116Y-82471991D01*
X118930009Y-82290884D01*
X118916905Y-82280829D01*
X118695095Y-82152767D01*
X118679835Y-82146446D01*
X118432438Y-82080156D01*
X118416062Y-82078000D01*
X118159938Y-82078000D01*
X118143562Y-82080156D01*
X117896165Y-82146446D01*
X117880905Y-82152767D01*
X117659095Y-82280829D01*
X117645991Y-82290884D01*
X117526000Y-82410875D01*
X117406009Y-82290884D01*
X117392905Y-82280829D01*
X117171095Y-82152767D01*
X117155835Y-82146446D01*
X116908438Y-82080156D01*
X116892062Y-82078000D01*
X116635938Y-82078000D01*
X116619562Y-82080156D01*
X116372165Y-82146446D01*
X116356905Y-82152767D01*
X116256000Y-82211025D01*
X116155095Y-82152767D01*
X116139835Y-82146446D01*
X115892438Y-82080156D01*
X115876062Y-82078000D01*
X115619938Y-82078000D01*
X115603562Y-82080156D01*
X115356165Y-82146446D01*
X115340905Y-82152767D01*
X115119095Y-82280829D01*
X115105991Y-82290884D01*
X114924884Y-82471991D01*
X114914829Y-82485095D01*
X114786767Y-82706905D01*
X114780446Y-82722165D01*
X114714156Y-82969562D01*
X114712000Y-82985938D01*
X105969494Y-82985938D01*
X105903859Y-82951625D01*
X105896003Y-82948176D01*
X105617500Y-82847909D01*
X105609248Y-82845558D01*
X105319715Y-82784016D01*
X105311220Y-82782807D01*
X105016013Y-82761128D01*
X105007433Y-82761083D01*
X104712015Y-82779669D01*
X104703508Y-82780789D01*
X104413346Y-82839297D01*
X104405070Y-82841561D01*
X104125533Y-82938905D01*
X104117641Y-82942272D01*
X103853901Y-83076654D01*
X103846539Y-83081060D01*
X103577115Y-83268315D01*
X103566645Y-83385626D01*
X100634000Y-83385626D01*
X100634000Y-82732000D01*
X105132191Y-82732000D01*
X105206000Y-82658191D01*
X105206000Y-81716000D01*
X108153063Y-81716000D01*
X108199373Y-81696818D01*
X108891252Y-81004938D01*
X124998290Y-81004938D01*
X124998290Y-81261062D01*
X125000446Y-81277438D01*
X125066736Y-81524835D01*
X125073057Y-81540095D01*
X125201119Y-81761905D01*
X125211174Y-81775009D01*
X125392281Y-81956116D01*
X125405385Y-81966171D01*
X125627195Y-82094233D01*
X125642455Y-82100554D01*
X125889852Y-82166844D01*
X125906228Y-82169000D01*
X126162352Y-82169000D01*
X126178728Y-82166844D01*
X126426125Y-82100554D01*
X126441385Y-82094233D01*
X126663195Y-81966171D01*
X126676299Y-81956116D01*
X126796290Y-81836125D01*
X126916281Y-81956116D01*
X126929385Y-81966171D01*
X127151195Y-82094233D01*
X127166455Y-82100554D01*
X127413852Y-82166844D01*
X127430228Y-82169000D01*
X127686352Y-82169000D01*
X127702728Y-82166844D01*
X127950125Y-82100554D01*
X127965385Y-82094233D01*
X128187195Y-81966171D01*
X128200299Y-81956116D01*
X128381406Y-81775009D01*
X128391461Y-81761905D01*
X128519523Y-81540095D01*
X128525844Y-81524835D01*
X128592134Y-81277438D01*
X128594290Y-81261062D01*
X128594290Y-81004938D01*
X128592134Y-80988562D01*
X128525844Y-80741165D01*
X128519523Y-80725905D01*
X128391461Y-80504095D01*
X128381406Y-80490991D01*
X128200299Y-80309884D01*
X128187195Y-80299829D01*
X127965385Y-80171767D01*
X127950125Y-80165446D01*
X127702728Y-80099156D01*
X127686352Y-80097000D01*
X127430228Y-80097000D01*
X127413852Y-80099156D01*
X127166455Y-80165446D01*
X127151195Y-80171767D01*
X126929385Y-80299829D01*
X126916281Y-80309884D01*
X126796290Y-80429875D01*
X126676299Y-80309884D01*
X126663195Y-80299829D01*
X126441385Y-80171767D01*
X126426125Y-80165446D01*
X126178728Y-80099156D01*
X126162352Y-80097000D01*
X125906228Y-80097000D01*
X125889852Y-80099156D01*
X125642455Y-80165446D01*
X125627195Y-80171767D01*
X125405385Y-80299829D01*
X125392281Y-80309884D01*
X125211174Y-80490991D01*
X125201119Y-80504095D01*
X125073057Y-80725905D01*
X125066736Y-80741165D01*
X125000446Y-80988562D01*
X124998290Y-81004938D01*
X108891252Y-81004938D01*
X109958190Y-79938000D01*
X111990191Y-79938000D01*
X112064000Y-79864191D01*
X112064000Y-78235809D01*
X111990191Y-78162000D01*
X109091809Y-78162000D01*
X109018000Y-78235809D01*
X109018000Y-78416000D01*
X105206000Y-78416000D01*
X105206000Y-77397938D01*
X116744000Y-77397938D01*
X116744000Y-77654062D01*
X116746156Y-77670438D01*
X116812446Y-77917835D01*
X116818767Y-77933095D01*
X116946829Y-78154905D01*
X116956884Y-78168009D01*
X117137991Y-78349116D01*
X117151095Y-78359171D01*
X117372905Y-78487233D01*
X117388165Y-78493554D01*
X117635562Y-78559844D01*
X117651938Y-78562000D01*
X117908062Y-78562000D01*
X117924438Y-78559844D01*
X118171835Y-78493554D01*
X118187095Y-78487233D01*
X118408905Y-78359171D01*
X118422009Y-78349116D01*
X118603116Y-78168009D01*
X118613171Y-78154905D01*
X118741233Y-77933095D01*
X118747554Y-77917835D01*
X118813844Y-77670438D01*
X118816000Y-77654062D01*
X118816000Y-77397938D01*
X118813844Y-77381562D01*
X118747554Y-77134165D01*
X118741233Y-77118905D01*
X118613171Y-76897095D01*
X118603116Y-76883991D01*
X118422009Y-76702884D01*
X118408905Y-76692829D01*
X118187095Y-76564767D01*
X118171835Y-76558446D01*
X117924438Y-76492156D01*
X117908062Y-76490000D01*
X117651938Y-76490000D01*
X117635562Y-76492156D01*
X117388165Y-76558446D01*
X117372905Y-76564767D01*
X117151095Y-76692829D01*
X117137991Y-76702884D01*
X116956884Y-76883991D01*
X116946829Y-76897095D01*
X116818767Y-77118905D01*
X116812446Y-77134165D01*
X116746156Y-77381562D01*
X116744000Y-77397938D01*
X105206000Y-77397938D01*
X105206000Y-76105191D01*
X124288888Y-76105191D01*
X124362697Y-76179000D01*
X127159479Y-76179000D01*
X127233288Y-76105191D01*
X127233290Y-73460809D01*
X127159481Y-73387000D01*
X124362699Y-73387000D01*
X124288890Y-73460809D01*
X124288888Y-76105191D01*
X105206000Y-76105191D01*
X105206000Y-74003438D01*
X107778500Y-74003438D01*
X107778500Y-74259562D01*
X107780656Y-74275938D01*
X107846946Y-74523335D01*
X107853267Y-74538595D01*
X107882368Y-74589000D01*
X107853267Y-74639405D01*
X107846946Y-74654665D01*
X107780656Y-74902062D01*
X107778500Y-74918438D01*
X107778500Y-75174562D01*
X107780656Y-75190938D01*
X107846946Y-75438335D01*
X107853267Y-75453595D01*
X107981329Y-75675405D01*
X107991384Y-75688509D01*
X108172491Y-75869616D01*
X108185595Y-75879671D01*
X108407405Y-76007733D01*
X108422665Y-76014054D01*
X108670062Y-76080344D01*
X108686438Y-76082500D01*
X108942562Y-76082500D01*
X108958938Y-76080344D01*
X109206335Y-76014054D01*
X109221595Y-76007733D01*
X109443405Y-75879671D01*
X109456509Y-75869616D01*
X109637616Y-75688509D01*
X109647671Y-75675405D01*
X109775733Y-75453595D01*
X109782054Y-75438335D01*
X109848344Y-75190938D01*
X109850500Y-75174562D01*
X109850500Y-74918438D01*
X109848344Y-74902062D01*
X109782054Y-74654665D01*
X109775733Y-74639405D01*
X109746632Y-74589000D01*
X109775733Y-74538595D01*
X109782054Y-74523335D01*
X109848344Y-74275938D01*
X109850500Y-74259562D01*
X109850500Y-74003438D01*
X109848344Y-73987062D01*
X109782054Y-73739665D01*
X109775733Y-73724405D01*
X109647671Y-73502595D01*
X109637616Y-73489491D01*
X109456509Y-73308384D01*
X109443405Y-73298329D01*
X109221595Y-73170267D01*
X109206335Y-73163946D01*
X108958938Y-73097656D01*
X108942562Y-73095500D01*
X108686438Y-73095500D01*
X108670062Y-73097656D01*
X108422665Y-73163946D01*
X108407405Y-73170267D01*
X108185595Y-73298329D01*
X108172491Y-73308384D01*
X107991384Y-73489491D01*
X107981329Y-73502595D01*
X107853267Y-73724405D01*
X107846946Y-73739665D01*
X107780656Y-73987062D01*
X107778500Y-74003438D01*
X105206000Y-74003438D01*
X105206000Y-72825938D01*
X118014000Y-72825938D01*
X118014000Y-73082062D01*
X118016156Y-73098438D01*
X118082446Y-73345835D01*
X118088767Y-73361095D01*
X118216829Y-73582905D01*
X118226884Y-73596009D01*
X118407991Y-73777116D01*
X118421095Y-73787171D01*
X118642905Y-73915233D01*
X118658165Y-73921554D01*
X118905562Y-73987844D01*
X118921938Y-73990000D01*
X119178062Y-73990000D01*
X119194438Y-73987844D01*
X119441835Y-73921554D01*
X119457095Y-73915233D01*
X119558000Y-73856975D01*
X119658905Y-73915233D01*
X119674165Y-73921554D01*
X119921562Y-73987844D01*
X119937938Y-73990000D01*
X120194062Y-73990000D01*
X120210438Y-73987844D01*
X120457835Y-73921554D01*
X120473095Y-73915233D01*
X120694905Y-73787171D01*
X120708009Y-73777116D01*
X120889116Y-73596009D01*
X120899171Y-73582905D01*
X121027233Y-73361095D01*
X121033554Y-73345835D01*
X121099844Y-73098438D01*
X121102000Y-73082062D01*
X121102000Y-72825938D01*
X121099844Y-72809562D01*
X121033554Y-72562165D01*
X121027233Y-72546905D01*
X120924369Y-72368738D01*
X122662200Y-72368738D01*
X122662200Y-72624862D01*
X122664356Y-72641238D01*
X122730646Y-72888635D01*
X122736967Y-72903895D01*
X122865029Y-73125705D01*
X122875084Y-73138809D01*
X123056191Y-73319916D01*
X123069295Y-73329971D01*
X123291105Y-73458033D01*
X123306365Y-73464354D01*
X123553762Y-73530644D01*
X123570138Y-73532800D01*
X123826262Y-73532800D01*
X123842638Y-73530644D01*
X124090035Y-73464354D01*
X124105295Y-73458033D01*
X124327105Y-73329971D01*
X124340209Y-73319916D01*
X124521316Y-73138809D01*
X124531371Y-73125705D01*
X124659433Y-72903895D01*
X124665754Y-72888635D01*
X124732044Y-72641238D01*
X124734200Y-72624862D01*
X124734200Y-72394138D01*
X126990890Y-72394138D01*
X126990890Y-72650262D01*
X126993046Y-72666638D01*
X127059336Y-72914035D01*
X127065657Y-72929295D01*
X127193719Y-73151105D01*
X127203774Y-73164209D01*
X127384881Y-73345316D01*
X127397985Y-73355371D01*
X127619795Y-73483433D01*
X127635055Y-73489754D01*
X127882452Y-73556044D01*
X127898828Y-73558200D01*
X128154952Y-73558200D01*
X128171328Y-73556044D01*
X128418725Y-73489754D01*
X128433985Y-73483433D01*
X128655795Y-73355371D01*
X128668899Y-73345316D01*
X128850006Y-73164209D01*
X128860061Y-73151105D01*
X128988123Y-72929295D01*
X128994444Y-72914035D01*
X129060734Y-72666638D01*
X129062890Y-72650262D01*
X129062890Y-72394138D01*
X129060734Y-72377762D01*
X128994444Y-72130365D01*
X128988123Y-72115105D01*
X128860061Y-71893295D01*
X128850006Y-71880191D01*
X128668899Y-71699084D01*
X128655795Y-71689029D01*
X128433985Y-71560967D01*
X128418725Y-71554646D01*
X128171328Y-71488356D01*
X128154952Y-71486200D01*
X127898828Y-71486200D01*
X127882452Y-71488356D01*
X127635055Y-71554646D01*
X127619795Y-71560967D01*
X127397985Y-71689029D01*
X127384881Y-71699084D01*
X127203774Y-71880191D01*
X127193719Y-71893295D01*
X127065657Y-72115105D01*
X127059336Y-72130365D01*
X126993046Y-72377762D01*
X126990890Y-72394138D01*
X124734200Y-72394138D01*
X124734200Y-72368738D01*
X124732044Y-72352362D01*
X124665754Y-72104965D01*
X124659433Y-72089705D01*
X124531371Y-71867895D01*
X124521316Y-71854791D01*
X124340209Y-71673684D01*
X124327105Y-71663629D01*
X124105295Y-71535567D01*
X124090035Y-71529246D01*
X123842638Y-71462956D01*
X123826262Y-71460800D01*
X123570138Y-71460800D01*
X123553762Y-71462956D01*
X123306365Y-71529246D01*
X123291105Y-71535567D01*
X123069295Y-71663629D01*
X123056191Y-71673684D01*
X122875084Y-71854791D01*
X122865029Y-71867895D01*
X122736967Y-72089705D01*
X122730646Y-72104965D01*
X122664356Y-72352362D01*
X122662200Y-72368738D01*
X120924369Y-72368738D01*
X120899171Y-72325095D01*
X120894494Y-72319000D01*
X120899171Y-72312905D01*
X121027233Y-72091095D01*
X121033554Y-72075835D01*
X121099844Y-71828438D01*
X121102000Y-71812062D01*
X121102000Y-71555938D01*
X121099844Y-71539562D01*
X121033554Y-71292165D01*
X121027233Y-71276905D01*
X120899171Y-71055095D01*
X120889116Y-71041991D01*
X120708009Y-70860884D01*
X120694905Y-70850829D01*
X120473095Y-70722767D01*
X120457835Y-70716446D01*
X120210438Y-70650156D01*
X120194062Y-70648000D01*
X119937938Y-70648000D01*
X119921562Y-70650156D01*
X119674165Y-70716446D01*
X119658905Y-70722767D01*
X119437095Y-70850829D01*
X119423991Y-70860884D01*
X119242884Y-71041991D01*
X119232829Y-71055095D01*
X119104767Y-71276905D01*
X119098446Y-71292165D01*
X119032156Y-71539562D01*
X119030000Y-71555938D01*
X119030000Y-71812062D01*
X119032156Y-71828438D01*
X119056154Y-71918000D01*
X118921938Y-71918000D01*
X118905562Y-71920156D01*
X118658165Y-71986446D01*
X118642905Y-71992767D01*
X118421095Y-72120829D01*
X118407991Y-72130884D01*
X118226884Y-72311991D01*
X118216829Y-72325095D01*
X118088767Y-72546905D01*
X118082446Y-72562165D01*
X118016156Y-72809562D01*
X118014000Y-72825938D01*
X105206000Y-72825938D01*
X105206000Y-70539938D01*
X110902000Y-70539938D01*
X110902000Y-70796062D01*
X110904156Y-70812438D01*
X110970446Y-71059835D01*
X110976767Y-71075095D01*
X111104829Y-71296905D01*
X111114884Y-71310009D01*
X111295991Y-71491116D01*
X111309095Y-71501171D01*
X111530905Y-71629233D01*
X111546165Y-71635554D01*
X111793562Y-71701844D01*
X111809938Y-71704000D01*
X112066062Y-71704000D01*
X112082438Y-71701844D01*
X112329835Y-71635554D01*
X112345095Y-71629233D01*
X112566905Y-71501171D01*
X112573000Y-71496494D01*
X112579095Y-71501171D01*
X112800905Y-71629233D01*
X112816165Y-71635554D01*
X113063562Y-71701844D01*
X113079938Y-71704000D01*
X113336062Y-71704000D01*
X113352438Y-71701844D01*
X113599835Y-71635554D01*
X113615095Y-71629233D01*
X113836905Y-71501171D01*
X113850009Y-71491116D01*
X114031116Y-71310009D01*
X114041171Y-71296905D01*
X114169233Y-71075095D01*
X114175554Y-71059835D01*
X114241844Y-70812438D01*
X114244000Y-70796062D01*
X114244000Y-70539938D01*
X114241844Y-70523562D01*
X114175554Y-70276165D01*
X114169233Y-70260905D01*
X114041171Y-70039095D01*
X114031116Y-70025991D01*
X113850009Y-69844884D01*
X113836905Y-69834829D01*
X113615095Y-69706767D01*
X113599835Y-69700446D01*
X113352438Y-69634156D01*
X113336062Y-69632000D01*
X113079938Y-69632000D01*
X113063562Y-69634156D01*
X112816165Y-69700446D01*
X112800905Y-69706767D01*
X112579095Y-69834829D01*
X112573000Y-69839506D01*
X112566905Y-69834829D01*
X112345095Y-69706767D01*
X112329835Y-69700446D01*
X112082438Y-69634156D01*
X112066062Y-69632000D01*
X111809938Y-69632000D01*
X111793562Y-69634156D01*
X111546165Y-69700446D01*
X111530905Y-69706767D01*
X111309095Y-69834829D01*
X111295991Y-69844884D01*
X111114884Y-70025991D01*
X111104829Y-70039095D01*
X110976767Y-70260905D01*
X110970446Y-70276165D01*
X110904156Y-70523562D01*
X110902000Y-70539938D01*
X105206000Y-70539938D01*
X105206000Y-69599809D01*
X105132191Y-69526000D01*
X100634000Y-69526000D01*
X100634000Y-68507938D01*
X109124000Y-68507938D01*
X109124000Y-68764062D01*
X109126156Y-68780438D01*
X109192446Y-69027835D01*
X109198767Y-69043095D01*
X109326829Y-69264905D01*
X109336884Y-69278009D01*
X109517991Y-69459116D01*
X109531095Y-69469171D01*
X109752905Y-69597233D01*
X109768165Y-69603554D01*
X110015562Y-69669844D01*
X110031938Y-69672000D01*
X110288062Y-69672000D01*
X110304438Y-69669844D01*
X110551835Y-69603554D01*
X110567095Y-69597233D01*
X110788905Y-69469171D01*
X110802009Y-69459116D01*
X110983116Y-69278009D01*
X110993171Y-69264905D01*
X111121233Y-69043095D01*
X111127554Y-69027835D01*
X111193844Y-68780438D01*
X111196000Y-68764062D01*
X111196000Y-68597125D01*
X111295991Y-68697116D01*
X111309095Y-68707171D01*
X111530905Y-68835233D01*
X111546165Y-68841554D01*
X111793562Y-68907844D01*
X111809938Y-68910000D01*
X112066062Y-68910000D01*
X112082438Y-68907844D01*
X112329835Y-68841554D01*
X112345095Y-68835233D01*
X112566905Y-68707171D01*
X112580009Y-68697116D01*
X112761116Y-68516009D01*
X112771171Y-68502905D01*
X112899233Y-68281095D01*
X112905554Y-68265835D01*
X112971844Y-68018438D01*
X112974000Y-68002062D01*
X112974000Y-67745938D01*
X112971844Y-67729562D01*
X112905554Y-67482165D01*
X112899233Y-67466905D01*
X112771171Y-67245095D01*
X112761116Y-67231991D01*
X112580009Y-67050884D01*
X112566905Y-67040829D01*
X112345095Y-66912767D01*
X112329835Y-66906446D01*
X112082438Y-66840156D01*
X112066062Y-66838000D01*
X111809938Y-66838000D01*
X111793562Y-66840156D01*
X111546165Y-66906446D01*
X111530905Y-66912767D01*
X111309095Y-67040829D01*
X111295991Y-67050884D01*
X111114884Y-67231991D01*
X111104829Y-67245095D01*
X110976767Y-67466905D01*
X110970446Y-67482165D01*
X110904156Y-67729562D01*
X110902000Y-67745938D01*
X110902000Y-67912875D01*
X110802009Y-67812884D01*
X110788905Y-67802829D01*
X110567095Y-67674767D01*
X110551835Y-67668446D01*
X110304438Y-67602156D01*
X110288062Y-67600000D01*
X110031938Y-67600000D01*
X110015562Y-67602156D01*
X109768165Y-67668446D01*
X109752905Y-67674767D01*
X109531095Y-67802829D01*
X109517991Y-67812884D01*
X109336884Y-67993991D01*
X109326829Y-68007095D01*
X109198767Y-68228905D01*
X109192446Y-68244165D01*
X109126156Y-68491562D01*
X109124000Y-68507938D01*
X100634000Y-68507938D01*
X100634000Y-66612320D01*
X103568699Y-66612320D01*
X103577814Y-66728135D01*
X103806604Y-66894363D01*
X103813873Y-66898922D01*
X104074740Y-67038798D01*
X104082560Y-67042329D01*
X104359998Y-67145507D01*
X104368224Y-67147944D01*
X104657098Y-67212514D01*
X104665579Y-67213812D01*
X104960543Y-67238581D01*
X104969122Y-67238716D01*
X105264718Y-67223225D01*
X105273236Y-67222194D01*
X105563996Y-67166728D01*
X105572295Y-67164551D01*
X105852836Y-67070138D01*
X105860762Y-67066855D01*
X106125896Y-66935242D01*
X106133303Y-66930913D01*
X106423477Y-66733712D01*
X106434637Y-66615656D01*
X106294919Y-66475938D01*
X113442000Y-66475938D01*
X113442000Y-66732062D01*
X113444156Y-66748438D01*
X113510446Y-66995835D01*
X113516767Y-67011095D01*
X113644829Y-67232905D01*
X113654884Y-67246009D01*
X113835991Y-67427116D01*
X113849095Y-67437171D01*
X114070905Y-67565233D01*
X114086165Y-67571554D01*
X114333562Y-67637844D01*
X114349938Y-67640000D01*
X114606062Y-67640000D01*
X114622438Y-67637844D01*
X114869835Y-67571554D01*
X114885095Y-67565233D01*
X114986000Y-67506975D01*
X115086905Y-67565233D01*
X115102165Y-67571554D01*
X115349562Y-67637844D01*
X115365938Y-67640000D01*
X115622062Y-67640000D01*
X115638438Y-67637844D01*
X115885835Y-67571554D01*
X115901095Y-67565233D01*
X116116033Y-67441138D01*
X120858800Y-67441138D01*
X120858800Y-67697262D01*
X120860956Y-67713638D01*
X120927246Y-67961035D01*
X120933567Y-67976295D01*
X121061629Y-68198105D01*
X121071684Y-68211209D01*
X121252791Y-68392316D01*
X121265895Y-68402371D01*
X121487705Y-68530433D01*
X121502965Y-68536754D01*
X121750362Y-68603044D01*
X121766738Y-68605200D01*
X122022862Y-68605200D01*
X122039238Y-68603044D01*
X122286635Y-68536754D01*
X122301895Y-68530433D01*
X122523705Y-68402371D01*
X122536809Y-68392316D01*
X122717916Y-68211209D01*
X122727971Y-68198105D01*
X122856033Y-67976295D01*
X122862354Y-67961035D01*
X122928644Y-67713638D01*
X122930800Y-67697262D01*
X122930800Y-67441138D01*
X122928644Y-67424762D01*
X122862354Y-67177365D01*
X122856033Y-67162105D01*
X122727971Y-66940295D01*
X122717916Y-66927191D01*
X122536809Y-66746084D01*
X122523705Y-66736029D01*
X122309435Y-66612320D01*
X123568699Y-66612320D01*
X123577814Y-66728135D01*
X123806604Y-66894363D01*
X123813873Y-66898922D01*
X124074740Y-67038798D01*
X124082560Y-67042329D01*
X124359998Y-67145507D01*
X124368224Y-67147944D01*
X124657098Y-67212514D01*
X124665579Y-67213812D01*
X124960543Y-67238581D01*
X124969122Y-67238716D01*
X125264718Y-67223225D01*
X125273236Y-67222194D01*
X125563996Y-67166728D01*
X125572295Y-67164551D01*
X125852836Y-67070138D01*
X125860762Y-67066855D01*
X126125896Y-66935242D01*
X126133303Y-66930913D01*
X126423477Y-66733712D01*
X126434637Y-66615656D01*
X125052191Y-65233210D01*
X124947809Y-65233210D01*
X123568699Y-66612320D01*
X122309435Y-66612320D01*
X122301895Y-66607967D01*
X122286635Y-66601646D01*
X122039238Y-66535356D01*
X122022862Y-66533200D01*
X121766738Y-66533200D01*
X121750362Y-66535356D01*
X121502965Y-66601646D01*
X121487705Y-66607967D01*
X121265895Y-66736029D01*
X121252791Y-66746084D01*
X121071684Y-66927191D01*
X121061629Y-66940295D01*
X120933567Y-67162105D01*
X120927246Y-67177365D01*
X120860956Y-67424762D01*
X120858800Y-67441138D01*
X116116033Y-67441138D01*
X116122905Y-67437171D01*
X116136009Y-67427116D01*
X116317116Y-67246009D01*
X116327171Y-67232905D01*
X116455233Y-67011095D01*
X116461554Y-66995835D01*
X116527844Y-66748438D01*
X116530000Y-66732062D01*
X116530000Y-66475938D01*
X116527844Y-66459562D01*
X116461554Y-66212165D01*
X116455233Y-66196905D01*
X116327171Y-65975095D01*
X116317116Y-65961991D01*
X116136009Y-65780884D01*
X116122905Y-65770829D01*
X115901095Y-65642767D01*
X115885835Y-65636446D01*
X115638438Y-65570156D01*
X115622062Y-65568000D01*
X115365938Y-65568000D01*
X115349562Y-65570156D01*
X115102165Y-65636446D01*
X115086905Y-65642767D01*
X114986000Y-65701025D01*
X114885095Y-65642767D01*
X114869835Y-65636446D01*
X114622438Y-65570156D01*
X114606062Y-65568000D01*
X114349938Y-65568000D01*
X114333562Y-65570156D01*
X114086165Y-65636446D01*
X114070905Y-65642767D01*
X113849095Y-65770829D01*
X113835991Y-65780884D01*
X113654884Y-65961991D01*
X113644829Y-65975095D01*
X113516767Y-66196905D01*
X113510446Y-66212165D01*
X113444156Y-66459562D01*
X113442000Y-66475938D01*
X106294919Y-66475938D01*
X105052191Y-65233210D01*
X104947809Y-65233210D01*
X103568699Y-66612320D01*
X100634000Y-66612320D01*
X100634000Y-65124598D01*
X102764541Y-65124598D01*
X102765035Y-65133164D01*
X102802133Y-65426832D01*
X102803785Y-65435252D01*
X102880397Y-65721168D01*
X102883176Y-65729285D01*
X102997881Y-66002159D01*
X103001736Y-66009824D01*
X103152413Y-66264606D01*
X103157273Y-66271677D01*
X103276974Y-66422701D01*
X103389776Y-66429205D01*
X104766790Y-65052191D01*
X104766790Y-64947809D01*
X105233210Y-64947809D01*
X105233210Y-65052191D01*
X106610388Y-66429369D01*
X106720911Y-66424736D01*
X106801873Y-66328930D01*
X106806953Y-66322015D01*
X106965559Y-66072093D01*
X106969653Y-66064553D01*
X107092873Y-65795417D01*
X107095905Y-65787391D01*
X107181459Y-65504022D01*
X107183375Y-65495659D01*
X107229731Y-65202974D01*
X107230505Y-65193766D01*
X107231229Y-65124598D01*
X122764541Y-65124598D01*
X122765035Y-65133164D01*
X122802133Y-65426832D01*
X122803785Y-65435252D01*
X122880397Y-65721168D01*
X122883176Y-65729285D01*
X122997881Y-66002159D01*
X123001736Y-66009824D01*
X123152413Y-66264606D01*
X123157273Y-66271677D01*
X123276974Y-66422701D01*
X123389776Y-66429205D01*
X124766790Y-65052191D01*
X124766790Y-64947809D01*
X125233210Y-64947809D01*
X125233210Y-65052191D01*
X126610388Y-66429369D01*
X126720911Y-66424736D01*
X126801873Y-66328930D01*
X126806953Y-66322015D01*
X126965559Y-66072093D01*
X126969653Y-66064553D01*
X127092873Y-65795417D01*
X127095905Y-65787391D01*
X127181459Y-65504022D01*
X127183375Y-65495659D01*
X127229731Y-65202974D01*
X127230505Y-65193766D01*
X127234073Y-64852988D01*
X127233493Y-64843766D01*
X127193276Y-64550176D01*
X127191536Y-64541774D01*
X127111936Y-64256675D01*
X127109072Y-64248588D01*
X126991515Y-63976930D01*
X126987580Y-63969306D01*
X126834243Y-63716116D01*
X126829309Y-63709096D01*
X126722158Y-63576777D01*
X126610114Y-63570905D01*
X125233210Y-64947809D01*
X124766790Y-64947809D01*
X123389831Y-63570850D01*
X123278547Y-63576098D01*
X123184309Y-63690011D01*
X123179302Y-63696979D01*
X123023323Y-63948549D01*
X123019308Y-63956131D01*
X122898912Y-64226543D01*
X122895964Y-64234601D01*
X122813382Y-64518850D01*
X122811554Y-64527233D01*
X122768313Y-64820059D01*
X122767640Y-64828613D01*
X122764541Y-65124598D01*
X107231229Y-65124598D01*
X107234073Y-64852988D01*
X107233493Y-64843766D01*
X107193276Y-64550176D01*
X107191536Y-64541774D01*
X107111936Y-64256675D01*
X107109072Y-64248588D01*
X106991515Y-63976930D01*
X106987580Y-63969306D01*
X106834243Y-63716116D01*
X106829309Y-63709096D01*
X106722158Y-63576777D01*
X106610114Y-63570905D01*
X105233210Y-64947809D01*
X104766790Y-64947809D01*
X103389831Y-63570850D01*
X103278547Y-63576098D01*
X103184309Y-63690011D01*
X103179302Y-63696979D01*
X103023323Y-63948549D01*
X103019308Y-63956131D01*
X102898912Y-64226543D01*
X102895964Y-64234601D01*
X102813382Y-64518850D01*
X102811554Y-64527233D01*
X102768313Y-64820059D01*
X102767640Y-64828613D01*
X102764541Y-65124598D01*
X100634000Y-65124598D01*
X100634000Y-65063489D01*
X100636838Y-65049416D01*
X100638001Y-65040137D01*
X100638565Y-65029013D01*
X100638583Y-65028631D01*
X100657119Y-64612411D01*
X100708768Y-64227881D01*
X100794391Y-63849484D01*
X100913319Y-63480170D01*
X100953353Y-63385626D01*
X103566645Y-63385626D01*
X104947809Y-64766790D01*
X105052191Y-64766790D01*
X106391043Y-63427938D01*
X114204000Y-63427938D01*
X114204000Y-63684062D01*
X114206156Y-63700438D01*
X114272446Y-63947835D01*
X114278767Y-63963095D01*
X114406829Y-64184905D01*
X114416884Y-64198009D01*
X114597991Y-64379116D01*
X114611095Y-64389171D01*
X114832905Y-64517233D01*
X114848165Y-64523554D01*
X115095562Y-64589844D01*
X115111938Y-64592000D01*
X115368062Y-64592000D01*
X115384438Y-64589844D01*
X115631835Y-64523554D01*
X115647095Y-64517233D01*
X115868905Y-64389171D01*
X115875000Y-64384494D01*
X115881095Y-64389171D01*
X116102905Y-64517233D01*
X116118165Y-64523554D01*
X116365562Y-64589844D01*
X116381938Y-64592000D01*
X116638062Y-64592000D01*
X116654438Y-64589844D01*
X116901835Y-64523554D01*
X116917095Y-64517233D01*
X117138905Y-64389171D01*
X117152009Y-64379116D01*
X117333116Y-64198009D01*
X117343171Y-64184905D01*
X117471233Y-63963095D01*
X117477554Y-63947835D01*
X117543844Y-63700438D01*
X117546000Y-63684062D01*
X117546000Y-63427938D01*
X117543844Y-63411562D01*
X117536895Y-63385626D01*
X123566645Y-63385626D01*
X124947809Y-64766790D01*
X125052191Y-64766790D01*
X126432243Y-63386738D01*
X126422455Y-63270174D01*
X126173493Y-63093244D01*
X126166177Y-63088761D01*
X125903859Y-62951625D01*
X125896003Y-62948176D01*
X125617500Y-62847909D01*
X125609248Y-62845558D01*
X125319715Y-62784016D01*
X125311220Y-62782807D01*
X125016013Y-62761128D01*
X125007433Y-62761083D01*
X124712015Y-62779669D01*
X124703508Y-62780789D01*
X124413346Y-62839297D01*
X124405070Y-62841561D01*
X124125533Y-62938905D01*
X124117641Y-62942272D01*
X123853901Y-63076654D01*
X123846539Y-63081060D01*
X123577115Y-63268315D01*
X123566645Y-63385626D01*
X117536895Y-63385626D01*
X117477554Y-63164165D01*
X117471233Y-63148905D01*
X117343171Y-62927095D01*
X117333116Y-62913991D01*
X117152009Y-62732884D01*
X117138905Y-62722829D01*
X116917095Y-62594767D01*
X116901835Y-62588446D01*
X116654438Y-62522156D01*
X116638062Y-62520000D01*
X116381938Y-62520000D01*
X116365562Y-62522156D01*
X116118165Y-62588446D01*
X116102905Y-62594767D01*
X115881095Y-62722829D01*
X115875000Y-62727506D01*
X115868905Y-62722829D01*
X115647095Y-62594767D01*
X115631835Y-62588446D01*
X115384438Y-62522156D01*
X115368062Y-62520000D01*
X115111938Y-62520000D01*
X115095562Y-62522156D01*
X114848165Y-62588446D01*
X114832905Y-62594767D01*
X114611095Y-62722829D01*
X114597991Y-62732884D01*
X114416884Y-62913991D01*
X114406829Y-62927095D01*
X114278767Y-63148905D01*
X114272446Y-63164165D01*
X114206156Y-63411562D01*
X114204000Y-63427938D01*
X106391043Y-63427938D01*
X106432243Y-63386738D01*
X106422455Y-63270174D01*
X106173493Y-63093244D01*
X106166177Y-63088761D01*
X105903859Y-62951625D01*
X105896003Y-62948176D01*
X105617500Y-62847909D01*
X105609248Y-62845558D01*
X105319715Y-62784016D01*
X105311220Y-62782807D01*
X105016013Y-62761128D01*
X105007433Y-62761083D01*
X104712015Y-62779669D01*
X104703508Y-62780789D01*
X104413346Y-62839297D01*
X104405070Y-62841561D01*
X104125533Y-62938905D01*
X104117641Y-62942272D01*
X103853901Y-63076654D01*
X103846539Y-63081060D01*
X103577115Y-63268315D01*
X103566645Y-63385626D01*
X100953353Y-63385626D01*
X101064598Y-63122916D01*
X101247043Y-62780508D01*
X101459203Y-62455672D01*
X101699399Y-62150987D01*
X101965719Y-61868869D01*
X102256077Y-61611529D01*
X102568146Y-61381032D01*
X102899485Y-61179179D01*
X103247445Y-61007584D01*
X103609303Y-60867592D01*
X103982137Y-60760329D01*
X104363060Y-60686631D01*
X104754014Y-60646575D01*
X105022887Y-60638830D01*
X105031807Y-60637935D01*
X105054588Y-60634000D01*
X124936511Y-60634000D01*
X124950584Y-60636838D01*
%TA.AperFunction,Conductor*%
G36*
X124950584Y-60636838D02*
G01*
X124959863Y-60638001D01*
X124970987Y-60638565D01*
X124971369Y-60638583D01*
X125387589Y-60657119D01*
X125772119Y-60708768D01*
X126150516Y-60794391D01*
X126519830Y-60913319D01*
X126877084Y-61064598D01*
X127219492Y-61247043D01*
X127544328Y-61459203D01*
X127849013Y-61699399D01*
X128131131Y-61965719D01*
X128388471Y-62256077D01*
X128618968Y-62568146D01*
X128820821Y-62899485D01*
X128992416Y-63247445D01*
X129132408Y-63609303D01*
X129239671Y-63982137D01*
X129313369Y-64363060D01*
X129353425Y-64754014D01*
X129361170Y-65022887D01*
X129362065Y-65031807D01*
X129366000Y-65054588D01*
X129366001Y-84936507D01*
X129363163Y-84950582D01*
X129361999Y-84959862D01*
X129361435Y-84970986D01*
X129361417Y-84971368D01*
X129342881Y-85387589D01*
X129291232Y-85772118D01*
X129205609Y-86150516D01*
X129086681Y-86519830D01*
X128935402Y-86877084D01*
X128752957Y-87219492D01*
X128540797Y-87544328D01*
X128300610Y-87849002D01*
X128034280Y-88131132D01*
X127743923Y-88388471D01*
X127431854Y-88618968D01*
X127100515Y-88820821D01*
X126752555Y-88992416D01*
X126390707Y-89132405D01*
X126017849Y-89239673D01*
X125636940Y-89313369D01*
X125245986Y-89353425D01*
X124977113Y-89361170D01*
X124968193Y-89362065D01*
X124945412Y-89366000D01*
X116199556Y-89366000D01*
X116201233Y-89363095D01*
X116207554Y-89347835D01*
X116273844Y-89100438D01*
X116276000Y-89084062D01*
X116276000Y-88827938D01*
X116273844Y-88811562D01*
X116207554Y-88564165D01*
X116201233Y-88548905D01*
X116073171Y-88327095D01*
X116063116Y-88313991D01*
X115905848Y-88156723D01*
X116111562Y-88211844D01*
X116127938Y-88214000D01*
X116384062Y-88214000D01*
X116400438Y-88211844D01*
X116647835Y-88145554D01*
X116663095Y-88139233D01*
X116884905Y-88011171D01*
X116898009Y-88001116D01*
X117079116Y-87820009D01*
X117089171Y-87806905D01*
X117217233Y-87585095D01*
X117223554Y-87569835D01*
X117289844Y-87322438D01*
X117292000Y-87306062D01*
X117292000Y-87049938D01*
X117289844Y-87033562D01*
X117223554Y-86786165D01*
X117217233Y-86770905D01*
X117125674Y-86612320D01*
X123568699Y-86612320D01*
X123577814Y-86728135D01*
X123806604Y-86894363D01*
X123813873Y-86898922D01*
X124074740Y-87038798D01*
X124082560Y-87042329D01*
X124359998Y-87145507D01*
X124368224Y-87147944D01*
X124657098Y-87212514D01*
X124665579Y-87213812D01*
X124960543Y-87238581D01*
X124969122Y-87238716D01*
X125264718Y-87223225D01*
X125273236Y-87222194D01*
X125563996Y-87166728D01*
X125572295Y-87164551D01*
X125852836Y-87070138D01*
X125860762Y-87066855D01*
X126125896Y-86935242D01*
X126133303Y-86930913D01*
X126423477Y-86733712D01*
X126434637Y-86615656D01*
X125052191Y-85233210D01*
X124947809Y-85233210D01*
X123568699Y-86612320D01*
X117125674Y-86612320D01*
X117089171Y-86549095D01*
X117079116Y-86535991D01*
X116898009Y-86354884D01*
X116884905Y-86344829D01*
X116663095Y-86216767D01*
X116647835Y-86210446D01*
X116400438Y-86144156D01*
X116384062Y-86142000D01*
X116127938Y-86142000D01*
X116111562Y-86144156D01*
X115864165Y-86210446D01*
X115848905Y-86216767D01*
X115627095Y-86344829D01*
X115613991Y-86354884D01*
X115432884Y-86535991D01*
X115422829Y-86549095D01*
X115294767Y-86770905D01*
X115288446Y-86786165D01*
X115222156Y-87033562D01*
X115220000Y-87049938D01*
X115220000Y-87306062D01*
X115222156Y-87322438D01*
X115288446Y-87569835D01*
X115294767Y-87585095D01*
X115422829Y-87806905D01*
X115432884Y-87820009D01*
X115590152Y-87977277D01*
X115384438Y-87922156D01*
X115368062Y-87920000D01*
X115111938Y-87920000D01*
X115095562Y-87922156D01*
X114848165Y-87988446D01*
X114832905Y-87994767D01*
X114611095Y-88122829D01*
X114597991Y-88132884D01*
X114416884Y-88313991D01*
X114406829Y-88327095D01*
X114278767Y-88548905D01*
X114272446Y-88564165D01*
X114206156Y-88811562D01*
X114204000Y-88827938D01*
X114204000Y-89084062D01*
X114206156Y-89100438D01*
X114272446Y-89347835D01*
X114278767Y-89363095D01*
X114280444Y-89366000D01*
X105063490Y-89366000D01*
X105049417Y-89363162D01*
X105040138Y-89361999D01*
X105029014Y-89361435D01*
X105028632Y-89361417D01*
X104612411Y-89342881D01*
X104227882Y-89291232D01*
X103849484Y-89205609D01*
X103480170Y-89086681D01*
X103122916Y-88935402D01*
X102780508Y-88752957D01*
X102455672Y-88540797D01*
X102150998Y-88300610D01*
X101868868Y-88034280D01*
X101611529Y-87743923D01*
X101381032Y-87431854D01*
X101179179Y-87100515D01*
X101007584Y-86752555D01*
X100953331Y-86612320D01*
X103568699Y-86612320D01*
X103577814Y-86728135D01*
X103806604Y-86894363D01*
X103813873Y-86898922D01*
X104074740Y-87038798D01*
X104082560Y-87042329D01*
X104359998Y-87145507D01*
X104368224Y-87147944D01*
X104657098Y-87212514D01*
X104665579Y-87213812D01*
X104960543Y-87238581D01*
X104969122Y-87238716D01*
X105264718Y-87223225D01*
X105273236Y-87222194D01*
X105563996Y-87166728D01*
X105572295Y-87164551D01*
X105852836Y-87070138D01*
X105860762Y-87066855D01*
X106125896Y-86935242D01*
X106133303Y-86930913D01*
X106423477Y-86733712D01*
X106434637Y-86615656D01*
X105052191Y-85233210D01*
X104947809Y-85233210D01*
X103568699Y-86612320D01*
X100953331Y-86612320D01*
X100867595Y-86390707D01*
X100760327Y-86017849D01*
X100686631Y-85636940D01*
X100646575Y-85245986D01*
X100643079Y-85124598D01*
X102764541Y-85124598D01*
X102765035Y-85133164D01*
X102802133Y-85426832D01*
X102803785Y-85435252D01*
X102880397Y-85721168D01*
X102883176Y-85729285D01*
X102997881Y-86002159D01*
X103001736Y-86009824D01*
X103152413Y-86264606D01*
X103157273Y-86271677D01*
X103276974Y-86422701D01*
X103389776Y-86429205D01*
X104766790Y-85052191D01*
X104766790Y-84947809D01*
X105233210Y-84947809D01*
X105233210Y-85052191D01*
X106610388Y-86429369D01*
X106720911Y-86424736D01*
X106801873Y-86328930D01*
X106806953Y-86322015D01*
X106965559Y-86072093D01*
X106969653Y-86064553D01*
X107092873Y-85795417D01*
X107095905Y-85787391D01*
X107181459Y-85504022D01*
X107183375Y-85495659D01*
X107229731Y-85202974D01*
X107230505Y-85193766D01*
X107231229Y-85124598D01*
X122764541Y-85124598D01*
X122765035Y-85133164D01*
X122802133Y-85426832D01*
X122803785Y-85435252D01*
X122880397Y-85721168D01*
X122883176Y-85729285D01*
X122997881Y-86002159D01*
X123001736Y-86009824D01*
X123152413Y-86264606D01*
X123157273Y-86271677D01*
X123276974Y-86422701D01*
X123389776Y-86429205D01*
X124766790Y-85052191D01*
X124766790Y-84947809D01*
X125233210Y-84947809D01*
X125233210Y-85052191D01*
X126610388Y-86429369D01*
X126720911Y-86424736D01*
X126801873Y-86328930D01*
X126806953Y-86322015D01*
X126965559Y-86072093D01*
X126969653Y-86064553D01*
X127092873Y-85795417D01*
X127095905Y-85787391D01*
X127181459Y-85504022D01*
X127183375Y-85495659D01*
X127229731Y-85202974D01*
X127230505Y-85193766D01*
X127234073Y-84852988D01*
X127233493Y-84843766D01*
X127193276Y-84550176D01*
X127191536Y-84541774D01*
X127111936Y-84256675D01*
X127109072Y-84248588D01*
X126991515Y-83976930D01*
X126987580Y-83969306D01*
X126834243Y-83716116D01*
X126829309Y-83709096D01*
X126722158Y-83576777D01*
X126610114Y-83570905D01*
X125233210Y-84947809D01*
X124766790Y-84947809D01*
X123389831Y-83570850D01*
X123278547Y-83576098D01*
X123184309Y-83690011D01*
X123179302Y-83696979D01*
X123023323Y-83948549D01*
X123019308Y-83956131D01*
X122898912Y-84226543D01*
X122895964Y-84234601D01*
X122813382Y-84518850D01*
X122811554Y-84527233D01*
X122768313Y-84820059D01*
X122767640Y-84828613D01*
X122764541Y-85124598D01*
X107231229Y-85124598D01*
X107234073Y-84852988D01*
X107233493Y-84843766D01*
X107193276Y-84550176D01*
X107191536Y-84541774D01*
X107111936Y-84256675D01*
X107109072Y-84248588D01*
X106991515Y-83976930D01*
X106987580Y-83969306D01*
X106834243Y-83716116D01*
X106829309Y-83709096D01*
X106722158Y-83576777D01*
X106610114Y-83570905D01*
X105233210Y-84947809D01*
X104766790Y-84947809D01*
X103389831Y-83570850D01*
X103278547Y-83576098D01*
X103184309Y-83690011D01*
X103179302Y-83696979D01*
X103023323Y-83948549D01*
X103019308Y-83956131D01*
X102898912Y-84226543D01*
X102895964Y-84234601D01*
X102813382Y-84518850D01*
X102811554Y-84527233D01*
X102768313Y-84820059D01*
X102767640Y-84828613D01*
X102764541Y-85124598D01*
X100643079Y-85124598D01*
X100638830Y-84977113D01*
X100637935Y-84968193D01*
X100634000Y-84945412D01*
X100634000Y-83385626D01*
X103566645Y-83385626D01*
X104947809Y-84766790D01*
X105052191Y-84766790D01*
X106432243Y-83386738D01*
X106422455Y-83270174D01*
X106173493Y-83093244D01*
X106166177Y-83088761D01*
X105969494Y-82985938D01*
X114712000Y-82985938D01*
X114712000Y-83242062D01*
X114714156Y-83258438D01*
X114780446Y-83505835D01*
X114786767Y-83521095D01*
X114914829Y-83742905D01*
X114924884Y-83756009D01*
X115105991Y-83937116D01*
X115119095Y-83947171D01*
X115340905Y-84075233D01*
X115356165Y-84081554D01*
X115603562Y-84147844D01*
X115619938Y-84150000D01*
X115876062Y-84150000D01*
X115892438Y-84147844D01*
X116139835Y-84081554D01*
X116155095Y-84075233D01*
X116256000Y-84016975D01*
X116356905Y-84075233D01*
X116372165Y-84081554D01*
X116619562Y-84147844D01*
X116635938Y-84150000D01*
X116892062Y-84150000D01*
X116908438Y-84147844D01*
X117155835Y-84081554D01*
X117171095Y-84075233D01*
X117392905Y-83947171D01*
X117406009Y-83937116D01*
X117526000Y-83817125D01*
X117645991Y-83937116D01*
X117659095Y-83947171D01*
X117880905Y-84075233D01*
X117896165Y-84081554D01*
X118143562Y-84147844D01*
X118159938Y-84150000D01*
X118416062Y-84150000D01*
X118432438Y-84147844D01*
X118679835Y-84081554D01*
X118695095Y-84075233D01*
X118916905Y-83947171D01*
X118930009Y-83937116D01*
X119111116Y-83756009D01*
X119121171Y-83742905D01*
X119249233Y-83521095D01*
X119255554Y-83505835D01*
X119287763Y-83385626D01*
X123566645Y-83385626D01*
X124947809Y-84766790D01*
X125052191Y-84766790D01*
X126432243Y-83386738D01*
X126422455Y-83270174D01*
X126173493Y-83093244D01*
X126166177Y-83088761D01*
X125903859Y-82951625D01*
X125896003Y-82948176D01*
X125617500Y-82847909D01*
X125609248Y-82845558D01*
X125319715Y-82784016D01*
X125311220Y-82782807D01*
X125016013Y-82761128D01*
X125007433Y-82761083D01*
X124712015Y-82779669D01*
X124703508Y-82780789D01*
X124413346Y-82839297D01*
X124405070Y-82841561D01*
X124125533Y-82938905D01*
X124117641Y-82942272D01*
X123853901Y-83076654D01*
X123846539Y-83081060D01*
X123577115Y-83268315D01*
X123566645Y-83385626D01*
X119287763Y-83385626D01*
X119321844Y-83258438D01*
X119324000Y-83242062D01*
X119324000Y-82985938D01*
X119321844Y-82969562D01*
X119255554Y-82722165D01*
X119249233Y-82706905D01*
X119121171Y-82485095D01*
X119111116Y-82471991D01*
X118930009Y-82290884D01*
X118916905Y-82280829D01*
X118695095Y-82152767D01*
X118679835Y-82146446D01*
X118432438Y-82080156D01*
X118416062Y-82078000D01*
X118159938Y-82078000D01*
X118143562Y-82080156D01*
X117896165Y-82146446D01*
X117880905Y-82152767D01*
X117659095Y-82280829D01*
X117645991Y-82290884D01*
X117526000Y-82410875D01*
X117406009Y-82290884D01*
X117392905Y-82280829D01*
X117171095Y-82152767D01*
X117155835Y-82146446D01*
X116908438Y-82080156D01*
X116892062Y-82078000D01*
X116635938Y-82078000D01*
X116619562Y-82080156D01*
X116372165Y-82146446D01*
X116356905Y-82152767D01*
X116256000Y-82211025D01*
X116155095Y-82152767D01*
X116139835Y-82146446D01*
X115892438Y-82080156D01*
X115876062Y-82078000D01*
X115619938Y-82078000D01*
X115603562Y-82080156D01*
X115356165Y-82146446D01*
X115340905Y-82152767D01*
X115119095Y-82280829D01*
X115105991Y-82290884D01*
X114924884Y-82471991D01*
X114914829Y-82485095D01*
X114786767Y-82706905D01*
X114780446Y-82722165D01*
X114714156Y-82969562D01*
X114712000Y-82985938D01*
X105969494Y-82985938D01*
X105903859Y-82951625D01*
X105896003Y-82948176D01*
X105617500Y-82847909D01*
X105609248Y-82845558D01*
X105319715Y-82784016D01*
X105311220Y-82782807D01*
X105016013Y-82761128D01*
X105007433Y-82761083D01*
X104712015Y-82779669D01*
X104703508Y-82780789D01*
X104413346Y-82839297D01*
X104405070Y-82841561D01*
X104125533Y-82938905D01*
X104117641Y-82942272D01*
X103853901Y-83076654D01*
X103846539Y-83081060D01*
X103577115Y-83268315D01*
X103566645Y-83385626D01*
X100634000Y-83385626D01*
X100634000Y-82732000D01*
X105132191Y-82732000D01*
X105206000Y-82658191D01*
X105206000Y-81716000D01*
X108153063Y-81716000D01*
X108199373Y-81696818D01*
X108891252Y-81004938D01*
X124998290Y-81004938D01*
X124998290Y-81261062D01*
X125000446Y-81277438D01*
X125066736Y-81524835D01*
X125073057Y-81540095D01*
X125201119Y-81761905D01*
X125211174Y-81775009D01*
X125392281Y-81956116D01*
X125405385Y-81966171D01*
X125627195Y-82094233D01*
X125642455Y-82100554D01*
X125889852Y-82166844D01*
X125906228Y-82169000D01*
X126162352Y-82169000D01*
X126178728Y-82166844D01*
X126426125Y-82100554D01*
X126441385Y-82094233D01*
X126663195Y-81966171D01*
X126676299Y-81956116D01*
X126796290Y-81836125D01*
X126916281Y-81956116D01*
X126929385Y-81966171D01*
X127151195Y-82094233D01*
X127166455Y-82100554D01*
X127413852Y-82166844D01*
X127430228Y-82169000D01*
X127686352Y-82169000D01*
X127702728Y-82166844D01*
X127950125Y-82100554D01*
X127965385Y-82094233D01*
X128187195Y-81966171D01*
X128200299Y-81956116D01*
X128381406Y-81775009D01*
X128391461Y-81761905D01*
X128519523Y-81540095D01*
X128525844Y-81524835D01*
X128592134Y-81277438D01*
X128594290Y-81261062D01*
X128594290Y-81004938D01*
X128592134Y-80988562D01*
X128525844Y-80741165D01*
X128519523Y-80725905D01*
X128391461Y-80504095D01*
X128381406Y-80490991D01*
X128200299Y-80309884D01*
X128187195Y-80299829D01*
X127965385Y-80171767D01*
X127950125Y-80165446D01*
X127702728Y-80099156D01*
X127686352Y-80097000D01*
X127430228Y-80097000D01*
X127413852Y-80099156D01*
X127166455Y-80165446D01*
X127151195Y-80171767D01*
X126929385Y-80299829D01*
X126916281Y-80309884D01*
X126796290Y-80429875D01*
X126676299Y-80309884D01*
X126663195Y-80299829D01*
X126441385Y-80171767D01*
X126426125Y-80165446D01*
X126178728Y-80099156D01*
X126162352Y-80097000D01*
X125906228Y-80097000D01*
X125889852Y-80099156D01*
X125642455Y-80165446D01*
X125627195Y-80171767D01*
X125405385Y-80299829D01*
X125392281Y-80309884D01*
X125211174Y-80490991D01*
X125201119Y-80504095D01*
X125073057Y-80725905D01*
X125066736Y-80741165D01*
X125000446Y-80988562D01*
X124998290Y-81004938D01*
X108891252Y-81004938D01*
X109958190Y-79938000D01*
X111990191Y-79938000D01*
X112064000Y-79864191D01*
X112064000Y-78235809D01*
X111990191Y-78162000D01*
X109091809Y-78162000D01*
X109018000Y-78235809D01*
X109018000Y-78416000D01*
X105206000Y-78416000D01*
X105206000Y-77397938D01*
X116744000Y-77397938D01*
X116744000Y-77654062D01*
X116746156Y-77670438D01*
X116812446Y-77917835D01*
X116818767Y-77933095D01*
X116946829Y-78154905D01*
X116956884Y-78168009D01*
X117137991Y-78349116D01*
X117151095Y-78359171D01*
X117372905Y-78487233D01*
X117388165Y-78493554D01*
X117635562Y-78559844D01*
X117651938Y-78562000D01*
X117908062Y-78562000D01*
X117924438Y-78559844D01*
X118171835Y-78493554D01*
X118187095Y-78487233D01*
X118408905Y-78359171D01*
X118422009Y-78349116D01*
X118603116Y-78168009D01*
X118613171Y-78154905D01*
X118741233Y-77933095D01*
X118747554Y-77917835D01*
X118813844Y-77670438D01*
X118816000Y-77654062D01*
X118816000Y-77397938D01*
X118813844Y-77381562D01*
X118747554Y-77134165D01*
X118741233Y-77118905D01*
X118613171Y-76897095D01*
X118603116Y-76883991D01*
X118422009Y-76702884D01*
X118408905Y-76692829D01*
X118187095Y-76564767D01*
X118171835Y-76558446D01*
X117924438Y-76492156D01*
X117908062Y-76490000D01*
X117651938Y-76490000D01*
X117635562Y-76492156D01*
X117388165Y-76558446D01*
X117372905Y-76564767D01*
X117151095Y-76692829D01*
X117137991Y-76702884D01*
X116956884Y-76883991D01*
X116946829Y-76897095D01*
X116818767Y-77118905D01*
X116812446Y-77134165D01*
X116746156Y-77381562D01*
X116744000Y-77397938D01*
X105206000Y-77397938D01*
X105206000Y-76105191D01*
X124288888Y-76105191D01*
X124362697Y-76179000D01*
X127159479Y-76179000D01*
X127233288Y-76105191D01*
X127233290Y-73460809D01*
X127159481Y-73387000D01*
X124362699Y-73387000D01*
X124288890Y-73460809D01*
X124288888Y-76105191D01*
X105206000Y-76105191D01*
X105206000Y-74003438D01*
X107778500Y-74003438D01*
X107778500Y-74259562D01*
X107780656Y-74275938D01*
X107846946Y-74523335D01*
X107853267Y-74538595D01*
X107882368Y-74589000D01*
X107853267Y-74639405D01*
X107846946Y-74654665D01*
X107780656Y-74902062D01*
X107778500Y-74918438D01*
X107778500Y-75174562D01*
X107780656Y-75190938D01*
X107846946Y-75438335D01*
X107853267Y-75453595D01*
X107981329Y-75675405D01*
X107991384Y-75688509D01*
X108172491Y-75869616D01*
X108185595Y-75879671D01*
X108407405Y-76007733D01*
X108422665Y-76014054D01*
X108670062Y-76080344D01*
X108686438Y-76082500D01*
X108942562Y-76082500D01*
X108958938Y-76080344D01*
X109206335Y-76014054D01*
X109221595Y-76007733D01*
X109443405Y-75879671D01*
X109456509Y-75869616D01*
X109637616Y-75688509D01*
X109647671Y-75675405D01*
X109775733Y-75453595D01*
X109782054Y-75438335D01*
X109848344Y-75190938D01*
X109850500Y-75174562D01*
X109850500Y-74918438D01*
X109848344Y-74902062D01*
X109782054Y-74654665D01*
X109775733Y-74639405D01*
X109746632Y-74589000D01*
X109775733Y-74538595D01*
X109782054Y-74523335D01*
X109848344Y-74275938D01*
X109850500Y-74259562D01*
X109850500Y-74003438D01*
X109848344Y-73987062D01*
X109782054Y-73739665D01*
X109775733Y-73724405D01*
X109647671Y-73502595D01*
X109637616Y-73489491D01*
X109456509Y-73308384D01*
X109443405Y-73298329D01*
X109221595Y-73170267D01*
X109206335Y-73163946D01*
X108958938Y-73097656D01*
X108942562Y-73095500D01*
X108686438Y-73095500D01*
X108670062Y-73097656D01*
X108422665Y-73163946D01*
X108407405Y-73170267D01*
X108185595Y-73298329D01*
X108172491Y-73308384D01*
X107991384Y-73489491D01*
X107981329Y-73502595D01*
X107853267Y-73724405D01*
X107846946Y-73739665D01*
X107780656Y-73987062D01*
X107778500Y-74003438D01*
X105206000Y-74003438D01*
X105206000Y-72825938D01*
X118014000Y-72825938D01*
X118014000Y-73082062D01*
X118016156Y-73098438D01*
X118082446Y-73345835D01*
X118088767Y-73361095D01*
X118216829Y-73582905D01*
X118226884Y-73596009D01*
X118407991Y-73777116D01*
X118421095Y-73787171D01*
X118642905Y-73915233D01*
X118658165Y-73921554D01*
X118905562Y-73987844D01*
X118921938Y-73990000D01*
X119178062Y-73990000D01*
X119194438Y-73987844D01*
X119441835Y-73921554D01*
X119457095Y-73915233D01*
X119558000Y-73856975D01*
X119658905Y-73915233D01*
X119674165Y-73921554D01*
X119921562Y-73987844D01*
X119937938Y-73990000D01*
X120194062Y-73990000D01*
X120210438Y-73987844D01*
X120457835Y-73921554D01*
X120473095Y-73915233D01*
X120694905Y-73787171D01*
X120708009Y-73777116D01*
X120889116Y-73596009D01*
X120899171Y-73582905D01*
X121027233Y-73361095D01*
X121033554Y-73345835D01*
X121099844Y-73098438D01*
X121102000Y-73082062D01*
X121102000Y-72825938D01*
X121099844Y-72809562D01*
X121033554Y-72562165D01*
X121027233Y-72546905D01*
X120924369Y-72368738D01*
X122662200Y-72368738D01*
X122662200Y-72624862D01*
X122664356Y-72641238D01*
X122730646Y-72888635D01*
X122736967Y-72903895D01*
X122865029Y-73125705D01*
X122875084Y-73138809D01*
X123056191Y-73319916D01*
X123069295Y-73329971D01*
X123291105Y-73458033D01*
X123306365Y-73464354D01*
X123553762Y-73530644D01*
X123570138Y-73532800D01*
X123826262Y-73532800D01*
X123842638Y-73530644D01*
X124090035Y-73464354D01*
X124105295Y-73458033D01*
X124327105Y-73329971D01*
X124340209Y-73319916D01*
X124521316Y-73138809D01*
X124531371Y-73125705D01*
X124659433Y-72903895D01*
X124665754Y-72888635D01*
X124732044Y-72641238D01*
X124734200Y-72624862D01*
X124734200Y-72394138D01*
X126990890Y-72394138D01*
X126990890Y-72650262D01*
X126993046Y-72666638D01*
X127059336Y-72914035D01*
X127065657Y-72929295D01*
X127193719Y-73151105D01*
X127203774Y-73164209D01*
X127384881Y-73345316D01*
X127397985Y-73355371D01*
X127619795Y-73483433D01*
X127635055Y-73489754D01*
X127882452Y-73556044D01*
X127898828Y-73558200D01*
X128154952Y-73558200D01*
X128171328Y-73556044D01*
X128418725Y-73489754D01*
X128433985Y-73483433D01*
X128655795Y-73355371D01*
X128668899Y-73345316D01*
X128850006Y-73164209D01*
X128860061Y-73151105D01*
X128988123Y-72929295D01*
X128994444Y-72914035D01*
X129060734Y-72666638D01*
X129062890Y-72650262D01*
X129062890Y-72394138D01*
X129060734Y-72377762D01*
X128994444Y-72130365D01*
X128988123Y-72115105D01*
X128860061Y-71893295D01*
X128850006Y-71880191D01*
X128668899Y-71699084D01*
X128655795Y-71689029D01*
X128433985Y-71560967D01*
X128418725Y-71554646D01*
X128171328Y-71488356D01*
X128154952Y-71486200D01*
X127898828Y-71486200D01*
X127882452Y-71488356D01*
X127635055Y-71554646D01*
X127619795Y-71560967D01*
X127397985Y-71689029D01*
X127384881Y-71699084D01*
X127203774Y-71880191D01*
X127193719Y-71893295D01*
X127065657Y-72115105D01*
X127059336Y-72130365D01*
X126993046Y-72377762D01*
X126990890Y-72394138D01*
X124734200Y-72394138D01*
X124734200Y-72368738D01*
X124732044Y-72352362D01*
X124665754Y-72104965D01*
X124659433Y-72089705D01*
X124531371Y-71867895D01*
X124521316Y-71854791D01*
X124340209Y-71673684D01*
X124327105Y-71663629D01*
X124105295Y-71535567D01*
X124090035Y-71529246D01*
X123842638Y-71462956D01*
X123826262Y-71460800D01*
X123570138Y-71460800D01*
X123553762Y-71462956D01*
X123306365Y-71529246D01*
X123291105Y-71535567D01*
X123069295Y-71663629D01*
X123056191Y-71673684D01*
X122875084Y-71854791D01*
X122865029Y-71867895D01*
X122736967Y-72089705D01*
X122730646Y-72104965D01*
X122664356Y-72352362D01*
X122662200Y-72368738D01*
X120924369Y-72368738D01*
X120899171Y-72325095D01*
X120894494Y-72319000D01*
X120899171Y-72312905D01*
X121027233Y-72091095D01*
X121033554Y-72075835D01*
X121099844Y-71828438D01*
X121102000Y-71812062D01*
X121102000Y-71555938D01*
X121099844Y-71539562D01*
X121033554Y-71292165D01*
X121027233Y-71276905D01*
X120899171Y-71055095D01*
X120889116Y-71041991D01*
X120708009Y-70860884D01*
X120694905Y-70850829D01*
X120473095Y-70722767D01*
X120457835Y-70716446D01*
X120210438Y-70650156D01*
X120194062Y-70648000D01*
X119937938Y-70648000D01*
X119921562Y-70650156D01*
X119674165Y-70716446D01*
X119658905Y-70722767D01*
X119437095Y-70850829D01*
X119423991Y-70860884D01*
X119242884Y-71041991D01*
X119232829Y-71055095D01*
X119104767Y-71276905D01*
X119098446Y-71292165D01*
X119032156Y-71539562D01*
X119030000Y-71555938D01*
X119030000Y-71812062D01*
X119032156Y-71828438D01*
X119056154Y-71918000D01*
X118921938Y-71918000D01*
X118905562Y-71920156D01*
X118658165Y-71986446D01*
X118642905Y-71992767D01*
X118421095Y-72120829D01*
X118407991Y-72130884D01*
X118226884Y-72311991D01*
X118216829Y-72325095D01*
X118088767Y-72546905D01*
X118082446Y-72562165D01*
X118016156Y-72809562D01*
X118014000Y-72825938D01*
X105206000Y-72825938D01*
X105206000Y-70539938D01*
X110902000Y-70539938D01*
X110902000Y-70796062D01*
X110904156Y-70812438D01*
X110970446Y-71059835D01*
X110976767Y-71075095D01*
X111104829Y-71296905D01*
X111114884Y-71310009D01*
X111295991Y-71491116D01*
X111309095Y-71501171D01*
X111530905Y-71629233D01*
X111546165Y-71635554D01*
X111793562Y-71701844D01*
X111809938Y-71704000D01*
X112066062Y-71704000D01*
X112082438Y-71701844D01*
X112329835Y-71635554D01*
X112345095Y-71629233D01*
X112566905Y-71501171D01*
X112573000Y-71496494D01*
X112579095Y-71501171D01*
X112800905Y-71629233D01*
X112816165Y-71635554D01*
X113063562Y-71701844D01*
X113079938Y-71704000D01*
X113336062Y-71704000D01*
X113352438Y-71701844D01*
X113599835Y-71635554D01*
X113615095Y-71629233D01*
X113836905Y-71501171D01*
X113850009Y-71491116D01*
X114031116Y-71310009D01*
X114041171Y-71296905D01*
X114169233Y-71075095D01*
X114175554Y-71059835D01*
X114241844Y-70812438D01*
X114244000Y-70796062D01*
X114244000Y-70539938D01*
X114241844Y-70523562D01*
X114175554Y-70276165D01*
X114169233Y-70260905D01*
X114041171Y-70039095D01*
X114031116Y-70025991D01*
X113850009Y-69844884D01*
X113836905Y-69834829D01*
X113615095Y-69706767D01*
X113599835Y-69700446D01*
X113352438Y-69634156D01*
X113336062Y-69632000D01*
X113079938Y-69632000D01*
X113063562Y-69634156D01*
X112816165Y-69700446D01*
X112800905Y-69706767D01*
X112579095Y-69834829D01*
X112573000Y-69839506D01*
X112566905Y-69834829D01*
X112345095Y-69706767D01*
X112329835Y-69700446D01*
X112082438Y-69634156D01*
X112066062Y-69632000D01*
X111809938Y-69632000D01*
X111793562Y-69634156D01*
X111546165Y-69700446D01*
X111530905Y-69706767D01*
X111309095Y-69834829D01*
X111295991Y-69844884D01*
X111114884Y-70025991D01*
X111104829Y-70039095D01*
X110976767Y-70260905D01*
X110970446Y-70276165D01*
X110904156Y-70523562D01*
X110902000Y-70539938D01*
X105206000Y-70539938D01*
X105206000Y-69599809D01*
X105132191Y-69526000D01*
X100634000Y-69526000D01*
X100634000Y-68507938D01*
X109124000Y-68507938D01*
X109124000Y-68764062D01*
X109126156Y-68780438D01*
X109192446Y-69027835D01*
X109198767Y-69043095D01*
X109326829Y-69264905D01*
X109336884Y-69278009D01*
X109517991Y-69459116D01*
X109531095Y-69469171D01*
X109752905Y-69597233D01*
X109768165Y-69603554D01*
X110015562Y-69669844D01*
X110031938Y-69672000D01*
X110288062Y-69672000D01*
X110304438Y-69669844D01*
X110551835Y-69603554D01*
X110567095Y-69597233D01*
X110788905Y-69469171D01*
X110802009Y-69459116D01*
X110983116Y-69278009D01*
X110993171Y-69264905D01*
X111121233Y-69043095D01*
X111127554Y-69027835D01*
X111193844Y-68780438D01*
X111196000Y-68764062D01*
X111196000Y-68597125D01*
X111295991Y-68697116D01*
X111309095Y-68707171D01*
X111530905Y-68835233D01*
X111546165Y-68841554D01*
X111793562Y-68907844D01*
X111809938Y-68910000D01*
X112066062Y-68910000D01*
X112082438Y-68907844D01*
X112329835Y-68841554D01*
X112345095Y-68835233D01*
X112566905Y-68707171D01*
X112580009Y-68697116D01*
X112761116Y-68516009D01*
X112771171Y-68502905D01*
X112899233Y-68281095D01*
X112905554Y-68265835D01*
X112971844Y-68018438D01*
X112974000Y-68002062D01*
X112974000Y-67745938D01*
X112971844Y-67729562D01*
X112905554Y-67482165D01*
X112899233Y-67466905D01*
X112771171Y-67245095D01*
X112761116Y-67231991D01*
X112580009Y-67050884D01*
X112566905Y-67040829D01*
X112345095Y-66912767D01*
X112329835Y-66906446D01*
X112082438Y-66840156D01*
X112066062Y-66838000D01*
X111809938Y-66838000D01*
X111793562Y-66840156D01*
X111546165Y-66906446D01*
X111530905Y-66912767D01*
X111309095Y-67040829D01*
X111295991Y-67050884D01*
X111114884Y-67231991D01*
X111104829Y-67245095D01*
X110976767Y-67466905D01*
X110970446Y-67482165D01*
X110904156Y-67729562D01*
X110902000Y-67745938D01*
X110902000Y-67912875D01*
X110802009Y-67812884D01*
X110788905Y-67802829D01*
X110567095Y-67674767D01*
X110551835Y-67668446D01*
X110304438Y-67602156D01*
X110288062Y-67600000D01*
X110031938Y-67600000D01*
X110015562Y-67602156D01*
X109768165Y-67668446D01*
X109752905Y-67674767D01*
X109531095Y-67802829D01*
X109517991Y-67812884D01*
X109336884Y-67993991D01*
X109326829Y-68007095D01*
X109198767Y-68228905D01*
X109192446Y-68244165D01*
X109126156Y-68491562D01*
X109124000Y-68507938D01*
X100634000Y-68507938D01*
X100634000Y-66612320D01*
X103568699Y-66612320D01*
X103577814Y-66728135D01*
X103806604Y-66894363D01*
X103813873Y-66898922D01*
X104074740Y-67038798D01*
X104082560Y-67042329D01*
X104359998Y-67145507D01*
X104368224Y-67147944D01*
X104657098Y-67212514D01*
X104665579Y-67213812D01*
X104960543Y-67238581D01*
X104969122Y-67238716D01*
X105264718Y-67223225D01*
X105273236Y-67222194D01*
X105563996Y-67166728D01*
X105572295Y-67164551D01*
X105852836Y-67070138D01*
X105860762Y-67066855D01*
X106125896Y-66935242D01*
X106133303Y-66930913D01*
X106423477Y-66733712D01*
X106434637Y-66615656D01*
X106294919Y-66475938D01*
X113442000Y-66475938D01*
X113442000Y-66732062D01*
X113444156Y-66748438D01*
X113510446Y-66995835D01*
X113516767Y-67011095D01*
X113644829Y-67232905D01*
X113654884Y-67246009D01*
X113835991Y-67427116D01*
X113849095Y-67437171D01*
X114070905Y-67565233D01*
X114086165Y-67571554D01*
X114333562Y-67637844D01*
X114349938Y-67640000D01*
X114606062Y-67640000D01*
X114622438Y-67637844D01*
X114869835Y-67571554D01*
X114885095Y-67565233D01*
X114986000Y-67506975D01*
X115086905Y-67565233D01*
X115102165Y-67571554D01*
X115349562Y-67637844D01*
X115365938Y-67640000D01*
X115622062Y-67640000D01*
X115638438Y-67637844D01*
X115885835Y-67571554D01*
X115901095Y-67565233D01*
X116116033Y-67441138D01*
X120858800Y-67441138D01*
X120858800Y-67697262D01*
X120860956Y-67713638D01*
X120927246Y-67961035D01*
X120933567Y-67976295D01*
X121061629Y-68198105D01*
X121071684Y-68211209D01*
X121252791Y-68392316D01*
X121265895Y-68402371D01*
X121487705Y-68530433D01*
X121502965Y-68536754D01*
X121750362Y-68603044D01*
X121766738Y-68605200D01*
X122022862Y-68605200D01*
X122039238Y-68603044D01*
X122286635Y-68536754D01*
X122301895Y-68530433D01*
X122523705Y-68402371D01*
X122536809Y-68392316D01*
X122717916Y-68211209D01*
X122727971Y-68198105D01*
X122856033Y-67976295D01*
X122862354Y-67961035D01*
X122928644Y-67713638D01*
X122930800Y-67697262D01*
X122930800Y-67441138D01*
X122928644Y-67424762D01*
X122862354Y-67177365D01*
X122856033Y-67162105D01*
X122727971Y-66940295D01*
X122717916Y-66927191D01*
X122536809Y-66746084D01*
X122523705Y-66736029D01*
X122309435Y-66612320D01*
X123568699Y-66612320D01*
X123577814Y-66728135D01*
X123806604Y-66894363D01*
X123813873Y-66898922D01*
X124074740Y-67038798D01*
X124082560Y-67042329D01*
X124359998Y-67145507D01*
X124368224Y-67147944D01*
X124657098Y-67212514D01*
X124665579Y-67213812D01*
X124960543Y-67238581D01*
X124969122Y-67238716D01*
X125264718Y-67223225D01*
X125273236Y-67222194D01*
X125563996Y-67166728D01*
X125572295Y-67164551D01*
X125852836Y-67070138D01*
X125860762Y-67066855D01*
X126125896Y-66935242D01*
X126133303Y-66930913D01*
X126423477Y-66733712D01*
X126434637Y-66615656D01*
X125052191Y-65233210D01*
X124947809Y-65233210D01*
X123568699Y-66612320D01*
X122309435Y-66612320D01*
X122301895Y-66607967D01*
X122286635Y-66601646D01*
X122039238Y-66535356D01*
X122022862Y-66533200D01*
X121766738Y-66533200D01*
X121750362Y-66535356D01*
X121502965Y-66601646D01*
X121487705Y-66607967D01*
X121265895Y-66736029D01*
X121252791Y-66746084D01*
X121071684Y-66927191D01*
X121061629Y-66940295D01*
X120933567Y-67162105D01*
X120927246Y-67177365D01*
X120860956Y-67424762D01*
X120858800Y-67441138D01*
X116116033Y-67441138D01*
X116122905Y-67437171D01*
X116136009Y-67427116D01*
X116317116Y-67246009D01*
X116327171Y-67232905D01*
X116455233Y-67011095D01*
X116461554Y-66995835D01*
X116527844Y-66748438D01*
X116530000Y-66732062D01*
X116530000Y-66475938D01*
X116527844Y-66459562D01*
X116461554Y-66212165D01*
X116455233Y-66196905D01*
X116327171Y-65975095D01*
X116317116Y-65961991D01*
X116136009Y-65780884D01*
X116122905Y-65770829D01*
X115901095Y-65642767D01*
X115885835Y-65636446D01*
X115638438Y-65570156D01*
X115622062Y-65568000D01*
X115365938Y-65568000D01*
X115349562Y-65570156D01*
X115102165Y-65636446D01*
X115086905Y-65642767D01*
X114986000Y-65701025D01*
X114885095Y-65642767D01*
X114869835Y-65636446D01*
X114622438Y-65570156D01*
X114606062Y-65568000D01*
X114349938Y-65568000D01*
X114333562Y-65570156D01*
X114086165Y-65636446D01*
X114070905Y-65642767D01*
X113849095Y-65770829D01*
X113835991Y-65780884D01*
X113654884Y-65961991D01*
X113644829Y-65975095D01*
X113516767Y-66196905D01*
X113510446Y-66212165D01*
X113444156Y-66459562D01*
X113442000Y-66475938D01*
X106294919Y-66475938D01*
X105052191Y-65233210D01*
X104947809Y-65233210D01*
X103568699Y-66612320D01*
X100634000Y-66612320D01*
X100634000Y-65124598D01*
X102764541Y-65124598D01*
X102765035Y-65133164D01*
X102802133Y-65426832D01*
X102803785Y-65435252D01*
X102880397Y-65721168D01*
X102883176Y-65729285D01*
X102997881Y-66002159D01*
X103001736Y-66009824D01*
X103152413Y-66264606D01*
X103157273Y-66271677D01*
X103276974Y-66422701D01*
X103389776Y-66429205D01*
X104766790Y-65052191D01*
X104766790Y-64947809D01*
X105233210Y-64947809D01*
X105233210Y-65052191D01*
X106610388Y-66429369D01*
X106720911Y-66424736D01*
X106801873Y-66328930D01*
X106806953Y-66322015D01*
X106965559Y-66072093D01*
X106969653Y-66064553D01*
X107092873Y-65795417D01*
X107095905Y-65787391D01*
X107181459Y-65504022D01*
X107183375Y-65495659D01*
X107229731Y-65202974D01*
X107230505Y-65193766D01*
X107231229Y-65124598D01*
X122764541Y-65124598D01*
X122765035Y-65133164D01*
X122802133Y-65426832D01*
X122803785Y-65435252D01*
X122880397Y-65721168D01*
X122883176Y-65729285D01*
X122997881Y-66002159D01*
X123001736Y-66009824D01*
X123152413Y-66264606D01*
X123157273Y-66271677D01*
X123276974Y-66422701D01*
X123389776Y-66429205D01*
X124766790Y-65052191D01*
X124766790Y-64947809D01*
X125233210Y-64947809D01*
X125233210Y-65052191D01*
X126610388Y-66429369D01*
X126720911Y-66424736D01*
X126801873Y-66328930D01*
X126806953Y-66322015D01*
X126965559Y-66072093D01*
X126969653Y-66064553D01*
X127092873Y-65795417D01*
X127095905Y-65787391D01*
X127181459Y-65504022D01*
X127183375Y-65495659D01*
X127229731Y-65202974D01*
X127230505Y-65193766D01*
X127234073Y-64852988D01*
X127233493Y-64843766D01*
X127193276Y-64550176D01*
X127191536Y-64541774D01*
X127111936Y-64256675D01*
X127109072Y-64248588D01*
X126991515Y-63976930D01*
X126987580Y-63969306D01*
X126834243Y-63716116D01*
X126829309Y-63709096D01*
X126722158Y-63576777D01*
X126610114Y-63570905D01*
X125233210Y-64947809D01*
X124766790Y-64947809D01*
X123389831Y-63570850D01*
X123278547Y-63576098D01*
X123184309Y-63690011D01*
X123179302Y-63696979D01*
X123023323Y-63948549D01*
X123019308Y-63956131D01*
X122898912Y-64226543D01*
X122895964Y-64234601D01*
X122813382Y-64518850D01*
X122811554Y-64527233D01*
X122768313Y-64820059D01*
X122767640Y-64828613D01*
X122764541Y-65124598D01*
X107231229Y-65124598D01*
X107234073Y-64852988D01*
X107233493Y-64843766D01*
X107193276Y-64550176D01*
X107191536Y-64541774D01*
X107111936Y-64256675D01*
X107109072Y-64248588D01*
X106991515Y-63976930D01*
X106987580Y-63969306D01*
X106834243Y-63716116D01*
X106829309Y-63709096D01*
X106722158Y-63576777D01*
X106610114Y-63570905D01*
X105233210Y-64947809D01*
X104766790Y-64947809D01*
X103389831Y-63570850D01*
X103278547Y-63576098D01*
X103184309Y-63690011D01*
X103179302Y-63696979D01*
X103023323Y-63948549D01*
X103019308Y-63956131D01*
X102898912Y-64226543D01*
X102895964Y-64234601D01*
X102813382Y-64518850D01*
X102811554Y-64527233D01*
X102768313Y-64820059D01*
X102767640Y-64828613D01*
X102764541Y-65124598D01*
X100634000Y-65124598D01*
X100634000Y-65063489D01*
X100636838Y-65049416D01*
X100638001Y-65040137D01*
X100638565Y-65029013D01*
X100638583Y-65028631D01*
X100657119Y-64612411D01*
X100708768Y-64227881D01*
X100794391Y-63849484D01*
X100913319Y-63480170D01*
X100953353Y-63385626D01*
X103566645Y-63385626D01*
X104947809Y-64766790D01*
X105052191Y-64766790D01*
X106391043Y-63427938D01*
X114204000Y-63427938D01*
X114204000Y-63684062D01*
X114206156Y-63700438D01*
X114272446Y-63947835D01*
X114278767Y-63963095D01*
X114406829Y-64184905D01*
X114416884Y-64198009D01*
X114597991Y-64379116D01*
X114611095Y-64389171D01*
X114832905Y-64517233D01*
X114848165Y-64523554D01*
X115095562Y-64589844D01*
X115111938Y-64592000D01*
X115368062Y-64592000D01*
X115384438Y-64589844D01*
X115631835Y-64523554D01*
X115647095Y-64517233D01*
X115868905Y-64389171D01*
X115875000Y-64384494D01*
X115881095Y-64389171D01*
X116102905Y-64517233D01*
X116118165Y-64523554D01*
X116365562Y-64589844D01*
X116381938Y-64592000D01*
X116638062Y-64592000D01*
X116654438Y-64589844D01*
X116901835Y-64523554D01*
X116917095Y-64517233D01*
X117138905Y-64389171D01*
X117152009Y-64379116D01*
X117333116Y-64198009D01*
X117343171Y-64184905D01*
X117471233Y-63963095D01*
X117477554Y-63947835D01*
X117543844Y-63700438D01*
X117546000Y-63684062D01*
X117546000Y-63427938D01*
X117543844Y-63411562D01*
X117536895Y-63385626D01*
X123566645Y-63385626D01*
X124947809Y-64766790D01*
X125052191Y-64766790D01*
X126432243Y-63386738D01*
X126422455Y-63270174D01*
X126173493Y-63093244D01*
X126166177Y-63088761D01*
X125903859Y-62951625D01*
X125896003Y-62948176D01*
X125617500Y-62847909D01*
X125609248Y-62845558D01*
X125319715Y-62784016D01*
X125311220Y-62782807D01*
X125016013Y-62761128D01*
X125007433Y-62761083D01*
X124712015Y-62779669D01*
X124703508Y-62780789D01*
X124413346Y-62839297D01*
X124405070Y-62841561D01*
X124125533Y-62938905D01*
X124117641Y-62942272D01*
X123853901Y-63076654D01*
X123846539Y-63081060D01*
X123577115Y-63268315D01*
X123566645Y-63385626D01*
X117536895Y-63385626D01*
X117477554Y-63164165D01*
X117471233Y-63148905D01*
X117343171Y-62927095D01*
X117333116Y-62913991D01*
X117152009Y-62732884D01*
X117138905Y-62722829D01*
X116917095Y-62594767D01*
X116901835Y-62588446D01*
X116654438Y-62522156D01*
X116638062Y-62520000D01*
X116381938Y-62520000D01*
X116365562Y-62522156D01*
X116118165Y-62588446D01*
X116102905Y-62594767D01*
X115881095Y-62722829D01*
X115875000Y-62727506D01*
X115868905Y-62722829D01*
X115647095Y-62594767D01*
X115631835Y-62588446D01*
X115384438Y-62522156D01*
X115368062Y-62520000D01*
X115111938Y-62520000D01*
X115095562Y-62522156D01*
X114848165Y-62588446D01*
X114832905Y-62594767D01*
X114611095Y-62722829D01*
X114597991Y-62732884D01*
X114416884Y-62913991D01*
X114406829Y-62927095D01*
X114278767Y-63148905D01*
X114272446Y-63164165D01*
X114206156Y-63411562D01*
X114204000Y-63427938D01*
X106391043Y-63427938D01*
X106432243Y-63386738D01*
X106422455Y-63270174D01*
X106173493Y-63093244D01*
X106166177Y-63088761D01*
X105903859Y-62951625D01*
X105896003Y-62948176D01*
X105617500Y-62847909D01*
X105609248Y-62845558D01*
X105319715Y-62784016D01*
X105311220Y-62782807D01*
X105016013Y-62761128D01*
X105007433Y-62761083D01*
X104712015Y-62779669D01*
X104703508Y-62780789D01*
X104413346Y-62839297D01*
X104405070Y-62841561D01*
X104125533Y-62938905D01*
X104117641Y-62942272D01*
X103853901Y-63076654D01*
X103846539Y-63081060D01*
X103577115Y-63268315D01*
X103566645Y-63385626D01*
X100953353Y-63385626D01*
X101064598Y-63122916D01*
X101247043Y-62780508D01*
X101459203Y-62455672D01*
X101699399Y-62150987D01*
X101965719Y-61868869D01*
X102256077Y-61611529D01*
X102568146Y-61381032D01*
X102899485Y-61179179D01*
X103247445Y-61007584D01*
X103609303Y-60867592D01*
X103982137Y-60760329D01*
X104363060Y-60686631D01*
X104754014Y-60646575D01*
X105022887Y-60638830D01*
X105031807Y-60637935D01*
X105054588Y-60634000D01*
X124936511Y-60634000D01*
X124950584Y-60636838D01*
G37*
%TD.AperFunction*%
X104700000Y-78874004D02*
X104773809Y-78947813D01*
X109450191Y-78947813D01*
X109524000Y-78874004D01*
X109524000Y-78741794D01*
X111558000Y-78741794D01*
X111558000Y-79432000D01*
X109905999Y-79432000D01*
X109779100Y-79432001D01*
X109732424Y-79451533D01*
X107973677Y-81235814D01*
X104773809Y-81235813D01*
X104700000Y-81309622D01*
X104700000Y-82226000D01*
X100634000Y-82226000D01*
X100634000Y-70032000D01*
X104700000Y-70032000D01*
X104700000Y-78874004D01*
%TA.AperFunction,Conductor*%
G36*
X104700000Y-78874004D02*
G01*
X104773809Y-78947813D01*
X109450191Y-78947813D01*
X109524000Y-78874004D01*
X109524000Y-78741794D01*
X111558000Y-78741794D01*
X111558000Y-79432000D01*
X109905999Y-79432000D01*
X109779100Y-79432001D01*
X109732424Y-79451533D01*
X107973677Y-81235814D01*
X104773809Y-81235813D01*
X104700000Y-81309622D01*
X104700000Y-82226000D01*
X100634000Y-82226000D01*
X100634000Y-70032000D01*
X104700000Y-70032000D01*
X104700000Y-78874004D01*
G37*
%TD.AperFunction*%
%TD*%
M02*
