M48
; DRILL file {KiCad (5.99.0-2358-g6d8fb94d8)} date Mon Jul 27 20:35:12 2020
; FORMAT={-:-/ absolute / metric / decimal}
; #@! TF.CreationDate,2020-07-27T20:35:12+08:00
; #@! TF.GenerationSoftware,Kicad,Pcbnew,(5.99.0-2358-g6d8fb94d8)
; #@! TF.FileFunction,Plated,1,2,PTH
FMAT,2
METRIC
T1C0.400
T2C1.000
%
G90
G05
T1
X72.192Y-66.51
X73.716Y-61.176
X73.716Y-66.51
X79.812Y-58.382
X81.59Y-61.684
X82.098Y-78.956
X86.924Y-72.86
X87.432Y-75.654
T2
X69.906Y-53.302
X72.446Y-53.302
X77.272Y-53.302
X79.812Y-53.302
X97.592Y-60.414
X97.592Y-62.954
X97.592Y-65.494
X62.286Y-75.146
X62.286Y-77.686
X62.286Y-80.226
X71.43Y-86.83
X73.97Y-86.83
X76.51Y-86.83
X79.05Y-86.83
X81.59Y-86.83
X84.13Y-86.83
X86.67Y-86.83
X84.638Y-53.302
X87.178Y-53.302
X89.718Y-53.302
X62.286Y-60.414
X62.286Y-62.954
X62.286Y-65.494
X97.592Y-75.146
X97.592Y-77.686
X97.592Y-80.226
T0
M30
