%TF.GenerationSoftware,KiCad,Pcbnew,(5.99.0-2358-g6d8fb94d8)*%
%TF.CreationDate,2020-07-27T20:35:16+08:00*%
%TF.ProjectId,POWER_BOARD_v2b,504f5745-525f-4424-9f41-52445f763262,rev?*%
%TF.SameCoordinates,Original*%
%TF.FileFunction,Copper,L2,Bot*%
%TF.FilePolarity,Positive*%
%FSLAX46Y46*%
G04 Gerber Fmt 4.6, Leading zero omitted, Abs format (unit mm)*
G04 Created by KiCad (PCBNEW (5.99.0-2358-g6d8fb94d8)) date 2020-07-27 20:35:16*
%MOMM*%
%LPD*%
G01*
G04 APERTURE LIST*
%TA.AperFunction,ComponentPad*%
%ADD10O,1.700000X1.700000*%
%TD*%
%TA.AperFunction,ComponentPad*%
%ADD11R,1.700000X1.700000*%
%TD*%
%TA.AperFunction,ViaPad*%
%ADD12C,0.800000*%
%TD*%
%TA.AperFunction,Conductor*%
%ADD13C,0.500000*%
%TD*%
%TA.AperFunction,Conductor*%
%ADD14C,1.000000*%
%TD*%
%TA.AperFunction,Conductor*%
%ADD15C,0.254000*%
%TD*%
G04 APERTURE END LIST*
D10*
%TO.P,J8,2,Pin_2*%
%TO.N,VCC*%
X72446000Y-53302000D03*
D11*
%TO.P,J8,1,Pin_1*%
%TO.N,GND*%
X69906000Y-53302000D03*
%TD*%
D10*
%TO.P,J7,2,Pin_2*%
%TO.N,PPM*%
X79812000Y-53302000D03*
D11*
%TO.P,J7,1,Pin_1*%
%TO.N,GND*%
X77272000Y-53302000D03*
%TD*%
D10*
%TO.P,J6,3,Pin_3*%
%TO.N,SBUS*%
X89718000Y-53302000D03*
%TO.P,J6,2,Pin_2*%
%TO.N,+5V*%
X87178000Y-53302000D03*
D11*
%TO.P,J6,1,Pin_1*%
%TO.N,GND*%
X84638000Y-53302000D03*
%TD*%
D10*
%TO.P,J5,7,Pin_7*%
%TO.N,/S4*%
X86670000Y-86830000D03*
%TO.P,J5,6,Pin_6*%
%TO.N,/S3*%
X84130000Y-86830000D03*
%TO.P,J5,5,Pin_5*%
%TO.N,/S2*%
X81590000Y-86830000D03*
%TO.P,J5,4,Pin_4*%
%TO.N,/S1*%
X79050000Y-86830000D03*
%TO.P,J5,3,Pin_3*%
%TO.N,+5V*%
X76510000Y-86830000D03*
%TO.P,J5,2,Pin_2*%
%TO.N,GND*%
X73970000Y-86830000D03*
D11*
%TO.P,J5,1,Pin_1*%
%TO.N,VCC*%
X71430000Y-86830000D03*
%TD*%
D10*
%TO.P,J4,3,Pin_3*%
%TO.N,/S1*%
X62286000Y-80226000D03*
%TO.P,J4,2,Pin_2*%
%TO.N,+5V*%
X62286000Y-77686000D03*
D11*
%TO.P,J4,1,Pin_1*%
%TO.N,GND*%
X62286000Y-75146000D03*
%TD*%
D10*
%TO.P,J3,3,Pin_3*%
%TO.N,/S2*%
X62286000Y-65494000D03*
%TO.P,J3,2,Pin_2*%
%TO.N,+5V*%
X62286000Y-62954000D03*
D11*
%TO.P,J3,1,Pin_1*%
%TO.N,GND*%
X62286000Y-60414000D03*
%TD*%
D10*
%TO.P,J2,3,Pin_3*%
%TO.N,/S3*%
X97592000Y-65494000D03*
%TO.P,J2,2,Pin_2*%
%TO.N,+5V*%
X97592000Y-62954000D03*
D11*
%TO.P,J2,1,Pin_1*%
%TO.N,GND*%
X97592000Y-60414000D03*
%TD*%
D10*
%TO.P,J1,3,Pin_3*%
%TO.N,/S4*%
X97592000Y-80226000D03*
%TO.P,J1,2,Pin_2*%
%TO.N,+5V*%
X97592000Y-77686000D03*
D11*
%TO.P,J1,1,Pin_1*%
%TO.N,GND*%
X97592000Y-75146000D03*
%TD*%
D12*
%TO.N,+5V*%
X72192000Y-66510000D03*
%TO.N,RESET*%
X87432000Y-75654000D03*
X81590000Y-61684000D03*
%TO.N,+5V*%
X79812000Y-58382000D03*
X86924000Y-72860000D03*
X73716000Y-66510000D03*
%TO.N,/S2*%
X73716000Y-61176000D03*
%TO.N,+5V*%
X82098000Y-78956000D03*
%TD*%
D13*
%TO.N,/S2*%
X81590000Y-84544000D02*
X81590000Y-86830000D01*
D14*
%TO.N,VCC*%
X72446000Y-53302000D02*
X72446000Y-62126002D01*
X72446000Y-62126002D02*
X73019998Y-62700000D01*
X73019998Y-62700000D02*
X74478000Y-62700000D01*
X77780000Y-78448000D02*
X71430000Y-84798000D01*
X71430000Y-84798000D02*
X71430000Y-86830000D01*
X74478000Y-62700000D02*
X77780000Y-66002000D01*
X77780000Y-66002000D02*
X77780000Y-78448000D01*
D13*
%TO.N,RESET*%
X87432000Y-75654000D02*
X87432000Y-75146000D01*
X87432000Y-75146000D02*
X80066000Y-67780000D01*
X80066000Y-67780000D02*
X80066000Y-63208000D01*
X80066000Y-63208000D02*
X81590000Y-61684000D01*
%TO.N,/S2*%
X73716000Y-61176000D02*
X74986000Y-61176000D01*
X79111990Y-68069953D02*
X80574000Y-69531962D01*
X74986000Y-61176000D02*
X79111990Y-65301990D01*
X79111990Y-65301990D02*
X79111990Y-68069953D01*
X80574000Y-69531962D02*
X80574000Y-83528000D01*
X80574000Y-83528000D02*
X81590000Y-84544000D01*
%TD*%
%TO.N,+5V*%
D15*
X96353476Y-50749992D02*
X96346781Y-50755357D01*
X96128894Y-50955713D01*
X96122988Y-50961937D01*
X95934309Y-51190011D01*
X95929302Y-51196979D01*
X95773323Y-51448549D01*
X95769308Y-51456131D01*
X95648912Y-51726543D01*
X95645964Y-51734601D01*
X95563382Y-52018850D01*
X95561554Y-52027233D01*
X95518313Y-52320059D01*
X95517640Y-52328613D01*
X95514541Y-52624598D01*
X95515035Y-52633164D01*
X95552133Y-52926832D01*
X95553785Y-52935252D01*
X95630397Y-53221168D01*
X95633176Y-53229285D01*
X95747881Y-53502159D01*
X95751736Y-53509824D01*
X95902413Y-53764606D01*
X95907273Y-53771677D01*
X96091134Y-54003652D01*
X96096909Y-54009998D01*
X96310551Y-54214873D01*
X96317133Y-54220377D01*
X96556605Y-54394363D01*
X96563873Y-54398922D01*
X96824740Y-54538798D01*
X96832560Y-54542329D01*
X97109998Y-54645507D01*
X97118224Y-54647944D01*
X97407098Y-54712514D01*
X97415579Y-54713812D01*
X97710543Y-54738581D01*
X97719122Y-54738716D01*
X98014718Y-54723225D01*
X98023236Y-54722194D01*
X98313996Y-54666728D01*
X98322295Y-54664551D01*
X98602836Y-54570138D01*
X98610762Y-54566855D01*
X98875895Y-54435242D01*
X98883303Y-54430914D01*
X99128121Y-54264536D01*
X99134873Y-54259242D01*
X99354846Y-54061178D01*
X99360816Y-54055016D01*
X99366000Y-54048882D01*
X99366001Y-86452879D01*
X99171412Y-86270147D01*
X99164772Y-86264713D01*
X98923493Y-86093244D01*
X98916177Y-86088761D01*
X98653859Y-85951625D01*
X98646003Y-85948176D01*
X98367500Y-85847909D01*
X98359248Y-85845558D01*
X98069715Y-85784016D01*
X98061220Y-85782807D01*
X97766013Y-85761128D01*
X97757433Y-85761083D01*
X97462015Y-85779669D01*
X97453508Y-85780789D01*
X97163346Y-85839297D01*
X97155070Y-85841561D01*
X96875533Y-85938905D01*
X96867641Y-85942272D01*
X96603901Y-86076654D01*
X96596539Y-86081060D01*
X96353476Y-86249992D01*
X96346781Y-86255357D01*
X96128894Y-86455713D01*
X96122988Y-86461937D01*
X95934309Y-86690011D01*
X95929302Y-86696979D01*
X95773323Y-86948549D01*
X95769308Y-86956131D01*
X95648912Y-87226543D01*
X95645964Y-87234601D01*
X95563382Y-87518850D01*
X95561554Y-87527233D01*
X95518313Y-87820059D01*
X95517640Y-87828613D01*
X95514541Y-88124598D01*
X95515035Y-88133164D01*
X95552133Y-88426832D01*
X95553785Y-88435252D01*
X95630397Y-88721168D01*
X95633176Y-88729285D01*
X95747881Y-89002159D01*
X95751736Y-89009824D01*
X95902413Y-89264606D01*
X95907273Y-89271677D01*
X95982032Y-89366000D01*
X64020547Y-89366000D01*
X64051873Y-89328930D01*
X64056953Y-89322015D01*
X64215559Y-89072093D01*
X64219653Y-89064553D01*
X64342873Y-88795417D01*
X64345905Y-88787391D01*
X64431459Y-88504022D01*
X64433375Y-88495659D01*
X64479731Y-88202974D01*
X64480505Y-88193766D01*
X64484073Y-87852988D01*
X64483493Y-87843766D01*
X64443276Y-87550176D01*
X64441536Y-87541774D01*
X64361936Y-87256675D01*
X64359072Y-87248588D01*
X64241515Y-86976930D01*
X64237580Y-86969306D01*
X64084243Y-86716116D01*
X64079309Y-86709096D01*
X63893029Y-86479060D01*
X63887188Y-86472775D01*
X63671412Y-86270147D01*
X63664772Y-86264713D01*
X63423493Y-86093244D01*
X63416177Y-86088761D01*
X63153859Y-85951625D01*
X63146003Y-85948176D01*
X62867500Y-85847909D01*
X62859248Y-85845558D01*
X62569715Y-85784016D01*
X62561220Y-85782807D01*
X62266013Y-85761128D01*
X62257433Y-85761083D01*
X61962015Y-85779669D01*
X61953508Y-85780789D01*
X61663346Y-85839297D01*
X61655070Y-85841561D01*
X61375533Y-85938905D01*
X61367641Y-85942272D01*
X61103901Y-86076654D01*
X61096539Y-86081060D01*
X60853476Y-86249992D01*
X60846781Y-86255357D01*
X60634000Y-86451018D01*
X60634000Y-80217043D01*
X60797109Y-80217043D01*
X60815188Y-80457497D01*
X60816885Y-80468034D01*
X60875221Y-80702005D01*
X60878669Y-80712104D01*
X60975591Y-80932900D01*
X60980692Y-80942275D01*
X61113430Y-81143584D01*
X61120038Y-81151965D01*
X61284798Y-81328032D01*
X61292722Y-81335180D01*
X61484792Y-81480968D01*
X61493808Y-81486679D01*
X61707696Y-81598021D01*
X61717545Y-81602131D01*
X61947134Y-81675844D01*
X61957535Y-81678236D01*
X62196262Y-81712212D01*
X62206917Y-81712817D01*
X62447956Y-81706084D01*
X62458561Y-81704885D01*
X62695019Y-81657636D01*
X62705270Y-81654667D01*
X62930387Y-81568253D01*
X62939991Y-81563600D01*
X63147330Y-81440491D01*
X63156012Y-81434286D01*
X63339645Y-81278004D01*
X63347158Y-81270424D01*
X63501833Y-81085435D01*
X63507962Y-81076698D01*
X63629256Y-80868294D01*
X63633825Y-80858650D01*
X63718272Y-80632787D01*
X63721151Y-80622511D01*
X63766392Y-80385351D01*
X63767507Y-80374128D01*
X63770077Y-80106341D01*
X63769178Y-80095099D01*
X63728499Y-79857114D01*
X63725817Y-79846784D01*
X63645723Y-79619343D01*
X63641339Y-79609612D01*
X63524067Y-79398916D01*
X63518107Y-79390064D01*
X63367013Y-79202140D01*
X63359647Y-79194417D01*
X63179049Y-79034638D01*
X63170486Y-79028267D01*
X63053888Y-78955973D01*
X63147330Y-78900491D01*
X63156012Y-78894286D01*
X63339645Y-78738004D01*
X63347158Y-78730424D01*
X63501833Y-78545435D01*
X63507962Y-78536698D01*
X63629256Y-78328294D01*
X63633825Y-78318650D01*
X63718272Y-78092787D01*
X63721151Y-78082511D01*
X63754943Y-77905369D01*
X63679356Y-77814000D01*
X60888272Y-77814000D01*
X60812602Y-77910853D01*
X60875221Y-78162005D01*
X60878669Y-78172104D01*
X60975591Y-78392900D01*
X60980692Y-78402275D01*
X61113430Y-78603584D01*
X61120038Y-78611965D01*
X61284798Y-78788032D01*
X61292722Y-78795180D01*
X61484792Y-78940968D01*
X61493808Y-78946679D01*
X61510166Y-78955194D01*
X61509032Y-78955882D01*
X61314199Y-79097957D01*
X61306138Y-79104952D01*
X61138029Y-79277822D01*
X61131263Y-79286074D01*
X60994683Y-79484798D01*
X60989403Y-79494073D01*
X60888260Y-79712968D01*
X60884618Y-79723000D01*
X60821802Y-79955807D01*
X60819903Y-79966309D01*
X60797211Y-80206372D01*
X60797109Y-80217043D01*
X60634000Y-80217043D01*
X60634000Y-74290499D01*
X60794163Y-74290499D01*
X60794163Y-76004258D01*
X60796319Y-76020634D01*
X60871137Y-76299859D01*
X60883880Y-76324339D01*
X61014990Y-76480590D01*
X61031879Y-76494761D01*
X61206120Y-76595359D01*
X61226837Y-76602900D01*
X61263029Y-76609282D01*
X61138029Y-76737822D01*
X61131263Y-76746074D01*
X60994683Y-76944798D01*
X60989403Y-76954073D01*
X60888260Y-77172968D01*
X60884619Y-77183000D01*
X60810085Y-77459233D01*
X60885734Y-77558000D01*
X63678863Y-77558000D01*
X63754373Y-77468487D01*
X63728499Y-77317114D01*
X63725817Y-77306784D01*
X63645723Y-77079343D01*
X63641339Y-77069612D01*
X63524067Y-76858916D01*
X63518107Y-76850064D01*
X63367013Y-76662140D01*
X63359647Y-76654417D01*
X63297130Y-76599107D01*
X63439859Y-76560863D01*
X63464339Y-76548120D01*
X63620590Y-76417010D01*
X63634761Y-76400121D01*
X63735359Y-76225880D01*
X63742900Y-76205163D01*
X63776878Y-76012462D01*
X63777837Y-76001501D01*
X63777837Y-74287742D01*
X63775681Y-74271366D01*
X63700863Y-73992142D01*
X63688120Y-73967662D01*
X63557010Y-73811410D01*
X63540121Y-73797239D01*
X63365880Y-73696641D01*
X63345163Y-73689100D01*
X63152462Y-73655122D01*
X63141501Y-73654163D01*
X61427742Y-73654163D01*
X61411366Y-73656319D01*
X61132142Y-73731137D01*
X61107662Y-73743880D01*
X60951410Y-73874990D01*
X60937239Y-73891879D01*
X60836641Y-74066120D01*
X60829100Y-74086837D01*
X60795122Y-74279538D01*
X60794163Y-74290499D01*
X60634000Y-74290499D01*
X60634000Y-65485043D01*
X60797109Y-65485043D01*
X60815188Y-65725497D01*
X60816885Y-65736034D01*
X60875221Y-65970005D01*
X60878669Y-65980104D01*
X60975591Y-66200900D01*
X60980692Y-66210275D01*
X61113430Y-66411584D01*
X61120038Y-66419965D01*
X61284798Y-66596032D01*
X61292722Y-66603180D01*
X61484792Y-66748968D01*
X61493808Y-66754679D01*
X61707696Y-66866021D01*
X61717545Y-66870131D01*
X61947134Y-66943844D01*
X61957535Y-66946236D01*
X62196262Y-66980212D01*
X62206917Y-66980817D01*
X62447956Y-66974084D01*
X62458561Y-66972885D01*
X62695019Y-66925636D01*
X62705270Y-66922667D01*
X62930387Y-66836253D01*
X62939991Y-66831600D01*
X63147330Y-66708491D01*
X63156012Y-66702286D01*
X63339645Y-66546004D01*
X63347158Y-66538424D01*
X63501833Y-66353435D01*
X63507962Y-66344698D01*
X63629256Y-66136294D01*
X63633825Y-66126650D01*
X63718272Y-65900787D01*
X63721151Y-65890511D01*
X63766392Y-65653351D01*
X63767507Y-65642128D01*
X63770077Y-65374341D01*
X63769178Y-65363099D01*
X63728499Y-65125114D01*
X63725817Y-65114784D01*
X63645723Y-64887343D01*
X63641339Y-64877612D01*
X63524067Y-64666916D01*
X63518107Y-64658064D01*
X63367013Y-64470140D01*
X63359647Y-64462417D01*
X63179049Y-64302638D01*
X63170486Y-64296267D01*
X63053888Y-64223973D01*
X63147330Y-64168491D01*
X63156012Y-64162286D01*
X63339645Y-64006004D01*
X63347158Y-63998424D01*
X63501833Y-63813435D01*
X63507962Y-63804698D01*
X63589961Y-63663809D01*
X64954000Y-63663809D01*
X64954000Y-81548191D01*
X65027809Y-81622000D01*
X70720191Y-81622000D01*
X70794000Y-81548191D01*
X70794000Y-74436190D01*
X72752190Y-72478000D01*
X75519063Y-72478000D01*
X75565373Y-72458818D01*
X76054190Y-71970000D01*
X76644000Y-71970000D01*
X76644001Y-77977453D01*
X70654602Y-83966853D01*
X70585357Y-84027259D01*
X70575192Y-84038549D01*
X70517637Y-84120442D01*
X70455897Y-84199182D01*
X70448027Y-84212178D01*
X70438798Y-84232619D01*
X70425891Y-84250983D01*
X70418712Y-84264372D01*
X70382355Y-84357624D01*
X70341177Y-84448824D01*
X70336634Y-84463319D01*
X70332544Y-84485381D01*
X70324333Y-84506443D01*
X70320512Y-84521487D01*
X70309081Y-84611981D01*
X70289316Y-84718623D01*
X70288362Y-84733786D01*
X70294000Y-84831571D01*
X70294000Y-85410352D01*
X70276142Y-85415137D01*
X70251662Y-85427880D01*
X70095410Y-85558990D01*
X70081239Y-85575879D01*
X69980641Y-85750120D01*
X69973100Y-85770837D01*
X69939122Y-85963538D01*
X69938163Y-85974499D01*
X69938163Y-87688258D01*
X69940319Y-87704634D01*
X70015137Y-87983859D01*
X70027880Y-88008339D01*
X70158990Y-88164590D01*
X70175879Y-88178761D01*
X70350120Y-88279359D01*
X70370837Y-88286900D01*
X70563538Y-88320878D01*
X70574499Y-88321837D01*
X72288258Y-88321837D01*
X72304634Y-88319681D01*
X72583859Y-88244863D01*
X72608339Y-88232120D01*
X72764590Y-88101010D01*
X72778761Y-88084121D01*
X72879359Y-87909880D01*
X72886900Y-87889163D01*
X72893525Y-87851593D01*
X72968798Y-87932032D01*
X72976722Y-87939180D01*
X73168792Y-88084968D01*
X73177808Y-88090679D01*
X73391696Y-88202021D01*
X73401545Y-88206131D01*
X73631134Y-88279844D01*
X73641535Y-88282236D01*
X73880262Y-88316212D01*
X73890917Y-88316817D01*
X74131956Y-88310084D01*
X74142561Y-88308885D01*
X74379019Y-88261636D01*
X74389270Y-88258667D01*
X74614387Y-88172253D01*
X74623991Y-88167600D01*
X74831330Y-88044491D01*
X74840012Y-88038286D01*
X75023645Y-87882004D01*
X75031158Y-87874424D01*
X75185833Y-87689435D01*
X75191962Y-87680698D01*
X75239486Y-87599043D01*
X75337430Y-87747584D01*
X75344038Y-87755965D01*
X75508798Y-87932032D01*
X75516722Y-87939180D01*
X75708792Y-88084968D01*
X75717808Y-88090679D01*
X75931696Y-88202021D01*
X75941545Y-88206131D01*
X76171134Y-88279845D01*
X76181535Y-88282236D01*
X76295162Y-88298407D01*
X76382000Y-88223052D01*
X76382001Y-87031808D01*
X76382000Y-87031807D01*
X76382001Y-85436201D01*
X76296981Y-85360982D01*
X76209474Y-85371726D01*
X76199030Y-85373918D01*
X75968068Y-85443210D01*
X75958142Y-85447130D01*
X75742155Y-85554346D01*
X75733032Y-85559882D01*
X75538199Y-85701957D01*
X75530138Y-85708952D01*
X75362029Y-85881822D01*
X75355263Y-85890074D01*
X75239229Y-86058903D01*
X75208067Y-86002916D01*
X75202107Y-85994064D01*
X75051013Y-85806140D01*
X75043647Y-85798417D01*
X74863049Y-85638638D01*
X74854486Y-85632267D01*
X74649549Y-85505202D01*
X74640036Y-85500365D01*
X74416619Y-85409645D01*
X74406427Y-85406480D01*
X74170919Y-85354700D01*
X74160340Y-85353298D01*
X73919475Y-85341939D01*
X73908809Y-85342339D01*
X73669474Y-85371727D01*
X73659030Y-85373918D01*
X73428068Y-85443210D01*
X73418142Y-85447130D01*
X73202155Y-85554346D01*
X73193032Y-85559882D01*
X72998199Y-85701957D01*
X72990138Y-85708952D01*
X72883137Y-85818983D01*
X72844863Y-85676142D01*
X72832120Y-85651662D01*
X72701010Y-85495410D01*
X72684121Y-85481239D01*
X72566000Y-85413041D01*
X72566000Y-85268545D01*
X78555398Y-79279147D01*
X78624642Y-79218742D01*
X78634808Y-79207452D01*
X78692370Y-79125550D01*
X78754103Y-79046819D01*
X78761972Y-79033825D01*
X78771204Y-79013379D01*
X78784109Y-78995017D01*
X78791288Y-78981628D01*
X78827644Y-78888379D01*
X78868823Y-78797179D01*
X78873367Y-78782682D01*
X78877456Y-78760618D01*
X78885667Y-78739559D01*
X78889488Y-78724514D01*
X78900920Y-78634018D01*
X78920684Y-78527378D01*
X78921638Y-78512215D01*
X78916000Y-78414430D01*
X78916000Y-69126955D01*
X79688000Y-69898954D01*
X79688001Y-83428737D01*
X79683785Y-83447369D01*
X79682345Y-83465265D01*
X79688001Y-83556429D01*
X79688001Y-83587052D01*
X79688638Y-83595994D01*
X79691845Y-83618390D01*
X79696937Y-83700464D01*
X79700578Y-83718044D01*
X79709759Y-83743476D01*
X79713593Y-83770247D01*
X79718632Y-83787479D01*
X79752669Y-83862342D01*
X79780660Y-83939877D01*
X79789320Y-83956045D01*
X79804762Y-83976913D01*
X79816167Y-84001998D01*
X79825840Y-84017123D01*
X79887274Y-84088420D01*
X79901119Y-84107131D01*
X79907223Y-84114215D01*
X79923675Y-84130666D01*
X79979664Y-84195645D01*
X79993193Y-84207447D01*
X80013834Y-84220826D01*
X80704000Y-84910993D01*
X80704001Y-85639389D01*
X80618199Y-85701957D01*
X80610138Y-85708952D01*
X80442029Y-85881822D01*
X80435263Y-85890074D01*
X80319229Y-86058903D01*
X80288067Y-86002916D01*
X80282107Y-85994064D01*
X80131013Y-85806140D01*
X80123647Y-85798417D01*
X79943049Y-85638638D01*
X79934486Y-85632267D01*
X79729549Y-85505202D01*
X79720036Y-85500365D01*
X79496619Y-85409645D01*
X79486427Y-85406480D01*
X79250919Y-85354700D01*
X79240340Y-85353298D01*
X78999475Y-85341939D01*
X78988809Y-85342339D01*
X78749474Y-85371727D01*
X78739030Y-85373918D01*
X78508068Y-85443210D01*
X78498142Y-85447130D01*
X78282155Y-85554346D01*
X78273032Y-85559882D01*
X78078199Y-85701957D01*
X78070138Y-85708952D01*
X77902029Y-85881822D01*
X77895263Y-85890074D01*
X77779229Y-86058903D01*
X77748067Y-86002916D01*
X77742107Y-85994064D01*
X77591013Y-85806140D01*
X77583647Y-85798417D01*
X77403049Y-85638638D01*
X77394486Y-85632267D01*
X77189549Y-85505202D01*
X77180036Y-85500365D01*
X76956619Y-85409645D01*
X76946427Y-85406480D01*
X76732096Y-85359356D01*
X76638000Y-85435011D01*
X76637999Y-86628192D01*
X76638000Y-86628193D01*
X76637999Y-88223748D01*
X76730217Y-88299362D01*
X76919019Y-88261636D01*
X76929270Y-88258667D01*
X77154387Y-88172253D01*
X77163991Y-88167600D01*
X77371330Y-88044491D01*
X77380012Y-88038286D01*
X77563645Y-87882004D01*
X77571158Y-87874424D01*
X77725833Y-87689435D01*
X77731962Y-87680698D01*
X77779486Y-87599043D01*
X77877430Y-87747584D01*
X77884038Y-87755965D01*
X78048798Y-87932032D01*
X78056722Y-87939180D01*
X78248792Y-88084968D01*
X78257808Y-88090679D01*
X78471696Y-88202021D01*
X78481545Y-88206131D01*
X78711134Y-88279844D01*
X78721535Y-88282236D01*
X78960262Y-88316212D01*
X78970917Y-88316817D01*
X79211956Y-88310084D01*
X79222561Y-88308885D01*
X79459019Y-88261636D01*
X79469270Y-88258667D01*
X79694387Y-88172253D01*
X79703991Y-88167600D01*
X79911330Y-88044491D01*
X79920012Y-88038286D01*
X80103645Y-87882004D01*
X80111158Y-87874424D01*
X80265833Y-87689435D01*
X80271962Y-87680698D01*
X80319486Y-87599043D01*
X80417430Y-87747584D01*
X80424038Y-87755965D01*
X80588798Y-87932032D01*
X80596722Y-87939180D01*
X80788792Y-88084968D01*
X80797808Y-88090679D01*
X81011696Y-88202021D01*
X81021545Y-88206131D01*
X81251134Y-88279844D01*
X81261535Y-88282236D01*
X81500262Y-88316212D01*
X81510917Y-88316817D01*
X81751956Y-88310084D01*
X81762561Y-88308885D01*
X81999019Y-88261636D01*
X82009270Y-88258667D01*
X82234387Y-88172253D01*
X82243991Y-88167600D01*
X82451330Y-88044491D01*
X82460012Y-88038286D01*
X82643645Y-87882004D01*
X82651158Y-87874424D01*
X82805833Y-87689435D01*
X82811962Y-87680698D01*
X82859486Y-87599043D01*
X82957430Y-87747584D01*
X82964038Y-87755965D01*
X83128798Y-87932032D01*
X83136722Y-87939180D01*
X83328792Y-88084968D01*
X83337808Y-88090679D01*
X83551696Y-88202021D01*
X83561545Y-88206131D01*
X83791134Y-88279844D01*
X83801535Y-88282236D01*
X84040262Y-88316212D01*
X84050917Y-88316817D01*
X84291956Y-88310084D01*
X84302561Y-88308885D01*
X84539019Y-88261636D01*
X84549270Y-88258667D01*
X84774387Y-88172253D01*
X84783991Y-88167600D01*
X84991330Y-88044491D01*
X85000012Y-88038286D01*
X85183645Y-87882004D01*
X85191158Y-87874424D01*
X85345833Y-87689435D01*
X85351962Y-87680698D01*
X85399486Y-87599043D01*
X85497430Y-87747584D01*
X85504038Y-87755965D01*
X85668798Y-87932032D01*
X85676722Y-87939180D01*
X85868792Y-88084968D01*
X85877808Y-88090679D01*
X86091696Y-88202021D01*
X86101545Y-88206131D01*
X86331134Y-88279844D01*
X86341535Y-88282236D01*
X86580262Y-88316212D01*
X86590917Y-88316817D01*
X86831956Y-88310084D01*
X86842561Y-88308885D01*
X87079019Y-88261636D01*
X87089270Y-88258667D01*
X87314387Y-88172253D01*
X87323991Y-88167600D01*
X87531330Y-88044491D01*
X87540012Y-88038286D01*
X87723645Y-87882004D01*
X87731158Y-87874424D01*
X87885833Y-87689435D01*
X87891962Y-87680698D01*
X88013256Y-87472294D01*
X88017825Y-87462650D01*
X88102272Y-87236787D01*
X88105151Y-87226511D01*
X88150392Y-86989351D01*
X88151507Y-86978128D01*
X88154077Y-86710341D01*
X88153178Y-86699099D01*
X88112499Y-86461114D01*
X88109817Y-86450784D01*
X88029723Y-86223343D01*
X88025339Y-86213612D01*
X87908067Y-86002916D01*
X87902107Y-85994064D01*
X87751013Y-85806140D01*
X87743647Y-85798417D01*
X87563049Y-85638638D01*
X87554486Y-85632267D01*
X87349549Y-85505202D01*
X87340036Y-85500365D01*
X87116619Y-85409645D01*
X87106427Y-85406480D01*
X86870919Y-85354700D01*
X86860340Y-85353298D01*
X86619475Y-85341939D01*
X86608809Y-85342339D01*
X86369474Y-85371727D01*
X86359030Y-85373918D01*
X86128068Y-85443210D01*
X86118142Y-85447130D01*
X85902155Y-85554346D01*
X85893032Y-85559882D01*
X85698199Y-85701957D01*
X85690138Y-85708952D01*
X85522029Y-85881822D01*
X85515263Y-85890074D01*
X85399229Y-86058903D01*
X85368067Y-86002916D01*
X85362107Y-85994064D01*
X85211013Y-85806140D01*
X85203647Y-85798417D01*
X85023049Y-85638638D01*
X85014486Y-85632267D01*
X84809549Y-85505202D01*
X84800036Y-85500365D01*
X84576619Y-85409645D01*
X84566427Y-85406480D01*
X84330919Y-85354700D01*
X84320340Y-85353298D01*
X84079475Y-85341939D01*
X84068809Y-85342339D01*
X83829474Y-85371727D01*
X83819030Y-85373918D01*
X83588068Y-85443210D01*
X83578142Y-85447130D01*
X83362155Y-85554346D01*
X83353032Y-85559882D01*
X83158199Y-85701957D01*
X83150138Y-85708952D01*
X82982029Y-85881822D01*
X82975263Y-85890074D01*
X82859229Y-86058903D01*
X82828067Y-86002916D01*
X82822107Y-85994064D01*
X82671013Y-85806140D01*
X82663647Y-85798417D01*
X82483049Y-85638638D01*
X82476000Y-85633393D01*
X82476000Y-84643258D01*
X82480215Y-84624630D01*
X82481655Y-84606735D01*
X82476000Y-84515587D01*
X82476000Y-84484947D01*
X82475363Y-84476005D01*
X82472155Y-84453606D01*
X82467063Y-84371536D01*
X82463423Y-84353956D01*
X82454242Y-84328524D01*
X82450408Y-84301751D01*
X82445369Y-84284521D01*
X82411329Y-84209651D01*
X82383340Y-84132122D01*
X82374680Y-84115956D01*
X82359241Y-84095090D01*
X82347833Y-84070001D01*
X82338161Y-84054877D01*
X82276724Y-83983576D01*
X82262880Y-83964867D01*
X82256777Y-83957784D01*
X82240322Y-83941330D01*
X82184336Y-83876355D01*
X82170807Y-83864553D01*
X82150169Y-83851176D01*
X81460000Y-83161008D01*
X81460000Y-80217043D01*
X96103109Y-80217043D01*
X96121188Y-80457497D01*
X96122885Y-80468034D01*
X96181221Y-80702005D01*
X96184669Y-80712104D01*
X96281591Y-80932900D01*
X96286692Y-80942275D01*
X96419430Y-81143584D01*
X96426038Y-81151965D01*
X96590798Y-81328032D01*
X96598722Y-81335180D01*
X96790792Y-81480968D01*
X96799808Y-81486679D01*
X97013696Y-81598021D01*
X97023545Y-81602131D01*
X97253134Y-81675844D01*
X97263535Y-81678236D01*
X97502262Y-81712212D01*
X97512917Y-81712817D01*
X97753956Y-81706084D01*
X97764561Y-81704885D01*
X98001019Y-81657636D01*
X98011270Y-81654667D01*
X98236387Y-81568253D01*
X98245991Y-81563600D01*
X98453330Y-81440491D01*
X98462012Y-81434286D01*
X98645645Y-81278004D01*
X98653158Y-81270424D01*
X98807833Y-81085435D01*
X98813962Y-81076698D01*
X98935256Y-80868294D01*
X98939825Y-80858650D01*
X99024272Y-80632787D01*
X99027151Y-80622511D01*
X99072392Y-80385351D01*
X99073507Y-80374128D01*
X99076077Y-80106341D01*
X99075178Y-80095099D01*
X99034499Y-79857114D01*
X99031817Y-79846784D01*
X98951723Y-79619343D01*
X98947339Y-79609612D01*
X98830067Y-79398916D01*
X98824107Y-79390064D01*
X98673013Y-79202140D01*
X98665647Y-79194417D01*
X98485049Y-79034638D01*
X98476486Y-79028267D01*
X98359888Y-78955973D01*
X98453330Y-78900491D01*
X98462012Y-78894286D01*
X98645645Y-78738004D01*
X98653158Y-78730424D01*
X98807833Y-78545435D01*
X98813962Y-78536698D01*
X98935256Y-78328294D01*
X98939825Y-78318650D01*
X99024272Y-78092787D01*
X99027151Y-78082511D01*
X99060943Y-77905369D01*
X98985356Y-77814000D01*
X96194272Y-77814000D01*
X96118602Y-77910853D01*
X96181221Y-78162005D01*
X96184669Y-78172104D01*
X96281591Y-78392900D01*
X96286692Y-78402275D01*
X96419430Y-78603584D01*
X96426038Y-78611965D01*
X96590798Y-78788032D01*
X96598722Y-78795180D01*
X96790792Y-78940968D01*
X96799808Y-78946679D01*
X96816166Y-78955194D01*
X96815032Y-78955882D01*
X96620199Y-79097957D01*
X96612138Y-79104952D01*
X96444029Y-79277822D01*
X96437263Y-79286074D01*
X96300683Y-79484798D01*
X96295403Y-79494073D01*
X96194260Y-79712968D01*
X96190618Y-79723000D01*
X96127802Y-79955807D01*
X96125903Y-79966309D01*
X96103211Y-80206372D01*
X96103109Y-80217043D01*
X81460000Y-80217043D01*
X81460000Y-70426991D01*
X86428674Y-75395666D01*
X86398156Y-75509562D01*
X86396000Y-75525937D01*
X86396000Y-75782062D01*
X86398156Y-75798438D01*
X86464446Y-76045835D01*
X86470767Y-76061095D01*
X86598829Y-76282905D01*
X86608884Y-76296009D01*
X86789991Y-76477116D01*
X86803095Y-76487171D01*
X87024905Y-76615233D01*
X87040165Y-76621554D01*
X87287562Y-76687844D01*
X87303938Y-76690000D01*
X87560062Y-76690000D01*
X87576438Y-76687844D01*
X87823835Y-76621554D01*
X87839095Y-76615233D01*
X88060905Y-76487171D01*
X88074009Y-76477116D01*
X88255116Y-76296009D01*
X88265171Y-76282905D01*
X88393233Y-76061095D01*
X88399554Y-76045835D01*
X88465844Y-75798438D01*
X88468000Y-75782062D01*
X88468000Y-75525938D01*
X88465844Y-75509562D01*
X88399554Y-75262165D01*
X88393233Y-75246905D01*
X88318000Y-75116598D01*
X88318000Y-75086947D01*
X88317363Y-75078005D01*
X88314155Y-75055606D01*
X88309063Y-74973536D01*
X88305423Y-74955956D01*
X88296242Y-74930524D01*
X88292408Y-74903752D01*
X88287369Y-74886521D01*
X88253324Y-74811642D01*
X88225339Y-74734122D01*
X88216679Y-74717955D01*
X88201242Y-74697094D01*
X88189834Y-74672002D01*
X88180161Y-74656877D01*
X88118722Y-74585574D01*
X88104882Y-74566869D01*
X88098778Y-74559785D01*
X88082326Y-74543334D01*
X88026337Y-74478355D01*
X88012808Y-74466553D01*
X87992164Y-74453172D01*
X87829491Y-74290499D01*
X96100163Y-74290499D01*
X96100163Y-76004258D01*
X96102319Y-76020634D01*
X96177137Y-76299859D01*
X96189880Y-76324339D01*
X96320990Y-76480590D01*
X96337879Y-76494761D01*
X96512120Y-76595359D01*
X96532837Y-76602900D01*
X96569029Y-76609282D01*
X96444029Y-76737822D01*
X96437263Y-76746074D01*
X96300683Y-76944798D01*
X96295403Y-76954073D01*
X96194260Y-77172968D01*
X96190619Y-77183000D01*
X96116085Y-77459233D01*
X96191734Y-77558000D01*
X98984863Y-77558000D01*
X99060373Y-77468487D01*
X99034499Y-77317114D01*
X99031817Y-77306784D01*
X98951723Y-77079343D01*
X98947339Y-77069612D01*
X98830067Y-76858916D01*
X98824107Y-76850064D01*
X98673013Y-76662140D01*
X98665647Y-76654417D01*
X98603130Y-76599107D01*
X98745859Y-76560863D01*
X98770339Y-76548120D01*
X98926590Y-76417010D01*
X98940761Y-76400121D01*
X99041359Y-76225880D01*
X99048900Y-76205163D01*
X99082878Y-76012462D01*
X99083837Y-76001501D01*
X99083837Y-74287742D01*
X99081681Y-74271366D01*
X99006863Y-73992142D01*
X98994120Y-73967662D01*
X98863010Y-73811410D01*
X98846121Y-73797239D01*
X98671880Y-73696641D01*
X98651163Y-73689100D01*
X98458462Y-73655122D01*
X98447501Y-73654163D01*
X96733742Y-73654163D01*
X96717366Y-73656319D01*
X96438142Y-73731137D01*
X96413662Y-73743880D01*
X96257410Y-73874990D01*
X96243239Y-73891879D01*
X96142641Y-74066120D01*
X96135100Y-74086837D01*
X96101122Y-74279538D01*
X96100163Y-74290499D01*
X87829491Y-74290499D01*
X80952000Y-67413009D01*
X80952000Y-65485043D01*
X96103109Y-65485043D01*
X96121188Y-65725497D01*
X96122885Y-65736034D01*
X96181221Y-65970005D01*
X96184669Y-65980104D01*
X96281591Y-66200900D01*
X96286692Y-66210275D01*
X96419430Y-66411584D01*
X96426038Y-66419965D01*
X96590798Y-66596032D01*
X96598722Y-66603180D01*
X96790792Y-66748968D01*
X96799808Y-66754679D01*
X97013696Y-66866021D01*
X97023545Y-66870131D01*
X97253134Y-66943844D01*
X97263535Y-66946236D01*
X97502262Y-66980212D01*
X97512917Y-66980817D01*
X97753956Y-66974084D01*
X97764561Y-66972885D01*
X98001019Y-66925636D01*
X98011270Y-66922667D01*
X98236387Y-66836253D01*
X98245991Y-66831600D01*
X98453330Y-66708491D01*
X98462012Y-66702286D01*
X98645645Y-66546004D01*
X98653158Y-66538424D01*
X98807833Y-66353435D01*
X98813962Y-66344698D01*
X98935256Y-66136294D01*
X98939825Y-66126650D01*
X99024272Y-65900787D01*
X99027151Y-65890511D01*
X99072392Y-65653351D01*
X99073507Y-65642128D01*
X99076077Y-65374341D01*
X99075178Y-65363099D01*
X99034499Y-65125114D01*
X99031817Y-65114784D01*
X98951723Y-64887343D01*
X98947339Y-64877612D01*
X98830067Y-64666916D01*
X98824107Y-64658064D01*
X98673013Y-64470140D01*
X98665647Y-64462417D01*
X98485049Y-64302638D01*
X98476486Y-64296267D01*
X98359888Y-64223973D01*
X98453330Y-64168491D01*
X98462012Y-64162286D01*
X98645645Y-64006004D01*
X98653158Y-63998424D01*
X98807833Y-63813435D01*
X98813962Y-63804698D01*
X98935256Y-63596294D01*
X98939825Y-63586650D01*
X99024272Y-63360787D01*
X99027151Y-63350511D01*
X99060943Y-63173369D01*
X98985356Y-63082000D01*
X96194272Y-63082000D01*
X96118602Y-63178853D01*
X96181221Y-63430005D01*
X96184669Y-63440104D01*
X96281591Y-63660900D01*
X96286692Y-63670275D01*
X96419430Y-63871584D01*
X96426038Y-63879965D01*
X96590798Y-64056032D01*
X96598722Y-64063180D01*
X96790792Y-64208968D01*
X96799808Y-64214679D01*
X96816166Y-64223194D01*
X96815032Y-64223882D01*
X96620199Y-64365957D01*
X96612138Y-64372952D01*
X96444029Y-64545822D01*
X96437263Y-64554074D01*
X96300683Y-64752798D01*
X96295403Y-64762073D01*
X96194260Y-64980968D01*
X96190618Y-64991000D01*
X96127802Y-65223807D01*
X96125903Y-65234309D01*
X96103211Y-65474372D01*
X96103109Y-65485043D01*
X80952000Y-65485043D01*
X80952000Y-63574992D01*
X81836494Y-62690499D01*
X81981835Y-62651554D01*
X81997095Y-62645233D01*
X82218905Y-62517171D01*
X82232009Y-62507116D01*
X82413116Y-62326009D01*
X82423171Y-62312905D01*
X82551233Y-62091095D01*
X82557554Y-62075835D01*
X82623844Y-61828438D01*
X82626000Y-61812062D01*
X82626000Y-61555938D01*
X82623844Y-61539562D01*
X82557554Y-61292165D01*
X82551233Y-61276905D01*
X82423171Y-61055095D01*
X82413116Y-61041991D01*
X82232009Y-60860884D01*
X82218905Y-60850829D01*
X81997095Y-60722767D01*
X81981835Y-60716446D01*
X81734438Y-60650156D01*
X81718062Y-60648000D01*
X81461938Y-60648000D01*
X81445562Y-60650156D01*
X81198165Y-60716446D01*
X81182905Y-60722767D01*
X80961095Y-60850829D01*
X80947991Y-60860884D01*
X80766884Y-61041991D01*
X80756829Y-61055095D01*
X80628767Y-61276905D01*
X80622446Y-61292165D01*
X80583502Y-61437506D01*
X79509698Y-62511311D01*
X79493538Y-62521507D01*
X79479866Y-62533143D01*
X79419393Y-62601616D01*
X79397747Y-62623261D01*
X79391874Y-62630036D01*
X79378310Y-62648134D01*
X79323873Y-62709772D01*
X79314016Y-62724778D01*
X79302524Y-62749255D01*
X79286306Y-62770896D01*
X79277684Y-62786643D01*
X79248817Y-62863648D01*
X79213784Y-62938265D01*
X79208475Y-62955819D01*
X79204638Y-62981493D01*
X79194964Y-63007299D01*
X79191109Y-63024833D01*
X79184134Y-63118693D01*
X79180694Y-63141710D01*
X79180001Y-63151034D01*
X79180001Y-63174306D01*
X79173644Y-63259836D01*
X79174865Y-63277748D01*
X79180001Y-63301808D01*
X79180001Y-64117009D01*
X75682691Y-60619700D01*
X75672493Y-60603537D01*
X75660857Y-60589865D01*
X75592383Y-60529392D01*
X75570740Y-60507748D01*
X75563967Y-60501876D01*
X75545880Y-60488320D01*
X75484227Y-60433871D01*
X75469222Y-60424015D01*
X75444739Y-60412521D01*
X75423104Y-60396306D01*
X75407357Y-60387684D01*
X75330364Y-60358821D01*
X75255736Y-60323783D01*
X75238181Y-60318475D01*
X75212504Y-60314637D01*
X75186701Y-60304964D01*
X75169167Y-60301109D01*
X75075321Y-60294135D01*
X75052291Y-60290693D01*
X75042966Y-60290000D01*
X75019681Y-60290000D01*
X74934164Y-60283644D01*
X74916252Y-60284865D01*
X74892197Y-60290000D01*
X74253402Y-60290000D01*
X74123095Y-60214767D01*
X74107835Y-60208446D01*
X73860438Y-60142156D01*
X73844062Y-60140000D01*
X73587938Y-60140000D01*
X73582000Y-60140782D01*
X73582000Y-59558499D01*
X96100163Y-59558499D01*
X96100163Y-61272258D01*
X96102319Y-61288634D01*
X96177137Y-61567859D01*
X96189880Y-61592339D01*
X96320990Y-61748590D01*
X96337879Y-61762761D01*
X96512120Y-61863359D01*
X96532837Y-61870900D01*
X96569029Y-61877282D01*
X96444029Y-62005822D01*
X96437263Y-62014074D01*
X96300683Y-62212798D01*
X96295403Y-62222073D01*
X96194260Y-62440968D01*
X96190619Y-62451000D01*
X96116085Y-62727233D01*
X96191734Y-62826000D01*
X98984863Y-62826000D01*
X99060373Y-62736487D01*
X99034499Y-62585114D01*
X99031817Y-62574784D01*
X98951723Y-62347343D01*
X98947339Y-62337612D01*
X98830067Y-62126916D01*
X98824107Y-62118064D01*
X98673013Y-61930140D01*
X98665647Y-61922417D01*
X98603130Y-61867107D01*
X98745859Y-61828863D01*
X98770339Y-61816120D01*
X98926590Y-61685010D01*
X98940761Y-61668121D01*
X99041359Y-61493880D01*
X99048900Y-61473163D01*
X99082878Y-61280462D01*
X99083837Y-61269501D01*
X99083837Y-59555742D01*
X99081681Y-59539366D01*
X99006863Y-59260142D01*
X98994120Y-59235662D01*
X98863010Y-59079410D01*
X98846121Y-59065239D01*
X98671880Y-58964641D01*
X98651163Y-58957100D01*
X98458462Y-58923122D01*
X98447501Y-58922163D01*
X96733742Y-58922163D01*
X96717366Y-58924319D01*
X96438142Y-58999137D01*
X96413662Y-59011880D01*
X96257410Y-59142990D01*
X96243239Y-59159879D01*
X96142641Y-59334120D01*
X96135100Y-59354837D01*
X96101122Y-59547538D01*
X96100163Y-59558499D01*
X73582000Y-59558499D01*
X73582000Y-54256914D01*
X73661833Y-54161435D01*
X73667962Y-54152698D01*
X73789256Y-53944294D01*
X73793825Y-53934650D01*
X73878272Y-53708787D01*
X73881151Y-53698511D01*
X73926392Y-53461351D01*
X73927507Y-53450128D01*
X73930077Y-53182341D01*
X73929178Y-53171099D01*
X73888499Y-52933114D01*
X73885817Y-52922784D01*
X73805723Y-52695343D01*
X73801339Y-52685612D01*
X73684067Y-52474916D01*
X73678107Y-52466064D01*
X73662377Y-52446499D01*
X75780163Y-52446499D01*
X75780163Y-54160258D01*
X75782319Y-54176634D01*
X75857137Y-54455859D01*
X75869880Y-54480339D01*
X76000990Y-54636590D01*
X76017879Y-54650761D01*
X76192120Y-54751359D01*
X76212837Y-54758900D01*
X76405538Y-54792878D01*
X76416499Y-54793837D01*
X78130258Y-54793837D01*
X78146634Y-54791681D01*
X78425859Y-54716863D01*
X78450339Y-54704120D01*
X78606590Y-54573010D01*
X78620761Y-54556121D01*
X78721359Y-54381880D01*
X78728900Y-54361163D01*
X78735525Y-54323593D01*
X78810798Y-54404032D01*
X78818722Y-54411180D01*
X79010792Y-54556968D01*
X79019808Y-54562679D01*
X79233696Y-54674021D01*
X79243545Y-54678131D01*
X79473134Y-54751844D01*
X79483535Y-54754236D01*
X79722262Y-54788212D01*
X79732917Y-54788817D01*
X79973956Y-54782084D01*
X79984561Y-54780885D01*
X80221019Y-54733636D01*
X80231270Y-54730667D01*
X80456387Y-54644253D01*
X80465991Y-54639600D01*
X80673330Y-54516491D01*
X80682012Y-54510286D01*
X80865645Y-54354004D01*
X80873158Y-54346424D01*
X81027833Y-54161435D01*
X81033962Y-54152698D01*
X81155256Y-53944294D01*
X81159825Y-53934650D01*
X81244272Y-53708787D01*
X81247151Y-53698511D01*
X81292392Y-53461351D01*
X81293507Y-53450128D01*
X81296077Y-53182341D01*
X81295178Y-53171099D01*
X81254499Y-52933114D01*
X81251817Y-52922784D01*
X81171723Y-52695343D01*
X81167339Y-52685612D01*
X81050067Y-52474916D01*
X81044107Y-52466064D01*
X81028377Y-52446499D01*
X83146163Y-52446499D01*
X83146163Y-54160258D01*
X83148319Y-54176634D01*
X83223137Y-54455859D01*
X83235880Y-54480339D01*
X83366990Y-54636590D01*
X83383879Y-54650761D01*
X83558120Y-54751359D01*
X83578837Y-54758900D01*
X83771538Y-54792878D01*
X83782499Y-54793837D01*
X85496258Y-54793837D01*
X85512634Y-54791681D01*
X85791859Y-54716863D01*
X85816339Y-54704120D01*
X85972590Y-54573010D01*
X85986761Y-54556121D01*
X86087359Y-54381880D01*
X86094900Y-54361163D01*
X86101525Y-54323593D01*
X86176798Y-54404032D01*
X86184722Y-54411180D01*
X86376792Y-54556968D01*
X86385808Y-54562679D01*
X86599696Y-54674021D01*
X86609545Y-54678131D01*
X86839134Y-54751845D01*
X86849535Y-54754236D01*
X86963162Y-54770407D01*
X87050000Y-54695052D01*
X87050001Y-53503808D01*
X87050000Y-53503807D01*
X87050000Y-53100192D01*
X87305999Y-53100192D01*
X87306000Y-53100193D01*
X87305999Y-54695748D01*
X87398217Y-54771362D01*
X87587019Y-54733636D01*
X87597270Y-54730667D01*
X87822387Y-54644253D01*
X87831991Y-54639600D01*
X88039330Y-54516491D01*
X88048012Y-54510286D01*
X88231645Y-54354004D01*
X88239158Y-54346424D01*
X88393833Y-54161435D01*
X88399962Y-54152698D01*
X88447486Y-54071043D01*
X88545430Y-54219584D01*
X88552038Y-54227965D01*
X88716798Y-54404032D01*
X88724722Y-54411180D01*
X88916792Y-54556968D01*
X88925808Y-54562679D01*
X89139696Y-54674021D01*
X89149545Y-54678131D01*
X89379134Y-54751844D01*
X89389535Y-54754236D01*
X89628262Y-54788212D01*
X89638917Y-54788817D01*
X89879956Y-54782084D01*
X89890561Y-54780885D01*
X90127019Y-54733636D01*
X90137270Y-54730667D01*
X90362387Y-54644253D01*
X90371991Y-54639600D01*
X90579330Y-54516491D01*
X90588012Y-54510286D01*
X90771645Y-54354004D01*
X90779158Y-54346424D01*
X90933833Y-54161435D01*
X90939962Y-54152698D01*
X91061256Y-53944294D01*
X91065825Y-53934650D01*
X91150272Y-53708787D01*
X91153151Y-53698511D01*
X91198392Y-53461351D01*
X91199507Y-53450128D01*
X91202077Y-53182341D01*
X91201178Y-53171099D01*
X91160499Y-52933114D01*
X91157817Y-52922784D01*
X91077723Y-52695343D01*
X91073339Y-52685612D01*
X90956067Y-52474916D01*
X90950107Y-52466064D01*
X90799013Y-52278140D01*
X90791647Y-52270417D01*
X90611049Y-52110638D01*
X90602486Y-52104267D01*
X90397549Y-51977202D01*
X90388036Y-51972365D01*
X90164619Y-51881645D01*
X90154427Y-51878480D01*
X89918919Y-51826700D01*
X89908340Y-51825298D01*
X89667475Y-51813939D01*
X89656809Y-51814339D01*
X89417474Y-51843727D01*
X89407030Y-51845918D01*
X89176068Y-51915210D01*
X89166142Y-51919130D01*
X88950155Y-52026346D01*
X88941032Y-52031882D01*
X88746199Y-52173957D01*
X88738138Y-52180952D01*
X88570029Y-52353822D01*
X88563263Y-52362074D01*
X88447229Y-52530903D01*
X88416067Y-52474916D01*
X88410107Y-52466064D01*
X88259013Y-52278140D01*
X88251647Y-52270417D01*
X88071049Y-52110638D01*
X88062486Y-52104267D01*
X87857549Y-51977202D01*
X87848036Y-51972365D01*
X87624619Y-51881645D01*
X87614427Y-51878480D01*
X87400096Y-51831356D01*
X87306000Y-51907011D01*
X87305999Y-53100192D01*
X87050000Y-53100192D01*
X87050001Y-51908201D01*
X86964981Y-51832982D01*
X86877474Y-51843726D01*
X86867030Y-51845918D01*
X86636068Y-51915210D01*
X86626142Y-51919130D01*
X86410155Y-52026346D01*
X86401032Y-52031882D01*
X86206199Y-52173957D01*
X86198138Y-52180952D01*
X86091137Y-52290983D01*
X86052863Y-52148142D01*
X86040120Y-52123662D01*
X85909010Y-51967410D01*
X85892121Y-51953239D01*
X85717880Y-51852641D01*
X85697163Y-51845100D01*
X85504462Y-51811122D01*
X85493501Y-51810163D01*
X83779742Y-51810163D01*
X83763366Y-51812319D01*
X83484142Y-51887137D01*
X83459662Y-51899880D01*
X83303410Y-52030990D01*
X83289239Y-52047879D01*
X83188641Y-52222120D01*
X83181100Y-52242837D01*
X83147122Y-52435538D01*
X83146163Y-52446499D01*
X81028377Y-52446499D01*
X80893013Y-52278140D01*
X80885647Y-52270417D01*
X80705049Y-52110638D01*
X80696486Y-52104267D01*
X80491549Y-51977202D01*
X80482036Y-51972365D01*
X80258619Y-51881645D01*
X80248427Y-51878480D01*
X80012919Y-51826700D01*
X80002340Y-51825298D01*
X79761475Y-51813939D01*
X79750809Y-51814339D01*
X79511474Y-51843727D01*
X79501030Y-51845918D01*
X79270068Y-51915210D01*
X79260142Y-51919130D01*
X79044155Y-52026346D01*
X79035032Y-52031882D01*
X78840199Y-52173957D01*
X78832138Y-52180952D01*
X78725137Y-52290983D01*
X78686863Y-52148142D01*
X78674120Y-52123662D01*
X78543010Y-51967410D01*
X78526121Y-51953239D01*
X78351880Y-51852641D01*
X78331163Y-51845100D01*
X78138462Y-51811122D01*
X78127501Y-51810163D01*
X76413742Y-51810163D01*
X76397366Y-51812319D01*
X76118142Y-51887137D01*
X76093662Y-51899880D01*
X75937410Y-52030990D01*
X75923239Y-52047879D01*
X75822641Y-52222120D01*
X75815100Y-52242837D01*
X75781122Y-52435538D01*
X75780163Y-52446499D01*
X73662377Y-52446499D01*
X73527013Y-52278140D01*
X73519647Y-52270417D01*
X73339049Y-52110638D01*
X73330486Y-52104267D01*
X73125549Y-51977202D01*
X73116036Y-51972365D01*
X72892619Y-51881645D01*
X72882427Y-51878480D01*
X72646919Y-51826700D01*
X72636340Y-51825298D01*
X72395475Y-51813939D01*
X72384809Y-51814339D01*
X72145474Y-51843727D01*
X72135030Y-51845918D01*
X71904068Y-51915210D01*
X71894142Y-51919130D01*
X71678155Y-52026346D01*
X71669032Y-52031882D01*
X71474199Y-52173957D01*
X71466138Y-52180952D01*
X71359137Y-52290983D01*
X71320863Y-52148142D01*
X71308120Y-52123662D01*
X71177010Y-51967410D01*
X71160121Y-51953239D01*
X70985880Y-51852641D01*
X70965163Y-51845100D01*
X70772462Y-51811122D01*
X70761501Y-51810163D01*
X69047742Y-51810163D01*
X69031366Y-51812319D01*
X68752142Y-51887137D01*
X68727662Y-51899880D01*
X68571410Y-52030990D01*
X68557239Y-52047879D01*
X68456641Y-52222120D01*
X68449100Y-52242837D01*
X68415122Y-52435538D01*
X68414163Y-52446499D01*
X68414163Y-54160258D01*
X68416319Y-54176634D01*
X68491137Y-54455859D01*
X68503880Y-54480339D01*
X68634990Y-54636590D01*
X68651879Y-54650761D01*
X68826120Y-54751359D01*
X68846837Y-54758900D01*
X69039538Y-54792878D01*
X69050499Y-54793837D01*
X70764258Y-54793837D01*
X70780634Y-54791681D01*
X71059859Y-54716863D01*
X71084339Y-54704120D01*
X71240590Y-54573010D01*
X71254761Y-54556121D01*
X71310000Y-54460444D01*
X71310001Y-62086585D01*
X71303751Y-62178258D01*
X71304546Y-62193429D01*
X71321759Y-62292052D01*
X71333777Y-62391369D01*
X71337401Y-62406124D01*
X71345330Y-62427106D01*
X71349188Y-62449212D01*
X71353579Y-62463757D01*
X71393812Y-62555408D01*
X71429181Y-62649011D01*
X71436219Y-62662475D01*
X71448928Y-62680967D01*
X71458012Y-62701661D01*
X71465949Y-62715002D01*
X71521856Y-62787077D01*
X71583286Y-62876460D01*
X71593334Y-62887856D01*
X71666485Y-62953032D01*
X72188851Y-63475398D01*
X72249257Y-63544642D01*
X72260547Y-63554808D01*
X72342447Y-63612369D01*
X72421179Y-63674103D01*
X72434173Y-63681972D01*
X72454619Y-63691204D01*
X72472981Y-63704109D01*
X72486369Y-63711288D01*
X72579620Y-63747645D01*
X72670821Y-63788824D01*
X72685317Y-63793366D01*
X72707378Y-63797455D01*
X72728439Y-63805667D01*
X72743484Y-63809488D01*
X72833969Y-63820918D01*
X72940620Y-63840685D01*
X72955783Y-63841639D01*
X73053580Y-63836000D01*
X74007455Y-63836000D01*
X76644000Y-66472545D01*
X76644000Y-69940000D01*
X74960937Y-69940000D01*
X74914627Y-69959182D01*
X74171810Y-70702000D01*
X70974190Y-70702000D01*
X70794000Y-70521810D01*
X70794000Y-63663809D01*
X70720191Y-63590000D01*
X65027809Y-63590000D01*
X64954000Y-63663809D01*
X63589961Y-63663809D01*
X63629256Y-63596294D01*
X63633825Y-63586650D01*
X63718272Y-63360787D01*
X63721151Y-63350511D01*
X63754943Y-63173369D01*
X63679356Y-63082000D01*
X60888272Y-63082000D01*
X60812602Y-63178853D01*
X60875221Y-63430005D01*
X60878669Y-63440104D01*
X60975591Y-63660900D01*
X60980692Y-63670275D01*
X61113430Y-63871584D01*
X61120038Y-63879965D01*
X61284798Y-64056032D01*
X61292722Y-64063180D01*
X61484792Y-64208968D01*
X61493808Y-64214679D01*
X61510166Y-64223194D01*
X61509032Y-64223882D01*
X61314199Y-64365957D01*
X61306138Y-64372952D01*
X61138029Y-64545822D01*
X61131263Y-64554074D01*
X60994683Y-64752798D01*
X60989403Y-64762073D01*
X60888260Y-64980968D01*
X60884618Y-64991000D01*
X60821802Y-65223807D01*
X60819903Y-65234309D01*
X60797211Y-65474372D01*
X60797109Y-65485043D01*
X60634000Y-65485043D01*
X60634000Y-59558499D01*
X60794163Y-59558499D01*
X60794163Y-61272258D01*
X60796319Y-61288634D01*
X60871137Y-61567859D01*
X60883880Y-61592339D01*
X61014990Y-61748590D01*
X61031879Y-61762761D01*
X61206120Y-61863359D01*
X61226837Y-61870900D01*
X61263029Y-61877282D01*
X61138029Y-62005822D01*
X61131263Y-62014074D01*
X60994683Y-62212798D01*
X60989403Y-62222073D01*
X60888260Y-62440968D01*
X60884619Y-62451000D01*
X60810085Y-62727233D01*
X60885734Y-62826000D01*
X63678863Y-62826000D01*
X63754373Y-62736487D01*
X63728499Y-62585114D01*
X63725817Y-62574784D01*
X63645723Y-62347343D01*
X63641339Y-62337612D01*
X63524067Y-62126916D01*
X63518107Y-62118064D01*
X63367013Y-61930140D01*
X63359647Y-61922417D01*
X63297130Y-61867107D01*
X63439859Y-61828863D01*
X63464339Y-61816120D01*
X63620590Y-61685010D01*
X63634761Y-61668121D01*
X63735359Y-61493880D01*
X63742900Y-61473163D01*
X63776878Y-61280462D01*
X63777837Y-61269501D01*
X63777837Y-59555742D01*
X63775681Y-59539366D01*
X63700863Y-59260142D01*
X63688120Y-59235662D01*
X63557010Y-59079410D01*
X63540121Y-59065239D01*
X63365880Y-58964641D01*
X63345163Y-58957100D01*
X63152462Y-58923122D01*
X63141501Y-58922163D01*
X61427742Y-58922163D01*
X61411366Y-58924319D01*
X61132142Y-58999137D01*
X61107662Y-59011880D01*
X60951410Y-59142990D01*
X60937239Y-59159879D01*
X60836641Y-59334120D01*
X60829100Y-59354837D01*
X60795122Y-59547538D01*
X60794163Y-59558499D01*
X60634000Y-59558499D01*
X60634000Y-54045567D01*
X60810551Y-54214873D01*
X60817133Y-54220377D01*
X61056605Y-54394363D01*
X61063873Y-54398922D01*
X61324740Y-54538798D01*
X61332560Y-54542329D01*
X61609998Y-54645507D01*
X61618224Y-54647944D01*
X61907098Y-54712514D01*
X61915579Y-54713812D01*
X62210543Y-54738581D01*
X62219122Y-54738716D01*
X62514718Y-54723225D01*
X62523236Y-54722194D01*
X62813996Y-54666728D01*
X62822295Y-54664551D01*
X63102836Y-54570138D01*
X63110762Y-54566855D01*
X63375895Y-54435242D01*
X63383303Y-54430914D01*
X63628121Y-54264536D01*
X63634873Y-54259242D01*
X63854846Y-54061178D01*
X63860816Y-54055016D01*
X64051873Y-53828930D01*
X64056953Y-53822015D01*
X64215559Y-53572093D01*
X64219653Y-53564553D01*
X64342873Y-53295417D01*
X64345905Y-53287391D01*
X64431459Y-53004022D01*
X64433375Y-52995659D01*
X64479731Y-52702974D01*
X64480505Y-52693766D01*
X64484073Y-52352988D01*
X64483493Y-52343766D01*
X64443276Y-52050176D01*
X64441536Y-52041774D01*
X64361936Y-51756675D01*
X64359072Y-51748588D01*
X64241515Y-51476930D01*
X64237580Y-51469306D01*
X64084243Y-51216116D01*
X64079309Y-51209096D01*
X63893029Y-50979060D01*
X63887188Y-50972775D01*
X63671412Y-50770147D01*
X63664772Y-50764713D01*
X63480842Y-50634000D01*
X96520368Y-50634000D01*
X96353476Y-50749992D01*
%TA.AperFunction,Conductor*%
G36*
X96353476Y-50749992D02*
G01*
X96346781Y-50755357D01*
X96128894Y-50955713D01*
X96122988Y-50961937D01*
X95934309Y-51190011D01*
X95929302Y-51196979D01*
X95773323Y-51448549D01*
X95769308Y-51456131D01*
X95648912Y-51726543D01*
X95645964Y-51734601D01*
X95563382Y-52018850D01*
X95561554Y-52027233D01*
X95518313Y-52320059D01*
X95517640Y-52328613D01*
X95514541Y-52624598D01*
X95515035Y-52633164D01*
X95552133Y-52926832D01*
X95553785Y-52935252D01*
X95630397Y-53221168D01*
X95633176Y-53229285D01*
X95747881Y-53502159D01*
X95751736Y-53509824D01*
X95902413Y-53764606D01*
X95907273Y-53771677D01*
X96091134Y-54003652D01*
X96096909Y-54009998D01*
X96310551Y-54214873D01*
X96317133Y-54220377D01*
X96556605Y-54394363D01*
X96563873Y-54398922D01*
X96824740Y-54538798D01*
X96832560Y-54542329D01*
X97109998Y-54645507D01*
X97118224Y-54647944D01*
X97407098Y-54712514D01*
X97415579Y-54713812D01*
X97710543Y-54738581D01*
X97719122Y-54738716D01*
X98014718Y-54723225D01*
X98023236Y-54722194D01*
X98313996Y-54666728D01*
X98322295Y-54664551D01*
X98602836Y-54570138D01*
X98610762Y-54566855D01*
X98875895Y-54435242D01*
X98883303Y-54430914D01*
X99128121Y-54264536D01*
X99134873Y-54259242D01*
X99354846Y-54061178D01*
X99360816Y-54055016D01*
X99366000Y-54048882D01*
X99366001Y-86452879D01*
X99171412Y-86270147D01*
X99164772Y-86264713D01*
X98923493Y-86093244D01*
X98916177Y-86088761D01*
X98653859Y-85951625D01*
X98646003Y-85948176D01*
X98367500Y-85847909D01*
X98359248Y-85845558D01*
X98069715Y-85784016D01*
X98061220Y-85782807D01*
X97766013Y-85761128D01*
X97757433Y-85761083D01*
X97462015Y-85779669D01*
X97453508Y-85780789D01*
X97163346Y-85839297D01*
X97155070Y-85841561D01*
X96875533Y-85938905D01*
X96867641Y-85942272D01*
X96603901Y-86076654D01*
X96596539Y-86081060D01*
X96353476Y-86249992D01*
X96346781Y-86255357D01*
X96128894Y-86455713D01*
X96122988Y-86461937D01*
X95934309Y-86690011D01*
X95929302Y-86696979D01*
X95773323Y-86948549D01*
X95769308Y-86956131D01*
X95648912Y-87226543D01*
X95645964Y-87234601D01*
X95563382Y-87518850D01*
X95561554Y-87527233D01*
X95518313Y-87820059D01*
X95517640Y-87828613D01*
X95514541Y-88124598D01*
X95515035Y-88133164D01*
X95552133Y-88426832D01*
X95553785Y-88435252D01*
X95630397Y-88721168D01*
X95633176Y-88729285D01*
X95747881Y-89002159D01*
X95751736Y-89009824D01*
X95902413Y-89264606D01*
X95907273Y-89271677D01*
X95982032Y-89366000D01*
X64020547Y-89366000D01*
X64051873Y-89328930D01*
X64056953Y-89322015D01*
X64215559Y-89072093D01*
X64219653Y-89064553D01*
X64342873Y-88795417D01*
X64345905Y-88787391D01*
X64431459Y-88504022D01*
X64433375Y-88495659D01*
X64479731Y-88202974D01*
X64480505Y-88193766D01*
X64484073Y-87852988D01*
X64483493Y-87843766D01*
X64443276Y-87550176D01*
X64441536Y-87541774D01*
X64361936Y-87256675D01*
X64359072Y-87248588D01*
X64241515Y-86976930D01*
X64237580Y-86969306D01*
X64084243Y-86716116D01*
X64079309Y-86709096D01*
X63893029Y-86479060D01*
X63887188Y-86472775D01*
X63671412Y-86270147D01*
X63664772Y-86264713D01*
X63423493Y-86093244D01*
X63416177Y-86088761D01*
X63153859Y-85951625D01*
X63146003Y-85948176D01*
X62867500Y-85847909D01*
X62859248Y-85845558D01*
X62569715Y-85784016D01*
X62561220Y-85782807D01*
X62266013Y-85761128D01*
X62257433Y-85761083D01*
X61962015Y-85779669D01*
X61953508Y-85780789D01*
X61663346Y-85839297D01*
X61655070Y-85841561D01*
X61375533Y-85938905D01*
X61367641Y-85942272D01*
X61103901Y-86076654D01*
X61096539Y-86081060D01*
X60853476Y-86249992D01*
X60846781Y-86255357D01*
X60634000Y-86451018D01*
X60634000Y-80217043D01*
X60797109Y-80217043D01*
X60815188Y-80457497D01*
X60816885Y-80468034D01*
X60875221Y-80702005D01*
X60878669Y-80712104D01*
X60975591Y-80932900D01*
X60980692Y-80942275D01*
X61113430Y-81143584D01*
X61120038Y-81151965D01*
X61284798Y-81328032D01*
X61292722Y-81335180D01*
X61484792Y-81480968D01*
X61493808Y-81486679D01*
X61707696Y-81598021D01*
X61717545Y-81602131D01*
X61947134Y-81675844D01*
X61957535Y-81678236D01*
X62196262Y-81712212D01*
X62206917Y-81712817D01*
X62447956Y-81706084D01*
X62458561Y-81704885D01*
X62695019Y-81657636D01*
X62705270Y-81654667D01*
X62930387Y-81568253D01*
X62939991Y-81563600D01*
X63147330Y-81440491D01*
X63156012Y-81434286D01*
X63339645Y-81278004D01*
X63347158Y-81270424D01*
X63501833Y-81085435D01*
X63507962Y-81076698D01*
X63629256Y-80868294D01*
X63633825Y-80858650D01*
X63718272Y-80632787D01*
X63721151Y-80622511D01*
X63766392Y-80385351D01*
X63767507Y-80374128D01*
X63770077Y-80106341D01*
X63769178Y-80095099D01*
X63728499Y-79857114D01*
X63725817Y-79846784D01*
X63645723Y-79619343D01*
X63641339Y-79609612D01*
X63524067Y-79398916D01*
X63518107Y-79390064D01*
X63367013Y-79202140D01*
X63359647Y-79194417D01*
X63179049Y-79034638D01*
X63170486Y-79028267D01*
X63053888Y-78955973D01*
X63147330Y-78900491D01*
X63156012Y-78894286D01*
X63339645Y-78738004D01*
X63347158Y-78730424D01*
X63501833Y-78545435D01*
X63507962Y-78536698D01*
X63629256Y-78328294D01*
X63633825Y-78318650D01*
X63718272Y-78092787D01*
X63721151Y-78082511D01*
X63754943Y-77905369D01*
X63679356Y-77814000D01*
X60888272Y-77814000D01*
X60812602Y-77910853D01*
X60875221Y-78162005D01*
X60878669Y-78172104D01*
X60975591Y-78392900D01*
X60980692Y-78402275D01*
X61113430Y-78603584D01*
X61120038Y-78611965D01*
X61284798Y-78788032D01*
X61292722Y-78795180D01*
X61484792Y-78940968D01*
X61493808Y-78946679D01*
X61510166Y-78955194D01*
X61509032Y-78955882D01*
X61314199Y-79097957D01*
X61306138Y-79104952D01*
X61138029Y-79277822D01*
X61131263Y-79286074D01*
X60994683Y-79484798D01*
X60989403Y-79494073D01*
X60888260Y-79712968D01*
X60884618Y-79723000D01*
X60821802Y-79955807D01*
X60819903Y-79966309D01*
X60797211Y-80206372D01*
X60797109Y-80217043D01*
X60634000Y-80217043D01*
X60634000Y-74290499D01*
X60794163Y-74290499D01*
X60794163Y-76004258D01*
X60796319Y-76020634D01*
X60871137Y-76299859D01*
X60883880Y-76324339D01*
X61014990Y-76480590D01*
X61031879Y-76494761D01*
X61206120Y-76595359D01*
X61226837Y-76602900D01*
X61263029Y-76609282D01*
X61138029Y-76737822D01*
X61131263Y-76746074D01*
X60994683Y-76944798D01*
X60989403Y-76954073D01*
X60888260Y-77172968D01*
X60884619Y-77183000D01*
X60810085Y-77459233D01*
X60885734Y-77558000D01*
X63678863Y-77558000D01*
X63754373Y-77468487D01*
X63728499Y-77317114D01*
X63725817Y-77306784D01*
X63645723Y-77079343D01*
X63641339Y-77069612D01*
X63524067Y-76858916D01*
X63518107Y-76850064D01*
X63367013Y-76662140D01*
X63359647Y-76654417D01*
X63297130Y-76599107D01*
X63439859Y-76560863D01*
X63464339Y-76548120D01*
X63620590Y-76417010D01*
X63634761Y-76400121D01*
X63735359Y-76225880D01*
X63742900Y-76205163D01*
X63776878Y-76012462D01*
X63777837Y-76001501D01*
X63777837Y-74287742D01*
X63775681Y-74271366D01*
X63700863Y-73992142D01*
X63688120Y-73967662D01*
X63557010Y-73811410D01*
X63540121Y-73797239D01*
X63365880Y-73696641D01*
X63345163Y-73689100D01*
X63152462Y-73655122D01*
X63141501Y-73654163D01*
X61427742Y-73654163D01*
X61411366Y-73656319D01*
X61132142Y-73731137D01*
X61107662Y-73743880D01*
X60951410Y-73874990D01*
X60937239Y-73891879D01*
X60836641Y-74066120D01*
X60829100Y-74086837D01*
X60795122Y-74279538D01*
X60794163Y-74290499D01*
X60634000Y-74290499D01*
X60634000Y-65485043D01*
X60797109Y-65485043D01*
X60815188Y-65725497D01*
X60816885Y-65736034D01*
X60875221Y-65970005D01*
X60878669Y-65980104D01*
X60975591Y-66200900D01*
X60980692Y-66210275D01*
X61113430Y-66411584D01*
X61120038Y-66419965D01*
X61284798Y-66596032D01*
X61292722Y-66603180D01*
X61484792Y-66748968D01*
X61493808Y-66754679D01*
X61707696Y-66866021D01*
X61717545Y-66870131D01*
X61947134Y-66943844D01*
X61957535Y-66946236D01*
X62196262Y-66980212D01*
X62206917Y-66980817D01*
X62447956Y-66974084D01*
X62458561Y-66972885D01*
X62695019Y-66925636D01*
X62705270Y-66922667D01*
X62930387Y-66836253D01*
X62939991Y-66831600D01*
X63147330Y-66708491D01*
X63156012Y-66702286D01*
X63339645Y-66546004D01*
X63347158Y-66538424D01*
X63501833Y-66353435D01*
X63507962Y-66344698D01*
X63629256Y-66136294D01*
X63633825Y-66126650D01*
X63718272Y-65900787D01*
X63721151Y-65890511D01*
X63766392Y-65653351D01*
X63767507Y-65642128D01*
X63770077Y-65374341D01*
X63769178Y-65363099D01*
X63728499Y-65125114D01*
X63725817Y-65114784D01*
X63645723Y-64887343D01*
X63641339Y-64877612D01*
X63524067Y-64666916D01*
X63518107Y-64658064D01*
X63367013Y-64470140D01*
X63359647Y-64462417D01*
X63179049Y-64302638D01*
X63170486Y-64296267D01*
X63053888Y-64223973D01*
X63147330Y-64168491D01*
X63156012Y-64162286D01*
X63339645Y-64006004D01*
X63347158Y-63998424D01*
X63501833Y-63813435D01*
X63507962Y-63804698D01*
X63589961Y-63663809D01*
X64954000Y-63663809D01*
X64954000Y-81548191D01*
X65027809Y-81622000D01*
X70720191Y-81622000D01*
X70794000Y-81548191D01*
X70794000Y-74436190D01*
X72752190Y-72478000D01*
X75519063Y-72478000D01*
X75565373Y-72458818D01*
X76054190Y-71970000D01*
X76644000Y-71970000D01*
X76644001Y-77977453D01*
X70654602Y-83966853D01*
X70585357Y-84027259D01*
X70575192Y-84038549D01*
X70517637Y-84120442D01*
X70455897Y-84199182D01*
X70448027Y-84212178D01*
X70438798Y-84232619D01*
X70425891Y-84250983D01*
X70418712Y-84264372D01*
X70382355Y-84357624D01*
X70341177Y-84448824D01*
X70336634Y-84463319D01*
X70332544Y-84485381D01*
X70324333Y-84506443D01*
X70320512Y-84521487D01*
X70309081Y-84611981D01*
X70289316Y-84718623D01*
X70288362Y-84733786D01*
X70294000Y-84831571D01*
X70294000Y-85410352D01*
X70276142Y-85415137D01*
X70251662Y-85427880D01*
X70095410Y-85558990D01*
X70081239Y-85575879D01*
X69980641Y-85750120D01*
X69973100Y-85770837D01*
X69939122Y-85963538D01*
X69938163Y-85974499D01*
X69938163Y-87688258D01*
X69940319Y-87704634D01*
X70015137Y-87983859D01*
X70027880Y-88008339D01*
X70158990Y-88164590D01*
X70175879Y-88178761D01*
X70350120Y-88279359D01*
X70370837Y-88286900D01*
X70563538Y-88320878D01*
X70574499Y-88321837D01*
X72288258Y-88321837D01*
X72304634Y-88319681D01*
X72583859Y-88244863D01*
X72608339Y-88232120D01*
X72764590Y-88101010D01*
X72778761Y-88084121D01*
X72879359Y-87909880D01*
X72886900Y-87889163D01*
X72893525Y-87851593D01*
X72968798Y-87932032D01*
X72976722Y-87939180D01*
X73168792Y-88084968D01*
X73177808Y-88090679D01*
X73391696Y-88202021D01*
X73401545Y-88206131D01*
X73631134Y-88279844D01*
X73641535Y-88282236D01*
X73880262Y-88316212D01*
X73890917Y-88316817D01*
X74131956Y-88310084D01*
X74142561Y-88308885D01*
X74379019Y-88261636D01*
X74389270Y-88258667D01*
X74614387Y-88172253D01*
X74623991Y-88167600D01*
X74831330Y-88044491D01*
X74840012Y-88038286D01*
X75023645Y-87882004D01*
X75031158Y-87874424D01*
X75185833Y-87689435D01*
X75191962Y-87680698D01*
X75239486Y-87599043D01*
X75337430Y-87747584D01*
X75344038Y-87755965D01*
X75508798Y-87932032D01*
X75516722Y-87939180D01*
X75708792Y-88084968D01*
X75717808Y-88090679D01*
X75931696Y-88202021D01*
X75941545Y-88206131D01*
X76171134Y-88279845D01*
X76181535Y-88282236D01*
X76295162Y-88298407D01*
X76382000Y-88223052D01*
X76382001Y-87031808D01*
X76382000Y-87031807D01*
X76382001Y-85436201D01*
X76296981Y-85360982D01*
X76209474Y-85371726D01*
X76199030Y-85373918D01*
X75968068Y-85443210D01*
X75958142Y-85447130D01*
X75742155Y-85554346D01*
X75733032Y-85559882D01*
X75538199Y-85701957D01*
X75530138Y-85708952D01*
X75362029Y-85881822D01*
X75355263Y-85890074D01*
X75239229Y-86058903D01*
X75208067Y-86002916D01*
X75202107Y-85994064D01*
X75051013Y-85806140D01*
X75043647Y-85798417D01*
X74863049Y-85638638D01*
X74854486Y-85632267D01*
X74649549Y-85505202D01*
X74640036Y-85500365D01*
X74416619Y-85409645D01*
X74406427Y-85406480D01*
X74170919Y-85354700D01*
X74160340Y-85353298D01*
X73919475Y-85341939D01*
X73908809Y-85342339D01*
X73669474Y-85371727D01*
X73659030Y-85373918D01*
X73428068Y-85443210D01*
X73418142Y-85447130D01*
X73202155Y-85554346D01*
X73193032Y-85559882D01*
X72998199Y-85701957D01*
X72990138Y-85708952D01*
X72883137Y-85818983D01*
X72844863Y-85676142D01*
X72832120Y-85651662D01*
X72701010Y-85495410D01*
X72684121Y-85481239D01*
X72566000Y-85413041D01*
X72566000Y-85268545D01*
X78555398Y-79279147D01*
X78624642Y-79218742D01*
X78634808Y-79207452D01*
X78692370Y-79125550D01*
X78754103Y-79046819D01*
X78761972Y-79033825D01*
X78771204Y-79013379D01*
X78784109Y-78995017D01*
X78791288Y-78981628D01*
X78827644Y-78888379D01*
X78868823Y-78797179D01*
X78873367Y-78782682D01*
X78877456Y-78760618D01*
X78885667Y-78739559D01*
X78889488Y-78724514D01*
X78900920Y-78634018D01*
X78920684Y-78527378D01*
X78921638Y-78512215D01*
X78916000Y-78414430D01*
X78916000Y-69126955D01*
X79688000Y-69898954D01*
X79688001Y-83428737D01*
X79683785Y-83447369D01*
X79682345Y-83465265D01*
X79688001Y-83556429D01*
X79688001Y-83587052D01*
X79688638Y-83595994D01*
X79691845Y-83618390D01*
X79696937Y-83700464D01*
X79700578Y-83718044D01*
X79709759Y-83743476D01*
X79713593Y-83770247D01*
X79718632Y-83787479D01*
X79752669Y-83862342D01*
X79780660Y-83939877D01*
X79789320Y-83956045D01*
X79804762Y-83976913D01*
X79816167Y-84001998D01*
X79825840Y-84017123D01*
X79887274Y-84088420D01*
X79901119Y-84107131D01*
X79907223Y-84114215D01*
X79923675Y-84130666D01*
X79979664Y-84195645D01*
X79993193Y-84207447D01*
X80013834Y-84220826D01*
X80704000Y-84910993D01*
X80704001Y-85639389D01*
X80618199Y-85701957D01*
X80610138Y-85708952D01*
X80442029Y-85881822D01*
X80435263Y-85890074D01*
X80319229Y-86058903D01*
X80288067Y-86002916D01*
X80282107Y-85994064D01*
X80131013Y-85806140D01*
X80123647Y-85798417D01*
X79943049Y-85638638D01*
X79934486Y-85632267D01*
X79729549Y-85505202D01*
X79720036Y-85500365D01*
X79496619Y-85409645D01*
X79486427Y-85406480D01*
X79250919Y-85354700D01*
X79240340Y-85353298D01*
X78999475Y-85341939D01*
X78988809Y-85342339D01*
X78749474Y-85371727D01*
X78739030Y-85373918D01*
X78508068Y-85443210D01*
X78498142Y-85447130D01*
X78282155Y-85554346D01*
X78273032Y-85559882D01*
X78078199Y-85701957D01*
X78070138Y-85708952D01*
X77902029Y-85881822D01*
X77895263Y-85890074D01*
X77779229Y-86058903D01*
X77748067Y-86002916D01*
X77742107Y-85994064D01*
X77591013Y-85806140D01*
X77583647Y-85798417D01*
X77403049Y-85638638D01*
X77394486Y-85632267D01*
X77189549Y-85505202D01*
X77180036Y-85500365D01*
X76956619Y-85409645D01*
X76946427Y-85406480D01*
X76732096Y-85359356D01*
X76638000Y-85435011D01*
X76637999Y-86628192D01*
X76638000Y-86628193D01*
X76637999Y-88223748D01*
X76730217Y-88299362D01*
X76919019Y-88261636D01*
X76929270Y-88258667D01*
X77154387Y-88172253D01*
X77163991Y-88167600D01*
X77371330Y-88044491D01*
X77380012Y-88038286D01*
X77563645Y-87882004D01*
X77571158Y-87874424D01*
X77725833Y-87689435D01*
X77731962Y-87680698D01*
X77779486Y-87599043D01*
X77877430Y-87747584D01*
X77884038Y-87755965D01*
X78048798Y-87932032D01*
X78056722Y-87939180D01*
X78248792Y-88084968D01*
X78257808Y-88090679D01*
X78471696Y-88202021D01*
X78481545Y-88206131D01*
X78711134Y-88279844D01*
X78721535Y-88282236D01*
X78960262Y-88316212D01*
X78970917Y-88316817D01*
X79211956Y-88310084D01*
X79222561Y-88308885D01*
X79459019Y-88261636D01*
X79469270Y-88258667D01*
X79694387Y-88172253D01*
X79703991Y-88167600D01*
X79911330Y-88044491D01*
X79920012Y-88038286D01*
X80103645Y-87882004D01*
X80111158Y-87874424D01*
X80265833Y-87689435D01*
X80271962Y-87680698D01*
X80319486Y-87599043D01*
X80417430Y-87747584D01*
X80424038Y-87755965D01*
X80588798Y-87932032D01*
X80596722Y-87939180D01*
X80788792Y-88084968D01*
X80797808Y-88090679D01*
X81011696Y-88202021D01*
X81021545Y-88206131D01*
X81251134Y-88279844D01*
X81261535Y-88282236D01*
X81500262Y-88316212D01*
X81510917Y-88316817D01*
X81751956Y-88310084D01*
X81762561Y-88308885D01*
X81999019Y-88261636D01*
X82009270Y-88258667D01*
X82234387Y-88172253D01*
X82243991Y-88167600D01*
X82451330Y-88044491D01*
X82460012Y-88038286D01*
X82643645Y-87882004D01*
X82651158Y-87874424D01*
X82805833Y-87689435D01*
X82811962Y-87680698D01*
X82859486Y-87599043D01*
X82957430Y-87747584D01*
X82964038Y-87755965D01*
X83128798Y-87932032D01*
X83136722Y-87939180D01*
X83328792Y-88084968D01*
X83337808Y-88090679D01*
X83551696Y-88202021D01*
X83561545Y-88206131D01*
X83791134Y-88279844D01*
X83801535Y-88282236D01*
X84040262Y-88316212D01*
X84050917Y-88316817D01*
X84291956Y-88310084D01*
X84302561Y-88308885D01*
X84539019Y-88261636D01*
X84549270Y-88258667D01*
X84774387Y-88172253D01*
X84783991Y-88167600D01*
X84991330Y-88044491D01*
X85000012Y-88038286D01*
X85183645Y-87882004D01*
X85191158Y-87874424D01*
X85345833Y-87689435D01*
X85351962Y-87680698D01*
X85399486Y-87599043D01*
X85497430Y-87747584D01*
X85504038Y-87755965D01*
X85668798Y-87932032D01*
X85676722Y-87939180D01*
X85868792Y-88084968D01*
X85877808Y-88090679D01*
X86091696Y-88202021D01*
X86101545Y-88206131D01*
X86331134Y-88279844D01*
X86341535Y-88282236D01*
X86580262Y-88316212D01*
X86590917Y-88316817D01*
X86831956Y-88310084D01*
X86842561Y-88308885D01*
X87079019Y-88261636D01*
X87089270Y-88258667D01*
X87314387Y-88172253D01*
X87323991Y-88167600D01*
X87531330Y-88044491D01*
X87540012Y-88038286D01*
X87723645Y-87882004D01*
X87731158Y-87874424D01*
X87885833Y-87689435D01*
X87891962Y-87680698D01*
X88013256Y-87472294D01*
X88017825Y-87462650D01*
X88102272Y-87236787D01*
X88105151Y-87226511D01*
X88150392Y-86989351D01*
X88151507Y-86978128D01*
X88154077Y-86710341D01*
X88153178Y-86699099D01*
X88112499Y-86461114D01*
X88109817Y-86450784D01*
X88029723Y-86223343D01*
X88025339Y-86213612D01*
X87908067Y-86002916D01*
X87902107Y-85994064D01*
X87751013Y-85806140D01*
X87743647Y-85798417D01*
X87563049Y-85638638D01*
X87554486Y-85632267D01*
X87349549Y-85505202D01*
X87340036Y-85500365D01*
X87116619Y-85409645D01*
X87106427Y-85406480D01*
X86870919Y-85354700D01*
X86860340Y-85353298D01*
X86619475Y-85341939D01*
X86608809Y-85342339D01*
X86369474Y-85371727D01*
X86359030Y-85373918D01*
X86128068Y-85443210D01*
X86118142Y-85447130D01*
X85902155Y-85554346D01*
X85893032Y-85559882D01*
X85698199Y-85701957D01*
X85690138Y-85708952D01*
X85522029Y-85881822D01*
X85515263Y-85890074D01*
X85399229Y-86058903D01*
X85368067Y-86002916D01*
X85362107Y-85994064D01*
X85211013Y-85806140D01*
X85203647Y-85798417D01*
X85023049Y-85638638D01*
X85014486Y-85632267D01*
X84809549Y-85505202D01*
X84800036Y-85500365D01*
X84576619Y-85409645D01*
X84566427Y-85406480D01*
X84330919Y-85354700D01*
X84320340Y-85353298D01*
X84079475Y-85341939D01*
X84068809Y-85342339D01*
X83829474Y-85371727D01*
X83819030Y-85373918D01*
X83588068Y-85443210D01*
X83578142Y-85447130D01*
X83362155Y-85554346D01*
X83353032Y-85559882D01*
X83158199Y-85701957D01*
X83150138Y-85708952D01*
X82982029Y-85881822D01*
X82975263Y-85890074D01*
X82859229Y-86058903D01*
X82828067Y-86002916D01*
X82822107Y-85994064D01*
X82671013Y-85806140D01*
X82663647Y-85798417D01*
X82483049Y-85638638D01*
X82476000Y-85633393D01*
X82476000Y-84643258D01*
X82480215Y-84624630D01*
X82481655Y-84606735D01*
X82476000Y-84515587D01*
X82476000Y-84484947D01*
X82475363Y-84476005D01*
X82472155Y-84453606D01*
X82467063Y-84371536D01*
X82463423Y-84353956D01*
X82454242Y-84328524D01*
X82450408Y-84301751D01*
X82445369Y-84284521D01*
X82411329Y-84209651D01*
X82383340Y-84132122D01*
X82374680Y-84115956D01*
X82359241Y-84095090D01*
X82347833Y-84070001D01*
X82338161Y-84054877D01*
X82276724Y-83983576D01*
X82262880Y-83964867D01*
X82256777Y-83957784D01*
X82240322Y-83941330D01*
X82184336Y-83876355D01*
X82170807Y-83864553D01*
X82150169Y-83851176D01*
X81460000Y-83161008D01*
X81460000Y-80217043D01*
X96103109Y-80217043D01*
X96121188Y-80457497D01*
X96122885Y-80468034D01*
X96181221Y-80702005D01*
X96184669Y-80712104D01*
X96281591Y-80932900D01*
X96286692Y-80942275D01*
X96419430Y-81143584D01*
X96426038Y-81151965D01*
X96590798Y-81328032D01*
X96598722Y-81335180D01*
X96790792Y-81480968D01*
X96799808Y-81486679D01*
X97013696Y-81598021D01*
X97023545Y-81602131D01*
X97253134Y-81675844D01*
X97263535Y-81678236D01*
X97502262Y-81712212D01*
X97512917Y-81712817D01*
X97753956Y-81706084D01*
X97764561Y-81704885D01*
X98001019Y-81657636D01*
X98011270Y-81654667D01*
X98236387Y-81568253D01*
X98245991Y-81563600D01*
X98453330Y-81440491D01*
X98462012Y-81434286D01*
X98645645Y-81278004D01*
X98653158Y-81270424D01*
X98807833Y-81085435D01*
X98813962Y-81076698D01*
X98935256Y-80868294D01*
X98939825Y-80858650D01*
X99024272Y-80632787D01*
X99027151Y-80622511D01*
X99072392Y-80385351D01*
X99073507Y-80374128D01*
X99076077Y-80106341D01*
X99075178Y-80095099D01*
X99034499Y-79857114D01*
X99031817Y-79846784D01*
X98951723Y-79619343D01*
X98947339Y-79609612D01*
X98830067Y-79398916D01*
X98824107Y-79390064D01*
X98673013Y-79202140D01*
X98665647Y-79194417D01*
X98485049Y-79034638D01*
X98476486Y-79028267D01*
X98359888Y-78955973D01*
X98453330Y-78900491D01*
X98462012Y-78894286D01*
X98645645Y-78738004D01*
X98653158Y-78730424D01*
X98807833Y-78545435D01*
X98813962Y-78536698D01*
X98935256Y-78328294D01*
X98939825Y-78318650D01*
X99024272Y-78092787D01*
X99027151Y-78082511D01*
X99060943Y-77905369D01*
X98985356Y-77814000D01*
X96194272Y-77814000D01*
X96118602Y-77910853D01*
X96181221Y-78162005D01*
X96184669Y-78172104D01*
X96281591Y-78392900D01*
X96286692Y-78402275D01*
X96419430Y-78603584D01*
X96426038Y-78611965D01*
X96590798Y-78788032D01*
X96598722Y-78795180D01*
X96790792Y-78940968D01*
X96799808Y-78946679D01*
X96816166Y-78955194D01*
X96815032Y-78955882D01*
X96620199Y-79097957D01*
X96612138Y-79104952D01*
X96444029Y-79277822D01*
X96437263Y-79286074D01*
X96300683Y-79484798D01*
X96295403Y-79494073D01*
X96194260Y-79712968D01*
X96190618Y-79723000D01*
X96127802Y-79955807D01*
X96125903Y-79966309D01*
X96103211Y-80206372D01*
X96103109Y-80217043D01*
X81460000Y-80217043D01*
X81460000Y-70426991D01*
X86428674Y-75395666D01*
X86398156Y-75509562D01*
X86396000Y-75525937D01*
X86396000Y-75782062D01*
X86398156Y-75798438D01*
X86464446Y-76045835D01*
X86470767Y-76061095D01*
X86598829Y-76282905D01*
X86608884Y-76296009D01*
X86789991Y-76477116D01*
X86803095Y-76487171D01*
X87024905Y-76615233D01*
X87040165Y-76621554D01*
X87287562Y-76687844D01*
X87303938Y-76690000D01*
X87560062Y-76690000D01*
X87576438Y-76687844D01*
X87823835Y-76621554D01*
X87839095Y-76615233D01*
X88060905Y-76487171D01*
X88074009Y-76477116D01*
X88255116Y-76296009D01*
X88265171Y-76282905D01*
X88393233Y-76061095D01*
X88399554Y-76045835D01*
X88465844Y-75798438D01*
X88468000Y-75782062D01*
X88468000Y-75525938D01*
X88465844Y-75509562D01*
X88399554Y-75262165D01*
X88393233Y-75246905D01*
X88318000Y-75116598D01*
X88318000Y-75086947D01*
X88317363Y-75078005D01*
X88314155Y-75055606D01*
X88309063Y-74973536D01*
X88305423Y-74955956D01*
X88296242Y-74930524D01*
X88292408Y-74903752D01*
X88287369Y-74886521D01*
X88253324Y-74811642D01*
X88225339Y-74734122D01*
X88216679Y-74717955D01*
X88201242Y-74697094D01*
X88189834Y-74672002D01*
X88180161Y-74656877D01*
X88118722Y-74585574D01*
X88104882Y-74566869D01*
X88098778Y-74559785D01*
X88082326Y-74543334D01*
X88026337Y-74478355D01*
X88012808Y-74466553D01*
X87992164Y-74453172D01*
X87829491Y-74290499D01*
X96100163Y-74290499D01*
X96100163Y-76004258D01*
X96102319Y-76020634D01*
X96177137Y-76299859D01*
X96189880Y-76324339D01*
X96320990Y-76480590D01*
X96337879Y-76494761D01*
X96512120Y-76595359D01*
X96532837Y-76602900D01*
X96569029Y-76609282D01*
X96444029Y-76737822D01*
X96437263Y-76746074D01*
X96300683Y-76944798D01*
X96295403Y-76954073D01*
X96194260Y-77172968D01*
X96190619Y-77183000D01*
X96116085Y-77459233D01*
X96191734Y-77558000D01*
X98984863Y-77558000D01*
X99060373Y-77468487D01*
X99034499Y-77317114D01*
X99031817Y-77306784D01*
X98951723Y-77079343D01*
X98947339Y-77069612D01*
X98830067Y-76858916D01*
X98824107Y-76850064D01*
X98673013Y-76662140D01*
X98665647Y-76654417D01*
X98603130Y-76599107D01*
X98745859Y-76560863D01*
X98770339Y-76548120D01*
X98926590Y-76417010D01*
X98940761Y-76400121D01*
X99041359Y-76225880D01*
X99048900Y-76205163D01*
X99082878Y-76012462D01*
X99083837Y-76001501D01*
X99083837Y-74287742D01*
X99081681Y-74271366D01*
X99006863Y-73992142D01*
X98994120Y-73967662D01*
X98863010Y-73811410D01*
X98846121Y-73797239D01*
X98671880Y-73696641D01*
X98651163Y-73689100D01*
X98458462Y-73655122D01*
X98447501Y-73654163D01*
X96733742Y-73654163D01*
X96717366Y-73656319D01*
X96438142Y-73731137D01*
X96413662Y-73743880D01*
X96257410Y-73874990D01*
X96243239Y-73891879D01*
X96142641Y-74066120D01*
X96135100Y-74086837D01*
X96101122Y-74279538D01*
X96100163Y-74290499D01*
X87829491Y-74290499D01*
X80952000Y-67413009D01*
X80952000Y-65485043D01*
X96103109Y-65485043D01*
X96121188Y-65725497D01*
X96122885Y-65736034D01*
X96181221Y-65970005D01*
X96184669Y-65980104D01*
X96281591Y-66200900D01*
X96286692Y-66210275D01*
X96419430Y-66411584D01*
X96426038Y-66419965D01*
X96590798Y-66596032D01*
X96598722Y-66603180D01*
X96790792Y-66748968D01*
X96799808Y-66754679D01*
X97013696Y-66866021D01*
X97023545Y-66870131D01*
X97253134Y-66943844D01*
X97263535Y-66946236D01*
X97502262Y-66980212D01*
X97512917Y-66980817D01*
X97753956Y-66974084D01*
X97764561Y-66972885D01*
X98001019Y-66925636D01*
X98011270Y-66922667D01*
X98236387Y-66836253D01*
X98245991Y-66831600D01*
X98453330Y-66708491D01*
X98462012Y-66702286D01*
X98645645Y-66546004D01*
X98653158Y-66538424D01*
X98807833Y-66353435D01*
X98813962Y-66344698D01*
X98935256Y-66136294D01*
X98939825Y-66126650D01*
X99024272Y-65900787D01*
X99027151Y-65890511D01*
X99072392Y-65653351D01*
X99073507Y-65642128D01*
X99076077Y-65374341D01*
X99075178Y-65363099D01*
X99034499Y-65125114D01*
X99031817Y-65114784D01*
X98951723Y-64887343D01*
X98947339Y-64877612D01*
X98830067Y-64666916D01*
X98824107Y-64658064D01*
X98673013Y-64470140D01*
X98665647Y-64462417D01*
X98485049Y-64302638D01*
X98476486Y-64296267D01*
X98359888Y-64223973D01*
X98453330Y-64168491D01*
X98462012Y-64162286D01*
X98645645Y-64006004D01*
X98653158Y-63998424D01*
X98807833Y-63813435D01*
X98813962Y-63804698D01*
X98935256Y-63596294D01*
X98939825Y-63586650D01*
X99024272Y-63360787D01*
X99027151Y-63350511D01*
X99060943Y-63173369D01*
X98985356Y-63082000D01*
X96194272Y-63082000D01*
X96118602Y-63178853D01*
X96181221Y-63430005D01*
X96184669Y-63440104D01*
X96281591Y-63660900D01*
X96286692Y-63670275D01*
X96419430Y-63871584D01*
X96426038Y-63879965D01*
X96590798Y-64056032D01*
X96598722Y-64063180D01*
X96790792Y-64208968D01*
X96799808Y-64214679D01*
X96816166Y-64223194D01*
X96815032Y-64223882D01*
X96620199Y-64365957D01*
X96612138Y-64372952D01*
X96444029Y-64545822D01*
X96437263Y-64554074D01*
X96300683Y-64752798D01*
X96295403Y-64762073D01*
X96194260Y-64980968D01*
X96190618Y-64991000D01*
X96127802Y-65223807D01*
X96125903Y-65234309D01*
X96103211Y-65474372D01*
X96103109Y-65485043D01*
X80952000Y-65485043D01*
X80952000Y-63574992D01*
X81836494Y-62690499D01*
X81981835Y-62651554D01*
X81997095Y-62645233D01*
X82218905Y-62517171D01*
X82232009Y-62507116D01*
X82413116Y-62326009D01*
X82423171Y-62312905D01*
X82551233Y-62091095D01*
X82557554Y-62075835D01*
X82623844Y-61828438D01*
X82626000Y-61812062D01*
X82626000Y-61555938D01*
X82623844Y-61539562D01*
X82557554Y-61292165D01*
X82551233Y-61276905D01*
X82423171Y-61055095D01*
X82413116Y-61041991D01*
X82232009Y-60860884D01*
X82218905Y-60850829D01*
X81997095Y-60722767D01*
X81981835Y-60716446D01*
X81734438Y-60650156D01*
X81718062Y-60648000D01*
X81461938Y-60648000D01*
X81445562Y-60650156D01*
X81198165Y-60716446D01*
X81182905Y-60722767D01*
X80961095Y-60850829D01*
X80947991Y-60860884D01*
X80766884Y-61041991D01*
X80756829Y-61055095D01*
X80628767Y-61276905D01*
X80622446Y-61292165D01*
X80583502Y-61437506D01*
X79509698Y-62511311D01*
X79493538Y-62521507D01*
X79479866Y-62533143D01*
X79419393Y-62601616D01*
X79397747Y-62623261D01*
X79391874Y-62630036D01*
X79378310Y-62648134D01*
X79323873Y-62709772D01*
X79314016Y-62724778D01*
X79302524Y-62749255D01*
X79286306Y-62770896D01*
X79277684Y-62786643D01*
X79248817Y-62863648D01*
X79213784Y-62938265D01*
X79208475Y-62955819D01*
X79204638Y-62981493D01*
X79194964Y-63007299D01*
X79191109Y-63024833D01*
X79184134Y-63118693D01*
X79180694Y-63141710D01*
X79180001Y-63151034D01*
X79180001Y-63174306D01*
X79173644Y-63259836D01*
X79174865Y-63277748D01*
X79180001Y-63301808D01*
X79180001Y-64117009D01*
X75682691Y-60619700D01*
X75672493Y-60603537D01*
X75660857Y-60589865D01*
X75592383Y-60529392D01*
X75570740Y-60507748D01*
X75563967Y-60501876D01*
X75545880Y-60488320D01*
X75484227Y-60433871D01*
X75469222Y-60424015D01*
X75444739Y-60412521D01*
X75423104Y-60396306D01*
X75407357Y-60387684D01*
X75330364Y-60358821D01*
X75255736Y-60323783D01*
X75238181Y-60318475D01*
X75212504Y-60314637D01*
X75186701Y-60304964D01*
X75169167Y-60301109D01*
X75075321Y-60294135D01*
X75052291Y-60290693D01*
X75042966Y-60290000D01*
X75019681Y-60290000D01*
X74934164Y-60283644D01*
X74916252Y-60284865D01*
X74892197Y-60290000D01*
X74253402Y-60290000D01*
X74123095Y-60214767D01*
X74107835Y-60208446D01*
X73860438Y-60142156D01*
X73844062Y-60140000D01*
X73587938Y-60140000D01*
X73582000Y-60140782D01*
X73582000Y-59558499D01*
X96100163Y-59558499D01*
X96100163Y-61272258D01*
X96102319Y-61288634D01*
X96177137Y-61567859D01*
X96189880Y-61592339D01*
X96320990Y-61748590D01*
X96337879Y-61762761D01*
X96512120Y-61863359D01*
X96532837Y-61870900D01*
X96569029Y-61877282D01*
X96444029Y-62005822D01*
X96437263Y-62014074D01*
X96300683Y-62212798D01*
X96295403Y-62222073D01*
X96194260Y-62440968D01*
X96190619Y-62451000D01*
X96116085Y-62727233D01*
X96191734Y-62826000D01*
X98984863Y-62826000D01*
X99060373Y-62736487D01*
X99034499Y-62585114D01*
X99031817Y-62574784D01*
X98951723Y-62347343D01*
X98947339Y-62337612D01*
X98830067Y-62126916D01*
X98824107Y-62118064D01*
X98673013Y-61930140D01*
X98665647Y-61922417D01*
X98603130Y-61867107D01*
X98745859Y-61828863D01*
X98770339Y-61816120D01*
X98926590Y-61685010D01*
X98940761Y-61668121D01*
X99041359Y-61493880D01*
X99048900Y-61473163D01*
X99082878Y-61280462D01*
X99083837Y-61269501D01*
X99083837Y-59555742D01*
X99081681Y-59539366D01*
X99006863Y-59260142D01*
X98994120Y-59235662D01*
X98863010Y-59079410D01*
X98846121Y-59065239D01*
X98671880Y-58964641D01*
X98651163Y-58957100D01*
X98458462Y-58923122D01*
X98447501Y-58922163D01*
X96733742Y-58922163D01*
X96717366Y-58924319D01*
X96438142Y-58999137D01*
X96413662Y-59011880D01*
X96257410Y-59142990D01*
X96243239Y-59159879D01*
X96142641Y-59334120D01*
X96135100Y-59354837D01*
X96101122Y-59547538D01*
X96100163Y-59558499D01*
X73582000Y-59558499D01*
X73582000Y-54256914D01*
X73661833Y-54161435D01*
X73667962Y-54152698D01*
X73789256Y-53944294D01*
X73793825Y-53934650D01*
X73878272Y-53708787D01*
X73881151Y-53698511D01*
X73926392Y-53461351D01*
X73927507Y-53450128D01*
X73930077Y-53182341D01*
X73929178Y-53171099D01*
X73888499Y-52933114D01*
X73885817Y-52922784D01*
X73805723Y-52695343D01*
X73801339Y-52685612D01*
X73684067Y-52474916D01*
X73678107Y-52466064D01*
X73662377Y-52446499D01*
X75780163Y-52446499D01*
X75780163Y-54160258D01*
X75782319Y-54176634D01*
X75857137Y-54455859D01*
X75869880Y-54480339D01*
X76000990Y-54636590D01*
X76017879Y-54650761D01*
X76192120Y-54751359D01*
X76212837Y-54758900D01*
X76405538Y-54792878D01*
X76416499Y-54793837D01*
X78130258Y-54793837D01*
X78146634Y-54791681D01*
X78425859Y-54716863D01*
X78450339Y-54704120D01*
X78606590Y-54573010D01*
X78620761Y-54556121D01*
X78721359Y-54381880D01*
X78728900Y-54361163D01*
X78735525Y-54323593D01*
X78810798Y-54404032D01*
X78818722Y-54411180D01*
X79010792Y-54556968D01*
X79019808Y-54562679D01*
X79233696Y-54674021D01*
X79243545Y-54678131D01*
X79473134Y-54751844D01*
X79483535Y-54754236D01*
X79722262Y-54788212D01*
X79732917Y-54788817D01*
X79973956Y-54782084D01*
X79984561Y-54780885D01*
X80221019Y-54733636D01*
X80231270Y-54730667D01*
X80456387Y-54644253D01*
X80465991Y-54639600D01*
X80673330Y-54516491D01*
X80682012Y-54510286D01*
X80865645Y-54354004D01*
X80873158Y-54346424D01*
X81027833Y-54161435D01*
X81033962Y-54152698D01*
X81155256Y-53944294D01*
X81159825Y-53934650D01*
X81244272Y-53708787D01*
X81247151Y-53698511D01*
X81292392Y-53461351D01*
X81293507Y-53450128D01*
X81296077Y-53182341D01*
X81295178Y-53171099D01*
X81254499Y-52933114D01*
X81251817Y-52922784D01*
X81171723Y-52695343D01*
X81167339Y-52685612D01*
X81050067Y-52474916D01*
X81044107Y-52466064D01*
X81028377Y-52446499D01*
X83146163Y-52446499D01*
X83146163Y-54160258D01*
X83148319Y-54176634D01*
X83223137Y-54455859D01*
X83235880Y-54480339D01*
X83366990Y-54636590D01*
X83383879Y-54650761D01*
X83558120Y-54751359D01*
X83578837Y-54758900D01*
X83771538Y-54792878D01*
X83782499Y-54793837D01*
X85496258Y-54793837D01*
X85512634Y-54791681D01*
X85791859Y-54716863D01*
X85816339Y-54704120D01*
X85972590Y-54573010D01*
X85986761Y-54556121D01*
X86087359Y-54381880D01*
X86094900Y-54361163D01*
X86101525Y-54323593D01*
X86176798Y-54404032D01*
X86184722Y-54411180D01*
X86376792Y-54556968D01*
X86385808Y-54562679D01*
X86599696Y-54674021D01*
X86609545Y-54678131D01*
X86839134Y-54751845D01*
X86849535Y-54754236D01*
X86963162Y-54770407D01*
X87050000Y-54695052D01*
X87050001Y-53503808D01*
X87050000Y-53503807D01*
X87050000Y-53100192D01*
X87305999Y-53100192D01*
X87306000Y-53100193D01*
X87305999Y-54695748D01*
X87398217Y-54771362D01*
X87587019Y-54733636D01*
X87597270Y-54730667D01*
X87822387Y-54644253D01*
X87831991Y-54639600D01*
X88039330Y-54516491D01*
X88048012Y-54510286D01*
X88231645Y-54354004D01*
X88239158Y-54346424D01*
X88393833Y-54161435D01*
X88399962Y-54152698D01*
X88447486Y-54071043D01*
X88545430Y-54219584D01*
X88552038Y-54227965D01*
X88716798Y-54404032D01*
X88724722Y-54411180D01*
X88916792Y-54556968D01*
X88925808Y-54562679D01*
X89139696Y-54674021D01*
X89149545Y-54678131D01*
X89379134Y-54751844D01*
X89389535Y-54754236D01*
X89628262Y-54788212D01*
X89638917Y-54788817D01*
X89879956Y-54782084D01*
X89890561Y-54780885D01*
X90127019Y-54733636D01*
X90137270Y-54730667D01*
X90362387Y-54644253D01*
X90371991Y-54639600D01*
X90579330Y-54516491D01*
X90588012Y-54510286D01*
X90771645Y-54354004D01*
X90779158Y-54346424D01*
X90933833Y-54161435D01*
X90939962Y-54152698D01*
X91061256Y-53944294D01*
X91065825Y-53934650D01*
X91150272Y-53708787D01*
X91153151Y-53698511D01*
X91198392Y-53461351D01*
X91199507Y-53450128D01*
X91202077Y-53182341D01*
X91201178Y-53171099D01*
X91160499Y-52933114D01*
X91157817Y-52922784D01*
X91077723Y-52695343D01*
X91073339Y-52685612D01*
X90956067Y-52474916D01*
X90950107Y-52466064D01*
X90799013Y-52278140D01*
X90791647Y-52270417D01*
X90611049Y-52110638D01*
X90602486Y-52104267D01*
X90397549Y-51977202D01*
X90388036Y-51972365D01*
X90164619Y-51881645D01*
X90154427Y-51878480D01*
X89918919Y-51826700D01*
X89908340Y-51825298D01*
X89667475Y-51813939D01*
X89656809Y-51814339D01*
X89417474Y-51843727D01*
X89407030Y-51845918D01*
X89176068Y-51915210D01*
X89166142Y-51919130D01*
X88950155Y-52026346D01*
X88941032Y-52031882D01*
X88746199Y-52173957D01*
X88738138Y-52180952D01*
X88570029Y-52353822D01*
X88563263Y-52362074D01*
X88447229Y-52530903D01*
X88416067Y-52474916D01*
X88410107Y-52466064D01*
X88259013Y-52278140D01*
X88251647Y-52270417D01*
X88071049Y-52110638D01*
X88062486Y-52104267D01*
X87857549Y-51977202D01*
X87848036Y-51972365D01*
X87624619Y-51881645D01*
X87614427Y-51878480D01*
X87400096Y-51831356D01*
X87306000Y-51907011D01*
X87305999Y-53100192D01*
X87050000Y-53100192D01*
X87050001Y-51908201D01*
X86964981Y-51832982D01*
X86877474Y-51843726D01*
X86867030Y-51845918D01*
X86636068Y-51915210D01*
X86626142Y-51919130D01*
X86410155Y-52026346D01*
X86401032Y-52031882D01*
X86206199Y-52173957D01*
X86198138Y-52180952D01*
X86091137Y-52290983D01*
X86052863Y-52148142D01*
X86040120Y-52123662D01*
X85909010Y-51967410D01*
X85892121Y-51953239D01*
X85717880Y-51852641D01*
X85697163Y-51845100D01*
X85504462Y-51811122D01*
X85493501Y-51810163D01*
X83779742Y-51810163D01*
X83763366Y-51812319D01*
X83484142Y-51887137D01*
X83459662Y-51899880D01*
X83303410Y-52030990D01*
X83289239Y-52047879D01*
X83188641Y-52222120D01*
X83181100Y-52242837D01*
X83147122Y-52435538D01*
X83146163Y-52446499D01*
X81028377Y-52446499D01*
X80893013Y-52278140D01*
X80885647Y-52270417D01*
X80705049Y-52110638D01*
X80696486Y-52104267D01*
X80491549Y-51977202D01*
X80482036Y-51972365D01*
X80258619Y-51881645D01*
X80248427Y-51878480D01*
X80012919Y-51826700D01*
X80002340Y-51825298D01*
X79761475Y-51813939D01*
X79750809Y-51814339D01*
X79511474Y-51843727D01*
X79501030Y-51845918D01*
X79270068Y-51915210D01*
X79260142Y-51919130D01*
X79044155Y-52026346D01*
X79035032Y-52031882D01*
X78840199Y-52173957D01*
X78832138Y-52180952D01*
X78725137Y-52290983D01*
X78686863Y-52148142D01*
X78674120Y-52123662D01*
X78543010Y-51967410D01*
X78526121Y-51953239D01*
X78351880Y-51852641D01*
X78331163Y-51845100D01*
X78138462Y-51811122D01*
X78127501Y-51810163D01*
X76413742Y-51810163D01*
X76397366Y-51812319D01*
X76118142Y-51887137D01*
X76093662Y-51899880D01*
X75937410Y-52030990D01*
X75923239Y-52047879D01*
X75822641Y-52222120D01*
X75815100Y-52242837D01*
X75781122Y-52435538D01*
X75780163Y-52446499D01*
X73662377Y-52446499D01*
X73527013Y-52278140D01*
X73519647Y-52270417D01*
X73339049Y-52110638D01*
X73330486Y-52104267D01*
X73125549Y-51977202D01*
X73116036Y-51972365D01*
X72892619Y-51881645D01*
X72882427Y-51878480D01*
X72646919Y-51826700D01*
X72636340Y-51825298D01*
X72395475Y-51813939D01*
X72384809Y-51814339D01*
X72145474Y-51843727D01*
X72135030Y-51845918D01*
X71904068Y-51915210D01*
X71894142Y-51919130D01*
X71678155Y-52026346D01*
X71669032Y-52031882D01*
X71474199Y-52173957D01*
X71466138Y-52180952D01*
X71359137Y-52290983D01*
X71320863Y-52148142D01*
X71308120Y-52123662D01*
X71177010Y-51967410D01*
X71160121Y-51953239D01*
X70985880Y-51852641D01*
X70965163Y-51845100D01*
X70772462Y-51811122D01*
X70761501Y-51810163D01*
X69047742Y-51810163D01*
X69031366Y-51812319D01*
X68752142Y-51887137D01*
X68727662Y-51899880D01*
X68571410Y-52030990D01*
X68557239Y-52047879D01*
X68456641Y-52222120D01*
X68449100Y-52242837D01*
X68415122Y-52435538D01*
X68414163Y-52446499D01*
X68414163Y-54160258D01*
X68416319Y-54176634D01*
X68491137Y-54455859D01*
X68503880Y-54480339D01*
X68634990Y-54636590D01*
X68651879Y-54650761D01*
X68826120Y-54751359D01*
X68846837Y-54758900D01*
X69039538Y-54792878D01*
X69050499Y-54793837D01*
X70764258Y-54793837D01*
X70780634Y-54791681D01*
X71059859Y-54716863D01*
X71084339Y-54704120D01*
X71240590Y-54573010D01*
X71254761Y-54556121D01*
X71310000Y-54460444D01*
X71310001Y-62086585D01*
X71303751Y-62178258D01*
X71304546Y-62193429D01*
X71321759Y-62292052D01*
X71333777Y-62391369D01*
X71337401Y-62406124D01*
X71345330Y-62427106D01*
X71349188Y-62449212D01*
X71353579Y-62463757D01*
X71393812Y-62555408D01*
X71429181Y-62649011D01*
X71436219Y-62662475D01*
X71448928Y-62680967D01*
X71458012Y-62701661D01*
X71465949Y-62715002D01*
X71521856Y-62787077D01*
X71583286Y-62876460D01*
X71593334Y-62887856D01*
X71666485Y-62953032D01*
X72188851Y-63475398D01*
X72249257Y-63544642D01*
X72260547Y-63554808D01*
X72342447Y-63612369D01*
X72421179Y-63674103D01*
X72434173Y-63681972D01*
X72454619Y-63691204D01*
X72472981Y-63704109D01*
X72486369Y-63711288D01*
X72579620Y-63747645D01*
X72670821Y-63788824D01*
X72685317Y-63793366D01*
X72707378Y-63797455D01*
X72728439Y-63805667D01*
X72743484Y-63809488D01*
X72833969Y-63820918D01*
X72940620Y-63840685D01*
X72955783Y-63841639D01*
X73053580Y-63836000D01*
X74007455Y-63836000D01*
X76644000Y-66472545D01*
X76644000Y-69940000D01*
X74960937Y-69940000D01*
X74914627Y-69959182D01*
X74171810Y-70702000D01*
X70974190Y-70702000D01*
X70794000Y-70521810D01*
X70794000Y-63663809D01*
X70720191Y-63590000D01*
X65027809Y-63590000D01*
X64954000Y-63663809D01*
X63589961Y-63663809D01*
X63629256Y-63596294D01*
X63633825Y-63586650D01*
X63718272Y-63360787D01*
X63721151Y-63350511D01*
X63754943Y-63173369D01*
X63679356Y-63082000D01*
X60888272Y-63082000D01*
X60812602Y-63178853D01*
X60875221Y-63430005D01*
X60878669Y-63440104D01*
X60975591Y-63660900D01*
X60980692Y-63670275D01*
X61113430Y-63871584D01*
X61120038Y-63879965D01*
X61284798Y-64056032D01*
X61292722Y-64063180D01*
X61484792Y-64208968D01*
X61493808Y-64214679D01*
X61510166Y-64223194D01*
X61509032Y-64223882D01*
X61314199Y-64365957D01*
X61306138Y-64372952D01*
X61138029Y-64545822D01*
X61131263Y-64554074D01*
X60994683Y-64752798D01*
X60989403Y-64762073D01*
X60888260Y-64980968D01*
X60884618Y-64991000D01*
X60821802Y-65223807D01*
X60819903Y-65234309D01*
X60797211Y-65474372D01*
X60797109Y-65485043D01*
X60634000Y-65485043D01*
X60634000Y-59558499D01*
X60794163Y-59558499D01*
X60794163Y-61272258D01*
X60796319Y-61288634D01*
X60871137Y-61567859D01*
X60883880Y-61592339D01*
X61014990Y-61748590D01*
X61031879Y-61762761D01*
X61206120Y-61863359D01*
X61226837Y-61870900D01*
X61263029Y-61877282D01*
X61138029Y-62005822D01*
X61131263Y-62014074D01*
X60994683Y-62212798D01*
X60989403Y-62222073D01*
X60888260Y-62440968D01*
X60884619Y-62451000D01*
X60810085Y-62727233D01*
X60885734Y-62826000D01*
X63678863Y-62826000D01*
X63754373Y-62736487D01*
X63728499Y-62585114D01*
X63725817Y-62574784D01*
X63645723Y-62347343D01*
X63641339Y-62337612D01*
X63524067Y-62126916D01*
X63518107Y-62118064D01*
X63367013Y-61930140D01*
X63359647Y-61922417D01*
X63297130Y-61867107D01*
X63439859Y-61828863D01*
X63464339Y-61816120D01*
X63620590Y-61685010D01*
X63634761Y-61668121D01*
X63735359Y-61493880D01*
X63742900Y-61473163D01*
X63776878Y-61280462D01*
X63777837Y-61269501D01*
X63777837Y-59555742D01*
X63775681Y-59539366D01*
X63700863Y-59260142D01*
X63688120Y-59235662D01*
X63557010Y-59079410D01*
X63540121Y-59065239D01*
X63365880Y-58964641D01*
X63345163Y-58957100D01*
X63152462Y-58923122D01*
X63141501Y-58922163D01*
X61427742Y-58922163D01*
X61411366Y-58924319D01*
X61132142Y-58999137D01*
X61107662Y-59011880D01*
X60951410Y-59142990D01*
X60937239Y-59159879D01*
X60836641Y-59334120D01*
X60829100Y-59354837D01*
X60795122Y-59547538D01*
X60794163Y-59558499D01*
X60634000Y-59558499D01*
X60634000Y-54045567D01*
X60810551Y-54214873D01*
X60817133Y-54220377D01*
X61056605Y-54394363D01*
X61063873Y-54398922D01*
X61324740Y-54538798D01*
X61332560Y-54542329D01*
X61609998Y-54645507D01*
X61618224Y-54647944D01*
X61907098Y-54712514D01*
X61915579Y-54713812D01*
X62210543Y-54738581D01*
X62219122Y-54738716D01*
X62514718Y-54723225D01*
X62523236Y-54722194D01*
X62813996Y-54666728D01*
X62822295Y-54664551D01*
X63102836Y-54570138D01*
X63110762Y-54566855D01*
X63375895Y-54435242D01*
X63383303Y-54430914D01*
X63628121Y-54264536D01*
X63634873Y-54259242D01*
X63854846Y-54061178D01*
X63860816Y-54055016D01*
X64051873Y-53828930D01*
X64056953Y-53822015D01*
X64215559Y-53572093D01*
X64219653Y-53564553D01*
X64342873Y-53295417D01*
X64345905Y-53287391D01*
X64431459Y-53004022D01*
X64433375Y-52995659D01*
X64479731Y-52702974D01*
X64480505Y-52693766D01*
X64484073Y-52352988D01*
X64483493Y-52343766D01*
X64443276Y-52050176D01*
X64441536Y-52041774D01*
X64361936Y-51756675D01*
X64359072Y-51748588D01*
X64241515Y-51476930D01*
X64237580Y-51469306D01*
X64084243Y-51216116D01*
X64079309Y-51209096D01*
X63893029Y-50979060D01*
X63887188Y-50972775D01*
X63671412Y-50770147D01*
X63664772Y-50764713D01*
X63480842Y-50634000D01*
X96520368Y-50634000D01*
X96353476Y-50749992D01*
G37*
%TD.AperFunction*%
%TD*%
M02*
